<svg width="30" height="30" viewBox="0 0 30 30" fill="none" xmlns="http://www.w3.org/2000/svg">
<path fill-rule="evenodd" clip-rule="evenodd" d="M15.0902 18.9601V17.252H10.9912L9.89683 19.3876C9.6607 19.8484 9.09574 20.0305 8.63495 19.7944C8.17416 19.5583 7.99204 18.9933 8.22817 18.5325L11.8079 11.5469C12.2749 10.6357 13.2126 10.0626 14.2364 10.0626C15.7435 10.0626 16.9652 11.2843 16.9652 12.7913V18.9601C16.9652 19.4778 16.5454 19.8976 16.0277 19.8976C15.5099 19.8976 15.0902 19.4778 15.0902 18.9601ZM13.4766 12.402C13.6227 12.1169 13.9161 11.9376 14.2364 11.9376C14.7079 11.9376 15.0902 12.3198 15.0902 12.7913V15.377H11.952L13.4766 12.402Z" fill="white"/>
<path d="M21.25 11.0001C21.25 10.4823 20.8303 10.0626 20.3125 10.0626C19.7947 10.0626 19.375 10.4823 19.375 11.0001V18.9603C19.375 19.478 19.7947 19.8978 20.3125 19.8978C20.8303 19.8978 21.25 19.478 21.25 18.9603V11.0001Z" fill="white"/>
<path fill-rule="evenodd" clip-rule="evenodd" d="M8.125 2.8125C5.19099 2.8125 2.8125 5.19099 2.8125 8.125V21.875C2.8125 24.809 5.19099 27.1875 8.125 27.1875H21.875C24.809 27.1875 27.1875 24.809 27.1875 21.875V8.125C27.1875 5.19099 24.809 2.8125 21.875 2.8125H8.125ZM4.6875 8.125C4.6875 6.22652 6.22652 4.6875 8.125 4.6875H21.875C23.7735 4.6875 25.3125 6.22652 25.3125 8.125V21.875C25.3125 23.7735 23.7735 25.3125 21.875 25.3125H8.125C6.22652 25.3125 4.6875 23.7735 4.6875 21.875V8.125Z" fill="white"/>
</svg>
