<svg width="42" height="43" viewBox="0 0 42 43" fill="none" xmlns="http://www.w3.org/2000/svg">
<g filter="url(#filter0_i_9228_687)">
<rect y="0.0605469" width="42" height="42" rx="8" fill="#FF642B"/>
<path d="M12.4434 31.9104C11.7963 31.9104 11.2524 31.69 10.8117 31.2491C10.3708 30.8084 10.1504 30.2646 10.1504 29.6174C10.1504 28.9703 10.3708 28.4269 10.8117 27.9871C11.2524 27.5471 11.7963 27.3271 12.4434 27.3271C13.0905 27.3271 13.6339 27.5471 14.0737 27.9871C14.5137 28.4269 14.7337 28.9703 14.7337 29.6174C14.7337 30.2646 14.5137 30.8084 14.0737 31.2491C13.6339 31.69 13.0905 31.9104 12.4434 31.9104ZM21.0034 31.9104C20.3578 31.9104 19.8147 31.69 19.3741 31.2491C18.9332 30.8084 18.7127 30.2646 18.7127 29.6174C18.7127 28.9703 18.9322 28.4269 19.3711 27.9871C19.8097 27.5471 20.3518 27.3271 20.9974 27.3271C21.6429 27.3271 22.1861 27.5471 22.6267 27.9871C23.0676 28.4269 23.2881 28.9703 23.2881 29.6174C23.2881 30.2646 23.0686 30.8084 22.6297 31.2491C22.1911 31.69 21.6489 31.9104 21.0034 31.9104ZM29.5574 31.9104C28.9103 31.9104 28.3668 31.69 27.9271 31.2491C27.4871 30.8084 27.2671 30.2646 27.2671 29.6174C27.2671 28.9703 27.4871 28.4269 27.9271 27.9871C28.3668 27.5471 28.9103 27.3271 29.5574 27.3271C30.2045 27.3271 30.7484 27.5471 31.1891 27.9871C31.6299 28.4269 31.8504 28.9703 31.8504 29.6174C31.8504 30.2646 31.6299 30.8084 31.1891 31.2491C30.7484 31.69 30.2045 31.9104 29.5574 31.9104ZM12.4434 23.3481C11.7963 23.3481 11.2524 23.1287 10.8117 22.6898C10.3708 22.2511 10.1504 21.709 10.1504 21.0634C10.1504 20.4179 10.3708 19.8748 10.8117 19.4341C11.2524 18.9932 11.7963 18.7728 12.4434 18.7728C13.0905 18.7728 13.6339 18.9922 14.0737 19.4311C14.5137 19.8698 14.7337 20.4119 14.7337 21.0574C14.7337 21.703 14.5137 22.2461 14.0737 22.6868C13.6339 23.1277 13.0905 23.3481 12.4434 23.3481ZM21.0034 23.3481C20.3578 23.3481 19.8147 23.1287 19.3741 22.6898C18.9332 22.2511 18.7127 21.709 18.7127 21.0634C18.7127 20.4179 18.9322 19.8748 19.3711 19.4341C19.8097 18.9932 20.3518 18.7728 20.9974 18.7728C21.6429 18.7728 22.1861 18.9922 22.6267 19.4311C23.0676 19.8698 23.2881 20.4119 23.2881 21.0574C23.2881 21.703 23.0686 22.2461 22.6297 22.6868C22.1911 23.1277 21.6489 23.3481 21.0034 23.3481ZM29.5574 23.3481C28.9103 23.3481 28.3668 23.1287 27.9271 22.6898C27.4871 22.2511 27.2671 21.709 27.2671 21.0634C27.2671 20.4179 27.4871 19.8748 27.9271 19.4341C28.3668 18.9932 28.9103 18.7728 29.5574 18.7728C30.2045 18.7728 30.7484 18.9922 31.1891 19.4311C31.6299 19.8698 31.8504 20.4119 31.8504 21.0574C31.8504 21.703 31.6299 22.2461 31.1891 22.6868C30.7484 23.1277 30.2045 23.3481 29.5574 23.3481ZM12.4434 14.7938C11.7963 14.7938 11.2524 14.5738 10.8117 14.1338C10.3708 13.694 10.1504 13.1506 10.1504 12.5034C10.1504 11.8563 10.3708 11.3125 10.8117 10.8718C11.2524 10.4309 11.7963 10.2104 12.4434 10.2104C13.0905 10.2104 13.6339 10.4309 14.0737 10.8718C14.5137 11.3125 14.7337 11.8563 14.7337 12.5034C14.7337 13.1506 14.5137 13.694 14.0737 14.1338C13.6339 14.5738 13.0905 14.7938 12.4434 14.7938ZM21.0034 14.7938C20.3578 14.7938 19.8147 14.5738 19.3741 14.1338C18.9332 13.694 18.7127 13.1506 18.7127 12.5034C18.7127 11.8563 18.9322 11.3125 19.3711 10.8718C19.8097 10.4309 20.3518 10.2104 20.9974 10.2104C21.6429 10.2104 22.1861 10.4309 22.6267 10.8718C23.0676 11.3125 23.2881 11.8563 23.2881 12.5034C23.2881 13.1506 23.0686 13.694 22.6297 14.1338C22.1911 14.5738 21.6489 14.7938 21.0034 14.7938ZM29.5574 14.7938C28.9103 14.7938 28.3668 14.5738 27.9271 14.1338C27.4871 13.694 27.2671 13.1506 27.2671 12.5034C27.2671 11.8563 27.4871 11.3125 27.9271 10.8718C28.3668 10.4309 28.9103 10.2104 29.5574 10.2104C30.2045 10.2104 30.7484 10.4309 31.1891 10.8718C31.6299 11.3125 31.8504 11.8563 31.8504 12.5034C31.8504 13.1506 31.6299 13.694 31.1891 14.1338C30.7484 14.5738 30.2045 14.7938 29.5574 14.7938Z" fill="white"/>
</g>
<defs>
<filter id="filter0_i_9228_687" x="0" y="-3.93945" width="42" height="46" filterUnits="userSpaceOnUse" color-interpolation-filters="sRGB">
<feFlood flood-opacity="0" result="BackgroundImageFix"/>
<feBlend mode="normal" in="SourceGraphic" in2="BackgroundImageFix" result="shape"/>
<feColorMatrix in="SourceAlpha" type="matrix" values="0 0 0 0 0 0 0 0 0 0 0 0 0 0 0 0 0 0 127 0" result="hardAlpha"/>
<feOffset dy="-4"/>
<feGaussianBlur stdDeviation="2"/>
<feComposite in2="hardAlpha" operator="arithmetic" k2="-1" k3="1"/>
<feColorMatrix type="matrix" values="0 0 0 0 1 0 0 0 0 0.596078 0 0 0 0 0.501961 0 0 0 1 0"/>
<feBlend mode="normal" in2="shape" result="effect1_innerShadow_9228_687"/>
</filter>
</defs>
</svg>
