<svg width="30" height="30" viewBox="0 0 30 30" fill="none" xmlns="http://www.w3.org/2000/svg">
<path d="M3.75 4.6875C4.26777 4.6875 4.6875 5.10723 4.6875 5.625V21.875C4.6875 23.7735 6.22652 25.3125 8.125 25.3125H26.25C26.7678 25.3125 27.1875 25.7322 27.1875 26.25C27.1875 26.7678 26.7678 27.1875 26.25 27.1875H8.125C5.19099 27.1875 2.8125 24.809 2.8125 21.875V5.625C2.8125 5.10723 3.23223 4.6875 3.75 4.6875Z" fill="white"/>
<path d="M24.2057 10.7167L24.482 13.8905C24.5269 14.4063 24.9814 14.7881 25.4973 14.7431C26.0131 14.6982 26.3948 14.2437 26.3499 13.7279L25.977 9.44435C25.8579 8.07479 24.5091 7.13025 23.1813 7.48682L19.0292 8.60194C18.5291 8.73623 18.2326 9.25046 18.3669 9.75051C18.5012 10.2506 19.0154 10.5471 19.5155 10.4128L22.7401 9.54677L18.5268 15.0049L14.9879 12.7931C14.1531 12.2714 13.0569 12.4841 12.4778 13.2803L7.99181 19.4486C7.68727 19.8673 7.77985 20.4536 8.19859 20.7582C8.61733 21.0627 9.20365 20.9701 9.50819 20.5514L13.9942 14.3831L17.533 16.5949C18.3504 17.1058 19.422 16.9137 20.011 16.1506L24.2057 10.7167Z" fill="white"/>
</svg>
