<svg width="28" height="25" viewBox="0 0 28 25" fill="none" xmlns="http://www.w3.org/2000/svg">
<path d="M17.75 1.9375C16.1936 1.9375 14.7946 2.60559 13.8217 3.67352C13.5431 3.9793 13.097 4.06636 12.7239 3.88776C11.7867 3.43917 10.7366 3.1875 9.625 3.1875C5.65545 3.1875 2.4375 6.40545 2.4375 10.375C2.4375 13.5715 4.52479 16.2829 7.41319 17.216C7.90589 17.3752 8.17627 17.9036 8.01711 18.3963C7.85794 18.889 7.32951 19.1594 6.83681 19.0002C3.19705 17.8244 0.5625 14.4086 0.5625 10.375C0.5625 5.36992 4.61992 1.3125 9.625 1.3125C10.7851 1.3125 11.8961 1.53095 12.9176 1.92945C14.1932 0.770355 15.8895 0.0625 17.75 0.0625C21.7195 0.0625 24.9375 3.28045 24.9375 7.25C24.9375 8.00702 24.8202 8.73787 24.6024 9.42461C26.2879 10.3147 27.4375 12.0847 27.4375 14.125C27.4375 16.8021 25.4581 19.0154 22.8827 19.3837C22.3702 19.4571 21.8953 19.101 21.8219 18.5884C21.7486 18.0759 22.1047 17.601 22.6173 17.5276C24.2822 17.2895 25.5625 15.8559 25.5625 14.125C25.5625 12.5748 24.5356 11.262 23.1229 10.8343C22.8613 10.7551 22.6474 10.5658 22.5369 10.3158C22.4265 10.0658 22.4307 9.78014 22.5483 9.53348C22.8777 8.84286 23.0625 8.06933 23.0625 7.25C23.0625 4.31599 20.684 1.9375 17.75 1.9375Z" fill="white"/>
<path d="M14.95 17.3125C14.4322 17.3125 14.0125 17.7322 14.0125 18.25C14.0125 18.7678 14.4322 19.1875 14.95 19.1875H14.9625C15.4803 19.1875 15.9 18.7678 15.9 18.25C15.9 17.7322 15.4803 17.3125 14.9625 17.3125H14.95Z" fill="white"/>
<path fill-rule="evenodd" clip-rule="evenodd" d="M14.5774 12.3126C13.9911 12.3126 13.2149 12.5367 12.842 13.2768L12.4677 14.0004L11.7011 13.9729C10.8411 13.8805 10.2024 14.4878 9.91247 14.9977L9.90347 15.0139L9.60724 15.5598C9.27922 16.1435 9.21831 16.9065 9.57235 17.4995L10.0168 18.2142L9.59311 18.8672C9.12527 19.5772 9.31902 20.3833 9.61243 20.8994L9.96662 21.5096C9.98106 21.5345 9.99663 21.5587 10.0133 21.5821C10.3818 22.1006 10.9868 22.5293 11.6774 22.5293C11.6887 22.5293 11.6999 22.5291 11.7111 22.5287L12.5177 22.4997L12.8948 23.2286C12.9035 23.2455 12.9128 23.2621 12.9225 23.2784C13.2665 23.8545 13.9488 24.1876 14.6274 24.1876H15.2774C15.8638 24.1876 16.64 23.9634 17.0129 23.2233L17.3872 22.4997L18.1538 22.5272C19.0138 22.6196 19.6525 22.0124 19.9424 21.5024L19.9514 21.4862L20.2477 20.9403C20.4267 20.6216 20.51 20.2731 20.5207 19.952C20.5311 19.6393 20.4745 19.2719 20.2825 18.9503L19.8381 18.2356L20.2618 17.5826C20.7296 16.8726 20.5358 16.0665 20.2424 15.5505C20.2351 15.5376 20.2275 15.5249 20.2195 15.5124L19.8695 14.9596C19.8606 14.9455 19.8513 14.9316 19.8416 14.918C19.4731 14.3995 18.868 13.9709 18.1774 13.9709C18.1662 13.9709 18.155 13.9711 18.1438 13.9715L17.3372 14.0004L16.9601 13.2715C16.9514 13.2546 16.9421 13.2381 16.9324 13.2218C16.5884 12.6456 15.9061 12.3126 15.2274 12.3126H14.5774ZM14.087 14.9509L14.4772 14.1968L14.4785 14.1965C14.5026 14.1915 14.5358 14.1876 14.5774 14.1876H15.2274C15.2712 14.1876 15.3096 14.1988 15.3357 14.2122L15.7179 14.9509C16.023 15.5407 16.6409 15.9016 17.3045 15.8778L18.1476 15.8475L18.1525 15.8501L18.1621 15.8557C18.1981 15.8774 18.2498 15.9195 18.3015 15.9882L18.6208 16.4924C18.6369 16.5227 18.6482 16.55 18.6557 16.5731C18.6592 16.5841 18.6617 16.5935 18.6635 16.6013L18.2106 17.2992C17.8482 17.8576 17.8413 18.5752 18.1929 19.1406L18.6467 19.8703L18.6468 19.8768L18.6467 19.8898C18.6459 19.9133 18.6423 19.9393 18.6354 19.9646C18.6286 19.9899 18.6201 20.0094 18.6125 20.0229L18.6035 20.0391L18.3091 20.5814C18.294 20.6071 18.2774 20.629 18.2615 20.6464L18.2536 20.6546L17.3545 20.6223C16.6909 20.5985 16.073 20.9595 15.7679 21.5492L15.3777 22.3033L15.3764 22.3036C15.3523 22.3086 15.3191 22.3126 15.2774 22.3126H14.6274C14.5837 22.3126 14.5453 22.3013 14.5192 22.2879L14.137 21.5492C13.8318 20.9595 13.214 20.5985 12.5504 20.6223L11.7073 20.6526L11.6991 20.6482L11.6928 20.6445C11.6588 20.624 11.6109 20.5853 11.5621 20.5233L11.2408 19.9698C11.221 19.9346 11.2076 19.9029 11.1992 19.8768C11.1956 19.8658 11.1932 19.8564 11.1914 19.8486L11.6443 19.1507C12.0067 18.5922 12.0136 17.8746 11.662 17.3093L11.2085 16.5801C11.2107 16.5546 11.2197 16.5172 11.2424 16.4773L11.2514 16.4611L11.5458 15.9187C11.5609 15.8931 11.5775 15.8711 11.5934 15.8538L11.6013 15.8455L12.5004 15.8778C13.164 15.9016 13.7818 15.5407 14.087 14.9509Z" fill="white"/>
</svg>
