<svg width="30" height="30" viewBox="0 0 30 30" fill="none" xmlns="http://www.w3.org/2000/svg">
<path d="M18.75 4.9375C17.1936 4.9375 15.7946 5.60559 14.8217 6.67352C14.5431 6.9793 14.097 7.06636 13.7239 6.88776C12.7867 6.43917 11.7366 6.1875 10.625 6.1875C6.65545 6.1875 3.4375 9.40545 3.4375 13.375C3.4375 16.5715 5.52479 19.2829 8.41319 20.216C8.90589 20.3752 9.17627 20.9036 9.01711 21.3963C8.85794 21.889 8.32951 22.1594 7.83681 22.0002C4.19705 20.8244 1.5625 17.4086 1.5625 13.375C1.5625 8.36992 5.61992 4.3125 10.625 4.3125C11.7851 4.3125 12.8961 4.53095 13.9176 4.92945C15.1932 3.77036 16.8895 3.0625 18.75 3.0625C22.7195 3.0625 25.9375 6.28045 25.9375 10.25C25.9375 11.007 25.8202 11.7379 25.6024 12.4246C27.2879 13.3147 28.4375 15.0847 28.4375 17.125C28.4375 19.8021 26.4581 22.0154 23.8827 22.3837C23.3702 22.4571 22.8953 22.101 22.8219 21.5884C22.7486 21.0759 23.1047 20.601 23.6173 20.5276C25.2822 20.2895 26.5625 18.8559 26.5625 17.125C26.5625 15.5748 25.5356 14.262 24.1229 13.8343C23.8613 13.7551 23.6474 13.5658 23.5369 13.3158C23.4265 13.0658 23.4307 12.7801 23.5483 12.5335C23.8777 11.8429 24.0625 11.0693 24.0625 10.25C24.0625 7.31599 21.684 4.9375 18.75 4.9375Z" fill="white"/>
<path d="M15.95 20.3125C15.4322 20.3125 15.0125 20.7322 15.0125 21.25C15.0125 21.7678 15.4322 22.1875 15.95 22.1875H15.9625C16.4803 22.1875 16.9 21.7678 16.9 21.25C16.9 20.7322 16.4803 20.3125 15.9625 20.3125H15.95Z" fill="white"/>
<path fill-rule="evenodd" clip-rule="evenodd" d="M15.5774 15.3126C14.9911 15.3126 14.2149 15.5367 13.842 16.2768L13.4677 17.0004L12.7011 16.9729C11.8411 16.8805 11.2024 17.4878 10.9125 17.9977L10.9035 18.0139L10.6072 18.5598C10.2792 19.1435 10.2183 19.9065 10.5723 20.4995L11.0168 21.2142L10.5931 21.8672C10.1253 22.5772 10.319 23.3833 10.6124 23.8994L10.9666 24.5096C10.9811 24.5345 10.9966 24.5587 11.0133 24.5821C11.3818 25.1006 11.9868 25.5293 12.6774 25.5293C12.6887 25.5293 12.6999 25.5291 12.7111 25.5287L13.5177 25.4997L13.8948 26.2286C13.9035 26.2455 13.9128 26.2621 13.9225 26.2784C14.2665 26.8545 14.9488 27.1876 15.6274 27.1876H16.2774C16.8638 27.1876 17.64 26.9634 18.0129 26.2233L18.3872 25.4997L19.1538 25.5272C20.0138 25.6196 20.6525 25.0124 20.9424 24.5024L20.9514 24.4862L21.2477 23.9403C21.4267 23.6216 21.51 23.2731 21.5207 22.952C21.531 22.6393 21.4745 22.2719 21.2825 21.9503L20.8381 21.2356L21.2618 20.5826C21.7296 19.8726 21.5358 19.0665 21.2424 18.5505C21.2351 18.5376 21.2275 18.5249 21.2195 18.5124L20.8695 17.9596C20.8606 17.9455 20.8513 17.9316 20.8416 17.918C20.4731 17.3995 19.868 16.9709 19.1774 16.9709C19.1662 16.9709 19.155 16.9711 19.1438 16.9715L18.3372 17.0004L17.9601 16.2715C17.9514 16.2546 17.9421 16.2381 17.9324 16.2218C17.5884 15.6456 16.9061 15.3126 16.2274 15.3126H15.5774ZM15.087 17.9509L15.4772 17.1968L15.4785 17.1965C15.5026 17.1915 15.5358 17.1876 15.5774 17.1876H16.2274C16.2712 17.1876 16.3096 17.1988 16.3357 17.2122L16.7179 17.9509C17.023 18.5407 17.6409 18.9016 18.3045 18.8778L19.1476 18.8475L19.1525 18.8501L19.1621 18.8557C19.1981 18.8774 19.2498 18.9195 19.3015 18.9882L19.6208 19.4924C19.6369 19.5227 19.6482 19.55 19.6557 19.5731C19.6592 19.5841 19.6617 19.5935 19.6635 19.6013L19.2106 20.2992C18.8482 20.8576 18.8413 21.5752 19.1929 22.1406L19.6467 22.8703L19.6468 22.8768L19.6467 22.8898C19.6459 22.9133 19.6423 22.9393 19.6354 22.9646C19.6286 22.9899 19.6201 23.0094 19.6125 23.0229L19.6035 23.0391L19.3091 23.5814C19.294 23.6071 19.2774 23.629 19.2615 23.6464L19.2536 23.6546L18.3545 23.6223C17.6909 23.5985 17.073 23.9595 16.7679 24.5492L16.3777 25.3033L16.3764 25.3036C16.3523 25.3086 16.3191 25.3126 16.2774 25.3126H15.6274C15.5837 25.3126 15.5453 25.3013 15.5192 25.2879L15.137 24.5492C14.8318 23.9595 14.214 23.5985 13.5504 23.6223L12.7073 23.6526L12.6991 23.6482L12.6928 23.6445C12.6588 23.624 12.6109 23.5853 12.5621 23.5233L12.2408 22.9698C12.221 22.9346 12.2076 22.9029 12.1992 22.8768C12.1956 22.8658 12.1932 22.8564 12.1914 22.8486L12.6443 22.1507C13.0067 21.5922 13.0136 20.8746 12.662 20.3093L12.2085 19.5801C12.2107 19.5546 12.2197 19.5172 12.2424 19.4773L12.2514 19.4611L12.5457 18.9187C12.5609 18.8931 12.5775 18.8711 12.5934 18.8538L12.6013 18.8455L13.5004 18.8778C14.164 18.9016 14.7818 18.5407 15.087 17.9509Z" fill="white"/>
</svg>
