<svg width="42" height="43" viewBox="0 0 42 43" fill="none" xmlns="http://www.w3.org/2000/svg">
<rect y="0.0605469" width="42" height="42" rx="8" fill="#2B7FFF"/>
<path d="M9.73877 33.4593C9.12544 33.4593 8.59366 33.2341 8.14344 32.7837C7.693 32.3334 7.46777 31.8017 7.46777 31.1883V24.165C7.46777 23.5572 7.693 23.0268 8.14344 22.5737C8.59366 22.1206 9.12544 21.894 9.73877 21.894H15.8098C16.0653 21.894 16.2901 21.9731 16.4841 22.1313C16.6781 22.2896 16.7977 22.4973 16.8428 22.7547C17.0241 23.7631 17.4984 24.5773 18.2658 25.1973C19.0329 25.8173 19.9444 26.1273 21.0004 26.1273C22.0564 26.1273 22.968 25.8173 23.7351 25.1973C24.5024 24.5773 24.9768 23.7631 25.1581 22.7547C25.2032 22.4973 25.3228 22.2896 25.5168 22.1313C25.7108 21.9731 25.9356 21.894 26.1911 21.894H32.2621C32.8777 21.894 33.4113 22.1206 33.8631 22.5737C34.3151 23.0268 34.5411 23.5572 34.5411 24.165V31.1883C34.5411 31.8017 34.3151 32.3334 33.8631 32.7837C33.4113 33.2341 32.8777 33.4593 32.2621 33.4593H9.73877ZM9.73877 31.1883H32.2621V24.165H27.0184C26.576 25.4423 25.8183 26.4672 24.7454 27.2397C23.6728 28.0121 22.4238 28.3983 20.9984 28.3983C19.5731 28.3983 18.3026 28.0121 17.1868 27.2397C16.0708 26.4672 15.336 25.4423 14.9824 24.165H9.73877V31.1883ZM28.0591 18.3147C27.8327 18.0853 27.7194 17.8139 27.7194 17.5003C27.7194 17.1868 27.8327 16.9153 28.0591 16.686L31.1258 13.6193C31.3524 13.3927 31.6177 13.2849 31.9214 13.296C32.2252 13.3071 32.4918 13.4273 32.7211 13.6567C32.9502 13.886 33.0648 14.1568 33.0648 14.469C33.0648 14.7812 32.9489 15.0507 32.7171 15.2773L29.6504 18.344C29.4238 18.5758 29.1586 18.6861 28.8548 18.675C28.551 18.6639 28.2858 18.5438 28.0591 18.3147ZM13.9751 18.3147C13.7484 18.5438 13.4777 18.6583 13.1628 18.6583C12.8479 18.6583 12.5771 18.5424 12.3504 18.3107L9.25044 15.244C9.01866 15.016 8.90833 14.7518 8.91944 14.4513C8.93055 14.1509 9.05066 13.886 9.27977 13.6567C9.50911 13.4273 9.78122 13.3127 10.0961 13.3127C10.411 13.3127 10.6818 13.426 10.9084 13.6527L13.9751 16.7193C14.2016 16.9487 14.3148 17.2146 14.3148 17.517C14.3148 17.8194 14.2016 18.0853 13.9751 18.3147ZM20.9944 15.1583C20.6724 15.1583 20.4037 15.0492 20.1881 14.831C19.9726 14.6128 19.8648 14.3408 19.8648 14.015V9.78166C19.8648 9.46122 19.9746 9.19189 20.1941 8.97366C20.4134 8.75522 20.6842 8.646 21.0064 8.646C21.3284 8.646 21.5972 8.75522 21.8128 8.97366C22.0283 9.19189 22.1361 9.46122 22.1361 9.78166V14.015C22.1361 14.3408 22.0263 14.6128 21.8068 14.831C21.5874 15.0492 21.3167 15.1583 20.9944 15.1583Z" fill="white"/>
</svg>
