<svg width="270" height="31" viewBox="0 0 270 31" fill="none" xmlns="http://www.w3.org/2000/svg">
<path d="M253.728 15.7693C253.359 15.7946 252.986 15.8121 252.625 15.8496C252.39 15.8731 252.289 15.8056 252.132 15.7706C252.079 15.7584 252.023 15.7339 251.974 15.737C251.609 15.7623 251.244 15.7906 250.879 15.8188C250.767 15.879 250.697 15.959 250.526 15.9884C250.359 16.0164 250.161 16.0167 249.975 16.0309C249.729 16.0482 249.483 16.0656 249.237 16.0813C249.113 16.0892 249.013 16.1186 248.973 16.174C248.965 16.1832 249.048 16.2061 249.093 16.2198C249.242 16.2657 249.389 16.3177 249.553 16.3527C249.71 16.3862 249.904 16.3306 250.072 16.3733C250.45 16.4694 250.454 16.4679 250.741 16.449C250.987 16.4316 251.233 16.4128 251.479 16.4001C251.527 16.3969 251.584 16.4199 251.636 16.4321C251.793 16.4656 251.895 16.5422 252.126 16.5126C252.301 16.4893 252.495 16.4843 252.677 16.4717C252.831 16.516 252.973 16.5665 253.138 16.6015C253.291 16.635 253.336 16.6611 253.255 16.7058C253.181 16.7474 253.076 16.7645 252.938 16.7678C252.815 16.7695 252.692 16.7836 252.569 16.7915C252.506 16.7962 252.446 16.7994 252.387 16.8041C252.152 16.8214 252.152 16.8214 251.722 16.7238C251.553 16.6857 251.364 16.7398 251.203 16.7032C251.094 16.6788 251.001 16.6421 250.896 16.6162C250.851 16.6055 250.78 16.6041 250.724 16.6072C250.538 16.6183 250.351 16.6263 250.172 16.6466C250.046 16.6607 249.972 16.7038 249.987 16.7468C249.991 16.7637 250.081 16.7881 250.133 16.7896C250.252 16.7924 250.379 16.7707 250.495 16.7813C250.607 16.7918 250.723 16.8223 250.805 16.856C250.974 16.9264 251.164 16.8631 251.324 16.8812C251.492 16.9009 251.631 16.9621 251.792 16.9987C251.833 17.0078 251.911 16.9923 251.975 16.9876C252.157 16.9765 252.34 16.967 252.523 16.9559C252.676 17.0002 252.841 17.0399 252.98 17.0904C253.231 17.1821 253.5 17.217 253.824 17.1718C254.006 17.1469 254.185 17.1559 254.332 17.2155C254.482 17.2767 254.653 17.2703 254.843 17.2576C255.019 17.2451 255.197 17.2109 255.377 17.2536C255.766 17.3482 255.77 17.3528 256.228 17.3152C256.366 17.3042 256.47 17.3009 256.575 17.3361C256.673 17.3682 256.778 17.3956 256.879 17.4262C257.061 17.4151 257.248 17.404 257.43 17.3914C257.665 17.3741 257.796 17.3954 257.853 17.4813C257.887 17.5335 257.903 17.5811 257.985 17.6163C258.083 17.6591 258.187 17.6574 258.329 17.6449C258.463 17.6339 258.56 17.6168 258.615 17.5614C258.637 17.5384 258.682 17.5168 258.723 17.4983C258.756 17.4844 258.808 17.4628 258.838 17.4658C258.894 17.4718 258.969 17.4886 258.988 17.5085C259.173 17.6941 259.173 17.6957 259.36 17.7491C259.566 17.8087 259.779 17.8621 259.966 17.9293C260.135 17.989 260.303 17.9626 260.485 17.9622C260.623 17.962 260.713 18.0018 260.703 18.0418C260.696 18.0648 260.644 18.0987 260.599 18.1018C260.234 18.1332 259.865 18.16 259.496 18.1821C259.451 18.1853 259.395 18.1577 259.342 18.144C259.237 18.1165 259.144 18.0736 259.032 18.0646C258.92 18.0556 258.789 18.0789 258.666 18.0868C258.543 18.0947 258.413 18.1149 258.301 18.1028C258.189 18.0907 258.099 18.0463 257.994 18.0173C257.945 18.0035 257.878 17.9837 257.837 17.9884C257.565 18.0257 257.363 17.9753 257.168 17.9081C257.127 17.8943 257.056 17.8852 257.004 17.8884C256.571 17.9153 256.143 17.9467 255.71 17.9767C255.535 17.9893 255.392 17.9357 255.354 17.8452C255.335 17.7945 255.297 17.7439 255.296 17.6932C255.295 17.601 255.089 17.5507 254.94 17.5617C254.694 17.5775 254.444 17.5902 254.202 17.6136C254.005 17.6324 253.837 17.6143 253.702 17.5592C253.544 17.4965 253.365 17.5091 253.186 17.5263C253.052 17.5388 253.015 17.5896 253.024 17.7171C253.033 17.82 252.97 17.8524 252.728 17.8697C252.422 17.8917 252.113 17.9138 251.803 17.9312C251.755 17.9344 251.699 17.9084 251.65 17.8946C251.545 17.8672 251.451 17.8228 251.339 17.8137C251.227 17.8032 251.097 17.8264 250.974 17.8359C250.851 17.8438 250.721 17.8655 250.609 17.8549C250.497 17.8444 250.403 17.7985 250.302 17.7695C250.253 17.7557 250.193 17.7358 250.145 17.739C249.898 17.7517 249.652 17.7706 249.406 17.7879C249.131 17.8068 249.131 17.8068 248.738 17.7123C248.558 17.6695 248.379 17.7037 248.204 17.7163C248.018 17.7289 247.843 17.7353 247.696 17.6741C247.599 17.6343 247.49 17.6099 247.375 17.6178C247.065 17.6368 246.76 17.6604 246.45 17.6794C246.398 17.6825 246.327 17.675 246.286 17.6612C246.087 17.597 245.893 17.5467 245.617 17.5794C245.379 17.6075 245.121 17.6094 244.883 17.636C244.753 17.65 244.693 17.6993 244.72 17.7377C244.735 17.7576 244.814 17.7805 244.866 17.7804C244.985 17.7818 245.116 17.7585 245.228 17.7675C245.459 17.7855 245.576 17.9144 245.878 17.8785C246.057 17.8567 246.243 17.8487 246.43 17.8422C246.478 17.8406 246.531 17.8697 246.583 17.885C246.733 17.9262 246.864 17.9797 247.08 17.9517C247.259 17.9299 247.449 17.9234 247.632 17.9108C247.923 17.8904 247.923 17.8919 248.301 17.9849C248.48 18.0292 248.659 17.9935 248.834 17.9825C248.965 17.9746 249.088 17.959 249.192 17.9803C249.353 18.0123 249.47 18.0858 249.667 18.0809C249.854 18.0759 250.036 18.0541 250.223 18.0461C250.338 18.0413 250.447 18.0657 250.541 18.107C250.638 18.1483 250.743 18.1666 250.87 18.1571C251.052 18.1445 251.239 18.1289 251.425 18.1208C251.477 18.1192 251.537 18.133 251.586 18.1452C251.691 18.1726 251.792 18.2047 251.893 18.2337C252.076 18.2242 252.262 18.2208 252.441 18.2021C252.579 18.188 252.676 18.194 252.788 18.2245C252.93 18.2657 253.047 18.3393 253.278 18.3035C253.393 18.2864 253.528 18.2908 253.643 18.2752C253.785 18.255 253.882 18.2625 253.983 18.3084C254.174 18.3957 254.413 18.3968 254.659 18.3626C254.927 18.3252 255.129 18.3679 255.331 18.4352C255.545 18.5055 255.545 18.5039 255.711 18.6742C255.76 18.7232 255.899 18.7461 256.014 18.7366C256.208 18.7209 256.376 18.7283 256.518 18.7865C256.668 18.8492 256.847 18.8412 257.03 18.824C257.272 18.8005 257.514 18.7801 257.713 18.8689C257.811 18.9117 257.915 18.9223 258.046 18.9113C258.415 18.883 258.788 18.8655 259.149 18.8311C259.369 18.8092 259.496 18.8581 259.646 18.8993C259.848 18.9558 260.069 19.0061 260.071 19.1275C260.071 19.1475 260.123 19.1704 260.168 19.1857C260.266 19.2178 260.37 19.2453 260.472 19.2758C260.621 19.3217 260.767 19.3598 260.972 19.3349C261.151 19.3146 261.341 19.3081 261.524 19.294C261.706 19.2798 261.874 19.2718 262.039 19.3299C262.23 19.3957 262.432 19.4583 262.649 19.5071C262.803 19.5422 263.004 19.4819 263.168 19.5293C263.269 19.5583 263.367 19.5919 263.475 19.6163C263.52 19.627 263.591 19.6192 263.651 19.616C263.774 19.6096 263.901 19.6048 264.02 19.5892C264.158 19.5721 264.262 19.575 264.367 19.6101C264.464 19.6422 264.562 19.6866 264.674 19.6956C264.842 19.7092 265.028 19.6474 265.196 19.7178C265.283 19.753 265.391 19.7866 265.503 19.7971C265.615 19.8077 265.746 19.7844 265.865 19.7857C265.917 19.7856 265.981 19.8101 266.011 19.83C266.03 19.8408 266.004 19.87 265.978 19.8854C265.945 19.9039 265.897 19.9286 265.848 19.9317C265.479 19.96 265.11 19.9837 264.741 20.0105C264.521 20.0262 264.521 20.0262 264.076 19.9302C263.971 19.9073 263.856 19.9121 263.725 19.9231C263.55 19.9372 263.371 19.9637 263.188 19.9363C262.948 19.8323 262.653 19.8236 262.34 19.8641C262.21 19.8812 262.091 19.8814 261.993 19.8524C261.787 19.7944 261.57 19.741 261.387 19.6722C261.244 19.6186 261.177 19.6141 261.118 19.688C261.1 19.7111 261.082 19.7357 261.086 19.7572C261.109 19.8339 261.151 19.9091 261.174 19.9859C261.182 20.0074 261.152 20.0321 261.134 20.0551C261.075 20.1198 260.997 20.1153 260.865 20.0617C260.734 20.0082 260.577 19.9731 260.368 19.9981C260.19 20.0199 259.996 20.0172 259.817 20.0405C259.541 20.0748 259.347 20.026 259.148 19.9603C259.107 19.9465 259.036 19.9389 258.984 19.9421C258.428 19.9784 257.877 20.0193 257.321 20.0556C257.202 20.0635 257.093 20.0406 257 19.9993C256.902 19.958 256.794 19.9367 256.674 19.9446C256.182 19.9777 255.69 20.0078 255.198 20.0486C254.997 20.0658 254.836 20.0461 254.698 19.9926C254.593 19.9528 254.495 19.9407 254.365 19.9455C254.223 19.9504 254.123 19.9659 254.052 20.0106C253.986 20.0537 254.034 20.0797 254.184 20.1133C254.345 20.1499 254.495 20.1973 254.648 20.24C254.771 20.2337 254.894 20.2211 255.014 20.2225C255.066 20.2224 255.115 20.2499 255.167 20.2652C255.317 20.3095 255.456 20.3538 255.668 20.3289C255.847 20.3071 256.037 20.3021 256.22 20.288C256.473 20.2706 256.473 20.2706 256.885 20.3667C256.989 20.3911 257.101 20.3894 257.235 20.3753C257.351 20.3644 257.471 20.3857 257.553 20.4316C257.587 20.45 257.576 20.4807 257.507 20.5823C257.507 20.6575 257.585 20.6236 257.611 20.5744C257.651 20.5036 257.572 20.4807 257.424 20.5194C257.32 20.5472 257.268 20.5873 257.294 20.6195C257.309 20.6364 257.381 20.6578 257.507 20.5823C257.834 20.4895 258.084 20.4783 258.322 20.4533C258.464 20.4392 258.553 20.4452 258.666 20.485C258.801 20.5324 258.935 20.5828 259.155 20.5579C259.394 20.5298 259.647 20.5263 259.89 20.5028C260.113 20.4809 260.23 20.5483 260.372 20.588C260.544 20.6354 260.734 20.5813 260.891 20.6086C261.055 20.636 261.172 20.7034 261.362 20.7154C261.638 20.6734 261.814 20.7499 262.023 20.8002C262.188 20.8384 262.382 20.8042 262.557 20.787C262.754 20.7682 262.919 20.7849 263.057 20.8399C263.215 20.9027 263.39 20.8885 263.569 20.8744C263.986 20.8429 264.001 20.8383 264.245 20.9224C264.421 20.9835 264.588 20.9556 264.764 20.9476C264.917 20.9888 265.067 21.0331 265.228 21.0697C265.269 21.0788 265.347 21.0633 265.411 21.0586C265.593 21.046 265.78 21.0334 265.962 21.0208C266.085 21.0129 266.216 20.9896 266.328 20.9986C266.44 21.0092 266.533 21.0536 266.635 21.0826C266.736 21.1116 266.84 21.1406 266.938 21.1712C267.088 21.217 267.23 21.2552 267.438 21.2318C267.617 21.2115 267.804 21.205 267.99 21.1909C268.225 21.1736 268.218 21.1782 268.655 21.2696C268.891 21.3199 269.133 21.258 269.371 21.2515C269.491 21.2482 269.606 21.2649 269.689 21.3093C269.723 21.3277 269.712 21.3584 269.724 21.3845C269.109 21.4271 268.49 21.4635 267.882 21.5152C267.647 21.5356 267.524 21.4805 267.396 21.4346C267.186 21.3613 266.912 21.4693 266.713 21.3744C266.593 21.3177 266.421 21.2858 266.216 21.3138C266.097 21.3294 265.97 21.328 265.847 21.3421C265.534 21.3764 265.246 21.3785 264.995 21.2729C264.909 21.2362 264.786 21.2164 264.696 21.1812C264.591 21.143 264.49 21.1217 264.367 21.1296C263.811 21.1674 263.26 21.2052 262.708 21.2461C262.659 21.2493 262.611 21.2724 262.57 21.2894C262.466 21.3326 262.5 21.3663 262.669 21.3937C262.725 21.4028 262.77 21.4227 262.822 21.438C262.923 21.467 263.017 21.5129 263.129 21.5235C263.241 21.534 263.372 21.5123 263.495 21.5044C263.618 21.4965 263.748 21.4732 263.86 21.4823C263.972 21.4928 264.066 21.5372 264.171 21.5647C264.219 21.5784 264.279 21.6014 264.328 21.5997C264.574 21.5901 264.816 21.5728 265.062 21.5585C265.216 21.5997 265.347 21.6594 265.53 21.6729C265.646 21.682 265.769 21.6648 265.888 21.6677C265.94 21.6691 266.008 21.6921 266.034 21.712C266.049 21.7243 266.001 21.7551 265.964 21.7705C265.823 21.8291 265.629 21.8187 265.454 21.8374C265.264 21.8578 265.092 21.8519 264.946 21.7923C264.848 21.7525 264.74 21.7312 264.62 21.7391C264.311 21.7596 264.005 21.7831 263.696 21.8006C263.644 21.8037 263.58 21.79 263.531 21.7793C263.139 21.6863 263.139 21.6832 262.863 21.7037C262.456 21.7336 262.456 21.7336 262.183 21.6526C262.131 21.6374 262.074 21.6083 262.03 21.6099C261.597 21.6352 261.168 21.6605 260.74 21.6966C260.598 21.7076 260.501 21.7078 260.396 21.668C260.306 21.6344 260.201 21.5962 260.089 21.5871C259.974 21.5781 259.847 21.6014 259.724 21.6093C259.601 21.6172 259.471 21.6374 259.362 21.6253C259.25 21.6132 259.153 21.5703 259.055 21.5398C258.954 21.5077 258.846 21.5094 258.708 21.5219C258.283 21.558 258.279 21.5534 257.857 21.4589C257.808 21.4482 257.745 21.436 257.692 21.4392C257.383 21.4582 257.077 21.4818 256.768 21.5007C256.649 21.5086 256.533 21.4888 256.45 21.4444C256.416 21.4261 256.427 21.3953 256.404 21.3354C256.378 21.3216 256.408 21.3462 256.415 21.3692C256.471 21.366 256.539 21.369 256.58 21.3566C256.684 21.3273 256.735 21.2888 256.709 21.2565C256.694 21.2397 256.623 21.2183 256.578 21.2184C256.496 21.2185 256.425 21.2524 256.404 21.3354C256.17 21.3865 255.92 21.3977 255.677 21.4227C255.536 21.4383 255.446 21.4308 255.334 21.3911C255.199 21.3421 255.06 21.2947 254.84 21.3197C254.602 21.3478 254.348 21.3528 254.102 21.3748C253.819 21.3998 253.694 21.2618 253.456 21.2653C253.21 21.2688 252.964 21.2953 252.718 21.3142C252.501 21.3299 252.501 21.3299 252.052 21.2308C251.888 21.1942 251.695 21.2483 251.534 21.2102C251.425 21.1858 251.331 21.1491 251.227 21.1232C251.182 21.1125 251.111 21.1126 251.055 21.1158C250.746 21.1348 250.432 21.1476 250.134 21.1819C249.795 21.2225 249.537 21.1799 249.294 21.0897C248.988 21.1071 248.678 21.1169 248.377 21.1466C248.157 21.1685 248.029 21.118 247.88 21.0768C247.827 21.063 247.782 21.0401 247.726 21.034C247.67 21.028 247.603 21.0404 247.543 21.0451C247.297 21.0624 247.044 21.0705 246.805 21.0986C246.511 21.1345 246.398 21.0087 246.17 20.9937C246.018 21.0692 245.937 21.1723 245.635 21.1805C245.389 21.1871 245.143 21.2121 244.897 21.2294C244.774 21.2373 244.651 21.2468 244.528 21.2547C244.33 21.2688 244.238 21.3289 244.28 21.421C244.303 21.4717 244.322 21.5223 244.341 21.573C244.38 21.6636 244.287 21.7406 244.131 21.7516C243.698 21.7815 243.27 21.813 242.837 21.8399C242.722 21.8477 242.609 21.8218 242.516 21.7805C242.418 21.7392 242.31 21.7209 242.191 21.7288C241.758 21.7588 241.329 21.7903 240.897 21.8171C240.849 21.8203 240.785 21.805 240.736 21.7928C240.632 21.7653 240.53 21.7333 240.429 21.7042C240.183 21.7185 239.941 21.7281 239.699 21.747C239.307 21.7753 239.307 21.7769 239.019 21.6929C238.966 21.6776 238.914 21.6485 238.865 21.6501C238.679 21.6566 238.496 21.6723 238.31 21.6864C237.762 21.7273 237.762 21.7273 237.601 21.6815C237.455 21.6387 237.324 21.5867 237.104 21.6117C236.866 21.6398 236.612 21.6494 236.366 21.6652C236.183 21.6763 236.001 21.6889 235.818 21.6923C235.769 21.6939 235.717 21.6648 235.664 21.6495C235.515 21.6022 235.369 21.564 235.164 21.5905C235.044 21.606 234.918 21.6093 234.795 21.6172C234.474 21.6393 234.474 21.6393 233.947 21.548C233.895 21.5389 233.831 21.5283 233.779 21.533C233.346 21.5614 232.918 21.5928 232.485 21.6197C232.433 21.6229 232.37 21.6138 232.317 21.6062C231.727 21.5181 231.727 21.5181 231.101 21.5622C230.862 21.578 230.855 21.5841 230.604 21.5031C230.491 21.468 230.398 21.4513 230.267 21.4622C229.775 21.5 229.279 21.5254 228.791 21.5693C228.571 21.5881 228.444 21.5422 228.294 21.501C228.242 21.4873 228.185 21.4567 228.141 21.4583C227.649 21.4883 227.156 21.5245 226.664 21.5545C226.62 21.5577 226.563 21.5271 226.511 21.5133C226.41 21.4858 226.312 21.4445 226.2 21.4355C226.085 21.4265 225.958 21.4498 225.831 21.4577C225.522 21.4782 225.522 21.4766 225.163 21.3866C225.114 21.3744 225.05 21.3576 225.002 21.3608C224.51 21.3924 224.014 21.4193 223.526 21.4647C223.246 21.4898 223.055 21.4456 222.857 21.3814C222.816 21.3676 222.745 21.3616 222.693 21.3648C222.137 21.4011 221.585 21.442 221.03 21.4783C220.914 21.4862 220.802 21.4602 220.708 21.4205C220.558 21.3577 220.383 21.3657 220.197 21.3799C219.768 21.4129 219.764 21.4114 219.51 21.3381C219.457 21.3228 219.412 21.3029 219.356 21.2953C219.304 21.2877 219.237 21.2924 219.181 21.2956C218.935 21.3114 218.689 21.3287 218.443 21.346C218.197 21.3634 217.947 21.373 217.705 21.3996C217.407 21.4324 217.264 21.3327 217.054 21.287C216.749 21.3075 216.435 21.3203 216.134 21.3531C215.903 21.3781 215.794 21.3107 215.64 21.2756C215.588 21.2634 215.531 21.2374 215.483 21.2406C214.928 21.2753 214.372 21.3132 213.821 21.3556C213.686 21.3651 213.597 21.3529 213.484 21.3162C213.233 21.2337 213.222 21.2368 212.805 21.2683C212.622 21.2824 212.447 21.295 212.289 21.2323C212.151 21.1757 211.983 21.1621 211.785 21.1809C211.543 21.2044 211.293 21.2171 211.047 21.2329C210.801 21.2502 210.555 21.2737 210.309 21.2818C210.111 21.2898 209.991 21.2179 209.834 21.1813C209.785 21.1706 209.718 21.1692 209.662 21.1723C209.416 21.1866 209.163 21.1978 208.924 21.2243C208.633 21.2571 208.472 21.1729 208.266 21.1241C208.221 21.1134 208.147 21.1197 208.091 21.1244C207.658 21.1528 207.23 21.1842 206.797 21.2142C206.644 21.173 206.487 21.1333 206.333 21.0921C206.087 21.1079 205.841 21.1252 205.595 21.141C205.409 21.1536 205.219 21.1585 205.043 21.1819C204.816 21.213 204.703 21.141 204.55 21.1059C204.498 21.0937 204.441 21.0677 204.393 21.0709C204.084 21.0883 203.774 21.1073 203.468 21.1339C203.178 21.1606 203.06 21.0225 202.822 21.0244C202.576 21.0264 202.322 21.0468 202.084 21.0749C201.808 21.1076 201.613 21.0588 201.415 20.9931C201.374 20.9793 201.303 20.9718 201.25 20.9749C200.941 20.9939 200.635 21.0175 200.326 21.0364C200.274 21.0396 200.21 21.032 200.158 21.0229C199.567 20.9333 199.567 20.9318 199.31 20.9506C199.127 20.9633 198.941 20.9789 198.755 20.9869C198.703 20.9901 198.639 20.9764 198.59 20.9642C198.201 20.8711 198.201 20.8696 197.921 20.8885C197.675 20.9059 197.429 20.9232 197.183 20.9405C197.03 20.8993 196.873 20.8596 196.719 20.8184C196.414 20.8389 196.1 20.8548 195.799 20.883C195.657 20.8955 195.564 20.8911 195.455 20.8529C195.32 20.807 195.185 20.7535 194.962 20.78C194.723 20.808 194.47 20.8116 194.227 20.835C193.937 20.8632 193.816 20.7236 193.581 20.7255C193.334 20.7275 193.081 20.7479 192.842 20.776C192.567 20.8087 192.372 20.7599 192.174 20.6942C192.132 20.6804 192.061 20.6729 192.009 20.676C191.331 20.7218 190.656 20.7675 189.978 20.8163C189.56 20.8462 189.56 20.8477 188.765 20.7646C188.709 20.7586 188.649 20.7525 188.593 20.7557C188.347 20.77 188.093 20.7812 187.855 20.8077C187.564 20.8404 187.403 20.7578 187.197 20.7074C187.152 20.6967 187.081 20.703 187.022 20.7062C186.835 20.7173 186.652 20.7314 186.466 20.744C186.22 20.7614 185.974 20.7787 185.728 20.796C185.575 20.7563 185.417 20.7151 185.264 20.6754C184.958 20.6959 184.645 20.7073 184.343 20.74C184.112 20.765 184.003 20.7007 183.85 20.6641C183.797 20.6519 183.741 20.6259 183.693 20.6275C183.137 20.6622 182.582 20.6985 182.03 20.7425C181.803 20.7613 181.697 20.6924 181.544 20.6573C181.492 20.6467 181.432 20.6268 181.383 20.63C181.014 20.6521 180.645 20.6789 180.276 20.7056C180.067 20.7213 180.067 20.7213 179.611 20.6269C179.559 20.6162 179.499 20.6056 179.447 20.6087C178.276 20.6876 177.109 20.771 175.939 20.8499C175.82 20.8578 175.711 20.8349 175.617 20.7936C175.52 20.7523 175.411 20.731 175.292 20.7389C174.8 20.772 174.304 20.802 173.816 20.8428C173.615 20.8601 173.454 20.8404 173.315 20.7868C173.21 20.7471 173.113 20.7319 172.983 20.7413C172.737 20.7602 172.491 20.776 172.245 20.7933C171.999 20.8106 171.753 20.828 171.507 20.8453C171.261 20.8626 171.011 20.8723 170.769 20.8988C170.471 20.9316 170.324 20.8366 170.118 20.7893C169.749 20.813 169.38 20.8367 169.015 20.8619C168.523 20.895 168.031 20.9312 167.539 20.9628C167.494 20.966 167.438 20.9384 167.385 20.9247C167.232 20.8865 167.119 20.8329 166.892 20.8502C165.788 20.9336 164.678 21.0046 163.57 21.0865C163.339 21.1038 163.238 21.0379 163.081 21.0028C163.028 20.9921 162.968 20.9707 162.92 20.9739C162.305 21.0134 161.69 21.0575 161.075 21.1C160.825 21.1173 160.825 21.1173 160.406 21.0228C160.357 21.0121 160.294 20.9984 160.241 21.0016C159.44 21.0552 158.642 21.1119 157.841 21.1671C157.722 21.175 157.613 21.1536 157.516 21.1123C157.422 21.071 157.31 21.0482 157.194 21.056C156.456 21.1065 155.714 21.1554 154.98 21.2104C154.782 21.2262 154.618 21.2126 154.476 21.1576C154.374 21.1178 154.273 21.1011 154.147 21.1105C153.04 21.1877 151.932 21.2618 150.825 21.3437C150.613 21.3594 150.463 21.3304 150.328 21.28C150.22 21.2402 150.126 21.2327 149.992 21.2391C149.85 21.247 149.765 21.2641 149.687 21.3103C149.587 21.3704 149.525 21.4458 149.286 21.4508C149.04 21.4558 148.79 21.4747 148.548 21.5012C148.317 21.5278 148.208 21.4588 148.062 21.4176C147.953 21.3886 147.852 21.3841 147.714 21.3982C147.588 21.4107 147.51 21.437 147.436 21.4863C147.273 21.591 147.258 21.591 147.056 21.5253C146.947 21.4902 146.85 21.4627 146.73 21.469C146.238 21.5006 145.746 21.5353 145.254 21.5715C144.971 21.5919 144.967 21.595 144.754 21.5186C144.649 21.4804 144.548 21.4621 144.425 21.4715C143.072 21.566 141.719 21.6575 140.365 21.7567C140.157 21.7724 140.015 21.7404 139.865 21.6945C139.816 21.6792 139.767 21.6578 139.711 21.6518C139.655 21.6457 139.592 21.652 139.532 21.6552C138.548 21.7229 137.56 21.7876 136.58 21.8631C136.356 21.8804 136.236 21.8314 136.083 21.7917C136.03 21.778 135.985 21.7566 135.929 21.7505C135.873 21.746 135.806 21.7569 135.747 21.7616C134.763 21.8294 133.775 21.8941 132.794 21.9695C132.56 21.9868 132.458 21.9225 132.305 21.8889C132.252 21.8767 132.196 21.8538 132.148 21.8569C131.838 21.8744 131.533 21.898 131.223 21.9185C130.485 21.9705 129.747 22.0194 129.009 22.0729C128.726 22.0934 128.601 21.9568 128.362 21.9634C128.053 21.9716 127.747 22.0029 127.438 22.0249C127.192 22.0422 126.946 22.058 126.7 22.0769C126.457 22.0942 126.457 22.0942 125.852 22.0062C125.799 21.9986 125.736 21.9879 125.684 21.9911C124.823 22.0494 123.958 22.1078 123.1 22.1707C122.903 22.1849 122.739 22.1775 122.596 22.1209C122.495 22.0811 122.39 22.0613 122.267 22.0708C120.974 22.1606 119.684 22.2504 118.39 22.3387C118.342 22.3418 118.278 22.3266 118.23 22.3144C118.125 22.2869 118.024 22.2548 117.923 22.2258C117.848 22.2613 117.752 22.2937 117.704 22.3337C117.637 22.3876 117.548 22.4031 117.406 22.4126C117.265 22.4221 117.175 22.4191 117.063 22.3794C116.928 22.3305 116.789 22.2923 116.569 22.308C115.216 22.4072 113.863 22.4971 112.51 22.5947C112.286 22.6105 112.181 22.543 112.024 22.508C111.972 22.4973 111.912 22.4805 111.863 22.4837C111.308 22.52 110.756 22.5593 110.201 22.5972C108.661 22.7043 107.122 22.8069 105.586 22.9201C105.306 22.9406 105.116 22.9025 104.917 22.8368C104.876 22.823 104.805 22.8155 104.753 22.8186C102.598 22.9668 100.443 23.1165 98.2926 23.2662C98.177 23.2741 98.0648 23.2497 97.971 23.2099C97.8735 23.1686 97.7651 23.1488 97.6458 23.1567C96.6617 23.2245 95.6776 23.2922 94.6935 23.3616C94.4475 23.3789 94.4438 23.3804 94.1892 23.3071C94.1367 23.2918 94.0805 23.2628 94.0395 23.2659C93.9538 23.2737 93.8721 23.3123 93.813 23.3646C93.754 23.42 93.6609 23.4355 93.523 23.4465C93.3814 23.4575 93.2881 23.4531 93.1795 23.4164C93.0409 23.3706 92.9135 23.3262 92.6898 23.342C89.8605 23.5435 87.0312 23.7374 84.2019 23.9374C83.9745 23.9532 83.8693 23.8889 83.7122 23.8538C83.6598 23.8431 83.6074 23.8279 83.5514 23.8249C83.4917 23.8219 83.4284 23.8313 83.3687 23.836C78.7539 24.1559 74.1391 24.4773 69.5242 24.7972C69.2483 24.8161 69.252 24.8161 68.9516 24.9579C68.9145 24.9749 68.8662 24.998 68.814 25.0012C67.4013 25.102 65.9848 25.1997 64.5683 25.2974C63.9532 25.3399 63.3382 25.384 62.7231 25.4251C62.5031 25.4393 62.5031 25.4393 61.9791 25.6061C61.9345 25.62 61.8824 25.6385 61.8303 25.6417C59.37 25.8134 56.9097 25.9852 54.4457 26.1538C54.2518 26.1665 54.0955 26.1944 54.0069 26.2683C53.9441 26.3206 53.8624 26.3515 53.7394 26.3609C52.0172 26.4807 50.2951 26.602 48.5691 26.7186C48.3641 26.7328 48.2415 26.7761 48.1415 26.8408C48.1082 26.8623 48.0786 26.8869 48.0303 26.9024C47.9857 26.9163 47.9187 26.921 47.8627 26.9257C46.3866 27.0282 44.9105 27.1337 43.4306 27.2315C43.2106 27.2457 43.1217 27.3027 43.0143 27.3628C42.9772 27.3828 42.9514 27.4105 42.9031 27.4244C42.8547 27.4368 42.7838 27.4369 42.7242 27.4401C41.4941 27.5252 40.264 27.6119 39.0338 27.6969C38.795 27.6897 38.7438 27.7789 38.6288 27.8328C38.588 27.8514 38.5585 27.876 38.5101 27.8884C38.4581 27.9007 38.3908 27.8993 38.3274 27.9025C37.3433 27.9703 36.3593 28.0427 35.3714 28.1058C35.144 28.12 35.1001 28.1985 34.9777 28.2525C34.9368 28.2694 34.8962 28.2956 34.8477 28.3003C34.2327 28.3459 33.6176 28.3885 33.0026 28.4295C32.7975 28.4437 32.7975 28.4421 32.4375 28.5949C32.3966 28.6118 32.3483 28.6304 32.2962 28.6351C31.3754 28.7012 30.451 28.7642 29.5265 28.8288C29.4072 28.8367 29.3256 28.8737 29.2666 28.9261C29.2075 28.9784 29.1221 29.0124 29.0028 29.0203C28.2648 29.0722 27.5267 29.1257 26.7885 29.1731C26.5835 29.1858 26.4497 29.2244 26.361 29.2937C26.2945 29.346 26.2127 29.3723 26.0822 29.3817C25.3442 29.4322 24.6061 29.4873 23.8642 29.5316C23.648 29.5442 23.5367 29.5966 23.4479 29.6613C23.3777 29.7137 23.2958 29.7323 23.1579 29.7417C21.8047 29.8332 20.4478 29.9246 19.0985 30.0253C18.8711 30.0426 18.7548 29.989 18.6051 29.9509C18.3918 29.8975 18.1934 29.8394 18.192 29.7196C18.1917 29.7012 18.128 29.6798 18.0831 29.6645C17.7496 29.5498 17.7496 29.5499 17.6959 29.427C17.6651 29.3518 17.6306 29.2751 17.6036 29.1983C17.5535 29.0724 17.4337 29.0403 17.0908 29.064C16.9678 29.0719 16.8448 29.0828 16.7217 29.0892C16.5391 29.1003 16.4004 29.0498 16.3657 28.9577C16.3465 28.907 16.3235 28.8564 16.3042 28.8057C16.4906 28.7931 16.4868 28.7916 16.8129 28.6051C16.9499 28.5265 16.95 28.5265 16.6842 28.4486C16.5831 28.4196 16.4857 28.3875 16.3771 28.36C16.3285 28.3478 16.265 28.3403 16.2128 28.3434C15.9034 28.3624 15.5977 28.3844 15.2921 28.4065C14.8 28.4411 14.7999 28.4411 14.2981 28.2853C14.2569 28.2731 14.1932 28.2501 14.2005 28.2378C14.2409 28.1809 14.3413 28.1562 14.4681 28.1498C14.6545 28.1403 14.8371 28.1246 15.0198 28.112C15.1428 28.1041 15.2658 28.0947 15.3888 28.0868C15.5038 28.0282 15.6225 27.9711 15.73 27.911C15.9005 27.8185 15.9004 27.8155 15.6645 27.7514C15.5148 27.7086 15.3539 27.6705 15.2005 27.6308C15.0178 27.6434 14.8314 27.6575 14.6488 27.6686C14.4176 27.6828 14.324 27.6538 14.2631 27.5541C14.2098 27.4666 14.2723 27.3912 14.4511 27.3725C14.6337 27.3537 14.8053 27.3411 14.8976 27.2626C14.9862 27.1872 15.1425 27.1577 15.3364 27.1512C15.4595 27.1464 15.5825 27.1354 15.7055 27.126C15.8657 27.1134 15.9506 27.0349 15.916 26.9474C15.8966 26.8906 15.8587 26.843 15.7131 26.831C15.067 26.7784 15.0595 26.7799 14.7374 26.676C14.7075 26.6668 14.6848 26.6392 14.6958 26.6254C14.7142 26.6023 14.7548 26.5684 14.7995 26.5637C15.2282 26.5292 15.6568 26.4977 16.0856 26.4739C16.2272 26.466 16.3316 26.4551 16.3794 26.3981C16.4456 26.3197 16.4149 26.2475 16.2836 26.194C16.2424 26.1771 16.1749 26.1558 16.1302 26.1574C15.638 26.1859 15.1498 26.2221 14.6576 26.2506C14.6129 26.2537 14.5305 26.2278 14.5117 26.2078C14.4739 26.171 14.5292 26.1217 14.6596 26.1046C14.8309 26.0813 15.0062 26.0794 15.121 26.0024C15.2801 25.8931 15.4766 25.7929 15.6544 25.6881C15.684 25.6696 15.7321 25.6342 15.7209 25.6311C15.6272 25.5975 15.5187 25.5716 15.4213 25.5395C15.2565 25.486 15.2555 25.4107 15.292 25.3384C15.3211 25.28 15.4327 25.2568 15.5708 25.2565C15.6305 25.2564 15.7051 25.2563 15.7534 25.2424C15.8798 25.2084 15.9204 25.1653 15.8566 25.1331C15.819 25.1147 15.7516 25.0888 15.7069 25.0919C14.9091 25.144 14.1075 25.1945 13.3136 25.2589C13.0788 25.2777 12.97 25.2195 12.8277 25.1783C12.7191 25.1462 12.6182 25.1341 12.4842 25.1574C12.3576 25.1791 12.2344 25.1671 12.1554 25.1165C12.0915 25.0751 12.2029 25.0396 12.5046 24.9991C12.5605 24.9914 12.6239 24.9866 12.6647 24.9712C13.0955 24.8045 13.0954 24.803 13.3936 24.781C13.6844 24.7605 13.6844 24.759 13.8363 24.6696C13.9067 24.628 13.9845 24.5864 14.0511 24.5432C14.077 24.5263 14.1214 24.4955 14.1064 24.4863C14.0238 24.4388 13.9117 24.4282 13.7812 24.4392C13.4905 24.4659 13.1471 24.4449 12.9959 24.5912C12.9369 24.6466 12.8438 24.6621 12.7096 24.6715C11.3602 24.763 10.0107 24.8606 8.65753 24.949C8.43758 24.9632 8.3376 25.0202 8.25256 25.0833C8.17858 25.1357 8.09668 25.1512 7.95502 25.1607C7.81336 25.1701 7.70144 25.1749 7.61875 25.1244C7.56988 25.0937 7.6104 25.0507 7.7218 25.0074C7.88147 24.9457 7.85068 24.8689 7.79757 24.7968C7.75968 24.7493 7.64362 24.7157 7.52054 24.719C7.33781 24.7254 7.16272 24.7426 7.00901 24.6814C6.91904 24.6463 6.8068 24.6219 6.70569 24.5913C6.51093 24.5287 6.31614 24.4645 6.0443 24.5064C5.85757 24.4914 5.72632 24.4363 5.57657 24.3936C5.32575 24.3233 5.30323 24.3126 5.48139 24.237C5.68183 24.1522 5.52376 24.0418 5.63467 23.9587C5.75297 23.8694 5.91622 23.7907 6.06071 23.7075C6.09776 23.6859 6.13111 23.6659 6.16815 23.6443C6.08197 23.6138 6.00317 23.5755 5.90218 23.5542C5.77127 23.5267 5.7037 23.4931 5.71 23.3978C5.68372 23.384 5.69526 23.4193 5.72522 23.4285C5.75891 23.4376 5.84096 23.4298 5.88186 23.419C5.98597 23.3896 6.03768 23.3511 6.01117 23.3189C5.99604 23.302 5.92495 23.2807 5.88018 23.2807C5.7981 23.2809 5.72764 23.3148 5.70627 23.3978C5.28919 23.4615 4.85673 23.493 4.42426 23.5183C4.37953 23.5215 4.32323 23.4908 4.27081 23.4756C4.09856 23.4236 4.09855 23.4252 3.59472 23.4107C3.54247 23.4092 3.47136 23.3879 3.44498 23.3664C3.33565 23.2729 3.33816 23.1699 3.28471 23.0701C3.38092 23.0055 3.47708 22.9423 3.57704 22.8791C3.77695 22.7513 4.0368 22.6387 4.19179 22.4986C4.15729 22.4234 4.1116 22.3482 4.275 22.2864C4.74041 22.2088 4.73671 22.2088 4.86266 22.1349C5.222 21.9253 5.57757 21.7142 5.95187 21.5077C6.05194 21.4537 6.0516 21.4245 5.87224 21.4018C5.81621 21.3958 5.75642 21.3943 5.69676 21.3975C5.51036 21.4086 5.32416 21.4366 5.14128 21.4307C4.95841 21.4264 4.82328 21.3591 4.67355 21.3179C4.52007 21.2751 4.36657 21.2308 4.21307 21.1865C4.03778 21.1914 3.86299 21.2348 3.6868 21.1659C3.55184 21.1124 3.3835 21.0743 3.23 21.03C3.34423 20.913 3.55956 20.8235 3.72619 20.7203C3.87801 20.6263 3.88168 20.6279 4.29118 20.555C4.48477 20.5208 4.54981 20.3471 4.38504 20.2967C4.18656 20.2356 3.97699 20.1791 3.77482 20.1211C3.59953 20.126 3.421 20.1678 3.25227 20.0989C3.12106 20.0469 2.97137 20.0119 2.75523 20.0322C2.39003 20.0666 2.01717 20.0842 1.64816 20.1125C1.52143 20.1219 1.38328 20.116 1.32668 20.0639C1.28893 20.0271 1.39651 19.9762 1.51949 19.9652C1.70584 19.9495 1.87348 19.9308 1.96582 19.8538C2.05442 19.7769 2.21827 19.7535 2.41214 19.7424C2.46433 19.7393 2.52385 19.7207 2.54974 19.7022C2.68296 19.6129 2.83126 19.5358 3.11857 19.5384C3.23758 19.5075 3.30049 19.469 3.26274 19.4321C3.24011 19.4122 3.16149 19.3862 3.11676 19.3894C2.80729 19.4053 2.49784 19.4212 2.19598 19.4494C2.05436 19.4619 1.94615 19.4652 1.85605 19.4192C1.79225 19.3886 1.82532 19.3471 1.94416 19.3023C2.04816 19.2637 2.07749 19.2191 2.0694 19.1669C2.04927 19.0456 1.93689 19.0104 1.57883 19.0187C1.32149 19.0253 1.25782 19.0055 1.20058 18.9011C1.18536 18.8765 1.14771 18.8428 1.17362 18.8259C1.33277 18.7211 1.43567 18.5919 1.73726 18.5422C1.85642 18.5236 1.98321 18.5233 2.05734 18.4833C2.13147 18.4432 2.19809 18.397 2.27597 18.3584C2.37241 18.3122 2.43897 18.2691 2.39385 18.2399C2.3186 18.1878 2.1992 18.1834 2.06139 18.2021C1.94219 18.2177 1.81537 18.2194 1.69236 18.2289C1.47246 18.2461 1.29293 18.2065 1.266 18.139C1.19294 17.9609 1.11615 17.7843 1.05056 17.6062C1.04284 17.5847 1.0611 17.557 1.09073 17.5386C1.1944 17.4738 1.30562 17.4122 1.41304 17.349C1.53901 17.2766 1.74067 17.2901 1.91212 17.276C2.15437 17.2556 2.15431 17.2571 2.47709 17.109C2.60322 17.0504 2.82363 17.0731 2.95357 17.0206C2.9944 17.0037 3.05749 16.9759 3.04611 16.9606C3.03094 16.9406 2.95618 16.9254 2.90011 16.9163C2.84776 16.9071 2.7843 16.9026 2.7284 16.9074C2.04994 16.9531 1.37527 17.0019 0.696801 17.0461C0.581242 17.054 0.453981 17.0204 0.412363 16.9728C0.370783 16.9284 0.381284 16.8745 0.373205 16.8239C0.48063 16.7607 0.602987 16.7021 0.695432 16.6343C0.765681 16.582 0.847491 16.5588 0.989222 16.5555C1.1757 16.5505 1.3583 16.5318 1.56706 16.5176C1.95232 16.2926 2.32997 16.0569 2.74509 15.8319C2.91187 15.741 2.86977 15.6488 2.90217 15.552C2.93466 15.4628 3.18478 15.4762 3.35234 15.4498C3.48639 15.4281 3.5305 15.3788 3.47786 15.3451C3.44777 15.3252 3.38037 15.3023 3.32814 15.3024C3.20503 15.3026 3.08208 15.3166 2.95906 15.3245C2.83604 15.3324 2.69422 15.3281 2.59381 15.3544C2.49711 15.3791 2.43429 15.4314 2.37141 15.4761C2.30112 15.5254 2.20813 15.5425 2.06639 15.5458C1.88363 15.5492 1.701 15.5633 1.51832 15.5744C1.31613 15.5148 1.10646 15.4568 0.91169 15.3942C0.874233 15.3819 0.866301 15.3466 0.869751 15.3236C0.876484 15.2636 0.820088 15.2268 0.696618 15.1979C0.591858 15.1735 0.505613 15.1383 0.40824 15.1077C0.48235 15.0661 0.563969 15.026 0.623119 14.9814C0.752554 14.8874 0.915902 14.8196 1.19948 14.8221C1.31067 14.762 1.39928 14.6881 1.54428 14.6464C1.68183 14.6062 1.91736 14.6457 2.02072 14.5549C2.07241 14.5103 2.15018 14.4594 2.25069 14.4408C2.41075 14.4114 2.61986 14.4264 2.71208 14.3402C2.76744 14.2909 2.84895 14.2462 2.95699 14.2337C3.07993 14.2197 3.20671 14.2164 3.29589 14.1871C3.3442 14.1716 3.39614 14.1469 3.39588 14.1254C3.39571 14.1116 3.32089 14.0902 3.26855 14.0811C3.21992 14.0704 3.15633 14.0629 3.10041 14.066C2.91398 14.0756 2.73139 14.0928 2.54496 14.1023C2.49277 14.1055 2.43296 14.0948 2.37689 14.0857C2.21244 14.0614 2.22323 14.0307 2.35314 13.9752C2.48306 13.9212 2.57554 13.8518 2.68296 13.7887C2.80221 13.7777 2.95148 13.7821 3.0332 13.7527C3.17066 13.7049 3.26679 13.6356 3.37798 13.5755C3.50099 13.566 3.62779 13.5627 3.74323 13.5456C3.79166 13.5394 3.81365 13.5056 3.85445 13.4855C3.92859 13.447 3.99139 13.3916 4.0919 13.373C4.25571 13.345 4.4573 13.3554 4.55327 13.2708C4.60864 13.2215 4.69377 13.1691 4.7982 13.1659C5.08912 13.1592 5.21121 13.0745 5.35947 12.9943C5.47066 12.9342 5.70981 12.9646 5.8322 12.9044C5.91381 12.8659 5.97295 12.8181 6.05458 12.7811C6.08797 12.7657 6.15874 12.7579 6.21464 12.7532C6.52028 12.7296 6.82972 12.7122 7.13534 12.6871C7.18378 12.6824 7.22831 12.6593 7.26539 12.6408C7.34325 12.6007 7.39102 12.5453 7.4877 12.519C7.58439 12.4927 7.72241 12.4925 7.8417 12.4846C8.22568 12.4609 8.25563 12.467 8.42939 12.3361C8.56987 12.2298 8.91779 12.3045 9.03202 12.1875C9.09835 12.1198 9.22073 12.0643 9.44076 12.0563C9.75028 12.045 10.0558 12.0152 10.3652 11.9947C10.6411 11.9758 10.6374 11.9758 10.9341 11.8324C11.0676 11.7677 11.2655 11.7765 11.4407 11.7639C11.6271 11.7513 11.7985 11.7326 11.8871 11.6556C11.9757 11.5802 12.1395 11.5553 12.3296 11.5442C12.5049 11.5332 12.7027 11.5405 12.84 11.4788C13.174 11.3308 13.1702 11.3292 13.4051 11.3135C13.7741 11.2882 14.1432 11.263 14.5122 11.2363C14.7582 11.2189 15.0156 11.2154 15.2465 11.1812C15.4141 11.1563 15.4876 11.0702 15.5951 11.0101C15.9007 10.9865 16.2064 10.9629 16.512 10.9409C16.9407 10.9094 17.3731 10.881 17.8055 10.8511C17.9913 10.7924 18.0159 10.6633 18.3292 10.6566C18.5157 10.6532 18.6983 10.6329 18.8847 10.6203C19.1941 10.5982 19.4997 10.5701 19.8092 10.5588C20.0441 10.5507 20.0841 10.4676 20.2066 10.4152C20.2474 10.3967 20.2844 10.3705 20.3328 10.3658C20.8173 10.3219 21.3171 10.3119 21.7901 10.2481C21.8386 10.2418 21.8829 10.2095 21.8939 10.1864C21.9012 10.1741 21.8375 10.1512 21.7963 10.1405C21.7476 10.1283 21.6841 10.1161 21.6319 10.1193C20.0924 10.2249 18.5529 10.332 17.0133 10.4376C16.7971 10.4534 16.7971 10.4518 16.2731 10.6217C16.2285 10.6356 16.1764 10.6511 16.1205 10.6558C15.8745 10.6747 15.6247 10.6859 15.3825 10.7093C15.185 10.7281 15.0207 10.7099 14.8782 10.6549C14.777 10.6151 14.6723 10.603 14.5455 10.6063C14.4038 10.6112 14.3108 10.6282 14.2292 10.6699C14.1217 10.7269 14.0667 10.8007 13.8393 10.8165C12.7917 10.8844 11.7442 10.9599 10.7005 11.0324C10.5547 11.0111 10.4834 10.979 10.5203 10.9405C10.5424 10.9175 10.5868 10.8867 10.6315 10.8835C11.0602 10.8505 11.4926 10.8221 11.9213 10.7906C11.9809 10.7859 12.063 10.7888 12.0964 10.7734C12.2597 10.704 12.3181 10.5917 12.6276 10.5835C12.8067 10.5786 12.9892 10.5552 13.1605 10.5334C13.2089 10.5272 13.2533 10.4949 13.2642 10.4718C13.2678 10.4595 13.2078 10.4366 13.1629 10.4259C12.9982 10.3816 12.8087 10.4357 12.6441 10.4053C12.5881 10.3946 12.5095 10.3794 12.4981 10.361C12.4904 10.3441 12.5535 10.3163 12.598 10.2993C12.6389 10.2839 12.6947 10.27 12.7506 10.2653C13.2426 10.2291 13.7347 10.1914 14.2268 10.1629C14.4281 10.1518 14.5694 10.1131 14.6581 10.0423C14.7246 9.98992 14.8063 9.96213 14.9331 9.95423C15.7942 9.89589 16.6552 9.83141 17.5201 9.77767C17.7363 9.76501 17.8477 9.71412 17.9364 9.6479C18.0067 9.59555 18.0885 9.57696 18.2265 9.56751C19.4604 9.48547 20.6867 9.39424 21.9206 9.31528C22.148 9.30106 22.2144 9.23488 22.3294 9.17784C22.3701 9.15779 22.3959 9.13317 22.448 9.12079C22.5001 9.10841 22.5672 9.10981 22.6306 9.10663C23.6147 9.03886 24.5989 8.96649 25.5868 8.90332C25.8179 8.88909 25.8617 8.81219 25.9804 8.75821C26.0212 8.74124 26.0582 8.71353 26.1067 8.70884C26.8447 8.65532 27.5828 8.60488 28.3209 8.5529C28.8129 8.51824 29.3049 8.48359 29.797 8.45047C30.0393 8.43468 30.0393 8.43314 30.3658 8.28662C30.4029 8.26966 30.455 8.24959 30.5034 8.2449C31.9199 8.14411 33.3327 8.04796 34.7492 7.94871C34.8685 7.94082 34.9538 7.90532 35.0129 7.85298C35.0719 7.80065 35.1574 7.76516 35.273 7.75728C36.38 7.67854 37.4871 7.60134 38.598 7.52721C38.7993 7.51457 38.9406 7.47745 39.0293 7.40816C39.0958 7.35581 39.1776 7.32802 39.3043 7.32012C40.4115 7.24445 41.5186 7.16416 42.6295 7.09156C42.842 7.07737 42.9458 7.02496 43.0495 6.96333C43.0865 6.94175 43.116 6.90636 43.1607 6.90321C43.7123 6.85924 44.2602 6.81373 44.8157 6.78358C45.0469 6.77088 45.1244 6.70622 45.217 6.64461C45.291 6.59531 45.3766 6.57827 45.5183 6.57188C45.8278 6.55752 46.1334 6.53088 46.4352 6.50424C46.48 6.49955 46.5355 6.46565 46.539 6.44414C46.546 6.40418 46.4598 6.37667 46.3178 6.36309C44.8417 6.46552 43.3618 6.56794 41.8857 6.67036C41.6434 6.68769 41.6434 6.68769 41.3168 6.83421C41.2797 6.85118 41.2277 6.87124 41.1755 6.87594C39.759 6.97519 38.3463 7.0729 36.9298 7.17215C36.8105 7.18004 36.7251 7.21552 36.6661 7.26786C36.607 7.32019 36.5215 7.35568 36.406 7.36356C35.0528 7.45809 33.6998 7.55416 32.3428 7.64409C32.1415 7.65673 32.0002 7.69229 31.9115 7.76312C31.845 7.81547 31.7633 7.84328 31.6365 7.85118C30.343 7.93946 29.0532 8.03233 27.7559 8.11755C27.6254 8.12546 27.528 8.08107 27.5349 8.03958C27.5384 8.01806 27.5938 7.98265 27.6386 7.9795C28.3132 7.92763 28.9842 7.87422 29.6627 7.83463C29.8901 7.82195 29.9564 7.75423 30.0714 7.69719C30.1084 7.67715 30.138 7.65098 30.1864 7.64014C30.2384 7.62776 30.3056 7.62919 30.369 7.626C31.9682 7.51415 33.5673 7.40076 35.1703 7.29504C35.4014 7.27928 35.4452 7.20391 35.564 7.14993C35.6048 7.13142 35.6418 7.10371 35.6902 7.10056C36.1822 7.06283 36.6743 7.02971 37.1664 6.99659C38.0275 6.93672 38.8885 6.87684 39.7533 6.81695C40.0031 6.79962 40.0031 6.79961 40.3222 6.65464C40.3593 6.63768 40.4113 6.6161 40.4598 6.61294C42.7374 6.45382 45.015 6.29469 47.2926 6.1371C47.4119 6.12921 47.4973 6.09373 47.5563 6.04139C47.6154 5.99059 47.7007 5.95357 47.8163 5.94415C50.8953 5.72986 53.9707 5.51557 57.0498 5.30435C57.251 5.29018 57.3924 5.25766 57.4811 5.1853C57.5438 5.13296 57.6293 5.10516 57.756 5.09573C61.1408 4.86093 64.5255 4.62615 67.9139 4.38981C70.1916 4.23222 72.4692 4.07156 74.7468 3.91704C74.9556 3.90286 75.0669 3.85503 75.1706 3.79186C75.2039 3.77029 75.2371 3.7349 75.2818 3.73174C75.7701 3.69249 76.2583 3.65631 76.7466 3.62013C76.9001 3.66134 77.0535 3.70103 77.207 3.74224C77.3219 3.68366 77.4332 3.62355 77.5481 3.56497C78.2863 3.51913 79.0129 3.44873 79.7588 3.42593C79.8073 3.42431 79.8598 3.45341 79.9122 3.46869C80.2604 3.56487 80.458 3.55684 80.6766 3.42741C80.7544 3.38119 80.821 3.33959 80.9403 3.3317C81.3093 3.30341 81.6822 3.28432 82.0475 3.25143C82.245 3.23418 82.4093 3.24926 82.5517 3.30432C82.6529 3.34409 82.7576 3.36081 82.8806 3.35138C83.5591 3.30411 84.2338 3.25838 84.9122 3.20804C84.9606 3.20489 85.005 3.17868 85.0421 3.16018C85.12 3.1201 85.1866 3.07698 85.2607 3.03537C85.3618 3.06131 85.474 3.08109 85.5565 3.11475C85.6614 3.15451 85.7584 3.15433 85.9 3.14333C88.6063 2.95274 91.3163 2.76674 94.0226 2.57461C94.2537 2.55885 94.3552 2.6232 94.5123 2.65673C94.5647 2.66893 94.6171 2.68419 94.6731 2.68717C94.7328 2.69014 94.7961 2.68082 94.8558 2.67611C96.8874 2.53431 98.919 2.39404 100.951 2.25224C101.219 2.23334 101.219 2.23334 101.619 2.32789C101.668 2.3401 101.732 2.35382 101.784 2.34912C102.708 2.2876 103.633 2.22147 104.553 2.15842C104.673 2.15053 104.774 2.17493 104.882 2.21008C105.096 2.27884 105.111 2.27882 105.266 2.17715C105.34 2.1294 105.418 2.10006 105.541 2.08602C105.675 2.07042 105.784 2.07486 105.888 2.10233C106.038 2.14048 106.147 2.20481 106.374 2.18751C107.358 2.1136 108.346 2.05197 109.327 1.97652C109.55 1.95923 109.67 2.01126 109.82 2.04941C109.872 2.06314 109.921 2.08457 109.977 2.08908C110.033 2.09359 110.1 2.08271 110.16 2.078C111.39 1.9929 112.624 1.90935 113.85 1.81811C114.081 1.80081 114.183 1.86668 114.34 1.90021C114.392 1.91241 114.452 1.93382 114.501 1.93067C115.239 1.88176 115.981 1.82976 116.719 1.77778C116.983 1.75888 116.983 1.76042 117.387 1.85343C117.436 1.86564 117.5 1.87782 117.552 1.87466C118.413 1.81632 119.278 1.75643 120.139 1.69656C120.404 1.67766 120.404 1.67767 121.169 1.75623C121.225 1.76227 121.285 1.7714 121.341 1.76823C122.325 1.70046 123.313 1.63421 124.297 1.56183C124.495 1.54766 124.659 1.55966 124.801 1.61472C124.903 1.65449 125.007 1.67122 125.13 1.66178C126.237 1.58458 127.348 1.51045 128.452 1.42864C128.664 1.41291 128.803 1.44645 128.952 1.49075C129.001 1.50603 129.05 1.52746 129.106 1.5335C129.162 1.53955 129.225 1.53329 129.285 1.52858C130.392 1.45138 131.503 1.37878 132.606 1.29544C132.83 1.27815 132.95 1.33017 133.1 1.36832C133.152 1.38206 133.208 1.40961 133.253 1.408C133.685 1.38113 134.118 1.35734 134.546 1.31819C134.777 1.29628 134.879 1.36676 135.036 1.40029C135.089 1.41095 135.148 1.43391 135.197 1.43075C136.121 1.36923 137.046 1.30464 137.967 1.23851C138.097 1.22907 138.194 1.24271 138.299 1.28247C138.438 1.336 138.599 1.35723 138.8 1.33999C139.228 1.30391 139.661 1.27858 140.093 1.24864C140.347 1.2313 140.347 1.2313 141.124 1.30984C141.18 1.31589 141.24 1.325 141.296 1.32183C142.034 1.27139 142.775 1.22247 143.51 1.16743C143.707 1.15172 143.872 1.16526 144.014 1.22032C144.115 1.26009 144.216 1.27682 144.343 1.26738C145.021 1.22011 145.696 1.17285 146.375 1.12558C146.621 1.10825 146.866 1.07863 147.113 1.0782C147.292 1.07943 147.423 1.15294 147.584 1.18953C147.629 1.20021 147.704 1.1878 147.763 1.18463C148.624 1.12475 149.489 1.06947 150.346 1.00192C150.57 0.984633 150.69 1.03666 150.84 1.0748C150.892 1.08854 150.948 1.1161 150.993 1.11448C151.303 1.09705 151.608 1.07347 151.918 1.05296C152.287 1.02774 152.66 1.00865 153.025 0.97422C153.323 0.946049 153.436 1.07951 153.675 1.0837C153.858 1.08799 154.044 1.06156 154.227 1.04895C154.596 1.02373 154.965 0.995435 155.334 0.973286C155.465 0.965377 155.565 0.940611 155.605 0.885233C155.613 0.874466 155.549 0.851541 155.508 0.837786C155.01 0.681945 155.01 0.681938 154.51 0.716604C154.201 0.73865 153.895 0.760694 153.586 0.779667C153.534 0.78283 153.474 0.770644 153.421 0.761517C153.272 0.735659 153.286 0.70491 153.413 0.649383C153.539 0.593856 153.635 0.526097 153.742 0.462921C153.896 0.502599 154.046 0.542269 154.199 0.581947C154.322 0.574052 154.445 0.564634 154.568 0.556738C155.183 0.515726 155.798 0.473173 156.413 0.435233C156.458 0.432083 156.514 0.462716 156.567 0.477989C156.717 0.522282 156.851 0.560446 157.068 0.543171C157.619 0.497659 158.175 0.464431 158.726 0.425065C158.969 0.407745 158.969 0.407746 159.395 0.502258C159.444 0.512928 159.507 0.525109 159.559 0.521946C160.115 0.485645 160.667 0.446283 161.222 0.408447C161.341 0.400558 161.457 0.420328 161.544 0.464732C161.577 0.483109 161.57 0.513842 161.715 0.765549C162.158 0.969112 162.46 0.94709 162.765 0.928123C162.896 0.920214 163.011 0.912325 163.097 0.88145C163.141 0.864473 163.197 0.839791 163.197 0.819819C163.197 0.804456 163.114 0.780013 163.062 0.777031C162.692 0.746947 162.342 0.812089 161.981 0.826545C161.813 0.832981 161.667 0.779463 161.636 0.691946C161.628 0.667378 161.617 0.641282 161.605 0.61672C161.594 0.592159 161.586 0.566056 161.574 0.541495C161.429 0.534066 161.343 0.561864 161.28 0.614208C161.229 0.657315 161.155 0.706607 161.054 0.729826C160.954 0.754582 160.816 0.750221 160.693 0.758116C160.573 0.766005 160.443 0.786201 160.331 0.775642C160.219 0.763546 160.129 0.719141 160.024 0.691669C159.975 0.677927 159.916 0.658066 159.867 0.661223C159.438 0.688085 159.013 0.714931 158.588 0.749468C158.365 0.768292 158.252 0.703972 158.11 0.664274C157.998 0.633743 157.886 0.641609 157.868 0.712311C157.821 0.881388 157.994 0.951756 158.374 0.918833C158.687 0.890635 158.971 0.885548 159.218 0.989589C159.252 1.00336 159.33 1.00936 159.379 1.00621C159.684 0.98724 159.986 0.963669 160.292 0.944702C160.348 0.941532 160.408 0.947564 160.46 0.953618C161.222 1.03526 161.222 1.0368 161.479 1.01792C161.602 1.00849 161.722 1.0006 161.708 0.7671C161.94 0.516275 162.313 0.498731 162.674 0.461231C162.909 0.437778 163.01 0.505204 163.164 0.540273C163.216 0.552472 163.272 0.576951 163.321 0.573795C164.122 0.521704 164.92 0.466539 165.718 0.40831C165.852 0.398859 165.949 0.40791 166.054 0.447672C166.189 0.498137 166.338 0.530146 166.551 0.511341C166.976 0.473732 167.408 0.449941 167.841 0.418463C168.061 0.402718 168.061 0.402702 168.506 0.497182C168.554 0.507852 168.618 0.520033 168.67 0.516869C169.102 0.490001 169.531 0.457003 169.96 0.428604C170.079 0.420716 170.188 0.442034 170.281 0.483352C170.375 0.52467 170.487 0.545981 170.603 0.538099C171.035 0.509694 171.464 0.478233 171.893 0.449834C171.945 0.446671 172.008 0.457314 172.057 0.467984C172.513 0.562444 172.513 0.562428 172.722 0.546703C173.028 0.523127 173.341 0.511841 173.643 0.48059C173.937 0.449352 174.091 0.538184 174.293 0.586996C174.845 0.550702 175.4 0.520554 175.948 0.476586C176.172 0.457761 176.292 0.508247 176.442 0.547932C176.494 0.561668 176.547 0.59077 176.595 0.589149C176.782 0.58268 176.964 0.565466 177.147 0.552858C177.33 0.540251 177.516 0.527638 177.699 0.51503C177.908 0.55922 178.047 0.663447 178.345 0.627594C178.524 0.605774 178.714 0.600835 178.897 0.588227C179.08 0.575619 179.266 0.563007 179.449 0.550399C179.572 0.542503 179.699 0.537667 179.818 0.523633C180.038 0.500207 180.147 0.575306 180.304 0.608833C180.356 0.619496 180.416 0.637816 180.465 0.634659C180.834 0.61251 181.207 0.593428 181.568 0.557464C181.847 0.529325 182.038 0.57509 182.237 0.639271C182.278 0.653026 182.349 0.660584 182.401 0.657421C182.834 0.630552 183.262 0.597536 183.691 0.569137C183.807 0.561255 183.919 0.58564 184.013 0.625422C184.11 0.666734 184.218 0.686533 184.338 0.678644C184.766 0.650245 185.199 0.618759 185.628 0.59036C185.68 0.587197 185.743 0.59938 185.792 0.611586C186.211 0.706111 186.211 0.707648 186.457 0.688785C186.517 0.684073 186.58 0.680878 186.64 0.676165C186.945 0.654126 187.262 0.645904 187.56 0.608515C187.903 0.566438 188.154 0.618241 188.397 0.705389C188.703 0.686422 189.016 0.675121 189.314 0.643877C189.538 0.620444 189.658 0.678613 189.808 0.716761C189.86 0.730497 189.916 0.758053 189.961 0.754903C190.393 0.728034 190.826 0.704246 191.251 0.6651C191.482 0.64319 191.583 0.712136 191.741 0.747199C191.793 0.759398 191.849 0.780821 191.898 0.777664C192.144 0.764946 192.39 0.746074 192.636 0.728747C192.923 0.708276 192.923 0.709811 193.304 0.802864C193.484 0.847106 193.663 0.811458 193.838 0.8004C194.024 0.787785 194.2 0.778266 194.35 0.840995C194.443 0.880777 194.556 0.905164 194.671 0.898818C194.917 0.884564 195.167 0.87031 195.409 0.846844C195.603 0.828072 195.771 0.840064 195.913 0.896661C196.015 0.936429 196.119 0.956232 196.242 0.9468C196.794 0.90897 197.349 0.869583 197.901 0.833289C197.95 0.830132 198.017 0.843848 198.062 0.857597C198.167 0.885069 198.268 0.915613 198.369 0.946164C198.611 0.931916 198.861 0.925353 199.1 0.90343C199.353 0.881481 199.584 0.873396 199.783 0.957549C199.824 0.975913 199.884 1.00191 199.933 1.00029C200.119 0.993822 200.302 0.978146 200.485 0.965539C200.667 0.952931 200.854 0.940318 201.036 0.92771C201.249 0.965748 201.385 1.07613 201.683 1.04027C201.862 1.01845 202.052 1.01352 202.235 1.00091C202.417 0.988299 202.604 0.97415 202.786 0.963079C202.846 0.959902 202.913 0.9521 202.965 0.958154C203.022 0.964202 203.07 0.985631 203.119 1.00091C203.269 1.0452 203.407 1.08952 203.62 1.06303C203.798 1.04122 203.989 1.03627 204.171 1.02213C204.421 1.0048 204.421 1.0048 204.836 1.10087C205.005 1.14052 205.194 1.08796 205.355 1.12148C205.464 1.14433 205.557 1.18257 205.662 1.20851C205.707 1.21918 205.778 1.22366 205.83 1.2205C206.076 1.20625 206.326 1.19199 206.568 1.16853C206.766 1.14975 206.93 1.16789 207.069 1.22296C207.17 1.26273 207.271 1.27946 207.398 1.27003C208.013 1.22594 208.628 1.18799 209.239 1.1393C209.448 1.12204 209.616 1.14787 209.732 1.20298C209.931 1.29788 210.21 1.18525 210.416 1.26171C210.543 1.30911 210.671 1.3642 210.902 1.34076C211.327 1.30007 211.759 1.2778 212.188 1.2494C212.341 1.29062 212.495 1.33184 212.652 1.37305C212.898 1.35572 213.144 1.33839 213.39 1.32259C213.573 1.30999 213.759 1.29584 213.942 1.28477C214.001 1.28159 214.065 1.27533 214.121 1.28292C214.177 1.2905 214.222 1.3104 214.274 1.32567C214.533 1.4005 214.533 1.40205 214.958 1.37058C215.14 1.35644 215.316 1.34692 215.469 1.4081C215.612 1.4647 215.78 1.47516 215.973 1.45792C216.339 1.42656 216.708 1.40287 217.081 1.38072C217.196 1.37284 217.305 1.39877 217.402 1.43854C217.548 1.50128 217.727 1.49482 217.91 1.47761C218.152 1.45568 218.391 1.43376 218.597 1.51943C218.638 1.5378 218.702 1.56379 218.747 1.56218C219.053 1.54936 219.362 1.53961 219.66 1.5099C219.958 1.48019 220.105 1.57519 220.311 1.62092C220.616 1.60041 220.926 1.5799 221.231 1.5594C221.291 1.55469 221.362 1.54075 221.414 1.54834C221.635 1.58022 221.763 1.69522 222.065 1.65936C222.24 1.63908 222.43 1.63261 222.613 1.62768C222.661 1.62606 222.725 1.65206 222.759 1.67197C222.778 1.68269 222.759 1.71191 222.737 1.72732C222.67 1.77045 222.589 1.81055 222.53 1.8552C222.522 1.86136 222.593 1.88888 222.635 1.9011C222.736 1.92858 222.851 1.92378 222.985 1.91126C223.101 1.9003 223.221 1.9216 223.303 1.96755C223.337 1.98592 223.326 2.01667 223.257 2.11819C223.258 2.19346 223.335 2.15952 223.361 2.11031C223.401 2.03957 223.323 2.01667 223.174 2.05533C223.07 2.08317 223.018 2.12321 223.044 2.15542C223.06 2.1723 223.131 2.19368 223.257 2.11819C223.584 2.02544 223.83 2.00812 224.076 1.99079C224.139 1.98607 224.214 1.97057 224.259 1.97971C224.419 2.0163 224.569 2.0606 224.726 2.10181C224.905 2.09228 225.073 2.06894 225.249 2.12855C225.496 2.21262 225.507 2.20492 225.746 2.1876C225.869 2.17817 225.992 2.17029 226.115 2.16239C226.238 2.1545 226.335 2.17737 226.444 2.21252C226.665 2.28434 226.684 2.2843 226.828 2.18572C226.913 2.12566 226.972 2.10559 227.081 2.13305C227.44 2.22615 227.444 2.23228 227.75 2.2041C228.003 2.18061 228.242 2.17405 228.429 2.2613C228.557 2.32253 228.598 2.30863 228.698 2.24393C228.964 2.07294 229.087 2.07579 229.592 2.19782C229.828 2.25579 230.07 2.19239 230.309 2.18429C230.51 2.1778 230.652 2.21442 230.668 2.31118C230.68 2.37107 230.714 2.41404 230.849 2.43378C230.901 2.44137 230.965 2.45201 231.017 2.44884C231.326 2.42987 231.632 2.40783 231.941 2.38578C232.098 2.37476 232.183 2.30241 232.152 2.20722C232.117 2.10588 232.176 2.06889 232.4 2.03931C232.534 2.02218 232.642 2.02508 232.751 2.05254C232.871 2.08306 232.837 2.11077 232.734 2.16626C232.485 2.30189 232.516 2.38478 232.838 2.47794C232.95 2.51001 233.04 2.53905 233.067 2.58663C233.082 2.61119 233.068 2.64347 233.101 2.66185C233.285 2.76447 233.54 2.83009 233.824 2.87876C234.096 2.83681 234.283 2.90561 234.493 2.96055C234.658 3.00328 234.851 2.96608 235.026 2.95042C235.224 2.93317 235.388 2.94517 235.531 3.00177C235.632 3.04154 235.736 3.05979 235.859 3.05189C236.106 3.03456 236.355 3.02338 236.598 2.99838C236.806 2.97651 236.963 3.00697 237.095 3.05897C237.259 3.12475 237.442 3.07987 237.614 3.08879C237.845 3.09914 237.962 3.23567 238.264 3.19827C238.443 3.17645 238.629 3.16845 238.816 3.16198C238.864 3.16036 238.924 3.18638 238.965 3.20474C239.164 3.2889 239.395 3.28388 239.649 3.25886C239.824 3.24166 239.995 3.226 240.168 3.28409C240.452 3.38192 240.767 3.46741 241.066 3.55753C241.108 3.62813 241.079 3.71113 241.293 3.75224C241.405 3.77355 241.51 3.80565 241.596 3.84083C241.701 3.88213 241.798 3.89272 241.932 3.88173C242.174 3.8598 242.428 3.85474 242.667 3.82667C242.886 3.80171 243.025 3.85218 243.16 3.89957C243.269 3.93779 243.37 3.95604 243.5 3.92816C243.634 3.90181 243.731 3.91854 243.84 3.95983C243.993 4.01641 244.004 4.01025 244.512 4.02627C244.564 4.02772 244.628 4.05064 244.658 4.07056C244.673 4.08129 244.64 4.11209 244.614 4.1275C244.581 4.14599 244.529 4.16758 244.48 4.17227C243.929 4.21317 243.373 4.24947 242.821 4.29038C242.766 4.29508 242.706 4.30595 242.665 4.32139C242.621 4.33836 242.565 4.36149 242.565 4.383C242.565 4.39836 242.64 4.41667 242.692 4.42734C242.857 4.46239 243.05 4.40828 243.211 4.44795C243.32 4.47388 243.41 4.51058 243.518 4.53498C243.563 4.54565 243.634 4.544 243.69 4.54083C243.876 4.52975 244.059 4.51407 244.245 4.50453C244.298 4.5029 244.358 4.51817 244.406 4.53038C244.765 4.62193 244.765 4.62193 245.075 4.60142C245.198 4.59352 245.328 4.57025 245.444 4.57927C245.556 4.58829 245.654 4.6296 245.755 4.65554C245.964 4.71049 246.163 4.76391 246.179 4.88372C246.187 4.92979 246.311 4.96952 246.434 4.97238C246.553 4.97524 246.68 4.95814 246.803 4.94871C247.093 4.92976 247.094 4.92976 247.471 5.02282C247.576 5.04876 247.688 5.05163 247.822 5.03604C247.874 5.0298 247.938 5.03584 247.994 5.04343C248.177 5.06615 248.177 5.09534 248.059 5.15085C247.892 5.23256 247.907 5.24022 248.378 5.30854C248.557 5.33435 248.696 5.38327 248.846 5.42603C249.089 5.49474 249.085 5.49474 248.926 5.58566C248.889 5.60569 248.856 5.62726 248.818 5.64884C248.711 5.70894 248.626 5.77361 248.402 5.78015C248.156 5.78672 247.91 5.81174 247.664 5.82906C247.426 5.84638 247.363 5.88334 247.386 5.98777C247.414 6.1137 247.463 6.12745 247.892 6.12517C248.015 6.12495 248.123 6.13705 248.217 6.17837C248.173 6.22761 248.091 6.26616 247.972 6.27559C247.666 6.29916 247.357 6.31968 247.051 6.34018C246.805 6.35751 246.559 6.37483 246.313 6.39215C246.16 6.40317 246.064 6.48324 246.106 6.57227C246.129 6.62293 246.148 6.67359 246.168 6.72426C246.21 6.82558 246.289 6.85157 246.539 6.84653C246.602 6.84488 246.661 6.83248 246.721 6.83545C246.964 6.84578 247.081 6.97309 247.372 6.94647C247.614 6.92454 247.868 6.91949 248.106 6.89142C248.326 6.86646 248.45 6.92157 248.603 6.96278C248.656 6.97652 248.712 7.00559 248.757 7.00398C249.066 6.98654 249.376 6.96912 249.677 6.93941C249.819 6.92687 249.905 6.93593 250.017 6.97261C250.287 7.06125 250.294 7.05663 250.693 7.02828C250.984 7.00627 250.988 7.00933 251.362 7.1024C251.467 7.12833 251.579 7.12813 251.713 7.11561C251.888 7.09994 252.07 7.07505 252.254 7.09777C252.31 7.10382 252.381 7.12214 252.4 7.14208C252.411 7.15589 252.359 7.18978 252.315 7.20061C251.987 7.28107 251.603 7.26791 251.245 7.30079C251.133 7.31021 251.021 7.28121 250.927 7.23989C250.83 7.19858 250.725 7.18187 250.598 7.18977C250.352 7.20709 250.102 7.21828 249.86 7.24328C249.651 7.26515 249.506 7.23006 249.359 7.18269C249.311 7.16741 249.254 7.13832 249.206 7.13994C248.654 7.17162 248.099 7.20332 247.551 7.24729C247.331 7.26611 247.203 7.21717 247.054 7.17595C247.001 7.16221 246.949 7.13311 246.9 7.13473C246.714 7.1412 246.531 7.15842 246.345 7.17103C245.666 7.2183 244.992 7.26556 244.313 7.30976C244.268 7.31291 244.212 7.28074 244.16 7.267C244.059 7.23952 243.954 7.21358 243.849 7.18765C243.663 7.20026 243.48 7.21594 243.294 7.22548C243.159 7.23186 243.04 7.25359 243.022 7.312C243.012 7.35042 243.135 7.38554 243.266 7.38224C243.393 7.37895 243.519 7.36029 243.624 7.38008C244.144 7.4775 244.144 7.47904 244.468 7.45851C244.751 7.43958 244.721 7.42426 244.972 7.50832C245.081 7.54501 245.178 7.56636 245.301 7.55692C245.607 7.53489 245.916 7.51284 246.226 7.49386C246.274 7.49071 246.338 7.50596 246.386 7.51817C246.753 7.60971 246.753 7.61278 247.055 7.58921C247.45 7.56087 247.465 7.55316 247.731 7.64642C247.915 7.71063 248.082 7.66578 248.257 7.6624C248.459 7.72197 248.68 7.77536 248.864 7.84264C249.081 7.92216 249.309 7.90792 249.555 7.88445C249.737 7.86723 249.916 7.86078 250.066 7.92351C250.209 7.98164 250.38 7.9875 250.574 7.9718C250.749 7.95767 250.928 7.92816 251.111 7.96164C251.16 7.97077 251.235 7.99369 251.231 8.00753C251.228 8.02904 251.18 8.05985 251.131 8.06916C250.789 8.13274 250.412 8.13185 250.05 8.16167C250.002 8.16636 249.938 8.14957 249.89 8.13736C249.785 8.10989 249.684 8.07781 249.583 8.0488C249.4 8.05833 249.213 8.06172 249.035 8.08047C248.897 8.09453 248.792 8.09319 248.691 8.0565C248.597 8.02286 248.496 7.98155 248.384 7.97099C248.272 7.96043 248.142 7.9837 248.019 7.99313C247.896 8.00256 247.754 7.99819 247.657 8.02294C247.561 8.04769 247.502 8.10157 247.439 8.1447C247.368 8.19244 247.271 8.20799 247.13 8.21284C246.999 8.21768 246.895 8.21171 246.797 8.16886C246.756 8.1505 246.7 8.13676 246.644 8.12457C246.591 8.1139 246.531 8.0971 246.483 8.10026C245.927 8.13656 245.376 8.17594 244.82 8.21378C244.545 8.23269 244.548 8.23267 243.973 8.14303C243.92 8.13544 243.857 8.1248 243.805 8.12796C243.495 8.14693 243.189 8.16898 242.88 8.19102C242.567 8.21307 242.571 8.20999 242.036 8.11413C241.939 8.09587 241.797 8.1207 241.682 8.11782C241.439 8.11056 241.318 7.98173 241.035 8.0068C240.793 8.02873 240.539 8.03377 240.297 8.06185C240.077 8.08681 239.949 8.03327 239.8 7.99205C239.747 7.97831 239.691 7.94768 239.646 7.95083C239.091 7.98559 238.539 8.02496 237.8 8.03085C237.618 8.03117 237.7 8.06329 237.82 8.07384C237.991 8.09044 238.047 8.05808 237.953 7.99679C237.885 7.95389 237.788 7.93254 237.71 7.94343C237.669 7.94964 237.617 7.97893 237.8 8.03085C237.995 8.08889 237.984 8.12117 238.018 8.13955C238.101 8.18396 238.217 8.20219 238.336 8.19584C238.522 8.18476 238.705 8.16908 238.891 8.15954C238.944 8.15638 239.007 8.16702 239.056 8.17923C239.467 8.27377 239.471 8.27991 239.907 8.24228C240.045 8.23129 240.146 8.23111 240.254 8.26011C240.404 8.2998 240.513 8.3672 240.74 8.3453C241.042 8.31558 241.352 8.29816 241.661 8.28072C241.71 8.27756 241.762 8.30512 241.818 8.31732C241.972 8.35392 242.085 8.42286 242.312 8.39328C242.487 8.36993 242.677 8.36344 242.863 8.35851C242.912 8.35688 242.987 8.38134 243.009 8.40127C243.055 8.43653 242.999 8.47812 242.873 8.50753C242.821 8.51991 242.75 8.51695 242.69 8.52167C242.444 8.53899 242.198 8.55785 241.952 8.5721C241.822 8.58001 241.699 8.60328 241.684 8.66015C241.674 8.69858 241.808 8.73213 241.935 8.72884C242.122 8.72391 242.308 8.71129 242.487 8.69101C242.804 8.65666 243.08 8.6654 243.338 8.76174C243.522 8.82902 243.511 8.80447 243.707 9.00385C243.756 9.05446 243.902 9.05881 244.029 9.05552C244.334 9.04731 244.476 9.07011 244.451 9.11778C244.418 9.17622 244.31 9.19483 244.172 9.20275C243.926 9.21547 243.68 9.23588 243.434 9.25321C243.374 9.25792 243.307 9.26725 243.251 9.26427C243.195 9.2613 243.143 9.24295 243.094 9.22921C242.989 9.2002 242.899 9.1558 242.787 9.14524C242.675 9.13468 242.545 9.15795 242.422 9.16738C242.299 9.17528 242.169 9.19855 242.057 9.18799C241.944 9.17743 241.851 9.13152 241.75 9.10404C241.701 9.0903 241.641 9.06888 241.592 9.0705C241.346 9.08322 241.1 9.10362 240.854 9.11941C240.552 9.13991 240.552 9.13991 240.186 9.0453C240.081 9.01782 239.973 9.01955 239.835 9.03208C239.537 9.05718 239.533 9.05257 238.987 8.96441C238.935 8.95528 238.871 8.94464 238.819 8.94934C238.263 8.98564 237.712 9.025 237.16 9.06283C236.687 9.09592 236.687 9.09593 236.427 9.25002C236.235 9.36404 236.231 9.36404 236.422 9.41594C236.575 9.45869 236.714 9.52144 236.882 9.54419C237.039 9.56543 237.233 9.49596 237.405 9.56633C237.491 9.60152 237.604 9.63973 237.712 9.64569C237.884 9.65307 238.066 9.6082 238.231 9.67551C238.313 9.70916 238.437 9.7443 238.541 9.74565C238.724 9.74841 238.911 9.72349 239.093 9.71242C239.149 9.70925 239.213 9.70914 239.265 9.71673C239.321 9.72585 239.37 9.74421 239.418 9.75949C239.568 9.81146 239.729 9.83576 239.923 9.80931C240.239 9.76574 240.523 9.78675 240.77 9.88465C240.804 9.89842 240.886 9.89982 240.938 9.89359C241.073 9.87799 241.188 9.87625 241.289 9.90526C241.33 9.91748 241.39 9.93887 241.383 9.95271C241.372 9.97578 241.328 10.0066 241.279 10.0143C240.929 10.0672 240.553 10.074 240.191 10.1023C240.143 10.1054 240.083 10.0856 240.034 10.0718C239.929 10.0443 239.839 9.99842 239.727 9.98787C239.615 9.9773 239.485 9.9975 239.362 10.0054C239.239 10.0133 239.108 10.0366 238.996 10.0275C238.884 10.017 238.779 9.97875 238.689 9.94511C238.584 9.90688 238.484 9.90246 238.346 9.91806C238.167 9.93834 237.98 9.94174 237.798 9.95281C237.697 9.92379 237.596 9.89169 237.491 9.86422C237.442 9.85048 237.382 9.83369 237.33 9.83532C237.084 9.84804 236.838 9.86689 236.592 9.88422C236.346 9.90154 236.346 9.90156 235.927 9.80704C235.878 9.79637 235.815 9.78419 235.762 9.78735C235.453 9.80632 235.147 9.82988 234.838 9.84886C234.719 9.85674 234.61 9.83543 234.513 9.79411C234.419 9.7528 234.307 9.72995 234.191 9.73783C233.699 9.77095 233.207 9.80253 232.715 9.8418C232.517 9.8575 232.349 9.84397 232.214 9.7889C232.057 9.72618 231.882 9.74185 231.699 9.75446C231.285 9.7859 231.282 9.78436 231.016 9.70647C230.963 9.6912 230.911 9.6621 230.862 9.66372C230.434 9.68751 230.001 9.70977 229.576 9.74738C229.353 9.76774 229.233 9.71418 229.083 9.6745C229.03 9.66076 228.974 9.63167 228.929 9.63482C228.62 9.65225 228.31 9.66816 228.009 9.69941C227.707 9.73066 227.589 9.58799 227.362 9.58992C227.052 9.592 226.747 9.62786 226.441 9.6499C226.195 9.66723 225.949 9.68455 225.703 9.70188C225.457 9.7192 225.211 9.73345 224.965 9.75385C224.835 9.76483 224.737 9.75117 224.629 9.71295C224.49 9.66249 224.325 9.62285 224.176 9.57702C223.947 9.51136 223.947 9.51135 223.671 9.53026C223.612 9.53498 223.548 9.53815 223.489 9.54286C223.038 9.57745 223.038 9.57438 222.462 9.47859C222.436 9.47403 222.369 9.49105 222.343 9.50339C222.265 9.54347 222.195 9.5866 222.124 9.6282C222.023 9.60379 221.9 9.59018 221.832 9.55497C221.641 9.45544 221.344 9.59268 221.149 9.4947C221.078 9.45795 220.954 9.4259 220.842 9.41688C220.726 9.40786 220.596 9.4296 220.477 9.43902C220.167 9.4626 220.167 9.46107 219.904 9.59826C219.771 9.66609 219.577 9.65413 219.401 9.6698C219.219 9.68702 219.043 9.69654 218.89 9.63382C218.751 9.57722 218.583 9.56369 218.386 9.58246C218.143 9.60593 217.894 9.62018 217.647 9.63444C217.595 9.6376 217.532 9.63004 217.479 9.62091C216.907 9.53126 216.907 9.52973 216.632 9.55018C216.509 9.55961 216.382 9.56289 216.263 9.57692C216.061 9.60185 215.908 9.56986 215.762 9.52095C215.713 9.50567 215.657 9.47659 215.608 9.47821C215.362 9.48632 215.12 9.50057 214.878 9.51482C214.691 9.52589 214.505 9.53236 214.326 9.55418C214.028 9.59004 213.881 9.49041 213.676 9.44468C213.37 9.46518 213.06 9.47955 212.755 9.50774C212.613 9.52027 212.52 9.51584 212.411 9.47915C212.273 9.4333 212.145 9.38129 211.922 9.40472C211.623 9.43597 211.31 9.44727 211.005 9.46624C210.799 9.41897 210.648 9.32243 210.354 9.35827C210.175 9.38009 209.985 9.38503 209.802 9.39764C209.556 9.41497 209.31 9.43077 209.064 9.44963C208.8 9.46853 208.803 9.46391 208.396 9.37398C208.16 9.32062 207.918 9.38095 207.679 9.39058C207.493 9.39859 207.401 9.46941 207.446 9.55998C207.492 9.65054 207.392 9.72139 207.221 9.73398C206.792 9.76391 206.36 9.79538 205.931 9.82224C205.879 9.8254 205.815 9.81476 205.767 9.80409C205.307 9.7081 205.307 9.70965 205.102 9.72383C204.796 9.74741 204.483 9.76023 204.181 9.78995C203.972 9.81028 203.819 9.7783 203.684 9.7263C203.579 9.68653 203.482 9.67748 203.348 9.68693C201.872 9.79243 200.395 9.89025 198.923 9.99881C198.703 10.0146 198.576 9.97023 198.426 9.92901C198.374 9.91527 198.325 9.88616 198.273 9.88625C198.149 9.88647 198.026 9.90051 197.903 9.90994C197.352 9.94777 196.8 9.99328 196.245 10.0219C196.01 10.0346 195.947 10.1054 195.847 10.1639C195.769 10.2086 195.68 10.2272 195.542 10.2336C195.408 10.24 195.311 10.2325 195.206 10.1927C195.071 10.1407 194.918 10.1087 194.709 10.1306C194.467 10.1556 194.221 10.1668 193.971 10.1841C193.844 10.192 193.747 10.2198 193.707 10.2752C193.7 10.2844 193.778 10.3073 193.823 10.3211C193.973 10.3669 194.115 10.4204 194.284 10.4524C194.456 10.4844 194.642 10.4472 194.821 10.4376C194.884 10.4344 194.944 10.4251 195.003 10.4266C195.059 10.428 195.127 10.4356 195.168 10.4493C195.363 10.5181 195.568 10.5654 195.837 10.5235C196.068 10.543 196.189 10.6703 196.483 10.636C196.662 10.6157 196.849 10.6062 197.035 10.5982C197.084 10.5966 197.136 10.6241 197.189 10.6379C197.338 10.676 197.458 10.7373 197.682 10.7107C197.92 10.6827 198.174 10.6776 198.416 10.6557C198.55 10.6432 198.648 10.6538 198.752 10.6935C198.887 10.744 199.041 10.7821 199.249 10.7572C199.428 10.7354 199.618 10.7304 199.801 10.7163C200.04 10.699 200.04 10.7005 200.466 10.795C200.515 10.8057 200.578 10.8179 200.631 10.8147C200.94 10.7957 201.246 10.7721 201.555 10.7532C201.674 10.7453 201.79 10.7651 201.873 10.8095C201.907 10.8278 201.896 10.8586 201.907 10.8847C201.292 10.9273 200.677 10.9637 200.066 11.0154C199.835 11.0358 199.73 10.973 199.576 10.9379C199.524 10.9257 199.468 10.8997 199.419 10.9028C198.987 10.9297 198.558 10.9581 198.129 10.9927C197.995 11.0036 197.894 10.9977 197.793 10.9533C197.534 10.8354 197.222 10.9005 196.931 10.9179C196.707 10.9306 196.637 10.9784 196.664 11.0797C196.699 11.1995 196.834 11.2361 197.177 11.214C197.3 11.2061 197.423 11.1951 197.546 11.1888C197.665 11.1824 197.774 11.2022 197.871 11.2435C197.965 11.2848 198.077 11.3062 198.193 11.2998C198.439 11.2856 198.689 11.2713 198.927 11.2478C199.125 11.2291 199.289 11.2441 199.428 11.3007C199.581 11.3635 199.76 11.3493 199.939 11.3352C200.357 11.3037 200.36 11.3053 200.623 11.3816C200.675 11.3969 200.728 11.426 200.776 11.4244C201.205 11.4006 201.637 11.3799 202.058 11.3423C202.278 11.3234 202.406 11.3724 202.552 11.4121C202.604 11.4258 202.657 11.4564 202.705 11.4533C203.015 11.4359 203.324 11.4184 203.626 11.3887C203.768 11.3746 203.853 11.3837 203.97 11.4204C204.247 11.5105 204.254 11.5074 204.646 11.4776C204.765 11.4681 204.895 11.451 205.007 11.4631C205.119 11.4752 205.209 11.5196 205.314 11.5471C205.363 11.5593 205.423 11.5761 205.475 11.5729C205.721 11.5602 205.967 11.5413 206.213 11.524C206.444 11.5067 206.444 11.5083 206.878 11.6028C207.054 11.6424 207.236 11.6083 207.412 11.5957C207.602 11.5815 207.773 11.5812 207.919 11.6409C208.066 11.7006 208.241 11.6972 208.427 11.6846C208.603 11.672 208.781 11.6379 208.961 11.679C209.372 11.7736 209.372 11.7751 209.626 11.7562C209.995 11.7295 210.36 11.7042 210.733 11.6805C210.781 11.6774 210.845 11.6957 210.894 11.7079C210.999 11.7354 211.089 11.7813 211.201 11.7919C211.313 11.804 211.443 11.7853 211.562 11.7759C211.946 11.746 211.972 11.7352 212.231 11.8362C212.448 11.9188 212.716 11.7985 212.918 11.8934C213.034 11.9469 213.192 11.9897 213.408 11.9632C213.586 11.9414 213.773 11.9349 213.959 11.9223C214.254 11.9018 214.254 11.9034 214.628 11.9949C214.677 12.0071 214.74 12.0223 214.789 12.0192C215.035 12.0065 215.285 11.9953 215.523 11.9672C215.803 11.9345 215.982 11.9925 216.192 12.049C216.357 12.0933 216.55 12.0561 216.725 12.0404C216.915 12.0247 217.087 12.029 217.23 12.0887C217.38 12.1499 217.555 12.1419 217.741 12.1293C217.916 12.1182 218.095 12.0826 218.275 12.1253C218.66 12.2199 218.66 12.2199 218.94 12.2009C219.186 12.1836 219.432 12.1648 219.678 12.152C219.726 12.1489 219.786 12.1687 219.835 12.1825C219.94 12.21 220.03 12.2559 220.142 12.2665C220.254 12.277 220.384 12.2568 220.507 12.2489C220.63 12.241 220.761 12.2178 220.873 12.2268C220.985 12.2358 221.09 12.274 221.179 12.3077C221.284 12.3474 221.381 12.3519 221.523 12.3363C221.702 12.316 221.888 12.311 222.071 12.3C222.172 12.329 222.277 12.358 222.374 12.3901C222.475 12.4237 222.584 12.4205 222.722 12.4095C223.18 12.3718 223.184 12.3764 223.569 12.471C223.745 12.5137 223.927 12.478 224.103 12.467C224.289 12.4544 224.464 12.4479 224.611 12.5091C224.753 12.5673 224.928 12.5746 225.115 12.5559C225.234 12.5434 225.361 12.5355 225.484 12.5306C225.54 12.529 225.607 12.535 225.648 12.5473C225.847 12.6114 226.041 12.6695 226.313 12.6275C226.552 12.6394 226.673 12.7652 226.96 12.7401C227.202 12.7182 227.456 12.7131 227.694 12.685C227.914 12.6601 228.071 12.7028 228.184 12.7564C228.387 12.8513 228.669 12.7218 228.871 12.8151C228.987 12.8687 229.137 12.9115 229.361 12.888C229.607 12.863 229.685 12.8951 229.758 12.9918C229.799 13.047 229.792 13.0916 229.718 13.1348C229.644 13.1794 229.562 13.1719 229.442 13.1214C229.303 13.0648 229.139 13.0543 228.941 13.067C228.748 13.0796 228.627 12.9999 228.466 12.9695C228.306 12.9375 228.116 12.9916 227.948 12.9504C227.551 12.8543 227.551 12.8543 227.283 12.8732C227.1 12.8858 226.91 12.8923 226.731 12.9141C226.519 12.9406 226.38 12.8932 226.234 12.8504C226.181 12.8352 226.129 12.8061 226.084 12.8077C225.655 12.8315 225.223 12.8537 224.798 12.8929C224.574 12.9132 224.454 12.8581 224.305 12.82C224.252 12.8063 224.196 12.7787 224.151 12.7818C223.782 12.804 223.417 12.8323 223.048 12.859C222.977 12.9006 222.9 12.9407 222.833 12.9854C222.763 13.0316 222.666 13.0517 222.524 13.0505C222.289 13.0509 222.059 13.1158 221.823 13.0348C221.579 12.9522 221.561 12.9569 221.326 12.9773C221.028 13.0039 220.71 12.9983 220.431 13.0587C220.383 13.0695 220.331 13.0988 220.331 13.1203C220.328 13.1341 220.406 13.154 220.455 13.1662C220.62 13.2028 220.809 13.1487 220.974 13.1868C221.082 13.2112 221.172 13.2479 221.281 13.2738C221.326 13.2845 221.393 13.2829 221.452 13.2812C221.516 13.2796 221.575 13.2687 221.635 13.2702C221.691 13.2716 221.751 13.2807 221.796 13.2945C222.002 13.3525 222.219 13.4059 222.402 13.4747C222.582 13.542 222.75 13.4956 222.929 13.4922C223.646 13.5985 223.646 13.6 224.127 13.5654C224.247 13.5575 224.37 13.5481 224.493 13.5494C224.545 13.5493 224.594 13.5769 224.646 13.5922C224.796 13.638 224.938 13.6792 225.147 13.6543C225.326 13.6325 225.516 13.6275 225.699 13.6134C225.945 13.5961 225.945 13.5961 226.364 13.6921C226.468 13.7165 226.58 13.7133 226.714 13.7007C226.83 13.6898 226.949 13.7126 227.032 13.757C227.066 13.7754 227.055 13.8061 227.067 13.8322C226.698 13.8575 226.325 13.875 225.967 13.9125C225.736 13.936 225.631 13.8701 225.477 13.835C225.425 13.8228 225.369 13.7968 225.32 13.7999C224.955 13.8236 224.59 13.8504 224.224 13.8817C224.18 13.8849 224.124 13.9203 224.121 13.9418C224.114 13.9818 224.207 14.02 224.342 14.0183C224.521 14.0164 224.696 13.99 224.857 14.0527C224.992 14.1078 225.16 14.1321 225.357 14.1071C225.477 14.0931 225.604 14.0929 225.723 14.0804C226.04 14.043 226.327 14.0501 226.567 14.1542C226.75 14.1815 226.929 14.1551 227.104 14.141C227.234 14.13 227.361 14.119 227.455 14.148C227.653 14.2092 227.848 14.2703 228.12 14.2283C228.415 14.2708 228.64 14.3611 228.887 14.4344C229.003 14.4695 229.093 14.4894 229.227 14.4661C229.283 14.4568 229.35 14.4566 229.41 14.4519C229.533 14.444 229.663 14.4207 229.775 14.4298C229.887 14.4403 229.981 14.4847 230.082 14.5122C230.131 14.5259 230.187 14.5489 230.235 14.5473C230.422 14.5393 230.604 14.5236 230.787 14.511C230.97 14.4999 231.152 14.4888 231.335 14.4778C231.488 14.5175 231.646 14.5571 231.799 14.5968C232.045 14.5795 232.291 14.5621 232.534 14.5464C232.806 14.5274 232.806 14.529 233.199 14.6236C233.374 14.6663 233.561 14.6383 233.728 14.618C234.008 14.5853 234.195 14.6433 234.393 14.7044C234.435 14.7167 234.509 14.7242 234.558 14.718C234.751 14.6961 234.919 14.7127 235.062 14.7693C235.163 14.8091 235.264 14.8274 235.387 14.8195C235.816 14.7896 236.245 14.7581 236.673 14.7312C236.725 14.728 236.785 14.7418 236.834 14.754C237.216 14.847 237.219 14.8516 237.499 14.8266C237.749 14.8046 237.98 14.795 238.179 14.8792C238.22 14.8975 238.284 14.9235 238.328 14.9219C238.634 14.906 238.944 14.8886 239.245 14.8619C239.383 14.8494 239.48 14.8539 239.589 14.889C239.728 14.9333 239.851 14.9869 240.079 14.9665C240.708 14.9086 240.712 14.9178 241.46 15.0225C241.512 15.0301 241.583 15.0177 241.642 15.0114C241.769 14.9958 241.863 15.0172 241.975 15.0523C242.226 15.1318 242.233 15.1271 242.472 15.1098C242.654 15.0957 242.845 15.0923 243.023 15.0689C243.299 15.0347 243.483 15.0943 243.689 15.1507C243.853 15.195 244.043 15.1578 244.218 15.1437C244.408 15.128 244.58 15.1323 244.723 15.1904C244.82 15.2302 244.925 15.2515 245.048 15.2436C245.476 15.2152 245.905 15.1838 246.334 15.1554C246.386 15.1522 246.45 15.1644 246.498 15.175C246.925 15.2696 246.925 15.2742 247.346 15.2381C247.48 15.2271 247.592 15.2238 247.693 15.2559C247.79 15.2865 247.895 15.3155 247.996 15.3445C248.179 15.3334 248.366 15.33 248.544 15.3113C248.682 15.2972 248.779 15.3032 248.888 15.3353C249.03 15.3765 249.15 15.4485 249.374 15.4128C249.489 15.3957 249.624 15.4001 249.739 15.3845C249.877 15.3643 249.97 15.3764 250.079 15.4162C250.214 15.4636 250.352 15.5125 250.569 15.4875C250.807 15.4595 251.061 15.4544 251.303 15.4325C251.437 15.42 251.531 15.4321 251.639 15.4718C251.774 15.5223 251.927 15.5543 252.136 15.534C252.561 15.4948 252.565 15.5025 252.98 15.5986C253.085 15.623 253.197 15.6197 253.331 15.6072C253.446 15.5962 253.566 15.6191 253.649 15.6635C253.728 15.7125 253.72 15.7432 253.728 15.7693ZM220.315 1.9712C220.192 1.97909 220.069 1.98852 219.888 1.85518C219.877 1.83215 219.884 1.80449 219.858 1.78457C219.797 1.74319 219.704 1.71416 219.592 1.70975C219.39 1.70395 219.148 1.7566 219.152 1.79654C219.157 1.83033 219.22 1.8594 219.344 1.88684C219.396 1.8975 219.438 1.91587 219.486 1.92808C219.628 1.96317 219.741 2.03212 219.946 1.99643C219.907 1.90124 219.927 1.94883 219.946 1.99643C219.928 2.05484 219.984 2.09622 220.119 2.11289C220.156 2.11743 220.212 2.11425 220.242 2.10499C220.357 2.07099 220.375 2.02487 220.288 1.90366C220.273 1.92365 220.285 1.95896 220.319 1.96812C220.352 1.97728 220.434 1.96946 220.475 1.95864C220.579 1.92927 220.631 1.89076 220.605 1.85855C220.589 1.84167 220.518 1.82029 220.474 1.82037C220.395 1.8205 220.325 1.85442 220.315 1.9712ZM250.699 19.7353C250.427 19.7649 250.113 19.7547 249.842 19.8151C249.793 19.8259 249.745 19.8537 249.742 19.8752C249.738 19.889 249.813 19.9089 249.858 19.9196C249.959 19.944 250.071 19.9361 250.201 19.9282C250.399 19.9171 250.515 19.9875 250.669 20.0226C250.717 20.0333 250.781 20.0408 250.833 20.0377C251.135 20.0187 251.433 19.9982 251.735 19.9762C251.787 19.9715 251.843 19.9607 251.888 19.9467C252.036 19.9019 252.021 19.8728 251.875 19.8392C251.714 19.8026 251.587 19.7414 251.422 19.7125C251.187 19.6714 250.948 19.7271 250.699 19.7353ZM229.525 20.8936C229.343 20.9062 229.164 20.9188 228.981 20.9314C228.921 20.9361 228.858 20.9377 228.802 20.944C228.687 20.9549 228.601 20.9873 228.546 21.0381C228.632 21.0779 228.737 21.1008 228.853 21.096C229.035 21.0864 229.214 21.0662 229.397 21.0612C229.595 21.0547 229.711 21.1237 229.864 21.1588C229.913 21.1694 229.973 21.1709 230.029 21.1723C230.305 21.178 230.472 21.0978 230.418 20.9857C230.38 20.8982 230.237 20.8462 230.066 20.8573C229.887 20.8684 229.704 20.881 229.525 20.8936ZM251.947 17.4624C251.991 17.4362 252.04 17.4177 252.062 17.3946C252.128 17.3161 252.101 17.2578 251.977 17.1966C251.827 17.1215 251.645 17.1726 251.477 17.1805C251.436 17.1821 251.392 17.2145 251.37 17.2345C251.355 17.2483 251.355 17.2775 251.378 17.2852C251.561 17.3463 251.756 17.4028 251.947 17.4624ZM219.527 12.9804C219.349 12.993 219.166 13.0025 218.987 13.0197C218.942 13.0244 218.902 13.0537 218.876 13.0737C218.828 13.1106 218.88 13.1612 219.033 13.1656C219.209 13.1714 219.391 13.145 219.574 13.1324C219.805 13.1166 219.942 13.0595 219.856 13.0105C219.773 12.963 219.661 12.954 219.527 12.9804ZM23.1046 10.0384C23.2239 10.0305 23.3469 10.0241 23.4661 10.0132C23.5779 10.0022 23.6634 9.96826 23.7187 9.91746C23.625 9.87768 23.5202 9.85636 23.4046 9.86117C23.2219 9.8707 23.043 9.8833 22.8641 9.89898C22.7523 9.90839 22.6446 9.94237 22.6191 9.99465C22.5935 10.0346 22.8436 10.0573 23.1046 10.0384ZM203.707 9.48812C203.756 9.50186 203.805 9.52943 203.853 9.52935C203.973 9.52914 204.096 9.5197 204.207 9.50415C204.256 9.49792 204.293 9.4702 204.315 9.44865C204.33 9.4348 204.326 9.41023 204.303 9.39798C204.194 9.32443 203.762 9.3513 203.692 9.43591C203.684 9.45129 203.703 9.47122 203.707 9.48812ZM191.834 1.09579C191.846 1.12035 191.85 1.14492 191.865 1.16947C191.896 1.21551 191.978 1.24917 192.098 1.27201C192.19 1.23344 192.238 1.19035 192.234 1.14426C192.23 1.11969 192.219 1.09511 192.203 1.07056C192.173 1.02452 192.091 0.990877 191.971 0.96804C191.878 1.00507 191.834 1.04816 191.834 1.09579ZM260.613 21.1069C260.58 21.1269 260.547 21.147 260.509 21.1655C260.611 21.2098 260.704 21.2235 260.775 21.1988C260.819 21.1833 260.845 21.1603 260.879 21.1402C260.777 21.0958 260.688 21.0837 260.613 21.1069ZM258.295 21.3199C258.344 21.3336 258.389 21.352 258.441 21.3611C258.527 21.3763 258.605 21.35 258.664 21.2946C258.616 21.2809 258.571 21.2625 258.518 21.2534C258.432 21.2382 258.354 21.2644 258.295 21.3199ZM259.762 21.0362C259.736 21.0731 259.789 21.1037 259.927 21.1296C259.96 21.1096 260.005 21.091 260.027 21.0695C260.064 21.0341 260 21.002 259.865 20.9776C259.828 20.9961 259.795 21.0161 259.762 21.0362ZM251.866 19.3937C251.84 19.4306 251.893 19.4613 252.031 19.4871C252.065 19.4671 252.109 19.4486 252.131 19.427C252.168 19.3916 252.104 19.3595 251.97 19.3351C251.933 19.3536 251.899 19.3737 251.866 19.3937ZM241.004 8.54149C240.971 8.56152 240.937 8.58155 240.9 8.60005C241.002 8.64443 241.095 8.65809 241.166 8.63339C241.21 8.61795 241.236 8.59486 241.269 8.57483C241.168 8.53045 241.078 8.51832 241.004 8.54149ZM230.656 2.79207C230.745 2.80267 230.82 2.78104 230.882 2.72409C230.834 2.71034 230.789 2.69198 230.736 2.68286C230.65 2.66764 230.572 2.6939 230.513 2.74931C230.562 2.76459 230.611 2.77832 230.656 2.79207ZM225.193 2.44052C225.16 2.46055 225.126 2.48058 225.089 2.49908C225.191 2.54346 225.284 2.55712 225.355 2.53242C225.399 2.51698 225.425 2.49389 225.458 2.47386C225.357 2.42948 225.268 2.41889 225.193 2.44052ZM188.163 1.10062C188.13 1.12065 188.097 1.14068 188.06 1.15919C188.161 1.20356 188.254 1.21722 188.325 1.19252C188.369 1.17708 188.395 1.15399 188.429 1.13396C188.327 1.08958 188.238 1.07899 188.163 1.10062ZM4.02013 13.92C3.97147 13.9063 3.92284 13.8925 3.87789 13.8773C3.7702 13.9189 3.7371 13.9574 3.79715 13.9865C3.83468 14.0048 3.89073 14.0155 3.9394 14.0292C4.05081 13.9876 4.07647 13.9506 4.02013 13.92Z" fill="#FFE492"/>
</svg>
