<svg width="28" height="28" viewBox="0 0 28 28" fill="none" xmlns="http://www.w3.org/2000/svg">
<path fill-rule="evenodd" clip-rule="evenodd" d="M18.0592 0.5625C18.577 0.5625 18.9967 0.982233 18.9967 1.5V2.84802H20.879V2.19556C20.879 1.6778 21.2988 1.25806 21.8165 1.25806C22.3343 1.25806 22.754 1.6778 22.754 2.19556V2.90167C23.6088 3.09146 24.2812 3.766 24.4678 4.62199H25.8757C26.3935 4.62199 26.8132 5.04172 26.8132 5.55949C26.8132 6.07725 26.3935 6.49699 25.8757 6.49699H24.5196V8.37801H25.1802C25.6979 8.37801 26.1177 8.79775 26.1177 9.31551C26.1177 9.83328 25.6979 10.253 25.1802 10.253H24.4678C24.2811 11.109 23.6088 11.7835 22.754 11.9733V13.375C22.754 13.8928 22.3343 14.3125 21.8165 14.3125C21.2988 14.3125 20.879 13.8928 20.879 13.375V12.0269H18.9967V12.6794C18.9967 13.1972 18.577 13.6169 18.0592 13.6169C17.5414 13.6169 17.1217 13.1972 17.1217 12.6794V11.9766C16.2596 11.7916 15.5803 11.1141 15.3925 10.253H14.0004C13.4826 10.253 13.0629 9.83328 13.0629 9.31551C13.0629 8.79775 13.4826 8.37801 14.0004 8.37801H15.3407V6.49699H14.6962C14.1784 6.49699 13.7587 6.07725 13.7587 5.55949C13.7587 5.04172 14.1784 4.62199 14.6962 4.62199H15.3925C15.5802 3.76084 16.2596 3.08335 17.1217 2.89829V1.5C17.1217 0.982233 17.5414 0.5625 18.0592 0.5625ZM17.2157 5.68197C17.2209 5.64188 17.2236 5.601 17.2236 5.55949C17.2236 5.51797 17.2209 5.47709 17.2157 5.437V5.10496C17.2157 4.89402 17.3867 4.72302 17.5976 4.72302H21.8139L21.8165 4.72302L21.8192 4.72302H22.2626C22.4736 4.72302 22.6446 4.89402 22.6446 5.10496V9.76996C22.6446 9.9809 22.4736 10.1519 22.2626 10.1519H17.5976C17.3867 10.1519 17.2157 9.9809 17.2157 9.76996V9.43613C17.2208 9.39664 17.2234 9.35638 17.2234 9.31551C17.2234 9.27465 17.2208 9.23439 17.2157 9.1949V5.68197Z" fill="white"/>
<path fill-rule="evenodd" clip-rule="evenodd" d="M11.6268 14.111C10.3258 13.934 9.15887 14.4457 8.22479 14.9177C8.00104 15.0308 7.79091 15.1408 7.59098 15.2455C7.00707 15.5512 6.5101 15.8114 6.0148 15.969C5.40776 15.3133 4.42444 15.0623 3.53741 15.4467L2.10905 16.0656C1.12001 16.4942 0.590588 17.5794 0.861575 18.6227L2.72547 25.7987C3.06299 27.0982 4.4806 27.7898 5.71249 27.2559L7.14084 26.637C7.86362 26.3238 8.34094 25.6599 8.4398 24.918C9.66019 25.0955 10.7152 25.3632 11.718 25.6226L11.8594 25.6592C13.0934 25.9787 14.3161 26.2954 15.6085 26.3297C18.4032 26.4039 21.2898 25.1697 25.8784 21.0315C27.2882 19.7602 27.6979 18.199 26.9646 16.988C26.2678 15.8374 24.7599 15.4554 23.4603 16.1494C23.0107 16.3894 22.5132 16.6904 22.0093 16.9954C21.8279 17.1051 21.6454 17.2156 21.4642 17.3237C20.9524 17.6292 20.4274 17.9314 19.8899 18.2027C19.8989 17.9993 19.8866 17.7942 19.8519 17.5908C19.7185 16.8089 19.2613 16.0833 18.4863 15.5865C17.7229 15.0972 16.7038 14.8601 15.4594 14.9145C14.5234 14.9555 14.1438 14.8403 13.7733 14.7027C13.7079 14.6784 13.64 14.652 13.5685 14.6242C13.1407 14.458 12.5823 14.241 11.6268 14.111ZM8.10342 22.983L6.7322 17.7038C7.39016 17.4738 8.02561 17.1387 8.58185 16.8454C8.7524 16.7555 8.91642 16.669 9.07043 16.5912C9.98451 16.1293 10.6926 15.8762 11.374 15.9689C12.1024 16.068 12.4753 16.2121 12.8818 16.3693C12.9593 16.3993 13.0379 16.4297 13.1205 16.4604C13.7231 16.6842 14.3524 16.8398 15.5413 16.7877C16.5166 16.7451 17.123 16.9398 17.4744 17.165C17.8141 17.3828 17.9607 17.6544 18.0037 17.9062C18.0971 18.4539 17.7348 19.0514 17.076 19.1584C17.0369 19.1648 16.9988 19.1735 16.9617 19.1843C16.2465 19.2695 15.5419 19.2141 14.8509 18.9681C14.3631 18.7945 13.827 19.0492 13.6534 19.537C13.4797 20.0248 13.7344 20.561 14.2222 20.7346C16.3084 21.4771 18.3367 20.9682 20.0405 20.2074C20.8971 19.8249 21.7035 19.3645 22.4252 18.9337C22.6329 18.8097 22.8308 18.69 23.0204 18.5753L23.0216 18.5746L23.0231 18.5737C23.5097 18.2792 23.9416 18.0179 24.3435 17.8033C24.8456 17.5352 25.2264 17.7374 25.3608 17.9592C25.4586 18.1207 25.6418 18.7201 24.6227 19.6391C20.1489 23.6738 17.7229 24.5101 15.6583 24.4554C14.5827 24.4268 13.5444 24.1583 12.2328 23.819L12.1875 23.8073C11.0282 23.5075 9.70453 23.1703 8.10342 22.983ZM4.70964 17.3753C4.66142 17.1896 4.45891 17.0908 4.28292 17.1671L2.85457 17.786C2.71328 17.8473 2.63764 18.0023 2.67636 18.1513L4.54026 25.3274C4.58847 25.513 4.79099 25.6118 4.96697 25.5355L6.39533 24.9166C6.53662 24.8553 6.61225 24.7003 6.57354 24.5513L4.70964 17.3753Z" fill="white"/>
</svg>
