<svg width="30" height="30" viewBox="0 0 30 30" fill="none" xmlns="http://www.w3.org/2000/svg">
<path fill-rule="evenodd" clip-rule="evenodd" d="M16.3818 13.6425C15.801 12.5358 14.2167 12.5358 13.6359 13.6425L12.8568 15.1269L11.2386 15.351C9.95099 15.5293 9.44112 17.1176 10.3843 18.012L11.5442 19.1119L11.263 20.6733C11.0374 21.9258 12.3334 22.9017 13.4748 22.3388L15.0088 21.5822L16.5429 22.3388C17.6843 22.9017 18.9803 21.9258 18.7547 20.6733L18.4735 19.1119L19.6334 18.012C20.5766 17.1176 20.0667 15.5293 18.7791 15.351L17.1609 15.1269L16.3818 13.6425ZM14.4395 16.146L15.0088 15.0612L15.5782 16.146C15.8108 16.5891 16.2428 16.8927 16.7385 16.9613L17.8536 17.1157L17.0562 17.8719C16.6771 18.2314 16.5045 18.7577 16.5971 19.2719L16.7954 20.3727L15.6947 19.8298C15.2623 19.6166 14.7554 19.6166 14.323 19.8298L13.2223 20.3727L13.4206 19.2719C13.5132 18.7577 13.3406 18.2314 12.9615 17.8719L12.1641 17.1157L13.2792 16.9613C13.7749 16.8927 14.2069 16.5891 14.4395 16.146Z" fill="white"/>
<path fill-rule="evenodd" clip-rule="evenodd" d="M16.8836 3.22551L17.9771 3.94172L28.011 10.4638C28.4452 10.746 28.5683 11.3267 28.2861 11.7608C28.004 12.1949 27.4233 12.3181 26.9892 12.0359L25.8907 11.3219C25.9217 11.5539 25.9376 11.7893 25.9376 12.0269V22.5001C25.9376 25.4341 23.5591 27.8125 20.6251 27.8125H9.37511C6.4411 27.8125 4.06261 25.4341 4.06261 22.5001V12.0269C4.06261 11.7893 4.07849 11.5539 4.10952 11.3219L3.01104 12.0359C2.57692 12.3181 1.99625 12.1949 1.71407 11.7608C1.43189 11.3267 1.55506 10.746 1.98918 10.4638L12.0231 3.94174L13.1166 3.22551C14.2605 2.47626 15.7397 2.47626 16.8836 3.22551ZM15.8517 4.7965L16.9524 5.51198L22.5086 9.1513C23.4783 9.78647 24.0626 10.8676 24.0626 12.0269V22.5001C24.0626 24.3985 22.5236 25.9375 20.6251 25.9375H9.37511C7.47663 25.9375 5.93761 24.3985 5.93761 22.5001V12.0269C5.93761 10.8676 6.52189 9.78647 7.49162 9.1513L13.0478 5.512L14.1486 4.7965C14.6664 4.45992 15.3338 4.45992 15.8517 4.7965Z" fill="white"/>
</svg>
