<svg width="270" height="31" viewBox="0 0 270 31" fill="none" xmlns="http://www.w3.org/2000/svg">
<path d="M253.552 16.1296C253.182 16.1548 252.81 16.1723 252.448 16.2098C252.213 16.2333 252.112 16.1659 251.955 16.1308C251.902 16.1186 251.846 16.0941 251.798 16.0973C251.432 16.1225 251.067 16.1508 250.702 16.1791C250.591 16.2392 250.521 16.3192 250.349 16.3487C250.182 16.3766 249.984 16.377 249.798 16.3911C249.552 16.4084 249.306 16.4258 249.06 16.4416C248.937 16.4495 248.836 16.4788 248.796 16.5342C248.789 16.5434 248.871 16.5663 248.916 16.5801C249.066 16.6259 249.212 16.6779 249.376 16.7129C249.533 16.7465 249.727 16.6908 249.895 16.7335C250.273 16.8297 250.277 16.8281 250.564 16.8092C250.81 16.7919 251.056 16.773 251.302 16.7603C251.351 16.7571 251.407 16.7801 251.459 16.7923C251.616 16.8258 251.718 16.9025 251.949 16.8729C252.124 16.8495 252.318 16.8446 252.501 16.832C252.654 16.8762 252.796 16.9267 252.961 16.9617C253.114 16.9953 253.16 17.0213 253.078 17.066C253.004 17.1076 252.9 17.1247 252.762 17.128C252.638 17.1298 252.516 17.1438 252.393 17.1517C252.329 17.1564 252.27 17.1596 252.21 17.1643C251.975 17.1816 251.975 17.1816 251.545 17.084C251.376 17.0459 251.187 17.1 251.026 17.0634C250.917 17.039 250.824 17.0023 250.719 16.9764C250.674 16.9657 250.603 16.9643 250.547 16.9675C250.361 16.9786 250.174 16.9866 249.996 17.0068C249.869 17.0209 249.795 17.064 249.81 17.107C249.814 17.1239 249.904 17.1484 249.956 17.1498C250.076 17.1527 250.202 17.1309 250.318 17.1415C250.43 17.152 250.546 17.1826 250.629 17.2162C250.797 17.2866 250.987 17.2233 251.147 17.2414C251.316 17.2611 251.454 17.3223 251.615 17.3589C251.656 17.3681 251.735 17.3526 251.798 17.3478C251.981 17.3368 252.163 17.3273 252.346 17.3162C252.5 17.3605 252.664 17.4001 252.803 17.4506C253.054 17.5423 253.323 17.5772 253.647 17.5321C253.83 17.5072 254.009 17.5161 254.155 17.5757C254.305 17.6369 254.476 17.6305 254.667 17.6179C254.842 17.6053 255.02 17.5712 255.2 17.6139C255.589 17.7085 255.593 17.7131 256.051 17.6754C256.189 17.6644 256.294 17.6611 256.399 17.6963C256.496 17.7284 256.601 17.7559 256.702 17.7864C256.885 17.7753 257.071 17.7643 257.254 17.7517C257.488 17.7344 257.619 17.7556 257.676 17.8416C257.71 17.8937 257.726 17.9413 257.809 17.9765C257.906 18.0194 258.01 18.0177 258.152 18.0051C258.286 17.9941 258.383 17.9771 258.438 17.9217C258.46 17.8986 258.505 17.877 258.546 17.8585C258.579 17.8446 258.631 17.823 258.661 17.826C258.717 17.8321 258.792 17.8488 258.811 17.8688C258.996 18.0543 258.996 18.0559 259.183 18.1093C259.389 18.1689 259.602 18.2223 259.79 18.2896C259.958 18.3492 260.126 18.3228 260.309 18.3225C260.447 18.3222 260.537 18.362 260.526 18.402C260.519 18.425 260.467 18.4589 260.422 18.4621C260.057 18.4934 259.688 18.5202 259.319 18.5423C259.274 18.5455 259.218 18.5179 259.166 18.5042C259.061 18.4767 258.967 18.4339 258.855 18.4248C258.743 18.4158 258.613 18.4391 258.49 18.447C258.367 18.4549 258.236 18.4751 258.124 18.463C258.012 18.4509 257.922 18.4065 257.817 18.3775C257.768 18.3638 257.701 18.3439 257.66 18.3486C257.388 18.3859 257.186 18.3356 256.991 18.2683C256.95 18.2546 256.879 18.2455 256.827 18.2486C256.395 18.2755 255.966 18.307 255.533 18.3369C255.358 18.3495 255.216 18.296 255.177 18.2054C255.158 18.1547 255.12 18.1041 255.12 18.0534C255.118 17.9612 254.913 17.9109 254.764 17.9219C254.517 17.9377 254.268 17.9504 254.025 17.9739C253.828 17.9927 253.66 17.9745 253.525 17.9194C253.367 17.8567 253.189 17.8693 253.01 17.8865C252.875 17.8991 252.839 17.9498 252.848 18.0773C252.856 18.1802 252.793 18.2126 252.551 18.2299C252.245 18.252 251.936 18.274 251.627 18.2915C251.578 18.2946 251.522 18.2686 251.473 18.2549C251.368 18.2274 251.275 18.183 251.163 18.174C251.051 18.1634 250.92 18.1867 250.797 18.1961C250.674 18.204 250.544 18.2257 250.432 18.2152C250.32 18.2046 250.226 18.1587 250.125 18.1297C250.076 18.1159 250.016 18.0961 249.968 18.0992C249.722 18.1119 249.476 18.1308 249.23 18.1481C248.954 18.1671 248.954 18.1671 248.561 18.0725C248.381 18.0298 248.203 18.0639 248.028 18.0765C247.841 18.0891 247.666 18.0955 247.52 18.0343C247.422 17.9946 247.314 17.9702 247.198 17.9781C246.889 17.997 246.583 18.0206 246.274 18.0396C246.221 18.0427 246.15 18.0352 246.109 18.0214C245.911 17.9573 245.716 17.9069 245.44 17.9396C245.202 17.9677 244.945 17.9697 244.706 17.9962C244.576 18.0103 244.517 18.0595 244.543 18.0979C244.558 18.1178 244.637 18.1408 244.689 18.1407C244.809 18.142 244.939 18.1187 245.051 18.1277C245.282 18.1458 245.4 18.2746 245.701 18.2388C245.88 18.2169 246.067 18.2089 246.253 18.2025C246.302 18.2008 246.354 18.2299 246.407 18.2452C246.556 18.2864 246.688 18.34 246.904 18.3119C247.082 18.2901 247.273 18.2837 247.455 18.2711C247.746 18.2506 247.746 18.2521 248.124 18.3452C248.304 18.3894 248.482 18.3538 248.658 18.3427C248.788 18.3348 248.911 18.3192 249.016 18.3406C249.176 18.3725 249.293 18.4461 249.491 18.4411C249.677 18.4362 249.86 18.4144 250.046 18.4064C250.162 18.4015 250.27 18.4259 250.364 18.4673C250.462 18.5086 250.566 18.5268 250.693 18.5174C250.876 18.5048 251.062 18.4891 251.248 18.4811C251.301 18.4795 251.361 18.4932 251.409 18.5054C251.514 18.5329 251.615 18.5649 251.716 18.594C251.899 18.5844 252.085 18.581 252.264 18.5623C252.402 18.5482 252.499 18.5542 252.611 18.5847C252.754 18.626 252.87 18.6995 253.101 18.6638C253.217 18.6467 253.351 18.651 253.466 18.6355C253.608 18.6153 253.705 18.6228 253.806 18.6687C253.998 18.7559 254.236 18.757 254.482 18.7228C254.75 18.6855 254.952 18.7282 255.155 18.7954C255.368 18.8657 255.368 18.8642 255.534 19.0344C255.584 19.0835 255.722 19.1063 255.837 19.0969C256.031 19.0812 256.199 19.0886 256.342 19.1467C256.492 19.2094 256.671 19.2014 256.853 19.1842C257.095 19.1607 257.338 19.1404 257.536 19.2291C257.634 19.272 257.739 19.2825 257.869 19.2715C258.238 19.2432 258.611 19.2257 258.972 19.1913C259.192 19.1694 259.32 19.2183 259.469 19.2596C259.672 19.316 259.892 19.3664 259.894 19.4877C259.894 19.5077 259.947 19.5307 259.992 19.5459C260.089 19.578 260.194 19.6055 260.295 19.6361C260.445 19.6819 260.591 19.72 260.795 19.6951C260.974 19.6748 261.164 19.6683 261.347 19.6542C261.53 19.6401 261.698 19.6321 261.862 19.6902C262.053 19.7559 262.256 19.8185 262.473 19.8673C262.626 19.9024 262.827 19.8421 262.992 19.8895C263.093 19.9185 263.19 19.9521 263.298 19.9765C263.343 19.9872 263.414 19.9794 263.474 19.9762C263.597 19.9698 263.724 19.965 263.843 19.9495C263.981 19.9323 264.085 19.9352 264.19 19.9704C264.288 20.0025 264.385 20.0468 264.497 20.0559C264.665 20.0694 264.851 20.0076 265.02 20.078C265.106 20.1132 265.215 20.1468 265.327 20.1574C265.439 20.1679 265.569 20.1446 265.688 20.146C265.741 20.1459 265.804 20.1704 265.834 20.1903C265.853 20.201 265.827 20.2302 265.801 20.2456C265.768 20.2641 265.72 20.2888 265.671 20.292C265.302 20.3203 264.933 20.3439 264.564 20.3707C264.344 20.3864 264.344 20.3864 263.899 20.2904C263.795 20.2676 263.679 20.2724 263.549 20.2833C263.373 20.2975 263.195 20.3239 263.011 20.2966C262.771 20.1925 262.477 20.1838 262.164 20.2243C262.033 20.2414 261.914 20.2416 261.816 20.2126C261.611 20.1546 261.394 20.1012 261.21 20.0324C261.068 19.9789 261 19.9744 260.942 20.0482C260.923 20.0713 260.905 20.0959 260.909 20.1174C260.932 20.1942 260.974 20.2694 260.997 20.3462C261.005 20.3676 260.976 20.3923 260.957 20.4154C260.898 20.48 260.82 20.4755 260.689 20.422C260.557 20.3684 260.4 20.3334 260.192 20.3583C260.013 20.3801 259.819 20.3774 259.64 20.4008C259.364 20.435 259.17 20.3862 258.971 20.3205C258.93 20.3067 258.859 20.2992 258.807 20.3023C258.251 20.3386 257.7 20.3795 257.144 20.4158C257.025 20.4237 256.917 20.4009 256.823 20.3596C256.725 20.3182 256.617 20.2969 256.497 20.3048C256.005 20.3379 255.513 20.368 255.021 20.4088C254.82 20.426 254.659 20.4063 254.521 20.3528C254.416 20.313 254.319 20.3009 254.188 20.3057C254.046 20.3106 253.946 20.3261 253.876 20.3708C253.809 20.414 253.858 20.44 254.007 20.4735C254.168 20.5101 254.318 20.5575 254.472 20.6002C254.595 20.5939 254.718 20.5814 254.837 20.5827C254.889 20.5826 254.938 20.6102 254.99 20.6254C255.14 20.6697 255.279 20.7141 255.491 20.6891C255.67 20.6673 255.86 20.6623 256.043 20.6482C256.296 20.6309 256.296 20.6309 256.708 20.7269C256.813 20.7513 256.924 20.7496 257.059 20.7355C257.174 20.7246 257.294 20.7459 257.376 20.7918C257.41 20.8102 257.399 20.841 257.33 20.9425C257.331 21.0178 257.409 20.9838 257.434 20.9346C257.474 20.8639 257.396 20.841 257.247 20.8796C257.143 20.9075 257.091 20.9475 257.118 20.9797C257.133 20.9966 257.204 21.018 257.33 20.9425C257.657 20.8497 257.907 20.8385 258.145 20.8135C258.287 20.7995 258.376 20.8055 258.489 20.8452C258.624 20.8926 258.759 20.9431 258.979 20.9181C259.217 20.89 259.471 20.8865 259.713 20.8631C259.936 20.8412 260.053 20.9086 260.195 20.9483C260.367 20.9956 260.557 20.9415 260.714 20.9689C260.878 20.9962 260.995 21.0636 261.185 21.0756C261.461 21.0336 261.637 21.1101 261.847 21.1605C262.011 21.1986 262.205 21.1645 262.38 21.1473C262.578 21.1285 262.742 21.1451 262.881 21.2002C263.038 21.2629 263.213 21.2487 263.392 21.2346C263.81 21.2032 263.824 21.1985 264.068 21.2826C264.244 21.3437 264.412 21.3158 264.587 21.3078C264.74 21.349 264.89 21.3933 265.051 21.4299C265.092 21.4391 265.17 21.4236 265.234 21.4188C265.416 21.4062 265.603 21.3936 265.785 21.381C265.908 21.3731 266.039 21.3498 266.151 21.3589C266.263 21.3694 266.357 21.4138 266.458 21.4428C266.559 21.4719 266.664 21.5009 266.761 21.5314C266.911 21.5772 267.053 21.6154 267.262 21.592C267.441 21.5717 267.627 21.5652 267.813 21.5511C268.048 21.5338 268.041 21.5384 268.478 21.6298C268.714 21.6801 268.956 21.6183 269.194 21.6117C269.314 21.6084 269.43 21.6251 269.512 21.6695C269.546 21.6879 269.535 21.7186 269.547 21.7447C268.932 21.7873 268.313 21.8237 267.705 21.8754C267.471 21.8958 267.347 21.8407 267.219 21.7949C267.01 21.7215 266.735 21.8295 266.536 21.7346C266.416 21.678 266.244 21.646 266.039 21.674C265.92 21.6896 265.793 21.6883 265.67 21.7023C265.357 21.7366 265.07 21.7387 264.818 21.6331C264.732 21.5964 264.609 21.5766 264.519 21.5415C264.414 21.5032 264.313 21.4819 264.19 21.4898C263.635 21.5276 263.083 21.5654 262.531 21.6063C262.483 21.6095 262.434 21.6326 262.394 21.6496C262.29 21.6928 262.324 21.7266 262.492 21.7539C262.548 21.763 262.593 21.7829 262.645 21.7982C262.747 21.8272 262.84 21.8731 262.952 21.8837C263.064 21.8943 263.195 21.8725 263.318 21.8646C263.441 21.8567 263.571 21.8335 263.683 21.8425C263.795 21.853 263.889 21.8974 263.994 21.9249C264.042 21.9387 264.102 21.9616 264.151 21.96C264.397 21.9503 264.639 21.933 264.885 21.9188C265.039 21.96 265.17 22.0197 265.353 22.0332C265.469 22.0422 265.592 22.0251 265.711 22.0279C265.764 22.0294 265.831 22.0523 265.857 22.0722C265.872 22.0845 265.824 22.1153 265.787 22.1307C265.646 22.1894 265.452 22.1789 265.277 22.1977C265.087 22.218 264.915 22.2121 264.769 22.1525C264.671 22.1127 264.563 22.0914 264.444 22.0993C264.134 22.1198 263.829 22.1434 263.519 22.1608C263.467 22.164 263.403 22.1502 263.355 22.1396C262.962 22.0465 262.962 22.0435 262.686 22.0639C262.28 22.0938 262.28 22.0938 262.006 22.0129C261.954 21.9976 261.898 21.9685 261.853 21.9701C261.42 21.9955 260.992 22.0208 260.563 22.0568C260.421 22.0678 260.324 22.068 260.219 22.0283C260.13 21.9946 260.025 21.9564 259.913 21.9474C259.797 21.9383 259.67 21.9616 259.547 21.9695C259.424 21.9774 259.294 21.9976 259.186 21.9855C259.073 21.9734 258.976 21.9306 258.879 21.9C258.777 21.8679 258.669 21.8696 258.531 21.8822C258.106 21.9182 258.103 21.9136 257.68 21.8191C257.631 21.8084 257.568 21.7963 257.516 21.7994C257.206 21.8184 256.901 21.842 256.591 21.861C256.472 21.8688 256.356 21.8491 256.273 21.8047C256.239 21.7863 256.25 21.7555 256.227 21.6957C256.201 21.6819 256.231 21.7064 256.239 21.7294C256.295 21.7263 256.362 21.7292 256.403 21.7169C256.507 21.6875 256.559 21.649 256.532 21.6168C256.517 21.5999 256.446 21.5785 256.401 21.5786C256.319 21.5787 256.249 21.6127 256.227 21.6957C255.993 21.7468 255.743 21.758 255.501 21.783C255.359 21.7986 255.269 21.791 255.157 21.7513C255.022 21.7024 254.884 21.655 254.664 21.6799C254.425 21.708 254.172 21.7131 253.926 21.735C253.642 21.7601 253.518 21.622 253.279 21.6255C253.033 21.629 252.787 21.6555 252.541 21.6744C252.325 21.6901 252.325 21.6901 251.876 21.5911C251.711 21.5545 251.518 21.6086 251.357 21.5704C251.248 21.5461 251.155 21.5094 251.05 21.4834C251.005 21.4727 250.934 21.4729 250.878 21.476C250.569 21.495 250.256 21.5078 249.958 21.5422C249.619 21.5827 249.361 21.5401 249.117 21.4499C248.811 21.4673 248.502 21.4771 248.2 21.5068C247.98 21.5287 247.853 21.4782 247.703 21.437C247.65 21.4233 247.605 21.4003 247.549 21.3942C247.493 21.3882 247.426 21.4006 247.367 21.4053C247.121 21.4226 246.867 21.4308 246.629 21.4588C246.334 21.4947 246.221 21.3689 245.993 21.3539C245.841 21.4295 245.76 21.5325 245.458 21.5407C245.212 21.5473 244.966 21.5723 244.72 21.5897C244.597 21.5976 244.474 21.607 244.351 21.6149C244.153 21.6291 244.061 21.6891 244.103 21.7812C244.126 21.8319 244.145 21.8826 244.165 21.9332C244.203 22.0238 244.111 22.1008 243.954 22.1118C243.522 22.1418 243.093 22.1732 242.661 22.2001C242.545 22.208 242.433 22.182 242.339 22.1407C242.241 22.0994 242.133 22.0812 242.014 22.0891C241.581 22.119 241.153 22.1505 240.72 22.1773C240.672 22.1805 240.608 22.1652 240.56 22.153C240.455 22.1256 240.354 22.0935 240.253 22.0645C240.006 22.0787 239.764 22.0884 239.522 22.1072C239.13 22.1355 239.13 22.1371 238.842 22.0531C238.79 22.0378 238.737 22.0087 238.689 22.0103C238.502 22.0168 238.32 22.0325 238.133 22.0466C237.585 22.0875 237.585 22.0875 237.424 22.0417C237.278 21.999 237.147 21.947 236.927 21.9719C236.689 22 236.435 22.0096 236.189 22.0254C236.006 22.0365 235.824 22.0491 235.641 22.0525C235.593 22.0541 235.54 22.025 235.488 22.0098C235.338 21.9624 235.192 21.9242 234.987 21.9507C234.868 21.9663 234.741 21.9696 234.618 21.9775C234.297 21.9995 234.297 21.9995 233.77 21.9083C233.718 21.8991 233.654 21.8885 233.602 21.8932C233.17 21.9216 232.741 21.9531 232.309 21.9799C232.256 21.9831 232.193 21.974 232.141 21.9664C231.55 21.8783 231.55 21.8783 230.924 21.9224C230.685 21.9382 230.678 21.9444 230.427 21.8634C230.314 21.8282 230.221 21.8115 230.091 21.8225C229.599 21.8602 229.103 21.8857 228.614 21.9295C228.395 21.9483 228.267 21.9025 228.117 21.8612C228.065 21.8475 228.009 21.8169 227.964 21.8185C227.472 21.8485 226.98 21.8847 226.488 21.9148C226.443 21.9179 226.387 21.8873 226.334 21.8736C226.233 21.8461 226.136 21.8048 226.024 21.7957C225.908 21.7867 225.781 21.81 225.654 21.8179C225.345 21.8384 225.345 21.8369 224.986 21.7469C224.937 21.7346 224.874 21.7178 224.825 21.721C224.333 21.7526 223.837 21.7796 223.349 21.825C223.069 21.85 222.879 21.8058 222.68 21.7416C222.639 21.7279 222.568 21.7219 222.516 21.725C221.96 21.7613 221.409 21.8022 220.853 21.8385C220.738 21.8464 220.625 21.8205 220.532 21.7807C220.382 21.718 220.206 21.7259 220.02 21.7401C219.591 21.7731 219.588 21.7716 219.333 21.6983C219.281 21.683 219.236 21.6631 219.18 21.6555C219.127 21.6479 219.06 21.6527 219.004 21.6558C218.758 21.6716 218.512 21.6889 218.266 21.7063C218.02 21.7236 217.77 21.7333 217.528 21.7598C217.23 21.7926 217.087 21.693 216.877 21.6472C216.572 21.6677 216.259 21.6806 215.957 21.7134C215.726 21.7383 215.617 21.6709 215.463 21.6359C215.411 21.6237 215.355 21.5976 215.306 21.6008C214.751 21.6356 214.195 21.6734 213.644 21.7158C213.51 21.7253 213.42 21.7132 213.308 21.6765C213.057 21.594 213.045 21.5971 212.628 21.6285C212.445 21.6426 212.27 21.6552 212.113 21.5925C211.974 21.5359 211.806 21.5224 211.608 21.5412C211.366 21.5646 211.116 21.5774 210.87 21.5931C210.624 21.6105 210.378 21.6339 210.132 21.642C209.935 21.6501 209.814 21.5781 209.657 21.5415C209.608 21.5308 209.541 21.5294 209.485 21.5326C209.239 21.5468 208.986 21.558 208.747 21.5845C208.457 21.6173 208.295 21.5331 208.089 21.4843C208.045 21.4736 207.97 21.4799 207.914 21.4846C207.482 21.513 207.053 21.5445 206.621 21.5744C206.467 21.5332 206.31 21.4935 206.156 21.4523C205.91 21.4681 205.664 21.4854 205.418 21.5012C205.232 21.5138 205.042 21.5188 204.867 21.5421C204.64 21.5732 204.527 21.5012 204.373 21.4662C204.321 21.454 204.265 21.4279 204.216 21.4311C203.907 21.4485 203.597 21.4675 203.292 21.4942C203.001 21.5208 202.884 21.3827 202.645 21.3847C202.399 21.3866 202.145 21.407 201.907 21.4351C201.631 21.4678 201.437 21.419 201.238 21.3533C201.197 21.3395 201.126 21.332 201.074 21.3352C200.764 21.3541 200.459 21.3777 200.149 21.3967C200.097 21.3998 200.034 21.3923 199.981 21.3831C199.391 21.2935 199.391 21.292 199.133 21.3109C198.951 21.3235 198.764 21.3392 198.578 21.3472C198.526 21.3503 198.462 21.3366 198.413 21.3244C198.024 21.2314 198.024 21.2298 197.745 21.2488C197.499 21.2661 197.253 21.2834 197.007 21.3007C196.853 21.2595 196.696 21.2199 196.543 21.1786C196.237 21.1991 195.924 21.215 195.622 21.2432C195.48 21.2558 195.387 21.2513 195.278 21.2131C195.143 21.1672 195.008 21.1137 194.785 21.1402C194.546 21.1683 194.293 21.1718 194.051 21.1953C193.76 21.2234 193.639 21.0838 193.404 21.0858C193.158 21.0877 192.904 21.1081 192.666 21.1362C192.39 21.1689 192.195 21.1201 191.997 21.0544C191.956 21.0407 191.885 21.0331 191.833 21.0363C191.154 21.082 190.479 21.1277 189.801 21.1765C189.383 21.2064 189.383 21.208 188.588 21.1248C188.532 21.1188 188.472 21.1128 188.416 21.1159C188.17 21.1302 187.916 21.1414 187.678 21.1679C187.387 21.2007 187.226 21.118 187.02 21.0677C186.975 21.057 186.904 21.0632 186.845 21.0664C186.658 21.0775 186.476 21.0917 186.289 21.1043C186.043 21.1216 185.797 21.1389 185.551 21.1562C185.398 21.1166 185.241 21.0754 185.087 21.0357C184.781 21.0562 184.468 21.0675 184.166 21.1003C183.935 21.1253 183.826 21.0609 183.673 21.0243C183.621 21.0121 183.564 20.9861 183.516 20.9877C182.96 21.0225 182.405 21.0588 181.853 21.1027C181.626 21.1216 181.521 21.0526 181.367 21.0175C181.315 21.0069 181.255 20.987 181.207 20.9902C180.838 21.0123 180.468 21.0391 180.099 21.0658C179.891 21.0816 179.891 21.0816 179.434 20.9871C179.382 20.9764 179.322 20.9658 179.27 20.969C178.1 21.0478 176.933 21.1313 175.762 21.2101C175.643 21.218 175.535 21.1951 175.441 21.1538C175.343 21.1125 175.235 21.0912 175.115 21.0991C174.623 21.1322 174.128 21.1623 173.639 21.2031C173.438 21.2203 173.277 21.2006 173.139 21.1471C173.034 21.1073 172.937 21.0921 172.806 21.1016C172.56 21.1204 172.314 21.1362 172.068 21.1535C171.822 21.1709 171.576 21.1882 171.33 21.2055C171.084 21.2229 170.834 21.2325 170.592 21.259C170.294 21.2918 170.147 21.1968 169.941 21.1496C169.572 21.1732 169.203 21.1969 168.838 21.2221C168.346 21.2553 167.854 21.2915 167.362 21.323C167.317 21.3262 167.261 21.2986 167.208 21.2849C167.055 21.2467 166.942 21.1932 166.715 21.2105C165.612 21.2938 164.501 21.3649 163.394 21.4467C163.163 21.464 163.061 21.3981 162.904 21.363C162.852 21.3524 162.792 21.331 162.743 21.3341C162.128 21.3736 161.513 21.4177 160.898 21.4602C160.648 21.4776 160.648 21.4776 160.229 21.383C160.181 21.3724 160.117 21.3586 160.065 21.3618C159.263 21.4154 158.466 21.4721 157.664 21.5273C157.545 21.5352 157.436 21.5139 157.339 21.4726C157.245 21.4312 157.133 21.4084 157.017 21.4163C156.279 21.4667 155.537 21.5156 154.803 21.5707C154.606 21.5864 154.441 21.5728 154.299 21.5178C154.198 21.478 154.097 21.4613 153.97 21.4707C152.863 21.5479 151.756 21.6221 150.649 21.7039C150.436 21.7196 150.287 21.6907 150.152 21.6402C150.043 21.6005 149.95 21.5929 149.815 21.5993C149.674 21.6072 149.588 21.6243 149.51 21.6705C149.41 21.7306 149.348 21.806 149.109 21.811C148.863 21.8161 148.613 21.8349 148.371 21.8615C148.14 21.888 148.031 21.819 147.885 21.7778C147.776 21.7488 147.676 21.7444 147.538 21.7584C147.411 21.771 147.333 21.7972 147.259 21.8465C147.096 21.9512 147.081 21.9513 146.879 21.8856C146.77 21.8504 146.673 21.8229 146.554 21.8293C146.062 21.8609 145.569 21.8955 145.077 21.9317C144.794 21.9522 144.791 21.9553 144.577 21.8788C144.472 21.8406 144.371 21.8223 144.248 21.8317C142.895 21.9263 141.542 22.0177 140.189 22.1169C139.98 22.1326 139.838 22.1006 139.688 22.0548C139.639 22.0395 139.591 22.018 139.534 22.012C139.478 22.0059 139.415 22.0122 139.355 22.0154C138.371 22.0832 137.383 22.1479 136.403 22.2233C136.179 22.2406 136.06 22.1917 135.906 22.152C135.854 22.1382 135.809 22.1168 135.753 22.1108C135.697 22.1062 135.63 22.1171 135.57 22.1218C134.586 22.1896 133.598 22.2543 132.618 22.3298C132.383 22.3471 132.281 22.2827 132.128 22.2492C132.076 22.237 132.019 22.214 131.971 22.2172C131.661 22.2346 131.356 22.2582 131.046 22.2787C130.308 22.3307 129.57 22.3796 128.832 22.4331C128.549 22.4536 128.424 22.3171 128.185 22.3236C127.876 22.3318 127.57 22.3631 127.261 22.3851C127.015 22.4025 126.769 22.4183 126.523 22.4371C126.28 22.4545 126.28 22.4544 125.675 22.3664C125.623 22.3588 125.559 22.3482 125.507 22.3513C124.646 22.4097 123.781 22.468 122.924 22.5309C122.726 22.5451 122.562 22.5377 122.419 22.4811C122.318 22.4414 122.214 22.4216 122.091 22.431C120.797 22.5208 119.507 22.6106 118.214 22.6989C118.165 22.7021 118.102 22.6868 118.053 22.6746C117.948 22.6471 117.847 22.6151 117.746 22.586C117.672 22.6215 117.575 22.6539 117.527 22.6939C117.461 22.7478 117.371 22.7634 117.23 22.7728C117.088 22.7823 116.998 22.7794 116.886 22.7396C116.751 22.6907 116.613 22.6525 116.393 22.6683C115.04 22.7674 113.686 22.8573 112.333 22.9549C112.11 22.9707 112.004 22.9033 111.847 22.8682C111.795 22.8575 111.735 22.8407 111.686 22.8439C111.131 22.8802 110.579 22.9196 110.024 22.9574C108.484 23.0645 106.945 23.1671 105.409 23.2804C105.13 23.3008 104.939 23.2627 104.74 23.197C104.699 23.1833 104.628 23.1757 104.576 23.1789C102.421 23.327 100.267 23.4767 98.1158 23.6264C98.0003 23.6343 97.888 23.6099 97.7942 23.5701C97.6967 23.5288 97.5884 23.509 97.4691 23.5169C96.4849 23.5847 95.5009 23.6525 94.5168 23.7218C94.2707 23.7391 94.267 23.7406 94.0124 23.6673C93.96 23.6521 93.9037 23.623 93.8627 23.6261C93.777 23.634 93.6953 23.6725 93.6363 23.7248C93.5773 23.7802 93.4842 23.7958 93.3463 23.8068C93.2046 23.8178 93.1113 23.8133 93.0027 23.7766C92.8641 23.7308 92.7367 23.6865 92.513 23.7022C89.6838 23.9038 86.8544 24.0976 84.0252 24.2977C83.7978 24.3134 83.6925 24.2491 83.5354 24.214C83.483 24.2034 83.4306 24.1881 83.3746 24.1851C83.3149 24.1821 83.2516 24.1915 83.192 24.1962C78.5771 24.5161 73.9623 24.8375 69.3474 25.1574C69.0716 25.1763 69.0753 25.1763 68.7748 25.3182C68.7377 25.3351 68.6895 25.3583 68.6373 25.3614C67.2245 25.4622 65.808 25.5599 64.3915 25.6576C63.7764 25.7002 63.1614 25.7443 62.5463 25.7853C62.3264 25.7995 62.3264 25.7995 61.8023 25.9663C61.7577 25.9802 61.7057 25.9988 61.6535 26.0019C59.1932 26.1737 56.733 26.3454 54.2689 26.5141C54.0751 26.5267 53.9188 26.5546 53.8301 26.6285C53.7673 26.6808 53.6856 26.7117 53.5626 26.7211C51.8405 26.8409 50.1183 26.9622 48.3924 27.0789C48.1874 27.0931 48.0647 27.1363 47.9648 27.201C47.9315 27.2226 47.9019 27.2472 47.8536 27.2626C47.809 27.2765 47.7419 27.2813 47.686 27.286C46.2098 27.3884 44.7337 27.4939 43.2538 27.5917C43.0339 27.6059 42.945 27.6629 42.8375 27.723C42.8004 27.7431 42.7746 27.7708 42.7263 27.7847C42.678 27.797 42.6071 27.7972 42.5474 27.8003C41.3173 27.8854 40.0872 27.9721 38.8571 28.0572C38.6182 28.0499 38.567 28.1391 38.452 28.1931C38.4112 28.2116 38.3817 28.2362 38.3334 28.2486C38.2813 28.261 38.214 28.2595 38.1507 28.2627C37.1665 28.3305 36.1825 28.4029 35.1946 28.4661C34.9672 28.4803 34.9234 28.5587 34.8009 28.6127C34.7601 28.6297 34.7194 28.6559 34.671 28.6605C34.0559 28.7062 33.4409 28.7487 32.8258 28.7897C32.6208 28.8039 32.6208 28.8024 32.2607 28.9551C32.2199 28.9721 32.1716 28.9906 32.1194 28.9953C31.1987 29.0614 30.2742 29.1245 29.3498 29.1891C29.2305 29.197 29.1489 29.234 29.0898 29.2863C29.0308 29.3386 28.9454 29.3726 28.8261 29.3805C28.088 29.4325 27.3499 29.486 26.6118 29.5333C26.4067 29.546 26.2729 29.5846 26.1842 29.6539C26.1177 29.7063 26.036 29.7325 25.9055 29.742C25.1674 29.7924 24.4294 29.8475 23.6875 29.8918C23.4713 29.9045 23.3599 29.9569 23.2712 30.0216C23.2009 30.0739 23.1191 30.0925 22.9811 30.102C21.628 30.1934 20.2711 30.2849 18.9218 30.3855C18.6944 30.4028 18.5781 30.3493 18.4284 30.3111C18.215 30.2577 18.0167 30.1997 18.0152 30.0798C18.015 30.0614 17.9513 30.04 17.9063 30.0247C17.5729 29.9101 17.5729 29.9101 17.5191 29.7873C17.4884 29.712 17.4539 29.6353 17.4268 29.5585C17.3768 29.4326 17.257 29.4006 16.914 29.4242C16.791 29.4321 16.668 29.4431 16.545 29.4494C16.3623 29.4605 16.2237 29.41 16.189 29.3179C16.1697 29.2673 16.1467 29.2166 16.1275 29.1659C16.3138 29.1533 16.3101 29.1518 16.6361 28.9653C16.7732 28.8867 16.7732 28.8867 16.5074 28.8089C16.4063 28.7798 16.3089 28.7477 16.2004 28.7203C16.1517 28.7081 16.0882 28.7005 16.036 28.7037C15.7266 28.7226 15.421 28.7447 15.1153 28.7667C14.6232 28.8014 14.6232 28.8014 14.1214 28.6455C14.0802 28.6333 14.0165 28.6104 14.0238 28.5981C14.0641 28.5412 14.1645 28.5164 14.2913 28.51C14.4777 28.5005 14.6604 28.4848 14.843 28.4722C14.966 28.4643 15.089 28.4549 15.2121 28.447C15.327 28.3884 15.4457 28.3314 15.5532 28.2713C15.7237 28.1788 15.7236 28.1757 15.4878 28.1116C15.338 28.0688 15.1771 28.0307 15.0237 27.991C14.841 28.0036 14.6547 28.0178 14.472 28.0288C14.2409 28.0431 14.1472 28.014 14.0863 27.9143C14.033 27.8268 14.0955 27.7514 14.2744 27.7327C14.457 27.7139 14.6285 27.7013 14.7208 27.6228C14.8094 27.5474 14.9658 27.5179 15.1597 27.5114C15.2827 27.5066 15.4057 27.4957 15.5287 27.4862C15.689 27.4737 15.7739 27.3952 15.7392 27.3076C15.7199 27.2508 15.682 27.2033 15.5363 27.1912C14.8903 27.1386 14.8828 27.1401 14.5607 27.0362C14.5307 27.0271 14.508 26.9995 14.5191 26.9856C14.5374 26.9625 14.5781 26.9287 14.6228 26.924C15.0514 26.8894 15.48 26.858 15.9088 26.8342C16.0505 26.8262 16.1548 26.8153 16.2026 26.7584C16.2688 26.6799 16.2381 26.6077 16.1069 26.5542C16.0656 26.5374 15.9982 26.516 15.9534 26.5176C15.4613 26.5461 14.973 26.5823 14.4809 26.6108C14.4361 26.6139 14.3538 26.588 14.3349 26.568C14.2971 26.5312 14.3525 26.482 14.4828 26.4648C14.6542 26.4415 14.8295 26.4397 14.9442 26.3626C15.1033 26.2533 15.2998 26.1531 15.4776 26.0483C15.5072 26.0298 15.5554 25.9944 15.5441 25.9913C15.4504 25.9577 15.3419 25.9318 15.2445 25.8997C15.0797 25.8462 15.0788 25.7709 15.1152 25.6987C15.1443 25.6402 15.256 25.617 15.394 25.6167C15.4537 25.6166 15.5283 25.6165 15.5766 25.6026C15.7031 25.5686 15.7436 25.5255 15.6798 25.4933C15.6423 25.475 15.5748 25.449 15.5301 25.4521C14.7323 25.5042 13.9308 25.5548 13.1369 25.6191C12.9021 25.638 12.7932 25.5798 12.651 25.5385C12.5424 25.5065 12.4414 25.4944 12.3074 25.5176C12.1808 25.5394 12.0576 25.5273 11.9786 25.4767C11.9147 25.4354 12.0262 25.3998 12.3279 25.3594C12.3838 25.3516 12.4471 25.3469 12.4879 25.3314C12.9187 25.1648 12.9187 25.1632 13.2169 25.1412C13.5076 25.1207 13.5077 25.1192 13.6595 25.0298C13.7299 24.9882 13.8077 24.9466 13.8743 24.9035C13.9002 24.8865 13.9447 24.8557 13.9297 24.8465C13.847 24.799 13.7349 24.7885 13.6045 24.7995C13.3138 24.8261 12.9703 24.8052 12.8191 24.9514C12.7601 25.0068 12.667 25.0223 12.5328 25.0318C11.1834 25.1232 9.83399 25.2208 8.48077 25.3092C8.26083 25.3234 8.16085 25.3804 8.07581 25.4436C8.00183 25.4959 7.91992 25.5114 7.77826 25.5209C7.63661 25.5304 7.52468 25.5352 7.44199 25.4846C7.39312 25.454 7.43364 25.4109 7.54504 25.3677C7.70472 25.3059 7.67392 25.2292 7.62081 25.1571C7.58292 25.1095 7.46686 25.0759 7.34379 25.0792C7.16105 25.0857 6.98596 25.1029 6.83225 25.0417C6.74228 25.0065 6.63004 24.9821 6.52894 24.9515C6.33417 24.8889 6.13938 24.8247 5.86754 24.8667C5.68082 24.8516 5.54957 24.7965 5.39981 24.7538C5.14899 24.6836 5.12648 24.6728 5.30464 24.5972C5.50507 24.5124 5.347 24.402 5.45791 24.3189C5.57621 24.2296 5.73947 24.151 5.88396 24.0678C5.921 24.0462 5.95435 24.0261 5.99139 24.0046C5.90521 23.974 5.82641 23.9357 5.72542 23.9144C5.59451 23.887 5.52694 23.8533 5.53324 23.758C5.50696 23.7442 5.51851 23.7795 5.54846 23.7887C5.58215 23.7979 5.6642 23.7901 5.7051 23.7792C5.80921 23.7499 5.86092 23.7114 5.83441 23.6791C5.81928 23.6623 5.74819 23.6409 5.70342 23.641C5.62135 23.6411 5.55088 23.675 5.52951 23.758C5.11243 23.8217 4.67997 23.8532 4.2475 23.8786C4.20277 23.8817 4.14647 23.8511 4.09405 23.8358C3.9218 23.7839 3.9218 23.7854 3.41796 23.7709C3.36571 23.7695 3.2946 23.7481 3.26822 23.7266C3.15889 23.6331 3.1614 23.5301 3.10795 23.4304C3.20417 23.3657 3.30032 23.3025 3.40028 23.2394C3.60019 23.1115 3.86004 22.9989 4.01503 22.8588C3.98053 22.7836 3.93484 22.7084 4.09825 22.6467C4.56366 22.569 4.55995 22.5691 4.6859 22.4951C5.04524 22.2855 5.40081 22.0744 5.77511 21.8679C5.87518 21.814 5.87484 21.7848 5.69549 21.762C5.63945 21.756 5.57966 21.7546 5.52001 21.7577C5.3336 21.7688 5.1474 21.7968 4.96452 21.791C4.78166 21.7867 4.64653 21.7193 4.49679 21.6781C4.34331 21.6353 4.18981 21.591 4.03631 21.5468C3.86102 21.5517 3.68623 21.595 3.51004 21.5262C3.37508 21.4726 3.20674 21.4345 3.05324 21.3902C3.16747 21.2733 3.3828 21.1838 3.54943 21.0806C3.70125 20.9866 3.70492 20.9881 4.11442 20.9152C4.30801 20.8811 4.37305 20.7073 4.20828 20.6569C4.00981 20.5958 3.80024 20.5393 3.59806 20.4813C3.42278 20.4862 3.24424 20.528 3.07552 20.4592C2.9443 20.4072 2.79461 20.3721 2.57847 20.3924C2.21327 20.4269 1.84041 20.4444 1.47141 20.4727C1.34467 20.4821 1.20652 20.4762 1.14992 20.4241C1.11217 20.3873 1.21975 20.3364 1.34273 20.3254C1.52908 20.3098 1.69672 20.291 1.78906 20.2141C1.87766 20.1371 2.04152 20.1137 2.23538 20.1027C2.28758 20.0995 2.34709 20.081 2.37298 20.0625C2.5062 19.9731 2.65451 19.8961 2.94181 19.8986C3.06082 19.8677 3.12374 19.8292 3.08598 19.7924C3.06335 19.7724 2.98473 19.7465 2.94 19.7496C2.63053 19.7655 2.32108 19.7814 2.01922 19.8096C1.87761 19.8221 1.76939 19.8254 1.67929 19.7795C1.6155 19.7488 1.64856 19.7073 1.76741 19.6625C1.8714 19.624 1.90074 19.5793 1.89264 19.5271C1.87251 19.4058 1.76013 19.3707 1.40207 19.379C1.14473 19.3856 1.08106 19.3657 1.02383 19.2613C1.0086 19.2368 0.97095 19.203 0.996859 19.1861C1.15601 19.0813 1.25891 18.9521 1.5605 18.9024C1.67966 18.8838 1.80645 18.8836 1.88058 18.8435C1.95471 18.8034 2.02134 18.7572 2.09921 18.7187C2.19565 18.6724 2.26222 18.6293 2.21709 18.6002C2.14184 18.5481 2.02244 18.5437 1.88463 18.5623C1.76543 18.5779 1.63861 18.5797 1.51561 18.5891C1.2957 18.6064 1.11618 18.5667 1.08924 18.4992C1.01618 18.3211 0.939396 18.1446 0.873804 17.9665C0.866081 17.945 0.884347 17.9173 0.913968 17.8988C1.01764 17.8341 1.12886 17.7724 1.23629 17.7093C1.36225 17.6368 1.56391 17.6503 1.73536 17.6362C1.97762 17.6158 1.97755 17.6173 2.30033 17.4693C2.42647 17.4107 2.64687 17.4333 2.77681 17.3809C2.81764 17.3639 2.88073 17.3361 2.86935 17.3208C2.85418 17.3009 2.77942 17.2856 2.72335 17.2765C2.67101 17.2674 2.60754 17.2629 2.55164 17.2676C1.87318 17.3133 1.19852 17.3621 0.520043 17.4063C0.404484 17.4142 0.277223 17.3806 0.235605 17.3331C0.194025 17.2886 0.204526 17.2348 0.196447 17.1841C0.303872 17.1209 0.426229 17.0623 0.518675 16.9946C0.588923 16.9422 0.670733 16.919 0.812464 16.9157C0.998946 16.9108 1.18155 16.892 1.3903 16.8778C1.77557 16.6529 2.15322 16.4171 2.56833 16.1921C2.73511 16.1012 2.69302 16.0091 2.72541 15.9122C2.75791 15.8231 3.00802 15.8365 3.17559 15.8101C3.30963 15.7883 3.35374 15.7391 3.3011 15.7054C3.27101 15.6854 3.20361 15.6625 3.15138 15.6626C3.02827 15.6628 2.90533 15.6769 2.78231 15.6848C2.65928 15.6926 2.51747 15.6883 2.41705 15.7146C2.32035 15.7393 2.25753 15.7917 2.19465 15.8363C2.12436 15.8856 2.03137 15.9027 1.88964 15.906C1.70687 15.9094 1.52424 15.9235 1.34156 15.9346C1.13937 15.875 0.929698 15.817 0.734932 15.7544C0.697475 15.7422 0.689543 15.7068 0.692994 15.6838C0.699726 15.6239 0.64333 15.5871 0.51986 15.5581C0.4151 15.5337 0.328855 15.4985 0.231482 15.468C0.305592 15.4264 0.387211 15.3863 0.446361 15.3416C0.575796 15.2477 0.739144 15.1798 1.02272 15.1824C1.13391 15.1223 1.22253 15.0484 1.36752 15.0066C1.50507 14.9664 1.74061 15.006 1.84396 14.9151C1.89565 14.8705 1.97342 14.8197 2.07393 14.8011C2.234 14.7716 2.4431 14.7866 2.53532 14.7004C2.59069 14.6511 2.67219 14.6064 2.78023 14.594C2.90318 14.5799 3.02995 14.5766 3.11913 14.5473C3.16745 14.5319 3.21939 14.5072 3.21912 14.4857C3.21896 14.4718 3.14414 14.4505 3.09179 14.4413C3.04316 14.4307 2.97957 14.4231 2.92365 14.4263C2.73723 14.4358 2.55463 14.453 2.3682 14.4626C2.31601 14.4657 2.25621 14.4551 2.20013 14.446C2.03568 14.4217 2.04648 14.3909 2.17638 14.3354C2.3063 14.2814 2.39878 14.2121 2.5062 14.1489C2.62546 14.1379 2.77472 14.1423 2.85644 14.113C2.9939 14.0651 3.09003 13.9958 3.20123 13.9357C3.32423 13.9262 3.45103 13.923 3.56648 13.9059C3.6149 13.8996 3.63689 13.8658 3.67769 13.8458C3.75183 13.8072 3.81464 13.7518 3.91514 13.7332C4.07896 13.7053 4.28054 13.7157 4.37652 13.631C4.43188 13.5817 4.51702 13.5294 4.62144 13.5261C4.91236 13.5195 5.03445 13.4347 5.18271 13.3546C5.2939 13.2945 5.53305 13.3248 5.65544 13.2647C5.73705 13.2261 5.7962 13.1784 5.87782 13.1414C5.91121 13.1259 5.98198 13.1181 6.03788 13.1134C6.34353 13.0899 6.65296 13.0724 6.95858 13.0473C7.00703 13.0426 7.05155 13.0195 7.08863 13.001C7.16649 12.9609 7.21427 12.9055 7.31095 12.8792C7.40763 12.853 7.54565 12.8527 7.66494 12.8448C8.04893 12.8211 8.07888 12.8272 8.25263 12.6963C8.39311 12.5901 8.74103 12.6647 8.85526 12.5478C8.92159 12.4801 9.04398 12.4245 9.264 12.4165C9.57352 12.4052 9.87908 12.3755 10.1885 12.355C10.4643 12.336 10.4606 12.336 10.7573 12.1926C10.8909 12.1279 11.0887 12.1368 11.2639 12.1242C11.4503 12.1116 11.6217 12.0928 11.7103 12.0159C11.7989 11.9404 11.9628 11.9156 12.1529 11.9045C12.3281 11.8934 12.526 11.9008 12.6633 11.8391C12.9972 11.691 12.9935 11.6895 13.2283 11.6737C13.5974 11.6485 13.9664 11.6232 14.3354 11.5965C14.5815 11.5792 14.8388 11.5756 15.0697 11.5414C15.2373 11.5166 15.3109 11.4304 15.4183 11.3703C15.724 11.3467 16.0296 11.3231 16.3353 11.3011C16.7639 11.2696 17.1963 11.2412 17.6288 11.2113C17.8146 11.1526 17.8392 11.0235 18.1525 11.0168C18.339 11.0134 18.5215 10.9931 18.7079 10.9805C19.0173 10.9585 19.3229 10.9303 19.6324 10.919C19.8674 10.9109 19.9073 10.8279 20.0298 10.7754C20.0706 10.7569 20.1076 10.7307 20.1561 10.726C20.6406 10.6822 21.1403 10.6721 21.6134 10.6083C21.6618 10.6021 21.7062 10.5697 21.7171 10.5466C21.7244 10.5343 21.6607 10.5114 21.6195 10.5007C21.5709 10.4885 21.5073 10.4763 21.4551 10.4795C19.9156 10.5851 18.3761 10.6923 16.8366 10.7979C16.6204 10.8136 16.6204 10.8121 16.0964 10.982C16.0518 10.9959 15.9997 11.0113 15.9438 11.016C15.6978 11.0349 15.4479 11.0461 15.2057 11.0696C15.0082 11.0883 14.8439 11.0702 14.7015 11.0151C14.6002 10.9753 14.4956 10.9632 14.3688 10.9665C14.2271 10.9714 14.134 10.9885 14.0525 11.0301C13.945 11.0871 13.8899 11.1609 13.6625 11.1767C12.615 11.2446 11.5675 11.3201 10.5237 11.3926C10.378 11.3714 10.3067 11.3392 10.3435 11.3008C10.3656 11.2777 10.41 11.2469 10.4548 11.2437C10.8834 11.2107 11.3158 11.1823 11.7445 11.1509C11.8041 11.1461 11.8862 11.1491 11.9196 11.1336C12.0829 11.0642 12.1413 10.952 12.4509 10.9437C12.6299 10.9388 12.8124 10.9155 12.9838 10.8937C13.0322 10.8874 13.0766 10.8551 13.0875 10.832C13.0911 10.8197 13.0311 10.7968 12.9862 10.7861C12.8215 10.7418 12.6319 10.796 12.4674 10.7655C12.4113 10.7549 12.3327 10.7396 12.3213 10.7212C12.3136 10.7043 12.3767 10.6766 12.4213 10.6596C12.4621 10.6441 12.5179 10.6302 12.5738 10.6255C13.0658 10.5893 13.5579 10.5516 14.05 10.5231C14.2514 10.512 14.3926 10.4733 14.4813 10.4025C14.5478 10.3502 14.6296 10.3224 14.7563 10.3145C15.6174 10.2561 16.4784 10.1916 17.3433 10.1379C17.5596 10.1252 17.6709 10.0743 17.7597 10.0081C17.8299 9.95577 17.9118 9.93719 18.0497 9.92774C19.2836 9.8457 20.5099 9.75447 21.7438 9.67551C21.9712 9.66129 22.0376 9.59511 22.1526 9.53806C22.1934 9.51802 22.2191 9.4934 22.2712 9.48102C22.3233 9.46863 22.3905 9.47004 22.4539 9.46686C23.438 9.39909 24.4221 9.32672 25.41 9.26355C25.6411 9.24932 25.6849 9.17242 25.8036 9.11844C25.8445 9.10147 25.8815 9.07376 25.9299 9.06907C26.668 9.01555 27.406 8.96511 28.1441 8.91313C28.6361 8.87847 29.1282 8.84382 29.6202 8.8107C29.8626 8.79491 29.8625 8.79337 30.1891 8.64685C30.2262 8.62989 30.2782 8.60982 30.3267 8.60513C31.7431 8.50434 33.1559 8.40819 34.5724 8.30894C34.6917 8.30105 34.7771 8.26555 34.8361 8.21321C34.8952 8.16088 34.9806 8.12539 35.0962 8.11751C36.2033 8.03877 37.3104 7.96157 38.4213 7.88744C38.6226 7.8748 38.7639 7.83768 38.8526 7.76839C38.9191 7.71604 39.0008 7.68825 39.1276 7.68035C40.2347 7.60468 41.3418 7.52439 42.4527 7.45179C42.6652 7.4376 42.769 7.38519 42.8727 7.32356C42.9098 7.30198 42.9392 7.26659 42.9839 7.26344C43.5356 7.21947 44.0834 7.17396 44.6389 7.14381C44.8701 7.13111 44.9477 7.06645 45.0402 7.00484C45.1142 6.95554 45.1998 6.9385 45.3415 6.93211C45.651 6.91774 45.9566 6.89111 46.2585 6.86446C46.3032 6.85978 46.3588 6.82588 46.3622 6.80437C46.3692 6.76441 46.283 6.7369 46.1411 6.72332C44.6649 6.82574 43.1851 6.92817 41.7089 7.03059C41.4666 7.04791 41.4666 7.04792 41.1401 7.19444C41.103 7.21141 41.0509 7.23147 40.9988 7.23617C39.5823 7.33542 38.1695 7.43313 36.753 7.53238C36.6337 7.54026 36.5484 7.57575 36.4893 7.62809C36.4302 7.68042 36.3448 7.71591 36.2292 7.72379C34.8761 7.81832 33.523 7.91439 32.1661 8.00432C31.9648 8.01696 31.8235 8.05252 31.7348 8.12335C31.6683 8.1757 31.5865 8.2035 31.4598 8.21141C30.1663 8.29969 28.8765 8.39256 27.5792 8.47778C27.4487 8.48569 27.3512 8.4413 27.3582 8.39981C27.3616 8.37829 27.4171 8.34288 27.4618 8.33973C28.1365 8.28786 28.8074 8.23445 29.486 8.19486C29.7134 8.18218 29.7797 8.11446 29.8946 8.05742C29.9317 8.03738 29.9612 8.01121 30.0096 8.00037C30.0617 7.98799 30.1289 7.98942 30.1922 7.98623C31.7914 7.87438 33.3906 7.76099 34.9936 7.65527C35.2247 7.63951 35.2685 7.56414 35.3872 7.51016C35.428 7.49165 35.465 7.46394 35.5135 7.46079C36.0055 7.42306 36.4975 7.38994 36.9896 7.35682C37.8507 7.29694 38.7118 7.23707 39.5766 7.17718C39.8263 7.15985 39.8264 7.15984 40.1454 7.01487C40.1825 6.99791 40.2346 6.97633 40.283 6.97317C42.5606 6.81404 44.8382 6.65492 47.1159 6.49733C47.2351 6.48944 47.3205 6.45396 47.3796 6.40162C47.4386 6.35082 47.524 6.3138 47.6395 6.30438C50.7186 6.09009 53.7939 5.8758 56.873 5.66458C57.0743 5.65041 57.2156 5.61789 57.3043 5.54553C57.3671 5.49319 57.4525 5.46539 57.5793 5.45595C60.964 5.22116 64.3487 4.98637 67.7372 4.75004C70.0148 4.59245 72.2924 4.43179 74.5701 4.27727C74.7788 4.26308 74.8901 4.21526 74.9938 4.15209C75.0271 4.13052 75.0603 4.09512 75.105 4.09197C75.5933 4.05272 76.0816 4.01654 76.5699 3.98036C76.7233 4.02157 76.8768 4.06126 77.0302 4.10247C77.1452 4.04389 77.2564 3.98378 77.3714 3.9252C78.1095 3.87936 78.8362 3.80896 79.582 3.78616C79.6305 3.78454 79.6831 3.81364 79.7355 3.82892C80.0836 3.9251 80.2813 3.91707 80.4998 3.78764C80.5776 3.74142 80.6442 3.69982 80.7635 3.69193C81.1325 3.66364 81.5055 3.64455 81.8707 3.61165C82.0682 3.59441 82.2325 3.60949 82.3749 3.66455C82.4762 3.70432 82.5809 3.72104 82.7039 3.71161C83.3823 3.66434 84.057 3.61861 84.7354 3.56827C84.7839 3.56511 84.8283 3.53891 84.8654 3.52041C84.9432 3.48033 85.0099 3.43721 85.084 3.3956C85.185 3.42154 85.2972 3.44132 85.3797 3.47498C85.4847 3.51474 85.5816 3.51456 85.7233 3.50356C88.4295 3.31296 91.1396 3.12697 93.8458 2.93484C94.0769 2.91908 94.1785 2.98343 94.3356 3.01696C94.388 3.02916 94.4404 3.04442 94.4964 3.0474C94.5561 3.05037 94.6194 3.04105 94.679 3.03634C96.7106 2.89454 98.7422 2.75427 100.774 2.61247C101.042 2.59357 101.042 2.59357 101.443 2.68812C101.491 2.70033 101.555 2.71405 101.607 2.70935C102.531 2.64783 103.456 2.5817 104.377 2.51865C104.496 2.51076 104.597 2.53516 104.706 2.57031C104.919 2.63907 104.934 2.63905 105.089 2.53738C105.163 2.48963 105.241 2.46029 105.364 2.44625C105.498 2.43065 105.607 2.43509 105.712 2.46256C105.861 2.50071 105.97 2.56504 106.198 2.54774C107.182 2.47383 108.17 2.4122 109.15 2.33675C109.374 2.31946 109.494 2.37149 109.643 2.40964C109.696 2.42337 109.744 2.4448 109.8 2.44931C109.856 2.45382 109.923 2.44294 109.983 2.43823C111.213 2.35313 112.447 2.26958 113.673 2.17834C113.904 2.16104 114.006 2.22691 114.163 2.26044C114.216 2.27264 114.275 2.29405 114.324 2.2909C115.062 2.24199 115.804 2.18999 116.542 2.13801C116.807 2.11911 116.807 2.12065 117.211 2.21366C117.259 2.22587 117.323 2.23805 117.375 2.23489C118.236 2.17655 119.101 2.11666 119.962 2.05679C120.227 2.03789 120.227 2.0379 120.993 2.11645C121.049 2.1225 121.108 2.13163 121.164 2.12846C122.148 2.06069 123.136 1.99444 124.12 1.92206C124.318 1.90789 124.482 1.91989 124.625 1.97495C124.726 2.01472 124.831 2.03144 124.954 2.02201C126.061 1.94481 127.172 1.87068 128.275 1.78887C128.487 1.77314 128.626 1.80668 128.776 1.85098C128.824 1.86626 128.873 1.88768 128.929 1.89373C128.985 1.89978 129.048 1.89352 129.108 1.88881C130.215 1.81161 131.326 1.73901 132.429 1.65567C132.653 1.63838 132.773 1.6904 132.923 1.72855C132.975 1.74229 133.031 1.76984 133.076 1.76823C133.509 1.74136 133.941 1.71757 134.37 1.67842C134.601 1.65651 134.702 1.72699 134.859 1.76052C134.912 1.77118 134.972 1.79413 135.02 1.79098C135.945 1.72946 136.869 1.66486 137.79 1.59874C137.92 1.5893 138.018 1.60294 138.122 1.6427C138.261 1.69623 138.422 1.71746 138.623 1.70022C139.052 1.66414 139.484 1.63881 139.917 1.60887C140.17 1.59153 140.17 1.59153 140.947 1.67007C141.003 1.67612 141.063 1.68523 141.119 1.68206C141.857 1.63161 142.599 1.5827 143.333 1.52766C143.531 1.51195 143.695 1.52549 143.837 1.58055C143.939 1.62032 144.039 1.63705 144.166 1.62761C144.845 1.58034 145.519 1.53308 146.198 1.48581C146.444 1.46848 146.69 1.43886 146.936 1.43843C147.115 1.43966 147.247 1.51317 147.407 1.54976C147.452 1.56044 147.527 1.54803 147.586 1.54486C148.448 1.48498 149.312 1.4297 150.17 1.36215C150.393 1.34486 150.513 1.39689 150.663 1.43503C150.715 1.44877 150.772 1.47633 150.816 1.47471C151.126 1.45728 151.432 1.4337 151.741 1.41319C152.11 1.38797 152.483 1.36888 152.848 1.33445C153.146 1.30628 153.26 1.43974 153.499 1.44393C153.681 1.44822 153.868 1.42179 154.05 1.40918C154.419 1.38396 154.788 1.35566 155.157 1.33352C155.288 1.32561 155.388 1.30084 155.429 1.24546C155.436 1.2347 155.372 1.21177 155.331 1.19802C154.833 1.04217 154.833 1.04217 154.333 1.07683C154.024 1.09888 153.718 1.12092 153.409 1.1399C153.357 1.14306 153.297 1.13087 153.245 1.12175C153.095 1.09589 153.11 1.06514 153.236 1.00961C153.362 0.954086 153.458 0.886326 153.566 0.82315C153.719 0.862828 153.869 0.902498 154.022 0.942177C154.145 0.934281 154.268 0.924863 154.391 0.916968C155.006 0.875955 155.621 0.833403 156.237 0.795463C156.281 0.792312 156.338 0.822946 156.39 0.838218C156.54 0.882512 156.675 0.920675 156.891 0.9034C157.442 0.857889 157.998 0.824661 158.55 0.785295C158.792 0.767974 158.792 0.767976 159.218 0.862487C159.267 0.873157 159.33 0.885338 159.383 0.882175C159.938 0.845875 160.49 0.806513 161.045 0.768676C161.164 0.760788 161.28 0.780558 161.367 0.824961C161.401 0.843339 161.393 0.874072 161.538 1.12578C161.981 1.32934 162.283 1.30732 162.589 1.28835C162.719 1.28044 162.835 1.27255 162.92 1.24168C162.965 1.2247 163.02 1.20002 163.02 1.18005C163.02 1.16469 162.938 1.14024 162.885 1.13726C162.516 1.10718 162.166 1.17232 161.804 1.18677C161.636 1.19321 161.49 1.13969 161.459 1.05218C161.451 1.02761 161.44 1.00151 161.428 0.97695C161.417 0.952389 161.409 0.926286 161.398 0.901724C161.252 0.894296 161.167 0.922094 161.104 0.974438C161.052 1.01754 160.978 1.06684 160.878 1.09006C160.777 1.11481 160.639 1.11045 160.516 1.11835C160.397 1.12623 160.266 1.14643 160.154 1.13587C160.042 1.12378 159.952 1.07937 159.847 1.0519C159.799 1.03816 159.739 1.0183 159.69 1.02145C159.262 1.04831 158.837 1.07516 158.412 1.1097C158.188 1.12852 158.075 1.0642 157.933 1.0245C157.821 0.993972 157.709 1.00184 157.691 1.07254C157.645 1.24162 157.817 1.31199 158.197 1.27906C158.51 1.25086 158.794 1.24578 159.041 1.34982C159.075 1.36359 159.154 1.36959 159.202 1.36644C159.508 1.34747 159.81 1.3239 160.115 1.30493C160.171 1.30176 160.231 1.30779 160.283 1.31385C161.045 1.39549 161.045 1.39703 161.303 1.37815C161.426 1.36872 161.545 1.36083 161.531 1.12733C161.763 0.876504 162.136 0.85896 162.497 0.82146C162.732 0.798008 162.833 0.865433 162.987 0.900502C163.039 0.912702 163.096 0.937181 163.144 0.934024C163.945 0.881933 164.743 0.826769 165.541 0.768539C165.675 0.759088 165.772 0.768139 165.877 0.807901C166.012 0.858366 166.162 0.890376 166.374 0.871571C166.799 0.833961 167.231 0.81017 167.664 0.778693C167.884 0.762948 167.884 0.762932 168.329 0.857411C168.378 0.868081 168.441 0.880262 168.493 0.877099C168.926 0.85023 169.354 0.817232 169.783 0.788834C169.902 0.780945 170.011 0.802263 170.105 0.843581C170.198 0.884899 170.311 0.906211 170.426 0.898329C170.859 0.869924 171.287 0.838462 171.716 0.810064C171.768 0.806901 171.832 0.817544 171.88 0.828214C172.337 0.922674 172.337 0.922658 172.545 0.906932C172.851 0.883356 173.164 0.87207 173.466 0.840819C173.76 0.809581 173.914 0.898414 174.116 0.947225C174.668 0.910931 175.224 0.880784 175.772 0.836815C175.995 0.817991 176.115 0.868477 176.265 0.908161C176.317 0.921897 176.37 0.950999 176.418 0.949379C176.605 0.94291 176.788 0.925696 176.97 0.913088C177.153 0.90048 177.339 0.887867 177.522 0.875259C177.731 0.919449 177.871 1.02368 178.169 0.987823C178.348 0.966004 178.538 0.961065 178.72 0.948457C178.903 0.935849 179.089 0.923236 179.272 0.910628C179.395 0.902733 179.522 0.897897 179.641 0.883863C179.861 0.860436 179.97 0.935536 180.127 0.969062C180.18 0.979726 180.239 0.998046 180.288 0.994889C180.657 0.972739 181.03 0.953657 181.391 0.917694C181.671 0.889555 181.862 0.935319 182.06 0.9995C182.101 1.01326 182.172 1.02081 182.224 1.01765C182.657 0.990781 183.085 0.957765 183.514 0.929367C183.63 0.921484 183.742 0.94587 183.836 0.985652C183.933 1.02696 184.042 1.04676 184.161 1.03887C184.59 1.01047 185.022 0.978988 185.451 0.95059C185.503 0.947426 185.567 0.959609 185.615 0.971815C186.034 1.06634 186.034 1.06788 186.28 1.04901C186.34 1.0443 186.403 1.04111 186.463 1.03639C186.769 1.01436 187.086 1.00613 187.384 0.968744C187.726 0.926668 187.977 0.97847 188.22 1.06562C188.526 1.04665 188.839 1.03535 189.137 1.00411C189.361 0.980673 189.481 1.03884 189.631 1.07699C189.683 1.09073 189.74 1.11828 189.784 1.11513C190.217 1.08826 190.649 1.06448 191.074 1.02533C191.305 1.00342 191.407 1.07237 191.564 1.10743C191.616 1.11963 191.672 1.14105 191.721 1.13789C191.967 1.12518 192.213 1.1063 192.459 1.08898C192.746 1.06851 192.746 1.07004 193.128 1.16309C193.307 1.20734 193.486 1.17169 193.661 1.16063C193.848 1.14801 194.023 1.1385 194.173 1.20122C194.267 1.24101 194.379 1.26539 194.494 1.25905C194.74 1.24479 194.99 1.23054 195.232 1.20707C195.426 1.1883 195.594 1.20029 195.737 1.25689C195.838 1.29666 195.943 1.31646 196.066 1.30703C196.617 1.2692 197.173 1.22981 197.724 1.19352C197.773 1.19036 197.84 1.20408 197.885 1.21783C197.99 1.2453 198.091 1.27584 198.192 1.30639C198.434 1.29215 198.684 1.28558 198.923 1.26366C199.176 1.24171 199.408 1.23363 199.606 1.31778C199.648 1.33614 199.708 1.36214 199.756 1.36052C199.942 1.35405 200.125 1.33838 200.308 1.32577C200.49 1.31316 200.677 1.30055 200.859 1.28794C201.073 1.32598 201.208 1.43636 201.506 1.4005C201.685 1.37868 201.875 1.37374 202.058 1.36114C202.241 1.34853 202.427 1.33438 202.61 1.32331C202.669 1.32013 202.736 1.31233 202.789 1.31838C202.845 1.32443 202.893 1.34586 202.942 1.36114C203.092 1.40543 203.231 1.44975 203.443 1.42326C203.622 1.40145 203.812 1.3965 203.995 1.38236C204.244 1.36503 204.244 1.36503 204.66 1.4611C204.828 1.50075 205.018 1.44819 205.178 1.48171C205.287 1.50456 205.381 1.5428 205.485 1.56874C205.53 1.57941 205.601 1.58389 205.653 1.58073C205.899 1.56647 206.149 1.55222 206.391 1.52875C206.589 1.50998 206.753 1.52812 206.892 1.58319C206.993 1.62296 207.094 1.63969 207.221 1.63026C207.836 1.58617 208.451 1.54822 209.062 1.49953C209.271 1.48227 209.439 1.5081 209.556 1.56321C209.755 1.65811 210.033 1.54548 210.239 1.62194C210.367 1.66934 210.494 1.72443 210.725 1.70099C211.15 1.6603 211.582 1.63803 212.011 1.60963C212.165 1.65085 212.318 1.69207 212.475 1.73328C212.721 1.71595 212.967 1.69862 213.213 1.68282C213.396 1.67022 213.582 1.65607 213.765 1.645C213.825 1.64182 213.888 1.63556 213.944 1.64315C214 1.65073 214.045 1.67063 214.098 1.6859C214.356 1.76073 214.356 1.76228 214.781 1.73081C214.963 1.71667 215.139 1.70715 215.292 1.76833C215.435 1.82493 215.603 1.83539 215.797 1.81815C216.162 1.78679 216.531 1.7631 216.904 1.74095C217.019 1.73307 217.128 1.759 217.225 1.79877C217.372 1.86151 217.551 1.85505 217.733 1.83783C217.976 1.81591 218.214 1.79399 218.42 1.87966C218.461 1.89803 218.525 1.92402 218.57 1.92241C218.876 1.90958 219.185 1.89984 219.483 1.87013C219.782 1.84042 219.928 1.93541 220.134 1.98115C220.44 1.96064 220.749 1.94013 221.055 1.91963C221.114 1.91492 221.185 1.90098 221.237 1.90857C221.458 1.94045 221.586 2.05545 221.888 2.01959C222.063 1.99931 222.253 1.99284 222.436 1.98791C222.484 1.98629 222.548 2.01229 222.582 2.0322C222.601 2.04292 222.582 2.07214 222.56 2.08755C222.494 2.13068 222.412 2.17078 222.353 2.21543C222.345 2.22159 222.417 2.24911 222.458 2.26133C222.559 2.28881 222.675 2.28401 222.809 2.27148C222.924 2.26053 223.044 2.28183 223.127 2.32778C223.16 2.34615 223.149 2.3769 223.08 2.47841C223.081 2.55369 223.159 2.51975 223.184 2.47054C223.224 2.3998 223.146 2.3769 222.997 2.41556C222.893 2.4434 222.841 2.48344 222.868 2.51565C222.883 2.53253 222.954 2.55391 223.08 2.47841C223.407 2.38567 223.653 2.36835 223.899 2.35102C223.962 2.3463 224.037 2.3308 224.082 2.33994C224.243 2.37653 224.392 2.42083 224.55 2.46204C224.729 2.45251 224.896 2.42917 225.072 2.48878C225.32 2.57284 225.331 2.56515 225.569 2.54783C225.692 2.5384 225.815 2.53052 225.938 2.52262C226.061 2.51473 226.158 2.5376 226.267 2.57274C226.488 2.64457 226.507 2.64453 226.651 2.54595C226.736 2.48589 226.796 2.46582 226.904 2.49328C227.263 2.58638 227.267 2.59251 227.573 2.56433C227.826 2.54084 228.065 2.53428 228.253 2.62153C228.38 2.68276 228.421 2.66886 228.521 2.60416C228.787 2.43317 228.911 2.43602 229.416 2.55805C229.651 2.61602 229.893 2.55262 230.132 2.54452C230.333 2.53803 230.476 2.57464 230.492 2.67141C230.504 2.7313 230.538 2.77427 230.672 2.79401C230.725 2.8016 230.788 2.81224 230.84 2.80907C231.15 2.7901 231.455 2.76806 231.765 2.74601C231.921 2.73499 232.006 2.66264 231.975 2.56744C231.94 2.46611 232 2.42912 232.223 2.39954C232.357 2.38241 232.466 2.38531 232.574 2.41277C232.694 2.44329 232.661 2.471 232.557 2.52649C232.308 2.66212 232.339 2.74501 232.661 2.83817C232.774 2.87024 232.863 2.89928 232.89 2.94686C232.905 2.97142 232.891 3.0037 232.925 3.02208C233.109 3.1247 233.363 3.19032 233.647 3.23899C233.919 3.19704 234.107 3.26584 234.316 3.32078C234.481 3.36351 234.674 3.32631 234.85 3.31065C235.047 3.2934 235.211 3.3054 235.354 3.362C235.455 3.40177 235.56 3.42002 235.683 3.41212C235.929 3.39479 236.179 3.38361 236.421 3.35861C236.629 3.33674 236.787 3.3672 236.918 3.4192C237.083 3.48498 237.265 3.4401 237.437 3.44902C237.668 3.45937 237.786 3.5959 238.087 3.5585C238.266 3.53668 238.452 3.52868 238.639 3.52221C238.687 3.52059 238.747 3.54661 238.789 3.56497C238.987 3.64913 239.219 3.64411 239.472 3.61909C239.647 3.60189 239.819 3.58623 239.991 3.64432C240.276 3.74215 240.59 3.82764 240.89 3.91776C240.932 3.98836 240.903 4.07136 241.116 4.11247C241.228 4.13378 241.333 4.16588 241.419 4.20106C241.524 4.24236 241.621 4.25295 241.755 4.24196C241.998 4.22003 242.251 4.21497 242.49 4.1869C242.71 4.16194 242.848 4.21241 242.983 4.2598C243.092 4.29802 243.193 4.31627 243.323 4.28839C243.457 4.26204 243.554 4.27877 243.663 4.32006C243.817 4.37664 243.828 4.37048 244.335 4.3865C244.387 4.38795 244.451 4.41087 244.481 4.43079C244.496 4.44152 244.463 4.47232 244.437 4.48773C244.404 4.50622 244.352 4.52781 244.303 4.5325C243.752 4.5734 243.196 4.6097 242.645 4.65061C242.589 4.65531 242.529 4.66618 242.488 4.68162C242.444 4.69859 242.388 4.72172 242.388 4.74323C242.389 4.75859 242.463 4.7769 242.516 4.78757C242.68 4.82262 242.874 4.76851 243.035 4.80818C243.143 4.8341 243.233 4.87081 243.342 4.8952C243.386 4.90588 243.457 4.90423 243.513 4.90106C243.7 4.88998 243.882 4.8743 244.069 4.86476C244.121 4.86313 244.181 4.8784 244.229 4.89061C244.589 4.98216 244.589 4.98216 244.898 4.96165C245.021 4.95375 245.151 4.93048 245.267 4.9395C245.379 4.94852 245.477 4.98983 245.578 5.01577C245.787 5.07072 245.986 5.12414 246.002 5.24395C246.01 5.29002 246.134 5.32975 246.257 5.33261C246.376 5.33547 246.503 5.31837 246.626 5.30894C246.917 5.28999 246.917 5.28999 247.295 5.38305C247.399 5.40899 247.511 5.41186 247.646 5.39626C247.698 5.39003 247.761 5.39607 247.817 5.40366C248 5.42638 248.001 5.45556 247.882 5.51108C247.715 5.59279 247.73 5.60045 248.201 5.66877C248.38 5.69458 248.519 5.7435 248.669 5.78626C248.912 5.85497 248.908 5.85497 248.749 5.94589C248.712 5.96592 248.679 5.98749 248.642 6.00907C248.534 6.06917 248.449 6.13384 248.225 6.14037C247.979 6.14695 247.733 6.17196 247.487 6.18929C247.249 6.20661 247.186 6.24357 247.209 6.348C247.237 6.47393 247.286 6.48768 247.715 6.4854C247.838 6.48518 247.946 6.49728 248.04 6.5386C247.996 6.58784 247.914 6.62639 247.795 6.63582C247.489 6.65939 247.18 6.67991 246.874 6.70041C246.628 6.71774 246.382 6.73506 246.136 6.75238C245.983 6.7634 245.887 6.84347 245.929 6.9325C245.952 6.98316 245.972 7.03382 245.991 7.08449C246.033 7.18581 246.112 7.2118 246.362 7.20676C246.425 7.20511 246.485 7.19271 246.544 7.19568C246.787 7.20601 246.904 7.33332 247.195 7.3067C247.437 7.28477 247.691 7.27972 247.929 7.25165C248.149 7.22669 248.273 7.2818 248.426 7.32301C248.479 7.33675 248.535 7.36582 248.58 7.36421C248.889 7.34677 249.199 7.32935 249.501 7.29964C249.642 7.2871 249.728 7.29616 249.84 7.33284C250.11 7.42148 250.118 7.41686 250.516 7.38851C250.807 7.3665 250.811 7.36956 251.185 7.46263C251.29 7.48856 251.402 7.48836 251.536 7.47584C251.711 7.46017 251.894 7.43528 252.077 7.458C252.133 7.46405 252.204 7.48237 252.223 7.50231C252.234 7.51612 252.182 7.55001 252.138 7.56084C251.81 7.6413 251.426 7.62814 251.068 7.66102C250.956 7.67043 250.844 7.64144 250.75 7.60012C250.653 7.55881 250.548 7.5421 250.421 7.55C250.175 7.56732 249.926 7.57851 249.683 7.60351C249.475 7.62538 249.329 7.59029 249.183 7.54292C249.134 7.52764 249.078 7.49855 249.029 7.50017C248.477 7.53185 247.922 7.56355 247.374 7.60752C247.154 7.62634 247.027 7.5774 246.877 7.53618C246.825 7.52244 246.772 7.49334 246.724 7.49496C246.537 7.50143 246.354 7.51864 246.168 7.53126C245.49 7.57853 244.815 7.62579 244.136 7.66999C244.092 7.67314 244.035 7.64097 243.983 7.62723C243.882 7.59975 243.777 7.57381 243.672 7.54788C243.486 7.56049 243.303 7.57617 243.117 7.58571C242.983 7.59209 242.864 7.61382 242.846 7.67223C242.835 7.71065 242.958 7.74577 243.089 7.74247C243.216 7.73918 243.342 7.72052 243.447 7.74031C243.967 7.83773 243.967 7.83927 244.291 7.81874C244.575 7.79981 244.544 7.78449 244.795 7.86855C244.904 7.90524 245.001 7.92659 245.124 7.91715C245.43 7.89511 245.739 7.87307 246.049 7.85409C246.097 7.85094 246.161 7.86619 246.21 7.8784C246.576 7.96994 246.576 7.97301 246.878 7.94944C247.273 7.9211 247.288 7.91339 247.554 8.00665C247.738 8.07086 247.905 8.02601 248.08 8.02263C248.283 8.0822 248.503 8.13559 248.687 8.20287C248.904 8.28239 249.132 8.26815 249.378 8.24468C249.56 8.22746 249.739 8.22101 249.889 8.28374C250.032 8.34187 250.204 8.34773 250.397 8.33203C250.573 8.31789 250.751 8.28838 250.935 8.32187C250.983 8.331 251.058 8.35392 251.054 8.36776C251.051 8.38927 251.003 8.42008 250.954 8.42939C250.612 8.49297 250.235 8.49208 249.874 8.5219C249.825 8.52659 249.762 8.5098 249.713 8.49759C249.608 8.47012 249.507 8.43804 249.406 8.40903C249.223 8.41856 249.037 8.42195 248.858 8.4407C248.72 8.45476 248.615 8.45342 248.514 8.41673C248.421 8.38309 248.319 8.34178 248.207 8.33122C248.095 8.32066 247.965 8.34393 247.842 8.35336C247.719 8.36279 247.577 8.35842 247.481 8.38317C247.384 8.40792 247.325 8.4618 247.262 8.50493C247.192 8.55267 247.095 8.56822 246.953 8.57307C246.822 8.57791 246.718 8.57194 246.62 8.52909C246.579 8.51072 246.523 8.49699 246.467 8.4848C246.415 8.47413 246.355 8.45733 246.306 8.46049C245.751 8.49679 245.199 8.53617 244.644 8.57401C244.368 8.59292 244.372 8.5929 243.796 8.50326C243.744 8.49567 243.68 8.48503 243.628 8.48819C243.318 8.50716 243.013 8.52921 242.703 8.55125C242.39 8.5733 242.394 8.57022 241.859 8.47436C241.762 8.4561 241.621 8.48093 241.505 8.47805C241.262 8.47079 241.141 8.34195 240.858 8.36703C240.616 8.38896 240.362 8.394 240.12 8.42208C239.9 8.44704 239.773 8.3935 239.623 8.35228C239.571 8.33854 239.514 8.30791 239.469 8.31106C238.914 8.34582 238.362 8.38519 237.624 8.39108C237.441 8.3914 237.523 8.42352 237.643 8.43407C237.815 8.45067 237.87 8.41831 237.776 8.35702C237.709 8.31412 237.611 8.29277 237.533 8.30366C237.492 8.30987 237.44 8.33916 237.624 8.39108C237.818 8.44912 237.808 8.4814 237.841 8.49978C237.924 8.54419 238.04 8.56242 238.159 8.55607C238.346 8.54499 238.528 8.52931 238.715 8.51977C238.767 8.51661 238.83 8.52725 238.879 8.53946C239.291 8.634 239.294 8.64014 239.731 8.60251C239.868 8.59152 239.969 8.59134 240.078 8.62034C240.227 8.66003 240.336 8.72743 240.564 8.70552C240.866 8.67581 241.175 8.65839 241.484 8.64095C241.533 8.63779 241.585 8.66535 241.642 8.67755C241.795 8.71415 241.908 8.78309 242.135 8.75351C242.31 8.73016 242.5 8.72367 242.687 8.71873C242.735 8.71711 242.81 8.74157 242.833 8.7615C242.878 8.79676 242.822 8.83835 242.696 8.86776C242.644 8.88014 242.573 8.87718 242.513 8.8819C242.267 8.89922 242.021 8.91808 241.775 8.93233C241.645 8.94024 241.522 8.96351 241.508 9.02038C241.497 9.0588 241.632 9.09236 241.759 9.08907C241.945 9.08414 242.131 9.07152 242.31 9.05124C242.627 9.01689 242.903 9.02563 243.162 9.12197C243.345 9.18925 243.334 9.1647 243.53 9.36408C243.579 9.41469 243.725 9.41904 243.852 9.41575C244.158 9.40754 244.3 9.43034 244.274 9.47801C244.241 9.53645 244.133 9.55506 243.995 9.56298C243.749 9.5757 243.503 9.59611 243.257 9.61344C243.198 9.61815 243.131 9.62748 243.075 9.6245C243.019 9.62153 242.966 9.60318 242.917 9.58944C242.813 9.56043 242.723 9.51603 242.61 9.50547C242.498 9.49491 242.368 9.51818 242.245 9.52761C242.122 9.53551 241.992 9.55878 241.88 9.54822C241.768 9.53766 241.674 9.49175 241.573 9.46427C241.524 9.45053 241.464 9.42911 241.416 9.43073C241.17 9.44344 240.924 9.46385 240.678 9.47964C240.376 9.50014 240.376 9.50014 240.009 9.40553C239.904 9.37805 239.796 9.37978 239.658 9.39231C239.36 9.41741 239.356 9.4128 238.81 9.32464C238.758 9.31551 238.694 9.30487 238.642 9.30957C238.087 9.34587 237.535 9.38523 236.983 9.42306C236.51 9.45615 236.51 9.45616 236.251 9.61025C236.058 9.72427 236.054 9.72427 236.245 9.77617C236.399 9.81892 236.538 9.88167 236.706 9.90442C236.863 9.92566 237.056 9.85619 237.228 9.92656C237.315 9.96175 237.427 9.99996 237.535 10.0059C237.707 10.0133 237.889 9.96843 238.054 10.0357C238.137 10.0694 238.26 10.1045 238.365 10.1059C238.548 10.1086 238.734 10.0837 238.916 10.0726C238.972 10.0695 239.036 10.0694 239.088 10.077C239.144 10.0861 239.193 10.1044 239.242 10.1197C239.391 10.1717 239.552 10.196 239.746 10.1695C240.062 10.126 240.346 10.147 240.594 10.2449C240.627 10.2586 240.71 10.2601 240.762 10.2538C240.896 10.2382 241.011 10.2365 241.112 10.2655C241.154 10.2777 241.214 10.2991 241.206 10.3129C241.195 10.336 241.151 10.3668 241.103 10.3746C240.753 10.4274 240.376 10.4342 240.014 10.4625C239.966 10.4657 239.906 10.4458 239.857 10.432C239.752 10.4046 239.662 10.3587 239.55 10.3481C239.438 10.3375 239.308 10.3577 239.185 10.3656C239.062 10.3735 238.932 10.3968 238.82 10.3878C238.707 10.3772 238.603 10.339 238.513 10.3053C238.408 10.2671 238.307 10.2627 238.169 10.2783C237.99 10.2986 237.804 10.302 237.621 10.313C237.52 10.284 237.419 10.2519 237.314 10.2245C237.265 10.2107 237.205 10.1939 237.153 10.1955C236.907 10.2083 236.661 10.2271 236.415 10.2444C236.169 10.2618 236.169 10.2618 235.75 10.1673C235.701 10.1566 235.638 10.1444 235.586 10.1476C235.276 10.1666 234.971 10.1901 234.661 10.2091C234.542 10.217 234.433 10.1957 234.336 10.1543C234.242 10.113 234.13 10.0902 234.014 10.0981C233.522 10.1312 233.03 10.1628 232.538 10.202C232.341 10.2177 232.173 10.2042 232.038 10.1491C231.88 10.0864 231.705 10.1021 231.522 10.1147C231.109 10.1461 231.105 10.1446 230.839 10.0667C230.787 10.0514 230.734 10.0223 230.686 10.0239C230.257 10.0477 229.824 10.07 229.4 10.1076C229.176 10.128 229.056 10.0744 228.906 10.0347C228.854 10.021 228.797 9.9919 228.753 9.99505C228.443 10.0125 228.134 10.0284 227.832 10.0596C227.53 10.0909 227.413 9.94822 227.185 9.95015C226.876 9.95223 226.57 9.98809 226.264 10.0101C226.018 10.0275 225.772 10.0448 225.526 10.0621C225.28 10.0794 225.034 10.0937 224.788 10.1141C224.658 10.1251 224.561 10.1114 224.452 10.0732C224.313 10.0227 224.149 9.98308 223.999 9.93725C223.771 9.87159 223.771 9.87158 223.495 9.89049C223.435 9.8952 223.372 9.89838 223.312 9.90309C222.861 9.93768 222.861 9.93461 222.285 9.83882C222.259 9.83426 222.192 9.85128 222.166 9.86362C222.088 9.9037 222.018 9.94683 221.948 9.98843C221.847 9.96402 221.723 9.95041 221.656 9.9152C221.464 9.81567 221.167 9.95291 220.972 9.85493C220.901 9.81818 220.777 9.78613 220.665 9.77711C220.55 9.76809 220.419 9.78983 220.3 9.79925C219.991 9.82283 219.991 9.8213 219.727 9.95849C219.594 10.0263 219.4 10.0144 219.225 10.03C219.042 10.0472 218.867 10.0568 218.713 9.99405C218.574 9.93744 218.406 9.92392 218.209 9.94269C217.967 9.96616 217.717 9.98041 217.471 9.99467C217.419 9.99783 217.355 9.99026 217.303 9.98114C216.731 9.89149 216.731 9.88996 216.455 9.91041C216.332 9.91984 216.205 9.92312 216.086 9.93715C215.885 9.96208 215.731 9.93009 215.585 9.88118C215.537 9.8659 215.48 9.83682 215.432 9.83844C215.186 9.84655 214.943 9.8608 214.701 9.87504C214.515 9.88612 214.328 9.89259 214.149 9.91441C213.851 9.95026 213.704 9.85064 213.499 9.80491C213.193 9.82541 212.884 9.83978 212.578 9.86797C212.436 9.8805 212.343 9.87607 212.234 9.83938C212.096 9.79353 211.968 9.74152 211.745 9.76495C211.447 9.7962 211.133 9.8075 210.828 9.82647C210.622 9.7792 210.472 9.68266 210.177 9.7185C209.998 9.74032 209.808 9.74526 209.626 9.75787C209.38 9.7752 209.134 9.791 208.888 9.80986C208.623 9.82876 208.627 9.82414 208.219 9.73421C207.983 9.68085 207.741 9.74118 207.503 9.75081C207.316 9.75882 207.224 9.82964 207.27 9.92021C207.316 10.0108 207.216 10.0816 207.044 10.0942C206.616 10.1241 206.183 10.1556 205.754 10.1825C205.702 10.1856 205.639 10.175 205.59 10.1643C205.13 10.0683 205.13 10.0699 204.925 10.0841C204.619 10.1076 204.306 10.1205 204.004 10.1502C203.796 10.1705 203.642 10.1385 203.507 10.0865C203.402 10.0468 203.305 10.0377 203.171 10.0472C201.695 10.1527 200.219 10.2505 198.746 10.359C198.526 10.3748 198.399 10.3305 198.249 10.2892C198.197 10.2755 198.148 10.2464 198.096 10.2465C197.973 10.2467 197.85 10.2607 197.727 10.2702C197.175 10.308 196.623 10.3535 196.068 10.3821C195.833 10.3948 195.77 10.4656 195.67 10.5242C195.593 10.5689 195.503 10.5874 195.365 10.5938C195.231 10.6002 195.134 10.5927 195.029 10.5529C194.894 10.5009 194.741 10.4689 194.532 10.4908C194.29 10.5158 194.044 10.527 193.794 10.5443C193.667 10.5522 193.571 10.58 193.53 10.6354C193.523 10.6446 193.602 10.6676 193.646 10.6813C193.796 10.7271 193.939 10.7807 194.107 10.8126C194.279 10.8446 194.465 10.8074 194.644 10.7979C194.707 10.7947 194.767 10.7854 194.827 10.7868C194.883 10.7882 194.95 10.7958 194.991 10.8096C195.186 10.8784 195.392 10.9256 195.66 10.8837C195.891 10.9032 196.012 11.0306 196.307 10.9962C196.486 10.976 196.672 10.9664 196.858 10.9584C196.907 10.9568 196.959 10.9844 197.012 10.9981C197.162 11.0362 197.282 11.0975 197.505 11.071C197.744 11.0429 197.997 11.0379 198.24 11.0159C198.374 11.0034 198.471 11.014 198.576 11.0538C198.711 11.1042 198.864 11.1424 199.073 11.1174C199.252 11.0956 199.442 11.0906 199.624 11.0765C199.863 11.0592 199.863 11.0607 200.289 11.1552C200.338 11.1659 200.402 11.1781 200.454 11.1749C200.763 11.156 201.069 11.1324 201.378 11.1134C201.498 11.1055 201.614 11.1253 201.696 11.1697C201.73 11.1881 201.719 11.2188 201.731 11.2449C201.115 11.2875 200.5 11.3239 199.889 11.3756C199.658 11.396 199.553 11.3332 199.399 11.2981C199.347 11.2859 199.291 11.2599 199.242 11.2631C198.81 11.2899 198.381 11.3183 197.953 11.3529C197.818 11.3639 197.718 11.3579 197.616 11.3135C197.357 11.1957 197.045 11.2607 196.754 11.2781C196.53 11.2908 196.46 11.3386 196.487 11.4399C196.522 11.5597 196.657 11.5963 197 11.5742C197.123 11.5663 197.246 11.5554 197.369 11.549C197.489 11.5427 197.597 11.5624 197.695 11.6038C197.788 11.6451 197.9 11.6664 198.016 11.66C198.262 11.6458 198.512 11.6315 198.75 11.6081C198.948 11.5893 199.112 11.6044 199.251 11.661C199.405 11.7237 199.584 11.7095 199.763 11.6954C200.18 11.664 200.184 11.6655 200.446 11.7419C200.498 11.7571 200.551 11.7862 200.599 11.7846C201.028 11.7608 201.461 11.7401 201.882 11.7025C202.102 11.6837 202.229 11.7326 202.375 11.7723C202.427 11.786 202.48 11.8167 202.528 11.8135C202.838 11.7961 203.147 11.7786 203.449 11.7489C203.591 11.7349 203.677 11.7439 203.793 11.7806C204.07 11.8708 204.077 11.8677 204.469 11.8378C204.588 11.8284 204.718 11.8112 204.83 11.8233C204.943 11.8354 205.033 11.8798 205.137 11.9073C205.186 11.9195 205.246 11.9363 205.298 11.9331C205.544 11.9204 205.79 11.9016 206.036 11.8842C206.267 11.8669 206.267 11.8685 206.701 11.963C206.877 12.0026 207.06 11.9685 207.235 11.9559C207.425 11.9417 207.596 11.9415 207.743 12.0011C207.889 12.0608 208.064 12.0574 208.251 12.0448C208.426 12.0322 208.604 11.9981 208.784 12.0393C209.196 12.1338 209.196 12.1353 209.449 12.1164C209.818 12.0897 210.183 12.0645 210.556 12.0408C210.605 12.0376 210.668 12.056 210.717 12.0682C210.822 12.0956 210.912 12.1416 211.024 12.1521C211.136 12.1642 211.266 12.1456 211.386 12.1361C211.77 12.1063 211.796 12.0955 212.054 12.1964C212.272 12.279 212.539 12.1587 212.741 12.2536C212.858 12.3072 213.015 12.3499 213.231 12.3234C213.41 12.3016 213.596 12.2951 213.783 12.2825C214.077 12.262 214.077 12.2636 214.451 12.3551C214.5 12.3673 214.564 12.3826 214.612 12.3794C214.858 12.3667 215.108 12.3555 215.346 12.3274C215.626 12.2947 215.806 12.3528 216.015 12.4092C216.18 12.4535 216.373 12.4163 216.549 12.4006C216.739 12.3849 216.91 12.3892 217.053 12.4489C217.203 12.5101 217.378 12.5021 217.564 12.4895C217.74 12.4784 217.918 12.4428 218.098 12.4855C218.483 12.5801 218.483 12.5801 218.763 12.5612C219.009 12.5438 219.255 12.525 219.501 12.5123C219.549 12.5091 219.609 12.529 219.658 12.5427C219.763 12.5702 219.853 12.6161 219.965 12.6267C220.077 12.6372 220.207 12.617 220.33 12.6092C220.453 12.6013 220.584 12.578 220.696 12.587C220.808 12.596 220.913 12.6343 221.003 12.6679C221.108 12.7077 221.205 12.7121 221.346 12.6965C221.525 12.6762 221.712 12.6713 221.894 12.6602C221.995 12.6892 222.1 12.7182 222.198 12.7503C222.299 12.7839 222.407 12.7807 222.545 12.7697C223.003 12.732 223.007 12.7366 223.392 12.8312C223.568 12.8739 223.751 12.8383 223.926 12.8272C224.112 12.8146 224.288 12.8081 224.434 12.8693C224.576 12.9275 224.752 12.9348 224.938 12.9161C225.057 12.9036 225.184 12.8957 225.307 12.8909C225.363 12.8892 225.43 12.8953 225.471 12.9075C225.67 12.9717 225.865 13.0297 226.137 12.9878C226.375 12.9996 226.496 13.1254 226.783 13.1003C227.026 13.0784 227.279 13.0733 227.518 13.0453C227.737 13.0203 227.895 13.0631 228.007 13.1166C228.21 13.2115 228.492 13.082 228.694 13.1754C228.811 13.2289 228.96 13.2717 229.184 13.2483C229.43 13.2232 229.509 13.2554 229.581 13.352C229.622 13.4073 229.616 13.4518 229.542 13.495C229.467 13.5397 229.385 13.5321 229.265 13.4816C229.127 13.425 228.962 13.4146 228.765 13.4272C228.571 13.4398 228.45 13.3601 228.29 13.3297C228.129 13.2977 227.939 13.3518 227.771 13.3106C227.374 13.2145 227.374 13.2145 227.106 13.2334C226.923 13.246 226.733 13.2525 226.554 13.2743C226.342 13.3008 226.203 13.2534 226.057 13.2107C226.005 13.1954 225.952 13.1663 225.907 13.1679C225.479 13.1917 225.046 13.214 224.621 13.2531C224.398 13.2735 224.278 13.2184 224.128 13.1802C224.076 13.1665 224.019 13.1389 223.974 13.1421C223.605 13.1642 223.24 13.1925 222.871 13.2193C222.801 13.2609 222.723 13.3009 222.656 13.3456C222.586 13.3918 222.489 13.412 222.347 13.4107C222.112 13.4111 221.882 13.476 221.646 13.395C221.402 13.3125 221.384 13.3171 221.149 13.3375C220.851 13.3641 220.534 13.3585 220.254 13.4189C220.206 13.4298 220.154 13.459 220.155 13.4805C220.151 13.4944 220.23 13.5142 220.278 13.5264C220.443 13.563 220.632 13.5089 220.797 13.547C220.905 13.5714 220.996 13.6081 221.104 13.6341C221.149 13.6447 221.216 13.6431 221.276 13.6415C221.339 13.6398 221.399 13.629 221.458 13.6304C221.514 13.6318 221.574 13.6409 221.619 13.6547C221.825 13.7127 222.042 13.7661 222.226 13.8349C222.406 13.9022 222.573 13.8558 222.752 13.8524C223.47 13.9587 223.47 13.9603 223.95 13.9256C224.07 13.9178 224.193 13.9083 224.316 13.9097C224.368 13.9096 224.417 13.9371 224.469 13.9524C224.619 13.9982 224.761 14.0395 224.97 14.0145C225.149 13.9927 225.339 13.9878 225.522 13.9736C225.768 13.9563 225.768 13.9563 226.187 14.0523C226.292 14.0767 226.403 14.0735 226.538 14.061C226.653 14.05 226.773 14.0728 226.855 14.1173C226.889 14.1356 226.878 14.1664 226.89 14.1925C226.521 14.2177 226.148 14.2352 225.79 14.2727C225.559 14.2962 225.454 14.2303 225.301 14.1952C225.248 14.183 225.192 14.157 225.143 14.1602C224.778 14.1839 224.413 14.2106 224.048 14.242C224.003 14.2451 223.947 14.2805 223.944 14.3021C223.937 14.342 224.031 14.3803 224.165 14.3785C224.344 14.3766 224.519 14.3502 224.68 14.4129C224.815 14.468 224.983 14.4923 225.181 14.4674C225.3 14.4533 225.427 14.4531 225.546 14.4406C225.863 14.4032 226.15 14.4104 226.39 14.5144C226.573 14.5418 226.752 14.5153 226.927 14.5012C227.058 14.4902 227.184 14.4792 227.278 14.5083C227.476 14.5694 227.671 14.6305 227.943 14.5885C228.238 14.6311 228.463 14.7213 228.71 14.7946C228.827 14.8298 228.916 14.8496 229.05 14.8263C229.106 14.817 229.173 14.8169 229.233 14.8121C229.356 14.8042 229.486 14.781 229.598 14.79C229.71 14.8006 229.804 14.845 229.905 14.8724C229.954 14.8862 230.01 14.9091 230.059 14.9075C230.245 14.8995 230.428 14.8838 230.61 14.8712C230.793 14.8601 230.976 14.8491 231.158 14.838C231.312 14.8777 231.469 14.9174 231.622 14.957C231.868 14.9397 232.114 14.9224 232.357 14.9066C232.629 14.8877 232.629 14.8892 233.022 14.9838C233.198 15.0265 233.384 14.9985 233.552 14.9783C233.831 14.9455 234.018 15.0036 234.217 15.0647C234.258 15.0769 234.333 15.0844 234.381 15.0782C234.575 15.0564 234.743 15.073 234.885 15.1296C234.986 15.1693 235.087 15.1876 235.21 15.1797C235.639 15.1498 236.068 15.1183 236.496 15.0914C236.549 15.0883 236.609 15.102 236.657 15.1142C237.039 15.2073 237.043 15.2119 237.322 15.1868C237.572 15.1649 237.803 15.1552 238.002 15.2394C238.043 15.2577 238.107 15.2838 238.152 15.2821C238.457 15.2662 238.767 15.2488 239.069 15.2222C239.207 15.2096 239.304 15.2141 239.412 15.2492C239.551 15.2935 239.675 15.3471 239.902 15.3267C240.532 15.2688 240.536 15.278 241.283 15.3827C241.335 15.3903 241.406 15.3779 241.466 15.3716C241.592 15.3561 241.686 15.3774 241.798 15.4125C242.049 15.492 242.057 15.4874 242.295 15.4701C242.478 15.4559 242.668 15.4525 242.847 15.4292C243.122 15.3949 243.306 15.4545 243.512 15.511C243.677 15.5552 243.866 15.518 244.041 15.5039C244.232 15.4882 244.403 15.4925 244.546 15.5506C244.643 15.5904 244.748 15.6118 244.871 15.6039C245.3 15.5755 245.728 15.544 246.157 15.5156C246.209 15.5124 246.273 15.5246 246.321 15.5353C246.748 15.6298 246.748 15.6344 247.169 15.5983C247.303 15.5873 247.415 15.5841 247.516 15.6162C247.614 15.6467 247.718 15.6757 247.82 15.7047C248.002 15.6937 248.189 15.6903 248.368 15.6715C248.505 15.6575 248.603 15.6634 248.711 15.6955C248.853 15.7368 248.974 15.8087 249.197 15.773C249.313 15.7559 249.447 15.7603 249.562 15.7447C249.7 15.7245 249.794 15.7366 249.902 15.7764C250.037 15.8238 250.176 15.8727 250.392 15.8478C250.63 15.8197 250.884 15.8146 251.126 15.7927C251.26 15.7802 251.354 15.7923 251.462 15.8321C251.597 15.8825 251.751 15.9145 251.959 15.8942C252.384 15.8551 252.388 15.8627 252.803 15.9588C252.908 15.9832 253.02 15.9799 253.154 15.9674C253.27 15.9565 253.389 15.9793 253.472 16.0237C253.551 16.0727 253.544 16.1035 253.552 16.1296ZM220.138 2.33143C220.015 2.33932 219.892 2.34875 219.711 2.21541C219.7 2.19238 219.707 2.16472 219.681 2.14479C219.621 2.10342 219.527 2.07439 219.415 2.06998C219.213 2.06418 218.972 2.11683 218.976 2.15676C218.98 2.19056 219.044 2.21963 219.167 2.24707C219.219 2.25773 219.261 2.2761 219.309 2.28831C219.452 2.3234 219.564 2.39235 219.769 2.35666C219.731 2.26147 219.75 2.30906 219.769 2.35666C219.751 2.41507 219.808 2.45645 219.942 2.47312C219.98 2.47766 220.035 2.47448 220.065 2.46521C220.18 2.43122 220.199 2.3851 220.111 2.26389C220.097 2.28388 220.108 2.31919 220.142 2.32835C220.176 2.33751 220.258 2.32969 220.298 2.31887C220.403 2.28949 220.454 2.25099 220.428 2.21878C220.413 2.2019 220.342 2.18052 220.297 2.1806C220.218 2.18073 220.148 2.21465 220.138 2.33143ZM250.522 20.0955C250.25 20.1252 249.936 20.1149 249.665 20.1753C249.616 20.1862 249.568 20.2139 249.565 20.2354C249.561 20.2493 249.636 20.2691 249.681 20.2798C249.782 20.3042 249.894 20.2963 250.024 20.2884C250.222 20.2773 250.338 20.3478 250.492 20.3828C250.54 20.3935 250.604 20.4011 250.656 20.3979C250.958 20.3789 251.256 20.3585 251.558 20.3364C251.61 20.3317 251.666 20.3209 251.711 20.307C251.86 20.2622 251.844 20.233 251.698 20.1995C251.538 20.1629 251.41 20.1016 251.245 20.0727C251.01 20.0316 250.772 20.0874 250.522 20.0955ZM229.349 21.2538C229.166 21.2664 228.987 21.279 228.804 21.2916C228.745 21.2963 228.681 21.298 228.625 21.3042C228.51 21.3152 228.425 21.3476 228.369 21.3984C228.455 21.4382 228.56 21.461 228.676 21.4562C228.859 21.4467 229.037 21.4264 229.22 21.4215C229.418 21.415 229.534 21.4839 229.688 21.519C229.736 21.5297 229.796 21.5311 229.852 21.5325C230.128 21.5382 230.295 21.458 230.241 21.346C230.203 21.2584 230.061 21.2065 229.889 21.2175C229.71 21.2286 229.528 21.2412 229.349 21.2538ZM251.77 17.8226C251.815 17.7964 251.863 17.7779 251.885 17.7548C251.951 17.6764 251.924 17.618 251.8 17.5568C251.65 17.4818 251.468 17.5328 251.3 17.5408C251.259 17.5424 251.215 17.5747 251.193 17.5947C251.178 17.6086 251.178 17.6378 251.201 17.6454C251.384 17.7065 251.579 17.763 251.77 17.8226ZM219.351 13.3406C219.172 13.3532 218.989 13.3627 218.81 13.38C218.766 13.3846 218.725 13.4139 218.699 13.4339C218.651 13.4709 218.704 13.5215 218.857 13.5258C219.032 13.5317 219.215 13.5052 219.397 13.4926C219.628 13.4769 219.766 13.4198 219.679 13.3708C219.597 13.3233 219.485 13.3143 219.351 13.3406ZM22.9278 10.3986C23.0471 10.3907 23.1701 10.3843 23.2894 10.3734C23.4012 10.3624 23.4866 10.3285 23.542 10.2777C23.4482 10.2379 23.3435 10.2166 23.2279 10.2214C23.0452 10.2309 22.8663 10.2435 22.6874 10.2592C22.5756 10.2686 22.4678 10.3026 22.4424 10.3549C22.4167 10.3949 22.6669 10.4175 22.9278 10.3986ZM203.531 9.84835C203.579 9.86209 203.628 9.88966 203.676 9.88958C203.796 9.88937 203.919 9.87993 204.031 9.86438C204.079 9.85815 204.116 9.83043 204.138 9.80888C204.153 9.79503 204.149 9.77046 204.126 9.75821C204.017 9.68466 203.585 9.71152 203.515 9.79614C203.508 9.81152 203.527 9.83145 203.531 9.84835ZM191.658 1.45602C191.669 1.48058 191.673 1.50515 191.688 1.5297C191.719 1.57574 191.801 1.6094 191.921 1.63224C192.014 1.59367 192.062 1.55058 192.057 1.50449C192.053 1.47992 192.042 1.45534 192.027 1.43079C191.996 1.38475 191.914 1.35111 191.794 1.32827C191.701 1.3653 191.657 1.40839 191.658 1.45602ZM260.436 21.4671C260.403 21.4871 260.37 21.5072 260.333 21.5257C260.434 21.5701 260.527 21.5837 260.598 21.559C260.643 21.5436 260.668 21.5205 260.702 21.5005C260.601 21.4561 260.511 21.4439 260.436 21.4671ZM258.118 21.6801C258.167 21.6938 258.212 21.7122 258.265 21.7213C258.351 21.7365 258.429 21.7103 258.488 21.6549C258.439 21.6411 258.394 21.6228 258.342 21.6136C258.256 21.5984 258.178 21.6247 258.118 21.6801ZM259.585 21.3964C259.559 21.4333 259.612 21.4639 259.75 21.4898C259.784 21.4698 259.828 21.4513 259.85 21.4297C259.887 21.3943 259.823 21.3622 259.689 21.3378C259.652 21.3563 259.618 21.3764 259.585 21.3964ZM251.689 19.7539C251.664 19.7909 251.716 19.8215 251.855 19.8474C251.888 19.8273 251.932 19.8088 251.955 19.7873C251.991 19.7519 251.928 19.7197 251.793 19.6954C251.756 19.7139 251.723 19.7339 251.689 19.7539ZM240.827 8.90172C240.794 8.92175 240.761 8.94178 240.723 8.96028C240.825 9.00466 240.918 9.01832 240.989 8.99362C241.033 8.97818 241.059 8.95509 241.093 8.93506C240.991 8.89068 240.902 8.87855 240.827 8.90172ZM230.479 3.1523C230.568 3.1629 230.643 3.14127 230.706 3.08432C230.657 3.07057 230.612 3.05221 230.56 3.04309C230.474 3.02787 230.396 3.05413 230.337 3.10954C230.385 3.12482 230.434 3.13855 230.479 3.1523ZM225.016 2.80075C224.983 2.82078 224.95 2.84081 224.913 2.85931C225.014 2.90369 225.107 2.91735 225.178 2.89265C225.222 2.87721 225.248 2.85412 225.282 2.83409C225.18 2.78971 225.091 2.77912 225.016 2.80075ZM187.987 1.46085C187.953 1.48088 187.92 1.50091 187.883 1.51941C187.984 1.56379 188.077 1.57745 188.148 1.55275C188.193 1.53731 188.218 1.51422 188.252 1.49419C188.151 1.44981 188.061 1.43922 187.987 1.46085ZM3.84338 14.2802C3.79471 14.2665 3.74608 14.2528 3.70113 14.2375C3.59344 14.2792 3.56034 14.3176 3.62039 14.3467C3.65792 14.3651 3.71397 14.3757 3.76264 14.3895C3.87406 14.3478 3.89971 14.3109 3.84338 14.2802Z" fill="#FFE492"/>
</svg>
