<svg width="42" height="43" viewBox="0 0 42 43" fill="none" xmlns="http://www.w3.org/2000/svg">
<rect y="0.0605469" width="42" height="42" rx="8" fill="#AD46FF"/>
<path d="M24.4451 25.6154H32.2297V20.4974H24.4451V25.6154ZM33.1977 27.7271H25.0001L23.3197 29.4074C23.2202 29.507 23.1124 29.5692 22.9964 29.5941C22.8804 29.619 22.7727 29.6079 22.6734 29.5608C22.5738 29.5137 22.4923 29.4459 22.4287 29.3574C22.3652 29.269 22.3334 29.1587 22.3334 29.0264V19.5294C22.3334 19.2088 22.4425 18.9393 22.6607 18.7211C22.879 18.5029 23.1484 18.3938 23.4691 18.3938H33.1977C33.5184 18.3938 33.7878 18.5029 34.0061 18.7211C34.2243 18.9393 34.3334 19.2088 34.3334 19.5294V26.5914C34.3334 26.9121 34.2243 27.1816 34.0061 27.3998C33.7878 27.618 33.5184 27.7271 33.1977 27.7271ZM13.7544 35.9104C13.13 35.9104 12.5953 35.6881 12.1504 35.2434C11.7057 34.7986 11.4834 34.2639 11.4834 33.6394V8.48145C11.4834 7.857 11.7057 7.32234 12.1504 6.87745C12.5953 6.43278 13.13 6.21045 13.7544 6.21045H28.2457C28.8702 6.21045 29.4048 6.43278 29.8497 6.87745C30.2944 7.32234 30.5167 7.857 30.5167 8.48145V13.9248C30.5167 14.2454 30.4071 14.5149 30.1877 14.7331C29.9684 14.9513 29.6976 15.0604 29.3754 15.0604C29.0532 15.0604 28.7844 14.9513 28.5691 14.7331C28.3535 14.5149 28.2457 14.2454 28.2457 13.9248V8.48145H13.7544V33.6394H28.2457V32.1961C28.2457 31.8754 28.3554 31.606 28.5747 31.3878C28.7941 31.1696 29.0648 31.0604 29.3871 31.0604C29.7093 31.0604 29.9781 31.1696 30.1934 31.3878C30.409 31.606 30.5167 31.8754 30.5167 32.1961V33.6394C30.5167 34.2639 30.2944 34.7986 29.8497 35.2434C29.4048 35.6881 28.8702 35.9104 28.2457 35.9104H13.7544ZM20.9667 13.2198C21.2514 13.2198 21.4972 13.1163 21.7041 12.9094C21.911 12.7026 22.0144 12.4568 22.0144 12.1721C22.0144 11.8872 21.911 11.6413 21.7041 11.4344C21.4972 11.2276 21.2514 11.1241 20.9667 11.1241C20.6821 11.1241 20.4363 11.2276 20.2294 11.4344C20.0225 11.6413 19.9191 11.8872 19.9191 12.1721C19.9191 12.4568 20.0225 12.7026 20.2294 12.9094C20.4363 13.1163 20.6821 13.2198 20.9667 13.2198Z" fill="white"/>
</svg>
