<svg width="30" height="30" viewBox="0 0 30 30" fill="none" xmlns="http://www.w3.org/2000/svg">
<path d="M10 11.875C10 11.3572 10.4197 10.9375 10.9375 10.9375H14.0625C14.5803 10.9375 15 11.3572 15 11.875C15 12.3928 14.5803 12.8125 14.0625 12.8125H10.9375C10.4197 12.8125 10 12.3928 10 11.875Z" fill="white"/>
<path d="M10 16.25C10 15.7322 10.4197 15.3125 10.9375 15.3125H17.1875C17.7053 15.3125 18.125 15.7322 18.125 16.25C18.125 16.7678 17.7053 17.1875 17.1875 17.1875H10.9375C10.4197 17.1875 10 16.7678 10 16.25Z" fill="white"/>
<path fill-rule="evenodd" clip-rule="evenodd" d="M9.0625 2.8125C6.12849 2.8125 3.75 5.19099 3.75 8.125L3.75 20.9375C2.54188 20.9375 1.5625 21.9169 1.5625 23.125V23.7891C1.5625 25.7796 3.36294 27.1875 5.3125 27.1875H20.625C22.5235 27.1875 24.0625 25.6485 24.0625 23.75V12.8022C26.5056 12.6414 28.4375 10.6088 28.4375 8.125V5.9375C28.4375 4.21161 27.0384 2.8125 25.3125 2.8125H9.0625ZM5.625 20.9375H16.875C18.0831 20.9375 19.0625 21.9169 19.0625 23.125V23.75C19.0625 24.6129 19.7621 25.3125 20.625 25.3125C21.4879 25.3125 22.1875 24.6129 22.1875 23.75V5.9375C22.1875 5.49306 22.2803 5.07029 22.4475 4.6875H9.0625C7.16402 4.6875 5.625 6.22652 5.625 8.125V20.9375ZM24.0625 5.9375C24.0625 5.24714 24.6221 4.6875 25.3125 4.6875C26.0029 4.6875 26.5625 5.24714 26.5625 5.9375V8.125C26.5625 9.57267 25.4687 10.7649 24.0625 10.9203V5.9375ZM3.4375 23.125C3.4375 22.9524 3.57741 22.8125 3.75 22.8125H16.875C17.0476 22.8125 17.1875 22.9524 17.1875 23.125V23.75C17.1875 24.3126 17.3227 24.8437 17.5623 25.3125H5.3125C4.15546 25.3125 3.4375 24.5168 3.4375 23.7891V23.125Z" fill="white"/>
</svg>
