<svg width="30" height="30" viewBox="0 0 30 30" fill="none" xmlns="http://www.w3.org/2000/svg">
<path d="M7.23435 3.55376C7.51738 3.47811 7.81573 3.4375 8.125 3.4375H9.27083C9.7886 3.4375 10.2083 3.01777 10.2083 2.5C10.2083 1.98223 9.7886 1.5625 9.27083 1.5625H8.125C7.65079 1.5625 7.18971 1.62487 6.75016 1.74236C6.24995 1.87607 5.95285 2.38996 6.08655 2.89016C6.22026 3.39037 6.73415 3.68747 7.23435 3.55376Z" fill="white"/>
<path d="M13.8542 1.5625C13.3364 1.5625 12.9167 1.98223 12.9167 2.5C12.9167 3.01777 13.3364 3.4375 13.8542 3.4375H16.1458C16.6636 3.4375 17.0833 3.01777 17.0833 2.5C17.0833 1.98223 16.6636 1.5625 16.1458 1.5625H13.8542Z" fill="white"/>
<path d="M20.7292 1.5625C20.2114 1.5625 19.7917 1.98223 19.7917 2.5C19.7917 3.01777 20.2114 3.4375 20.7292 3.4375H21.875C22.1843 3.4375 22.4826 3.47811 22.7656 3.55376C23.2659 3.68747 23.7797 3.39037 23.9134 2.89016C24.0472 2.38996 23.75 1.87607 23.2498 1.74236C22.8103 1.62487 22.3492 1.5625 21.875 1.5625H20.7292Z" fill="white"/>
<path d="M27.0076 5.50016C26.8739 4.99995 26.36 4.70285 25.8598 4.83655C25.3596 4.97026 25.0625 5.48415 25.1962 5.98435C25.2719 6.26738 25.3125 6.56573 25.3125 6.875V8.14478C25.3125 8.66254 25.7322 9.08228 26.25 9.08228C26.7678 9.08228 27.1875 8.66254 27.1875 8.14478V6.875C27.1875 6.40079 27.1251 5.93971 27.0076 5.50016Z" fill="white"/>
<path d="M4.80376 5.98435C4.93747 5.48415 4.64037 4.97026 4.14016 4.83655C3.63996 4.70285 3.12607 4.99995 2.99236 5.50016C2.87487 5.93971 2.8125 6.40079 2.8125 6.875V8.22917C2.8125 8.74693 3.23223 9.16667 3.75 9.16667C4.26777 9.16667 4.6875 8.74693 4.6875 8.22917V6.875C4.6875 6.56573 4.72811 6.26738 4.80376 5.98435Z" fill="white"/>
<path d="M27.1875 13.2239C27.1875 12.7061 26.7678 12.2864 26.25 12.2864C25.7322 12.2864 25.3125 12.7061 25.3125 13.2239V14.4937C25.3125 15.0114 25.7322 15.4312 26.25 15.4312C26.7678 15.4312 27.1875 15.0114 27.1875 14.4937V13.2239Z" fill="white"/>
<path d="M4.6875 13.6458C4.6875 13.1281 4.26777 12.7083 3.75 12.7083C3.23223 12.7083 2.8125 13.1281 2.8125 13.6458V16.3542C2.8125 16.8719 3.23223 17.2917 3.75 17.2917C4.26777 17.2917 4.6875 16.8719 4.6875 16.3542V13.6458Z" fill="white"/>
<path d="M4.6875 21.7708C4.6875 21.2531 4.26777 20.8333 3.75 20.8333C3.23223 20.8333 2.8125 21.2531 2.8125 21.7708V23.125C2.8125 23.5992 2.87487 24.0603 2.99236 24.4998C3.12607 25 3.63996 25.2972 4.14016 25.1634C4.64037 25.0297 4.93747 24.5159 4.80376 24.0156C4.72811 23.7326 4.6875 23.4343 4.6875 23.125V21.7708Z" fill="white"/>
<path d="M7.23435 26.4462C6.73415 26.3125 6.22026 26.6096 6.08655 27.1098C5.95285 27.61 6.24995 28.1239 6.75016 28.2576C7.18971 28.3751 7.65079 28.4375 8.125 28.4375H9.05486C9.57262 28.4375 9.99236 28.0178 9.99236 27.5C9.99236 26.9822 9.57262 26.5625 9.05486 26.5625H8.125C7.81573 26.5625 7.51738 26.5219 7.23435 26.4462Z" fill="white"/>
<path d="M12.7743 26.5625C12.2565 26.5625 11.8368 26.9822 11.8368 27.5C11.8368 28.0178 12.2565 28.4375 12.7743 28.4375H13.7041C14.2219 28.4375 14.6416 28.0178 14.6416 27.5C14.6416 26.9822 14.2219 26.5625 13.7041 26.5625H12.7743Z" fill="white"/>
<path fill-rule="evenodd" clip-rule="evenodd" d="M26.9111 18.5668C25.9054 17.5611 24.2748 17.5611 23.2691 18.5668L18.6423 23.1936C18.3661 23.4698 18.1898 23.8301 18.1414 24.2177L17.8241 26.7564C17.7668 27.2143 17.9242 27.6731 18.2506 27.9994C18.5769 28.3258 19.0357 28.4832 19.4936 28.4259L22.0323 28.1086C22.4199 28.0602 22.7802 27.8839 23.0564 27.6077L27.6832 22.9809C28.6889 21.9752 28.6889 20.3446 27.6832 19.3389L26.9111 18.5668ZM24.5949 19.8926C24.8684 19.6191 25.3118 19.6191 25.5853 19.8926L26.3574 20.6647C26.6309 20.9382 26.6309 21.3816 26.3574 21.6551L21.7593 26.2531L19.7451 26.5049L19.9969 24.4907L24.5949 19.8926Z" fill="white"/>
<path d="M10.3125 12.5C10.3125 11.9822 10.7322 11.5625 11.25 11.5625H18.75C19.2678 11.5625 19.6875 11.9822 19.6875 12.5C19.6875 13.0178 19.2678 13.4375 18.75 13.4375H11.25C10.7322 13.4375 10.3125 13.0178 10.3125 12.5Z" fill="white"/>
<path d="M11.25 16.5625C10.7322 16.5625 10.3125 16.9822 10.3125 17.5C10.3125 18.0178 10.7322 18.4375 11.25 18.4375H14.375C14.8928 18.4375 15.3125 18.0178 15.3125 17.5C15.3125 16.9822 14.8928 16.5625 14.375 16.5625H11.25Z" fill="white"/>
</svg>
