<svg width="30" height="30" viewBox="0 0 30 30" fill="none" xmlns="http://www.w3.org/2000/svg">
<path d="M5.9375 10C5.9375 9.48223 6.35723 9.0625 6.875 9.0625H15C15.5178 9.0625 15.9375 9.48223 15.9375 10C15.9375 10.5178 15.5178 10.9375 15 10.9375H6.875C6.35723 10.9375 5.9375 10.5178 5.9375 10Z" fill="white"/>
<path d="M21.5625 10C21.5625 9.48223 21.9822 9.0625 22.5 9.0625H22.5125C23.0303 9.0625 23.45 9.48223 23.45 10C23.45 10.5178 23.0303 10.9375 22.5125 10.9375H22.5C21.9822 10.9375 21.5625 10.5178 21.5625 10Z" fill="white"/>
<path d="M17.8125 10C17.8125 9.48223 18.2322 9.0625 18.75 9.0625H18.7625C19.2803 9.0625 19.7 9.48223 19.7 10C19.7 10.5178 19.2803 10.9375 18.7625 10.9375H18.75C18.2322 10.9375 17.8125 10.5178 17.8125 10Z" fill="white"/>
<path d="M6.875 19.0625C6.35723 19.0625 5.9375 19.4822 5.9375 20C5.9375 20.5178 6.35723 20.9375 6.875 20.9375H15C15.5178 20.9375 15.9375 20.5178 15.9375 20C15.9375 19.4822 15.5178 19.0625 15 19.0625H6.875Z" fill="white"/>
<path d="M22.5 19.0625C21.9822 19.0625 21.5625 19.4822 21.5625 20C21.5625 20.5178 21.9822 20.9375 22.5 20.9375H22.5125C23.0303 20.9375 23.45 20.5178 23.45 20C23.45 19.4822 23.0303 19.0625 22.5125 19.0625H22.5Z" fill="white"/>
<path d="M18.75 19.0625C18.2322 19.0625 17.8125 19.4822 17.8125 20C17.8125 20.5178 18.2322 20.9375 18.75 20.9375H18.7625C19.2803 20.9375 19.7 20.5178 19.7 20C19.7 19.4822 19.2803 19.0625 18.7625 19.0625H18.75Z" fill="white"/>
<path fill-rule="evenodd" clip-rule="evenodd" d="M6.875 4.0625C3.94099 4.0625 1.5625 6.44099 1.5625 9.375V20.625C1.5625 23.559 3.94099 25.9375 6.875 25.9375H23.125C26.059 25.9375 28.4375 23.559 28.4375 20.625V9.375C28.4375 6.44099 26.059 4.0625 23.125 4.0625H6.875ZM3.4375 9.375C3.4375 7.47652 4.97652 5.9375 6.875 5.9375H23.125C25.0235 5.9375 26.5625 7.47652 26.5625 9.375V14.0625H3.4375V9.375ZM3.4375 15.9375V20.625C3.4375 22.5235 4.97652 24.0625 6.875 24.0625H23.125C25.0235 24.0625 26.5625 22.5235 26.5625 20.625V15.9375H3.4375Z" fill="white"/>
</svg>
