<svg width="488" height="31" viewBox="0 0 488 31" fill="none" xmlns="http://www.w3.org/2000/svg">
<path d="M458.463 15.5727C457.796 15.5984 457.122 15.6165 456.469 15.6545C456.045 15.6783 455.862 15.611 455.579 15.5762C455.484 15.5641 455.383 15.5397 455.295 15.5429C454.635 15.5686 453.975 15.5974 453.315 15.6262C453.113 15.6865 452.986 15.7666 452.677 15.7963C452.374 15.8245 452.016 15.8251 451.68 15.8395C451.235 15.8572 450.791 15.8749 450.346 15.891C450.124 15.8991 449.942 15.9286 449.869 15.984C449.855 15.9933 450.004 16.016 450.085 16.0297C450.355 16.0753 450.618 16.1271 450.915 16.1619C451.199 16.1952 451.549 16.1393 451.852 16.1818C452.534 16.2774 452.541 16.2759 453.06 16.2565C453.504 16.2389 453.949 16.2197 454.393 16.2066C454.481 16.2034 454.582 16.2262 454.677 16.2384C454.96 16.2717 455.143 16.3482 455.561 16.3183C455.877 16.2947 456.227 16.2895 456.558 16.2766C456.834 16.3207 457.091 16.3709 457.388 16.4057C457.665 16.4391 457.746 16.465 457.598 16.5098C457.464 16.5516 457.275 16.5688 457.026 16.5723C456.804 16.5742 456.582 16.5884 456.359 16.5965C456.245 16.6013 456.137 16.6046 456.029 16.6094C455.605 16.627 455.605 16.627 454.829 16.53C454.525 16.4921 454.182 16.5465 453.892 16.5101C453.696 16.4859 453.527 16.4493 453.338 16.4235C453.257 16.4129 453.129 16.4116 453.028 16.4148C452.691 16.4262 452.354 16.4344 452.031 16.455C451.802 16.4692 451.668 16.5125 451.695 16.5554C451.702 16.5723 451.864 16.5966 451.958 16.598C452.174 16.6007 452.403 16.5788 452.612 16.5892C452.814 16.5996 453.024 16.6299 453.172 16.6635C453.476 16.7336 453.819 16.67 454.109 16.688C454.413 16.7074 454.663 16.7684 454.953 16.8048C455.027 16.8139 455.169 16.7983 455.283 16.7935C455.613 16.7821 455.944 16.7724 456.274 16.761C456.551 16.8051 456.848 16.8445 457.098 16.8948C457.55 16.9862 458.036 17.0207 458.622 16.9751C458.952 16.9499 459.275 16.9586 459.539 17.0181C459.809 17.0791 460.119 17.0724 460.462 17.0595C460.779 17.0466 461.102 17.0123 461.426 17.0547C462.128 17.1488 462.135 17.1534 462.963 17.1151C463.213 17.1039 463.401 17.1005 463.59 17.1355C463.766 17.1674 463.955 17.1948 464.137 17.2252C464.468 17.2138 464.804 17.2025 465.134 17.1896C465.559 17.172 465.795 17.1931 465.897 17.279C465.958 17.3311 465.986 17.3787 466.135 17.4137C466.31 17.4565 466.499 17.4546 466.755 17.4418C466.997 17.4307 467.172 17.4135 467.273 17.358C467.313 17.3349 467.394 17.3132 467.467 17.2947C467.528 17.2807 467.622 17.2591 467.676 17.262C467.777 17.268 467.912 17.2847 467.946 17.3046C468.279 17.4899 468.279 17.4914 468.616 17.5446C468.988 17.6039 469.372 17.657 469.71 17.724C470.014 17.7834 470.317 17.7568 470.647 17.7562C470.897 17.7558 471.059 17.7954 471.039 17.8354C471.026 17.8585 470.932 17.8924 470.851 17.8956C470.191 17.9275 469.524 17.9548 468.857 17.9775C468.777 17.9807 468.675 17.9532 468.581 17.9395C468.392 17.9122 468.223 17.8695 468.02 17.8606C467.818 17.8517 467.582 17.8752 467.36 17.8833C467.138 17.8913 466.902 17.9117 466.7 17.8998C466.498 17.8878 466.335 17.8436 466.146 17.8147C466.058 17.801 465.937 17.7813 465.863 17.786C465.371 17.8237 465.007 17.7737 464.655 17.7067C464.581 17.693 464.453 17.684 464.359 17.6872C463.577 17.7147 462.803 17.7468 462.021 17.7773C461.705 17.7901 461.448 17.7368 461.379 17.6463C461.345 17.5957 461.277 17.5451 461.276 17.4944C461.275 17.4022 460.904 17.3522 460.635 17.3634C460.19 17.3795 459.739 17.3926 459.301 17.4164C458.944 17.4354 458.64 17.4175 458.397 17.3627C458.113 17.3002 457.79 17.313 457.467 17.3305C457.224 17.3432 457.157 17.394 457.172 17.5215C457.187 17.6244 457.073 17.6569 456.635 17.6745C456.083 17.697 455.524 17.7195 454.965 17.7373C454.877 17.7406 454.776 17.7146 454.688 17.7009C454.499 17.6736 454.33 17.6294 454.127 17.6205C453.925 17.6101 453.69 17.6335 453.467 17.6431C453.245 17.6512 453.009 17.6731 452.807 17.6627C452.605 17.6523 452.436 17.6065 452.253 17.5777C452.166 17.564 452.058 17.5442 451.97 17.5474C451.525 17.5605 451.081 17.5797 450.636 17.5974C450.138 17.6167 450.138 17.6167 449.429 17.5227C449.105 17.4802 448.782 17.5146 448.465 17.5274C448.128 17.5403 447.812 17.547 447.548 17.486C447.372 17.4463 447.177 17.4221 446.968 17.4301C446.409 17.4495 445.857 17.4735 445.297 17.493C445.203 17.4962 445.075 17.4887 445.001 17.475C444.643 17.4111 444.292 17.361 443.793 17.3942C443.362 17.4226 442.897 17.4249 442.466 17.4518C442.231 17.466 442.123 17.5154 442.171 17.5537C442.198 17.5736 442.34 17.5964 442.434 17.5963C442.65 17.5974 442.886 17.574 443.088 17.5828C443.506 17.6005 443.716 17.7292 444.262 17.6929C444.585 17.6709 444.922 17.6626 445.259 17.6559C445.346 17.6542 445.441 17.6832 445.536 17.6984C445.806 17.7394 446.042 17.7928 446.433 17.7644C446.756 17.7424 447.1 17.7356 447.43 17.7228C447.955 17.7019 447.955 17.7034 448.637 17.796C448.961 17.84 449.284 17.8041 449.601 17.7927C449.836 17.7847 450.059 17.7689 450.248 17.7901C450.538 17.8218 450.748 17.8952 451.105 17.89C451.442 17.8848 451.772 17.8627 452.108 17.8544C452.317 17.8495 452.513 17.8737 452.682 17.9149C452.858 17.9561 453.047 17.9742 453.276 17.9646C453.606 17.9517 453.943 17.9358 454.279 17.9275C454.374 17.9258 454.482 17.9394 454.57 17.9516C454.759 17.9789 454.941 18.0108 455.123 18.0397C455.453 18.0299 455.79 18.0263 456.114 18.0073C456.363 17.993 456.538 17.9989 456.741 18.0292C456.997 18.0703 457.207 18.1437 457.624 18.1076C457.833 18.0903 458.076 18.0945 458.285 18.0788C458.54 18.0584 458.716 18.0657 458.898 18.1115C459.243 18.1985 459.674 18.1993 460.119 18.1647C460.603 18.127 460.968 18.1694 461.333 18.2363C461.718 18.3064 461.718 18.3048 462.016 18.4748C462.104 18.5238 462.354 18.5464 462.563 18.5369C462.913 18.5209 463.216 18.528 463.473 18.586C463.744 18.6485 464.067 18.6403 464.397 18.6228C464.835 18.599 465.273 18.5782 465.631 18.6667C465.807 18.7094 465.995 18.7199 466.231 18.7087C466.898 18.6799 467.572 18.6618 468.225 18.6269C468.622 18.6047 468.852 18.6535 469.122 18.6945C469.487 18.7507 469.885 18.8007 469.887 18.922C469.887 18.942 469.981 18.9649 470.062 18.9801C470.238 19.0121 470.427 19.0394 470.61 19.0698C470.88 19.1154 471.143 19.1534 471.513 19.1282C471.836 19.1076 472.18 19.1009 472.51 19.0865C472.84 19.0721 473.143 19.0639 473.441 19.1217C473.785 19.1872 474.15 19.2496 474.541 19.298C474.818 19.3329 475.181 19.2724 475.478 19.3195C475.661 19.3483 475.836 19.3818 476.032 19.4061C476.113 19.4167 476.241 19.4088 476.349 19.4055C476.571 19.399 476.8 19.394 477.016 19.3783C477.265 19.3609 477.453 19.3637 477.643 19.3987C477.818 19.4306 477.994 19.4749 478.196 19.4837C478.5 19.497 478.836 19.435 479.14 19.5052C479.295 19.5402 479.491 19.5737 479.694 19.5841C479.896 19.5945 480.132 19.571 480.347 19.5722C480.442 19.572 480.556 19.5964 480.611 19.6163C480.644 19.627 480.598 19.6563 480.551 19.6717C480.49 19.6902 480.403 19.715 480.315 19.7182C479.648 19.747 478.982 19.7712 478.315 19.7985C477.917 19.8145 477.917 19.8145 477.114 19.7191C476.925 19.6964 476.716 19.7014 476.481 19.7126C476.164 19.7269 475.841 19.7536 475.51 19.7265C475.078 19.6228 474.545 19.6145 473.98 19.6554C473.744 19.6728 473.528 19.6731 473.353 19.6443C472.981 19.5865 472.59 19.5334 472.259 19.4649C472.002 19.4115 471.881 19.4071 471.774 19.4811C471.74 19.5042 471.707 19.5288 471.714 19.5503C471.755 19.6271 471.83 19.7022 471.872 19.7789C471.885 19.8004 471.832 19.8251 471.798 19.8482C471.691 19.9129 471.55 19.9086 471.313 19.8552C471.077 19.8018 470.793 19.767 470.416 19.7922C470.093 19.8143 469.742 19.8118 469.419 19.8355C468.921 19.8701 468.57 19.8216 468.212 19.7561C468.138 19.7424 468.009 19.735 467.915 19.7382C466.911 19.7753 465.915 19.8169 464.911 19.854C464.695 19.8621 464.499 19.8394 464.33 19.7982C464.155 19.757 463.959 19.7359 463.743 19.7439C462.854 19.7777 461.965 19.8085 461.076 19.8499C460.712 19.8675 460.422 19.848 460.172 19.7946C459.983 19.755 459.808 19.7431 459.572 19.7481C459.316 19.7531 459.134 19.7688 459.007 19.8136C458.886 19.8568 458.974 19.8828 459.244 19.9161C459.534 19.9525 459.804 19.9996 460.081 20.0422C460.303 20.0356 460.525 20.0229 460.741 20.0241C460.835 20.0239 460.923 20.0515 461.018 20.0667C461.288 20.1107 461.538 20.1549 461.922 20.1296C462.245 20.1075 462.589 20.1023 462.919 20.0879C463.377 20.0702 463.377 20.0702 464.119 20.1657C464.308 20.19 464.51 20.1881 464.753 20.1739C464.962 20.1627 465.178 20.1839 465.326 20.2297C465.387 20.248 465.368 20.2788 465.241 20.3804C465.242 20.4557 465.383 20.4217 465.429 20.3724C465.502 20.3016 465.361 20.2788 465.092 20.3177C464.903 20.3457 464.809 20.3858 464.857 20.418C464.884 20.4348 465.012 20.4561 465.241 20.3804C465.833 20.2872 466.284 20.2757 466.715 20.2503C466.971 20.2361 467.133 20.2419 467.335 20.2815C467.579 20.3287 467.822 20.379 468.219 20.3537C468.65 20.3253 469.108 20.3215 469.546 20.2977C469.95 20.2754 470.16 20.3427 470.416 20.3822C470.727 20.4293 471.07 20.3749 471.353 20.4021C471.65 20.4292 471.86 20.4964 472.204 20.5081C472.702 20.4658 473.02 20.5421 473.398 20.5921C473.695 20.63 474.045 20.5956 474.361 20.5781C474.718 20.5591 475.015 20.5755 475.265 20.6303C475.549 20.6928 475.866 20.6785 476.189 20.6641C476.943 20.632 476.97 20.6274 477.409 20.7111C477.727 20.772 478.03 20.7438 478.346 20.7356C478.623 20.7766 478.893 20.8207 479.184 20.857C479.258 20.8661 479.399 20.8505 479.514 20.8457C479.844 20.8329 480.18 20.82 480.511 20.8071C480.733 20.799 480.968 20.7756 481.171 20.7845C481.373 20.7949 481.542 20.8391 481.724 20.868C481.907 20.8969 482.096 20.9257 482.271 20.9562C482.542 21.0018 482.798 21.0397 483.175 21.016C483.498 20.9955 483.835 20.9888 484.172 20.9744C484.596 20.9567 484.583 20.9614 485.373 21.0522C485.798 21.1021 486.235 21.0399 486.666 21.033C486.882 21.0296 487.091 21.0461 487.24 21.0904C487.301 21.1087 487.281 21.1395 487.302 21.1656C486.19 21.209 485.072 21.2463 483.974 21.2989C483.549 21.3196 483.326 21.2647 483.097 21.219C482.718 21.1459 482.221 21.2543 481.863 21.1597C481.646 21.1032 481.336 21.0715 480.966 21.0998C480.75 21.1155 480.521 21.1144 480.299 21.1286C479.733 21.1634 479.214 21.1658 478.761 21.0606C478.606 21.024 478.383 21.0044 478.221 20.9693C478.032 20.9313 477.85 20.9101 477.627 20.9181C476.624 20.9567 475.627 20.9953 474.63 21.037C474.542 21.0402 474.455 21.0634 474.381 21.0805C474.193 21.1238 474.254 21.1575 474.557 21.1846C474.659 21.1937 474.74 21.2135 474.834 21.2287C475.017 21.2576 475.186 21.3034 475.388 21.3138C475.59 21.3242 475.826 21.3023 476.048 21.2942C476.271 21.2861 476.506 21.2627 476.708 21.2715C476.911 21.2819 477.08 21.3262 477.269 21.3535C477.357 21.3672 477.465 21.3901 477.552 21.3884C477.997 21.3784 478.435 21.3607 478.879 21.3461C479.156 21.3871 479.393 21.4466 479.723 21.4599C479.932 21.4687 480.154 21.4515 480.37 21.4541C480.465 21.4555 480.586 21.4784 480.633 21.4983C480.661 21.5105 480.573 21.5414 480.506 21.5569C480.251 21.6157 479.9 21.6055 479.584 21.6245C479.24 21.6451 478.93 21.6395 478.667 21.58C478.491 21.5404 478.295 21.5192 478.08 21.5273C477.52 21.5482 476.968 21.5722 476.409 21.5901C476.315 21.5933 476.2 21.5797 476.112 21.5691C475.403 21.4766 475.403 21.4735 474.905 21.4944C474.171 21.5248 474.171 21.5248 473.678 21.4443C473.583 21.4291 473.482 21.4001 473.401 21.4017C472.619 21.4277 471.845 21.4536 471.07 21.4903C470.814 21.5015 470.639 21.5018 470.45 21.4622C470.288 21.4287 470.099 21.3906 469.896 21.3817C469.687 21.3728 469.458 21.3963 469.236 21.4044C469.014 21.4124 468.778 21.4328 468.583 21.4209C468.38 21.4089 468.204 21.3662 468.029 21.3358C467.847 21.3038 467.651 21.3057 467.402 21.3184C466.634 21.3551 466.627 21.3505 465.865 21.2566C465.777 21.246 465.662 21.2339 465.568 21.2371C465.009 21.2565 464.456 21.2805 463.897 21.2999C463.682 21.308 463.472 21.2884 463.324 21.2441C463.263 21.2258 463.283 21.195 463.242 21.1351C463.194 21.1214 463.248 21.1459 463.262 21.1689C463.363 21.1657 463.485 21.1685 463.559 21.1561C463.747 21.1266 463.841 21.088 463.793 21.0558C463.766 21.039 463.638 21.0177 463.557 21.0178C463.409 21.0181 463.281 21.0521 463.242 21.1351C462.818 21.1866 462.366 21.1981 461.928 21.2235C461.672 21.2393 461.511 21.2319 461.308 21.1923C461.065 21.1435 460.815 21.0963 460.417 21.1216C459.986 21.15 459.528 21.1554 459.084 21.1777C458.572 21.2032 458.348 21.0653 457.917 21.0691C457.472 21.073 457.027 21.0999 456.583 21.1191C456.192 21.1351 456.192 21.1351 455.382 21.0366C455.085 21.0003 454.735 21.0547 454.445 21.0168C454.249 20.9925 454.08 20.956 453.891 20.9302C453.81 20.9195 453.682 20.9198 453.581 20.923C453.022 20.9424 452.456 20.9557 451.918 20.9904C451.305 21.0314 450.839 20.9892 450.4 20.8994C449.848 20.9172 449.289 20.9274 448.743 20.9575C448.346 20.9797 448.116 20.9294 447.846 20.8884C447.751 20.8748 447.67 20.8519 447.569 20.8459C447.468 20.8399 447.347 20.8524 447.239 20.8572C446.794 20.8749 446.336 20.8834 445.905 20.9118C445.373 20.948 445.169 20.8224 444.758 20.8077C444.483 20.8835 444.336 20.9867 443.79 20.9953C443.345 21.0022 442.901 21.0276 442.456 21.0453C442.234 21.0533 442.012 21.0629 441.789 21.071C441.432 21.0855 441.265 21.1457 441.34 21.2377C441.381 21.2883 441.415 21.339 441.449 21.3896C441.518 21.4801 441.35 21.5573 441.067 21.5685C440.286 21.5991 439.511 21.6311 438.73 21.6586C438.521 21.6666 438.319 21.6409 438.15 21.5997C437.974 21.5585 437.778 21.5404 437.563 21.5485C436.781 21.579 436.007 21.6111 435.225 21.6386C435.138 21.6418 435.023 21.6266 434.935 21.6145C434.746 21.5872 434.564 21.5552 434.381 21.5263C433.937 21.5409 433.499 21.5509 433.061 21.5701C432.354 21.599 432.354 21.6005 431.834 21.5169C431.739 21.5017 431.645 21.4727 431.557 21.4744C431.22 21.4811 430.89 21.4971 430.553 21.5115C429.563 21.5531 429.563 21.5531 429.273 21.5076C429.009 21.465 428.773 21.4132 428.376 21.4384C427.945 21.4669 427.486 21.4769 427.042 21.493C426.712 21.5043 426.382 21.5172 426.051 21.5208C425.964 21.5225 425.869 21.4935 425.775 21.4783C425.505 21.4311 425.241 21.3932 424.871 21.4199C424.655 21.4357 424.426 21.4392 424.204 21.4472C423.625 21.4697 423.625 21.4697 422.673 21.3792C422.579 21.3702 422.464 21.3596 422.37 21.3644C421.588 21.3934 420.814 21.4255 420.032 21.4529C419.938 21.4562 419.823 21.4471 419.729 21.4396C418.663 21.3524 418.663 21.3524 417.531 21.3974C417.1 21.4135 417.087 21.4196 416.634 21.339C416.432 21.304 416.263 21.2874 416.027 21.2986C415.138 21.337 414.242 21.3631 413.36 21.4077C412.963 21.4268 412.733 21.3811 412.463 21.3401C412.368 21.3264 412.267 21.2959 412.186 21.2976C411.297 21.3283 410.407 21.3652 409.518 21.3959C409.437 21.3991 409.336 21.3686 409.241 21.3549C409.059 21.3276 408.883 21.2864 408.681 21.2775C408.472 21.2687 408.243 21.2921 408.014 21.3002C407.455 21.3211 407.455 21.3196 406.807 21.2301C406.719 21.218 406.604 21.2013 406.517 21.2045C405.628 21.2367 404.732 21.2644 403.849 21.3105C403.344 21.336 403 21.292 402.642 21.2281C402.568 21.2144 402.44 21.2085 402.345 21.2117C401.342 21.2488 400.345 21.2905 399.341 21.3276C399.132 21.3356 398.93 21.3098 398.761 21.2702C398.49 21.2077 398.174 21.2159 397.837 21.2303C397.062 21.2639 397.056 21.2624 396.596 21.1895C396.502 21.1743 396.421 21.1544 396.32 21.1469C396.225 21.1394 396.104 21.1442 396.003 21.1475C395.558 21.1636 395.114 21.1813 394.669 21.1989C394.225 21.2166 393.773 21.2266 393.335 21.2535C392.796 21.2867 392.539 21.1873 392.161 21.1418C391.609 21.1628 391.043 21.176 390.497 21.2092C390.08 21.2346 389.884 21.1673 389.607 21.1324C389.513 21.1203 389.411 21.0944 389.323 21.0976C388.32 21.1331 387.316 21.1718 386.319 21.215C386.077 21.2246 385.915 21.2126 385.712 21.1761C385.26 21.0939 385.239 21.097 384.485 21.1291C384.155 21.1435 383.838 21.1563 383.554 21.0938C383.304 21.0374 383.001 21.0241 382.644 21.0431C382.206 21.0669 381.755 21.08 381.31 21.0962C380.866 21.1138 380.421 21.1376 379.977 21.1461C379.619 21.1544 379.403 21.0826 379.119 21.0462C379.032 21.0356 378.91 21.0343 378.809 21.0375C378.365 21.0521 377.907 21.0636 377.476 21.0905C376.95 21.1237 376.66 21.0397 376.288 20.9912C376.207 20.9806 376.072 20.987 375.971 20.9917C375.19 21.0208 374.415 21.0528 373.634 21.0834C373.357 21.0424 373.074 21.0029 372.797 20.9619C372.352 20.9781 371.908 20.9957 371.463 21.0119C371.126 21.0247 370.783 21.0299 370.466 21.0535C370.055 21.085 369.852 21.0131 369.576 20.9783C369.481 20.9661 369.38 20.9402 369.292 20.9434C368.733 20.9613 368.174 20.9807 367.622 21.0078C367.096 21.0348 366.886 20.8969 366.454 20.8992C366.01 20.9015 365.552 20.9223 365.121 20.9507C364.622 20.9838 364.271 20.9352 363.913 20.8698C363.839 20.8561 363.711 20.8486 363.616 20.8519C363.057 20.8713 362.505 20.8953 361.946 20.9147C361.852 20.9179 361.737 20.9105 361.642 20.9014C360.577 20.8126 360.577 20.8111 360.112 20.8303C359.782 20.8432 359.445 20.8591 359.108 20.8674C359.014 20.8706 358.899 20.857 358.811 20.8449C358.109 20.7524 358.109 20.7508 357.604 20.7701C357.159 20.7878 356.715 20.8055 356.27 20.8232C355.993 20.7822 355.71 20.7427 355.433 20.7017C354.881 20.7226 354.315 20.739 353.769 20.7676C353.513 20.7803 353.345 20.776 353.149 20.7379C352.906 20.6923 352.662 20.6389 352.258 20.6657C351.827 20.6941 351.369 20.698 350.931 20.7218C350.406 20.7504 350.189 20.611 349.764 20.6132C349.319 20.6155 348.861 20.6363 348.43 20.6647C347.932 20.6978 347.581 20.6493 347.223 20.5838C347.149 20.5701 347.021 20.5627 346.926 20.5659C345.7 20.6126 344.481 20.6593 343.255 20.709C342.501 20.7395 342.501 20.7411 341.064 20.6591C340.963 20.6531 340.855 20.6471 340.754 20.6504C340.309 20.665 339.851 20.6765 339.42 20.7034C338.895 20.7366 338.604 20.6541 338.233 20.6041C338.152 20.5934 338.024 20.5998 337.916 20.6031C337.579 20.6144 337.249 20.6288 336.912 20.6417C336.468 20.6594 336.023 20.677 335.579 20.6947C335.302 20.6552 335.018 20.6142 334.742 20.5748C334.189 20.5957 333.623 20.6075 333.078 20.6407C332.66 20.666 332.464 20.6018 332.187 20.5654C332.093 20.5533 331.991 20.5273 331.904 20.529C330.9 20.5646 329.896 20.6016 328.899 20.6464C328.489 20.6655 328.299 20.5967 328.022 20.5619C327.928 20.5513 327.82 20.5315 327.732 20.5347C327.065 20.5574 326.398 20.5847 325.732 20.6119C325.354 20.628 325.354 20.628 324.531 20.5341C324.436 20.5235 324.329 20.513 324.234 20.5162C322.119 20.5967 320.011 20.6818 317.895 20.7623C317.68 20.7703 317.484 20.7476 317.315 20.7065C317.139 20.6653 316.944 20.6441 316.728 20.6522C315.839 20.686 314.943 20.7167 314.061 20.7582C313.697 20.7757 313.407 20.7562 313.157 20.7029C312.968 20.6633 312.792 20.6482 312.557 20.6579C312.112 20.6771 311.667 20.6932 311.223 20.7109C310.778 20.7286 310.334 20.7462 309.889 20.7639C309.445 20.7816 308.993 20.7916 308.555 20.8185C308.017 20.8517 307.753 20.7569 307.381 20.7099C306.714 20.7341 306.047 20.7583 305.387 20.784C304.498 20.8178 303.609 20.8547 302.72 20.887C302.639 20.8902 302.538 20.8627 302.443 20.849C302.166 20.8111 301.963 20.7577 301.553 20.7753C299.559 20.8602 297.551 20.9328 295.551 21.0162C295.133 21.0338 294.95 20.9681 294.667 20.9332C294.572 20.9226 294.464 20.9013 294.377 20.9045C293.265 20.9449 292.154 20.9898 291.042 21.0332C290.591 21.0509 290.591 21.0509 289.835 20.957C289.747 20.9464 289.632 20.9327 289.538 20.936C288.09 20.9907 286.648 21.0485 285.2 21.1048C284.984 21.1129 284.789 21.0917 284.613 21.0505C284.444 21.0094 284.242 20.9867 284.033 20.9947C282.699 21.0462 281.359 21.0961 280.032 21.1522C279.675 21.1682 279.378 21.1549 279.121 21.1C278.939 21.0604 278.756 21.0438 278.527 21.0534C276.527 21.1322 274.526 21.2079 272.525 21.2912C272.142 21.3073 271.872 21.2785 271.628 21.2283C271.433 21.1887 271.264 21.1813 271.021 21.1878C270.765 21.196 270.611 21.2131 270.47 21.2595C270.288 21.3197 270.175 21.3952 269.744 21.4005C269.299 21.4059 268.848 21.4251 268.41 21.452C267.992 21.4789 267.796 21.4101 267.533 21.369C267.337 21.3402 267.155 21.3359 266.906 21.3501C266.677 21.3628 266.535 21.3892 266.401 21.4386C266.106 21.5436 266.079 21.5436 265.714 21.4782C265.518 21.4432 265.343 21.4158 265.127 21.4224C264.238 21.4546 263.349 21.49 262.46 21.5269C261.948 21.5477 261.941 21.5508 261.556 21.4747C261.367 21.4366 261.185 21.4185 260.962 21.4281C258.517 21.5245 256.072 21.6179 253.627 21.7189C253.25 21.7349 252.993 21.7031 252.723 21.6575C252.635 21.6422 252.547 21.6209 252.446 21.6149C252.345 21.6089 252.231 21.6153 252.123 21.6186C250.344 21.6877 248.559 21.7538 246.788 21.8306C246.383 21.8482 246.167 21.7994 245.891 21.76C245.796 21.7463 245.715 21.7249 245.614 21.719C245.512 21.7145 245.391 21.7255 245.284 21.7303C243.505 21.7995 241.72 21.8656 239.949 21.9424C239.524 21.96 239.341 21.8958 239.065 21.8625C238.97 21.8503 238.869 21.8275 238.781 21.8307C238.222 21.8486 237.67 21.8726 237.111 21.8935C235.777 21.9465 234.443 21.9965 233.109 22.051C232.597 22.0719 232.373 21.9355 231.942 21.9424C231.383 21.9511 230.831 21.9828 230.272 22.0053C229.827 22.0229 229.382 22.0391 228.938 22.0583C228.5 22.0759 228.5 22.0759 227.407 21.9887C227.313 21.9812 227.198 21.9706 227.104 21.9739C225.548 22.0334 223.985 22.093 222.436 22.1571C222.079 22.1716 221.782 22.1644 221.525 22.108C221.343 22.0684 221.154 22.0487 220.931 22.0583C218.594 22.15 216.263 22.2416 213.926 22.3317C213.838 22.3349 213.723 22.3198 213.636 22.3076C213.447 22.2803 213.264 22.2484 213.082 22.2195C212.948 22.255 212.773 22.2876 212.686 22.3277C212.565 22.3817 212.404 22.3973 212.148 22.407C211.892 22.4167 211.73 22.4139 211.527 22.3743C211.284 22.3255 211.034 22.2875 210.637 22.3036C208.192 22.4046 205.746 22.4965 203.301 22.596C202.897 22.612 202.707 22.5447 202.424 22.5099C202.329 22.4993 202.221 22.4826 202.134 22.4858C201.13 22.5229 200.133 22.5631 199.129 22.6017C196.347 22.711 193.565 22.8157 190.79 22.9311C190.285 22.952 189.941 22.9141 189.583 22.8487C189.508 22.835 189.38 22.8275 189.286 22.8308C185.392 22.982 181.499 23.1347 177.612 23.2874C177.403 23.2954 177.201 23.2712 177.032 23.2315C176.856 23.1904 176.661 23.1707 176.445 23.1788C174.667 23.2479 172.888 23.3171 171.11 23.3878C170.665 23.4054 170.659 23.407 170.199 23.334C170.105 23.3188 170.004 23.2898 169.929 23.293C169.774 23.301 169.627 23.3396 169.519 23.3921C169.412 23.4476 169.244 23.4632 168.995 23.4744C168.739 23.4856 168.57 23.4813 168.374 23.4448C168.125 23.3991 167.895 23.3549 167.491 23.371C162.378 23.5765 157.265 23.7744 152.152 23.9784C151.742 23.9944 151.552 23.9303 151.269 23.8954C151.174 23.8848 151.08 23.8696 150.978 23.8667C150.871 23.8638 150.756 23.8733 150.648 23.8781C142.309 24.2044 133.97 24.5323 125.63 24.8587C125.132 24.878 125.139 24.878 124.594 25.0203C124.527 25.0373 124.44 25.0604 124.345 25.0637C121.792 25.1664 119.233 25.2661 116.673 25.3658C115.562 25.4093 114.45 25.4542 113.339 25.4961C112.941 25.5106 112.941 25.5106 111.993 25.6782C111.912 25.6921 111.818 25.7107 111.724 25.714C107.278 25.8892 102.832 26.0643 98.3794 26.2365C98.0291 26.2494 97.7464 26.2775 97.5856 26.3515C97.4716 26.404 97.3238 26.4349 97.1015 26.4445C93.9894 26.5667 90.8774 26.6904 87.7585 26.8095C87.388 26.824 87.166 26.8674 86.9848 26.9322C86.9245 26.9539 86.8708 26.9785 86.7834 26.994C86.7027 27.008 86.5815 27.0128 86.4804 27.0176C83.8129 27.1221 81.1455 27.2297 78.4712 27.3296C78.0737 27.3441 77.9126 27.4012 77.7179 27.4615C77.6507 27.4816 77.6039 27.5093 77.5164 27.5233C77.429 27.5357 77.3009 27.5359 77.1932 27.5392C74.9702 27.626 72.7474 27.7144 70.5244 27.8012C70.093 27.7943 69.9997 27.8835 69.7914 27.9377C69.7175 27.9562 69.664 27.9809 69.5766 27.9933C69.4824 28.0058 69.3609 28.0045 69.2463 28.0077C67.468 28.0769 65.6897 28.1507 63.9046 28.2152C63.4937 28.2298 63.4137 28.3082 63.192 28.3624C63.118 28.3794 63.0443 28.4057 62.9568 28.4104C61.8453 28.4569 60.7339 28.5003 59.6224 28.5422C59.2519 28.5567 59.2519 28.5551 58.6 28.7084C58.5261 28.7254 58.4386 28.744 58.3443 28.7488C56.6805 28.8162 55.01 28.8805 53.3394 28.9464C53.1239 28.9545 52.9761 28.9916 52.8689 29.044C52.7617 29.0964 52.6071 29.1305 52.3916 29.1386C51.0578 29.1916 49.724 29.2461 48.3902 29.2945C48.0197 29.3075 47.7776 29.3463 47.6167 29.4157C47.496 29.4682 47.3481 29.4945 47.1123 29.5042C45.7785 29.5556 44.4448 29.6117 43.1043 29.6571C42.7135 29.67 42.5119 29.7226 42.351 29.7874C42.2235 29.8399 42.0755 29.8586 41.8262 29.8682C39.381 29.9616 36.9291 30.0549 34.4906 30.1575C34.0798 30.1751 33.8701 30.1217 33.6001 30.0838C33.2153 30.0307 32.8575 29.9729 32.8561 29.8531C32.8558 29.8346 32.741 29.8133 32.6599 29.7981C32.0587 29.6839 32.0587 29.6839 31.9629 29.5612C31.908 29.486 31.8465 29.4093 31.7983 29.3326C31.7092 29.2068 31.4931 29.1749 30.8733 29.199C30.651 29.2071 30.4288 29.2182 30.2065 29.2247C29.8764 29.236 29.6264 29.1858 29.5647 29.0937C29.5303 29.0431 29.4894 28.9924 29.455 28.9418C29.7919 28.9289 29.785 28.9274 30.3758 28.7405C30.6242 28.6617 30.6243 28.6617 30.1449 28.5842C29.9626 28.5553 29.7869 28.5233 29.5911 28.496C29.5034 28.4839 29.3887 28.4764 29.2944 28.4796C28.7353 28.499 28.183 28.5215 27.6306 28.544C26.7414 28.5793 26.7413 28.5793 25.8364 28.4242C25.7621 28.412 25.6472 28.3892 25.6606 28.3769C25.734 28.3199 25.9156 28.295 26.1447 28.2885C26.4815 28.2787 26.8116 28.2627 27.1416 28.2499C27.3639 28.2418 27.5862 28.2322 27.8085 28.2241C28.0167 28.1654 28.2318 28.1082 28.4265 28.0479C28.7354 27.9552 28.7352 27.9521 28.3099 27.8883C28.0398 27.8458 27.7495 27.8079 27.4727 27.7684C27.1427 27.7813 26.8059 27.7957 26.4758 27.807C26.0581 27.8216 25.8893 27.7927 25.7802 27.693C25.6848 27.6056 25.7985 27.5301 26.1217 27.5111C26.4517 27.4921 26.7617 27.4793 26.9292 27.4006C27.0901 27.3251 27.3727 27.2954 27.7231 27.2886C27.9454 27.2836 28.1677 27.2725 28.39 27.2629C28.6796 27.2501 28.8337 27.1715 28.772 27.084C28.7376 27.0272 28.6696 26.9797 28.4066 26.9679C27.2401 26.9162 27.2265 26.9177 26.6457 26.8143C26.5917 26.8051 26.551 26.7775 26.571 26.7637C26.6045 26.7406 26.6782 26.7067 26.759 26.7019C27.5336 26.6668 28.3082 26.6347 29.0829 26.6103C29.3389 26.6022 29.5275 26.5911 29.6145 26.5341C29.7348 26.4555 29.68 26.3834 29.4435 26.3301C29.3691 26.3133 29.2475 26.292 29.1666 26.2937C28.2774 26.3229 27.395 26.3597 26.5058 26.3889C26.4249 26.3921 26.2764 26.3663 26.2425 26.3464C26.1746 26.3096 26.2751 26.2603 26.5107 26.243C26.8205 26.2194 27.1372 26.2173 27.3452 26.1401C27.6336 26.0305 27.9895 25.9301 28.3118 25.825C28.3654 25.8065 28.4527 25.771 28.4325 25.768C28.2636 25.7345 28.0678 25.7087 27.8922 25.6767C27.595 25.6235 27.594 25.5482 27.6605 25.4759C27.7137 25.4174 27.9156 25.394 28.165 25.3936C28.2728 25.3934 28.4076 25.3932 28.495 25.3792C28.7238 25.345 28.7974 25.3018 28.6824 25.2698C28.6148 25.2515 28.4933 25.2256 28.4124 25.2288C26.9708 25.282 25.5224 25.3336 24.0877 25.3991C23.6634 25.4183 23.4673 25.3603 23.2107 25.3192C23.0149 25.2873 22.8327 25.2753 22.5904 25.2988C22.3615 25.3207 22.139 25.3088 21.9969 25.2583C21.8818 25.2171 22.0835 25.1814 22.6289 25.1405C22.7299 25.1326 22.8444 25.1278 22.9183 25.1123C23.698 24.945 23.698 24.9435 24.2369 24.9211C24.7623 24.9002 24.7624 24.8987 25.0376 24.8091C25.1652 24.7674 25.3061 24.7256 25.4269 24.6824C25.4738 24.6654 25.5544 24.6346 25.5274 24.6254C25.3785 24.578 25.1761 24.5676 24.9404 24.5788C24.415 24.6058 23.7949 24.5854 23.5203 24.7318C23.4132 24.7873 23.2449 24.803 23.0024 24.8126C20.5638 24.9059 18.1253 25.0054 15.68 25.0957C15.2826 25.1102 15.1014 25.1674 14.9472 25.2306C14.813 25.2831 14.6649 25.2987 14.4089 25.3084C14.153 25.3181 13.9507 25.323 13.8019 25.2726C13.7139 25.242 13.7875 25.1989 13.9892 25.1555C14.2782 25.0935 14.2233 25.0168 14.1281 24.9448C14.0601 24.8973 13.8508 24.8638 13.6284 24.8673C13.2983 24.874 12.9818 24.8915 12.7048 24.8305C12.5426 24.7954 12.3401 24.7712 12.1578 24.7408C11.8066 24.6784 11.4553 24.6145 10.9639 24.6568C10.6267 24.642 10.3902 24.5872 10.1201 24.5446C9.66767 24.4747 9.62711 24.464 9.94968 24.3882C10.3126 24.3031 10.0281 24.1929 10.2293 24.1096C10.4439 24.0201 10.7395 23.9413 11.0013 23.8579C11.0685 23.8363 11.1289 23.8162 11.196 23.7945C11.0407 23.7641 10.8987 23.7259 10.7165 23.7047C10.4803 23.6775 10.3585 23.6439 10.3709 23.5486C10.3235 23.5349 10.344 23.5702 10.3981 23.5793C10.4588 23.5884 10.6071 23.5805 10.6811 23.5696C10.8695 23.5401 10.9632 23.5015 10.9157 23.4693C10.8885 23.4525 10.7603 23.4312 10.6794 23.4313C10.5312 23.4316 10.4035 23.4656 10.3641 23.5486C9.61009 23.6129 8.82859 23.645 8.04714 23.671C7.96631 23.6742 7.8649 23.6436 7.77037 23.6284C7.45972 23.5767 7.4597 23.5783 6.54972 23.5645C6.45535 23.5631 6.32711 23.5418 6.27967 23.5204C6.08309 23.427 6.08863 23.3241 5.99307 23.2244C6.1675 23.1596 6.34182 23.0963 6.52301 23.033C6.88538 22.9048 7.35586 22.7918 7.63721 22.6516C7.57564 22.5764 7.49384 22.5012 7.78962 22.4393C8.63109 22.361 8.6244 22.361 8.85264 22.2869C9.5038 22.0768 10.1482 21.8652 10.8263 21.6581C11.0076 21.6041 11.0073 21.5749 10.6835 21.5524C10.5824 21.5464 10.4744 21.5451 10.3666 21.5483C10.0298 21.5597 9.69314 21.5879 9.36284 21.5823C9.03256 21.5783 8.78913 21.5111 8.51905 21.4701C8.24222 21.4276 7.96538 21.3835 7.68853 21.3394C7.37184 21.3446 7.05568 21.3882 6.7381 21.3196C6.49483 21.2662 6.19112 21.2283 5.91426 21.1843C6.12176 21.0671 6.51161 20.9774 6.81362 20.8739C7.08879 20.7797 7.0954 20.7812 7.83584 20.7077C8.18586 20.6733 8.30506 20.4995 8.00792 20.4493C7.64999 20.3885 7.27198 20.3323 6.90735 20.2746C6.59066 20.2797 6.26775 20.3218 5.96364 20.2532C5.72713 20.2013 5.45708 20.1665 5.06645 20.1871C4.40642 20.2221 3.73272 20.2401 3.06587 20.269C2.83685 20.2786 2.58735 20.2729 2.48562 20.2208C2.41778 20.184 2.61262 20.133 2.83488 20.1219C3.17165 20.1059 3.47466 20.087 3.64221 20.0099C3.80302 19.9328 4.09923 19.9092 4.44954 19.8978C4.54385 19.8946 4.65153 19.876 4.69848 19.8574C4.94001 19.7679 5.20867 19.6906 5.72762 19.6928C5.94291 19.6617 6.05693 19.6231 5.98909 19.5863C5.94841 19.5664 5.80664 19.5406 5.72581 19.5438C5.16664 19.5601 4.60749 19.5765 4.06195 19.6051C3.80601 19.6178 3.6105 19.6212 3.4482 19.5754C3.33326 19.5449 3.3934 19.5033 3.60851 19.4584C3.79674 19.4196 3.85017 19.375 3.83606 19.3228C3.80089 19.2015 3.59824 19.1665 2.95137 19.1753C2.48643 19.1822 2.37162 19.1625 2.26925 19.0582C2.242 19.0336 2.17431 19 2.22128 18.983C2.5098 18.878 2.69694 18.7486 3.24222 18.6985C3.45765 18.6797 3.68669 18.6793 3.82099 18.6391C3.95529 18.599 4.07609 18.5526 4.21715 18.514C4.39181 18.4676 4.51247 18.4244 4.43125 18.3953C4.29583 18.3433 4.08019 18.3391 3.83106 18.358C3.61559 18.3737 3.38648 18.3756 3.1642 18.3852C2.76679 18.4028 2.44289 18.3634 2.3949 18.2959C2.26468 18.1179 2.12771 17.9415 2.01097 17.7635C1.99723 17.742 2.0305 17.7143 2.08419 17.6958C2.2721 17.6309 2.47361 17.5691 2.66828 17.5058C2.89653 17.4332 3.26068 17.4464 3.57052 17.432C4.00832 17.4113 4.00819 17.4128 4.59271 17.2643C4.82113 17.2055 5.21905 17.2279 5.45429 17.1752C5.52821 17.1582 5.64244 17.1304 5.62204 17.115C5.59484 17.0951 5.45994 17.08 5.35874 17.0709C5.26428 17.0619 5.14968 17.0575 5.04865 17.0623C3.82265 17.1089 2.60346 17.1587 1.37744 17.2038C1.16862 17.2119 0.939064 17.1785 0.864352 17.131C0.789678 17.0866 0.809176 17.0327 0.79508 16.9821C0.989751 16.9187 1.21135 16.86 1.37901 16.7921C1.50642 16.7396 1.65443 16.7163 1.91048 16.7128C2.24739 16.7076 2.57742 16.6886 2.95465 16.6741C3.6528 16.4486 4.33729 16.2124 5.08936 15.9868C5.39152 15.8956 5.31638 15.8035 5.37586 15.7066C5.43543 15.6174 5.8871 15.6305 6.19005 15.6038C6.4324 15.5819 6.51256 15.5326 6.4178 15.499C6.36365 15.4791 6.24213 15.4562 6.14778 15.4564C5.92538 15.4568 5.70316 15.471 5.48086 15.4791C5.25856 15.4871 5.00242 15.483 4.82078 15.5094C4.64586 15.5343 4.53186 15.5867 4.41784 15.6315C4.29039 15.6809 4.12224 15.6981 3.86618 15.7016C3.536 15.7052 3.20596 15.7196 2.87587 15.731C2.51122 15.6717 2.13303 15.614 1.78183 15.5516C1.71429 15.5394 1.7003 15.5041 1.70676 15.481C1.71951 15.4211 1.618 15.3844 1.39525 15.3556C1.20625 15.3313 1.05081 15.2963 0.875213 15.2659C1.00949 15.2241 1.15732 15.1839 1.26461 15.1392C1.49934 15.0451 1.79508 14.977 2.3073 14.9792C2.50874 14.9189 2.66954 14.8449 2.93187 14.8029C3.18073 14.7625 3.60581 14.8017 3.79341 14.7108C3.88721 14.6661 4.0282 14.6151 4.20994 14.5964C4.49937 14.5667 4.87695 14.5814 5.04438 14.4951C5.14487 14.4457 5.29253 14.4009 5.48782 14.3883C5.71005 14.3741 5.93908 14.3706 6.10047 14.3411C6.18789 14.3256 6.28196 14.3009 6.28169 14.2794C6.28153 14.2655 6.14658 14.2443 6.05212 14.2352C5.96438 14.2246 5.84959 14.2171 5.74854 14.2204C5.41169 14.2302 5.08168 14.2476 4.74483 14.2574C4.65052 14.2607 4.54259 14.2501 4.44139 14.2411C4.14456 14.217 4.16437 14.1863 4.39957 14.1305C4.63479 14.0764 4.80252 14.0069 4.99719 13.9436C5.21271 13.9325 5.4823 13.9366 5.63021 13.9072C5.87898 13.8591 6.05331 13.7897 6.25476 13.7294C6.47704 13.7198 6.70613 13.7163 6.91484 13.6991C7.00237 13.6928 7.04243 13.6589 7.11632 13.6388C7.25064 13.6002 7.36462 13.5446 7.54636 13.5259C7.84255 13.4977 8.20659 13.5078 8.38078 13.423C8.48127 13.3737 8.63558 13.3212 8.82424 13.3178C9.34983 13.3108 9.5712 13.2259 9.8398 13.1455C10.0412 13.0852 10.4729 13.1152 10.6946 13.0549C10.8424 13.0163 10.9497 12.9684 11.0975 12.9313C11.158 12.9158 11.2859 12.9079 11.3869 12.9032C11.9393 12.8792 12.4984 12.8613 13.0507 12.8357C13.1383 12.831 13.2189 12.8078 13.2861 12.7892C13.4271 12.7491 13.514 12.6936 13.6889 12.6672C13.8638 12.6408 14.1131 12.6403 14.3287 12.6323C15.0225 12.608 15.0766 12.6141 15.3917 12.4829C15.6465 12.3765 16.2743 12.4507 16.4818 12.3335C16.6022 12.2657 16.8239 12.21 17.2214 12.2017C17.7806 12.19 18.3329 12.1598 18.892 12.1389C19.3905 12.1196 19.3837 12.1196 19.9211 11.9757C20.163 11.9108 20.5203 11.9194 20.8369 11.9066C21.1737 11.8937 21.4835 11.8747 21.6443 11.7976C21.8051 11.7221 22.1013 11.697 22.4449 11.6856C22.7615 11.6743 23.1188 11.6814 23.3674 11.6195C23.9722 11.471 23.9654 11.4694 24.3898 11.4533C25.0567 11.4276 25.7236 11.4018 26.3904 11.3746C26.835 11.3569 27.3 11.353 27.7174 11.3185C28.0204 11.2934 28.1541 11.2071 28.3488 11.1469C28.9011 11.1229 29.4534 11.0988 30.0058 11.0764C30.7804 11.0443 31.5618 11.0153 32.3432 10.9848C32.6795 10.9258 32.7252 10.7967 33.2912 10.7895C33.6281 10.7859 33.9581 10.7653 34.2949 10.7525C34.854 10.73 35.4063 10.7014 35.9655 10.6896C36.39 10.6812 36.463 10.5981 36.6847 10.5455C36.7586 10.5269 36.8258 10.5007 36.9133 10.4959C37.7889 10.4514 38.6918 10.4406 39.5469 10.3762C39.6344 10.3699 39.7149 10.3374 39.7349 10.3144C39.7482 10.3021 39.6334 10.2792 39.5591 10.2686C39.4713 10.2565 39.3567 10.2444 39.2623 10.2476C36.4803 10.3554 33.6983 10.4647 30.9163 10.5724C30.5256 10.5885 30.5256 10.5869 29.5774 10.7576C29.4967 10.7715 29.4024 10.7871 29.3014 10.7918C28.8568 10.8111 28.4054 10.8226 27.9677 10.8464C27.6107 10.8655 27.3141 10.8475 27.0573 10.7927C26.8749 10.753 26.6859 10.7411 26.4568 10.7446C26.2008 10.7496 26.0326 10.7668 25.8848 10.8085C25.6901 10.8657 25.5899 10.9396 25.179 10.9557C23.286 11.0251 21.3931 11.1021 19.507 11.176C19.2439 11.155 19.1155 11.123 19.1824 11.0844C19.2225 11.0613 19.3031 11.0305 19.3839 11.0272C20.1585 10.9936 20.9399 10.9646 21.7146 10.9326C21.8223 10.9278 21.9706 10.9306 22.0311 10.9151C22.3268 10.8454 22.4333 10.7331 22.9926 10.7244C23.316 10.7193 23.6459 10.6957 23.9557 10.6736C24.0432 10.6673 24.1237 10.6349 24.1436 10.6118C24.1502 10.5995 24.0421 10.5767 23.9611 10.5661C23.664 10.522 23.3211 10.5764 23.0242 10.5462C22.9229 10.5356 22.7811 10.5205 22.7607 10.5021C22.747 10.4852 22.8613 10.4574 22.9419 10.4403C23.0159 10.4248 23.1167 10.4108 23.2178 10.406C24.1069 10.3692 24.9962 10.3307 25.8854 10.3015C26.2492 10.2902 26.5048 10.2513 26.6657 10.1804C26.7863 10.1279 26.9342 10.1 27.1633 10.0919C28.7194 10.0324 30.2753 9.96669 31.8382 9.91174C32.2289 9.89877 32.4305 9.84773 32.5915 9.78139C32.7189 9.72893 32.867 9.71023 33.1162 9.70058C35.3459 9.61682 37.562 9.52387 39.7917 9.44318C40.2027 9.42864 40.3232 9.36237 40.5314 9.30516C40.6053 9.28506 40.6521 9.2604 40.7463 9.24794C40.8405 9.23549 40.9618 9.2368 41.0763 9.23353C42.8547 9.16438 44.6331 9.09063 46.4183 9.02608C46.8359 9.01153 46.9157 8.93456 47.1307 8.88042C47.2047 8.86339 47.2718 8.83563 47.3593 8.83087C48.6931 8.77631 50.0268 8.72484 51.3606 8.67182C52.2497 8.63648 53.1389 8.60113 54.0281 8.56732C54.4659 8.5512 54.4659 8.54965 55.0572 8.40268C55.1244 8.38566 55.2186 8.36552 55.3061 8.36076C57.8658 8.25799 60.4188 8.15986 62.9785 8.05862C63.1941 8.05057 63.3486 8.01494 63.4558 7.96252C63.563 7.9101 63.7177 7.8745 63.9265 7.86645C65.9272 7.78616 67.9278 7.70741 69.9352 7.63172C70.2989 7.6188 70.5545 7.58148 70.7154 7.51207C70.8361 7.45962 70.984 7.43172 71.2131 7.42364C73.2137 7.34642 75.2144 7.26458 77.2219 7.19042C77.6058 7.17593 77.7938 7.12337 77.9818 7.0616C78.0489 7.03997 78.1024 7.00454 78.1832 7.00133C79.1801 6.95658 80.1702 6.9103 81.174 6.87937C81.5917 6.86635 81.7325 6.80158 81.9002 6.73983C82.0344 6.69044 82.1892 6.67327 82.4452 6.66668C83.0044 6.65189 83.5567 6.62482 84.1023 6.59776C84.1831 6.59301 84.2838 6.55903 84.2903 6.53751C84.3033 6.49754 84.1479 6.47015 83.8916 6.45677C81.2241 6.56127 78.5499 6.66576 75.8824 6.77026C75.4445 6.78792 75.4445 6.78793 74.8532 6.93491C74.786 6.95192 74.6918 6.97206 74.5975 6.97683C72.0378 7.07807 69.4849 7.17776 66.9251 7.27899C66.7096 7.28705 66.555 7.32265 66.4478 7.37507C66.3406 7.42749 66.1859 7.4631 65.9771 7.47114C63.5319 7.56757 61.0868 7.66553 58.6347 7.75736C58.271 7.77028 58.0154 7.80605 57.8545 7.877C57.7338 7.92944 57.5859 7.95737 57.3569 7.96544C55.0194 8.05554 52.6886 8.15022 50.3444 8.23725C50.1086 8.24535 49.9329 8.2011 49.9459 8.15959C49.9524 8.13807 50.0529 8.10258 50.1337 8.09937C51.3529 8.04655 52.5655 7.9922 53.7915 7.95166C54.2025 7.93866 54.3229 7.87085 54.5311 7.81364C54.5982 7.79355 54.6519 7.76734 54.7393 7.75644C54.8335 7.74398 54.9549 7.74532 55.0694 7.74204C57.9592 7.62795 60.8491 7.51231 63.7457 7.40435C64.1633 7.38826 64.2432 7.31283 64.4582 7.25869C64.5321 7.24012 64.5992 7.21236 64.6868 7.20914C65.5759 7.17072 66.4651 7.13691 67.3542 7.1031C68.9103 7.04202 70.4663 6.98093 72.0291 6.91984C72.4804 6.90215 72.4804 6.90215 73.0583 6.75673C73.1254 6.73971 73.2196 6.71806 73.3072 6.71483C77.423 6.55251 81.5388 6.39019 85.6546 6.22941C85.8702 6.22136 86.0247 6.18575 86.1319 6.13333C86.2391 6.08245 86.3937 6.0453 86.6025 6.03572C92.1665 5.81712 97.7239 5.59852 103.288 5.38299C103.652 5.36853 103.907 5.33582 104.068 5.26333C104.182 5.2109 104.337 5.18298 104.566 5.17337C110.682 4.93383 116.799 4.6943 122.922 4.45322C127.038 4.29243 131.154 4.12858 135.269 3.97087C135.647 3.95639 135.848 3.9084 136.036 3.84509C136.096 3.82347 136.157 3.78803 136.238 3.78482C137.12 3.74488 138.002 3.70802 138.885 3.67115C139.161 3.71215 139.438 3.75162 139.715 3.79262C139.923 3.73388 140.125 3.67361 140.333 3.61487C141.667 3.568 142.98 3.49658 144.328 3.47273C144.415 3.47104 144.51 3.50007 144.605 3.51527C145.232 3.61097 145.59 3.60267 145.986 3.47293C146.127 3.42659 146.247 3.3849 146.463 3.37685C147.13 3.34803 147.804 3.32843 148.464 3.29502C148.821 3.2775 149.117 3.29234 149.374 3.3472C149.556 3.38683 149.745 3.40341 149.968 3.39381C151.194 3.34559 152.413 3.29891 153.639 3.24762C153.726 3.2444 153.807 3.21813 153.874 3.19958C154.015 3.15939 154.136 3.11617 154.27 3.07446C154.453 3.10026 154.655 3.11988 154.804 3.15342C154.993 3.19304 155.168 3.19272 155.424 3.18153C160.314 2.98714 165.212 2.79735 170.102 2.60142C170.52 2.58533 170.702 2.64955 170.986 2.68285C171.08 2.69498 171.175 2.71017 171.276 2.71307C171.384 2.71595 171.498 2.70655 171.606 2.70175C175.277 2.5571 178.949 2.41399 182.62 2.26934C183.105 2.25006 183.105 2.25006 183.827 2.34406C183.915 2.3562 184.03 2.36983 184.124 2.36506C185.794 2.30224 187.465 2.23482 189.129 2.17047C189.344 2.16242 189.527 2.18668 189.723 2.22167C190.108 2.29014 190.134 2.2901 190.416 2.18821C190.55 2.14035 190.692 2.1109 190.914 2.09669C191.156 2.0809 191.352 2.08519 191.541 2.11252C191.811 2.15046 192.007 2.21463 192.418 2.19702C194.196 2.12172 195.981 2.05871 197.753 1.98189C198.157 1.96429 198.373 2.01614 198.643 2.05408C198.738 2.06775 198.826 2.0891 198.927 2.09354C199.028 2.09797 199.149 2.087 199.257 2.0822C201.48 1.99538 203.71 1.91009 205.926 1.81714C206.343 1.79951 206.526 1.86525 206.81 1.89855C206.904 1.91068 207.012 1.93201 207.1 1.92879C208.434 1.87884 209.774 1.8258 211.108 1.77279C211.586 1.75352 211.586 1.75506 212.315 1.84751C212.403 1.85965 212.518 1.87174 212.612 1.8685C214.168 1.80896 215.731 1.74786 217.287 1.68678C217.765 1.66751 217.765 1.66752 219.148 1.745C219.249 1.75097 219.357 1.76002 219.458 1.75677C221.236 1.68762 223.021 1.61998 224.799 1.54622C225.156 1.53178 225.453 1.54355 225.71 1.59841C225.892 1.63804 226.081 1.65462 226.304 1.64501C228.304 1.56626 230.312 1.49057 232.306 1.40722C232.689 1.39119 232.939 1.42454 233.209 1.46862C233.297 1.48383 233.385 1.50519 233.486 1.51116C233.587 1.51713 233.702 1.51078 233.81 1.50599C235.81 1.42723 237.818 1.35308 239.811 1.26819C240.216 1.25059 240.432 1.30245 240.702 1.34038C240.796 1.35405 240.898 1.38153 240.979 1.37985C241.76 1.35238 242.542 1.32798 243.316 1.28823C243.734 1.26599 243.917 1.33634 244.2 1.36964C244.294 1.38023 244.403 1.4031 244.49 1.39988C246.161 1.33706 247.831 1.27117 249.495 1.20376C249.731 1.19413 249.906 1.20764 250.095 1.24725C250.345 1.30059 250.636 1.3216 250.999 1.30407C251.774 1.26739 252.555 1.24145 253.337 1.21091C253.795 1.19321 253.795 1.19322 255.198 1.27067C255.299 1.27664 255.407 1.28566 255.508 1.28241C256.841 1.23094 258.182 1.18098 259.509 1.12491C259.866 1.10893 260.163 1.12223 260.419 1.1771C260.602 1.21672 260.784 1.23332 261.013 1.2237C262.239 1.17548 263.458 1.12727 264.684 1.07905C265.129 1.06138 265.573 1.03141 266.018 1.03064C266.342 1.03161 266.578 1.10494 266.869 1.14131C266.95 1.15192 267.084 1.13941 267.192 1.13615C268.748 1.07507 270.311 1.01858 271.86 0.949825C272.264 0.932224 272.481 0.98408 272.751 1.02202C272.845 1.03568 272.947 1.06316 273.027 1.06148C273.587 1.04361 274.139 1.01961 274.698 0.998665C275.365 0.972925 276.039 0.953319 276.699 0.918373C277.237 0.889784 277.441 1.02309 277.873 1.02695C278.203 1.03098 278.539 1.00428 278.869 0.99142C279.536 0.96568 280.203 0.936871 280.87 0.914204C281.106 0.906113 281.288 0.881206 281.361 0.82577C281.375 0.814993 281.26 0.792157 281.185 0.778459C280.287 0.623313 280.287 0.623306 279.384 0.658673C278.825 0.681152 278.273 0.703624 277.714 0.723031C277.62 0.726267 277.512 0.714165 277.417 0.705111C277.147 0.679462 277.174 0.648692 277.402 0.592988C277.631 0.537283 277.805 0.469388 278 0.40606C278.276 0.445524 278.547 0.484985 278.824 0.524449C279.046 0.516381 279.268 0.506791 279.49 0.498723C280.602 0.456848 281.713 0.413434 282.825 0.374632C282.906 0.371419 283.007 0.401974 283.102 0.417173C283.372 0.461257 283.615 0.499233 284.006 0.481655C285.002 0.43537 286.006 0.401364 287.003 0.361224C287.441 0.343564 287.441 0.343565 288.21 0.437482C288.298 0.448084 288.413 0.460176 288.507 0.456939C289.511 0.419861 290.508 0.379726 291.511 0.341111C291.727 0.333055 291.936 0.352663 292.092 0.396946C292.153 0.415276 292.14 0.44602 292.399 0.697528C293.196 0.900475 293.742 0.878029 294.294 0.858634C294.53 0.850543 294.739 0.842491 294.894 0.811496C294.974 0.794456 295.075 0.769696 295.075 0.749724C295.075 0.734361 294.926 0.710033 294.832 0.707124C294.164 0.677557 293.531 0.743191 292.878 0.758153C292.575 0.764825 292.311 0.71151 292.256 0.624034C292.242 0.599477 292.222 0.573397 292.201 0.548851C292.181 0.524305 292.167 0.498213 292.147 0.473667C291.884 0.466442 291.729 0.49436 291.615 0.546794C291.521 0.589974 291.387 0.63937 291.205 0.66273C291.024 0.687627 290.774 0.683459 290.552 0.691527C290.336 0.699583 290.101 0.719962 289.899 0.709559C289.696 0.69762 289.534 0.653341 289.345 0.626015C289.257 0.612341 289.149 0.592563 289.061 0.595788C288.287 0.623251 287.519 0.650693 286.751 0.685825C286.347 0.704963 286.144 0.6408 285.887 0.601301C285.685 0.570926 285.483 0.578949 285.45 0.649677C285.364 0.818822 285.675 0.88895 286.362 0.855493C286.928 0.826857 287.44 0.821373 287.886 0.925069C287.947 0.93879 288.088 0.944687 288.176 0.941463C288.728 0.922067 289.274 0.898072 289.826 0.878677C289.927 0.875429 290.035 0.881377 290.13 0.887358C291.506 0.967931 291.506 0.969475 291.97 0.950232C292.193 0.940628 292.408 0.932572 292.385 0.699089C292.807 0.447935 293.48 0.429868 294.134 0.391862C294.558 0.36808 294.741 0.435365 295.017 0.47022C295.112 0.482346 295.213 0.506747 295.301 0.503522C296.749 0.450308 298.191 0.394025 299.632 0.334677C299.875 0.325038 300.05 0.333953 300.239 0.373569C300.483 0.423846 300.753 0.455647 301.136 0.436544C301.904 0.398339 302.686 0.373942 303.467 0.341858C303.865 0.325805 303.865 0.325789 304.668 0.419647C304.755 0.430249 304.87 0.442341 304.964 0.439104C305.746 0.41163 306.521 0.378031 307.295 0.349032C307.511 0.340976 307.706 0.362142 307.875 0.40333C308.044 0.444517 308.247 0.465672 308.456 0.457627C309.237 0.428616 310.012 0.396554 310.786 0.367555C310.881 0.364319 310.995 0.374873 311.083 0.385475C311.906 0.479298 311.907 0.479282 312.284 0.463263C312.836 0.439259 313.402 0.427534 313.948 0.39586C314.48 0.364209 314.757 0.452827 315.121 0.501357C316.118 0.46429 317.122 0.433364 318.112 0.388627C318.516 0.369489 318.733 0.419808 319.003 0.459284C319.097 0.472946 319.192 0.501975 319.28 0.500287C319.616 0.493556 319.947 0.476086 320.277 0.463223C320.607 0.450359 320.944 0.437485 321.274 0.424621C321.652 0.468518 321.902 0.572552 322.441 0.536281C322.764 0.514211 323.108 0.509005 323.438 0.496141C323.768 0.483277 324.105 0.470403 324.435 0.457539C324.657 0.449471 324.886 0.444458 325.102 0.430257C325.499 0.406522 325.695 0.48147 325.979 0.514777C326.073 0.525367 326.181 0.543603 326.269 0.540379C326.936 0.517712 327.609 0.498107 328.263 0.461637C328.768 0.433106 329.112 0.478604 329.47 0.542508C329.544 0.556206 329.673 0.563665 329.767 0.560428C330.548 0.532953 331.323 0.499336 332.098 0.470337C332.306 0.462293 332.509 0.486521 332.678 0.526173C332.854 0.567348 333.049 0.586996 333.265 0.57894C334.039 0.549941 334.821 0.517848 335.596 0.488848C335.69 0.485612 335.805 0.497706 335.892 0.509844C336.648 0.603784 336.648 0.605321 337.093 0.586113C337.201 0.581317 337.315 0.578034 337.423 0.573237C337.975 0.550769 338.548 0.542104 339.087 0.504296C339.706 0.461739 340.158 0.513192 340.598 0.6C341.15 0.580605 341.716 0.568865 342.255 0.537203C342.659 0.513456 342.875 0.571458 343.145 0.609397C343.24 0.62306 343.341 0.650538 343.422 0.647325C344.203 0.61985 344.985 0.595456 345.753 0.555715C346.17 0.533481 346.353 0.602285 346.636 0.637129C346.731 0.649255 346.832 0.670599 346.92 0.667374C347.364 0.654312 347.809 0.635094 348.254 0.617423C348.772 0.596549 348.772 0.598084 349.461 0.690605C349.785 0.734596 350.108 0.698697 350.425 0.687393C350.761 0.674518 351.078 0.664753 351.348 0.727273C351.517 0.766924 351.72 0.791154 351.929 0.784646C352.373 0.770047 352.825 0.755443 353.262 0.731638C353.613 0.712594 353.916 0.724351 354.173 0.780749C354.355 0.820377 354.544 0.840033 354.767 0.830429C355.764 0.791826 356.767 0.75166 357.764 0.714593C357.852 0.711368 357.973 0.72499 358.054 0.738676C358.243 0.766002 358.426 0.796405 358.608 0.826815C359.046 0.812227 359.497 0.805314 359.928 0.783056C360.386 0.760752 360.804 0.752343 361.162 0.836219C361.237 0.854526 361.345 0.880442 361.432 0.878753C361.769 0.872023 362.099 0.856091 362.429 0.843227C362.759 0.830363 363.096 0.817489 363.426 0.804625C363.811 0.842365 364.055 0.952556 364.594 0.916285C364.917 0.894215 365.261 0.889009 365.591 0.876145C365.921 0.863281 366.257 0.848871 366.588 0.837543C366.695 0.834283 366.817 0.826387 366.911 0.832368C367.012 0.838338 367.1 0.859698 367.188 0.874909C367.458 0.918994 367.708 0.963118 368.092 0.936334C368.415 0.914264 368.758 0.909057 369.089 0.894657C369.54 0.876973 369.54 0.876976 370.289 0.972464C370.593 1.01188 370.936 0.959052 371.226 0.992348C371.422 1.01505 371.591 1.05316 371.78 1.07895C371.861 1.08956 371.989 1.09394 372.083 1.09071C372.528 1.07611 372.979 1.0615 373.417 1.0377C373.774 1.01864 374.071 1.03656 374.321 1.09143C374.503 1.13106 374.685 1.14765 374.914 1.13804C376.026 1.09309 377.137 1.05428 378.242 1.00473C378.619 0.987176 378.923 1.01277 379.132 1.06772C379.491 1.16235 379.995 1.04932 380.366 1.12549C380.596 1.17272 380.826 1.22763 381.243 1.20386C382.011 1.16258 382.793 1.13971 383.567 1.11071C383.844 1.15171 384.121 1.19272 384.405 1.23371C384.849 1.21603 385.294 1.19835 385.738 1.18222C386.068 1.16935 386.405 1.15494 386.735 1.14361C386.843 1.14035 386.957 1.13401 387.059 1.14151C387.16 1.14902 387.241 1.16886 387.336 1.18406C387.802 1.25853 387.801 1.26007 388.569 1.22801C388.899 1.21361 389.216 1.20384 389.493 1.26481C389.75 1.32121 390.053 1.33143 390.403 1.31393C391.064 1.28205 391.731 1.25785 392.404 1.23517C392.613 1.22713 392.809 1.25291 392.984 1.29255C393.248 1.35508 393.572 1.34837 393.902 1.3309C394.339 1.30863 394.77 1.28638 395.142 1.37177C395.216 1.39007 395.331 1.41598 395.412 1.4143C395.965 1.40105 396.524 1.39087 397.063 1.36074C397.601 1.33062 397.865 1.42541 398.237 1.47085C398.789 1.44992 399.348 1.42897 399.9 1.40804C400.008 1.40325 400.136 1.38921 400.231 1.39672C400.629 1.4283 400.859 1.54312 401.405 1.50683C401.721 1.48631 402.065 1.47958 402.395 1.4744C402.482 1.47271 402.597 1.49861 402.658 1.51848C402.692 1.52917 402.659 1.55842 402.618 1.57385C402.498 1.61708 402.35 1.65729 402.243 1.70203C402.229 1.7082 402.358 1.73562 402.432 1.74778C402.614 1.77512 402.823 1.77016 403.065 1.75745C403.274 1.74633 403.49 1.76746 403.639 1.8133C403.7 1.83163 403.68 1.86238 403.553 1.964C403.554 2.03928 403.695 2.00523 403.742 1.95599C403.815 1.88519 403.673 1.86239 403.404 1.90127C403.216 1.92925 403.122 1.96936 403.17 2.00154C403.197 2.01839 403.325 2.03968 403.553 1.964C404.145 1.87079 404.59 1.85313 405.034 1.83546C405.149 1.83065 405.284 1.81504 405.365 1.82412C405.655 1.86049 405.925 1.90458 406.208 1.94557C406.532 1.93579 406.835 1.91221 407.152 1.97157C407.598 2.0553 407.618 2.04758 408.049 2.02993C408.272 2.02033 408.494 2.01228 408.716 2.00421C408.938 1.99614 409.114 2.01887 409.31 2.05387C409.708 2.12539 409.742 2.12532 410.004 2.02654C410.158 1.96636 410.265 1.9462 410.461 1.97352C411.109 2.06611 411.116 2.07224 411.668 2.04362C412.126 2.01978 412.558 2.01289 412.896 2.09987C413.126 2.16093 413.2 2.14697 413.381 2.08213C413.864 1.91076 414.086 1.91344 414.998 2.03476C415.423 2.09241 415.86 2.02866 416.291 2.02023C416.655 2.01346 416.912 2.04988 416.94 2.14662C416.961 2.2065 417.022 2.24942 417.265 2.26897C417.359 2.27648 417.474 2.28704 417.568 2.2838C418.127 2.26439 418.68 2.24192 419.239 2.21944C419.522 2.20819 419.676 2.13573 419.621 2.04058C419.559 1.93929 419.666 1.90221 420.07 1.87232C420.313 1.855 420.508 1.85775 420.704 1.88506C420.92 1.91541 420.86 1.94317 420.672 1.99881C420.222 2.13478 420.277 2.21764 420.858 2.31034C421.06 2.34225 421.222 2.37118 421.27 2.41872C421.297 2.44325 421.271 2.47556 421.331 2.49389C421.663 2.59625 422.122 2.66152 422.635 2.70979C423.126 2.66746 423.464 2.73599 423.842 2.79065C424.139 2.83315 424.489 2.79568 424.806 2.77976C425.163 2.76224 425.459 2.77401 425.716 2.83041C425.899 2.87004 426.087 2.88814 426.31 2.88007C426.754 2.8624 427.206 2.85087 427.643 2.82553C428.021 2.80336 428.304 2.8336 428.541 2.88543C428.838 2.95097 429.168 2.90584 429.478 2.91452C429.896 2.92455 430.106 3.06091 430.652 3.02309C430.975 3.00102 431.312 2.99276 431.649 2.98603C431.736 2.98434 431.844 3.01027 431.919 3.02858C432.277 3.11246 432.695 3.10712 433.153 3.08174C433.469 3.06429 433.779 3.0484 434.09 3.10624C434.603 3.20367 435.17 3.28873 435.711 3.37843C435.786 3.44897 435.733 3.53201 436.117 3.57283C436.32 3.59398 436.509 3.62593 436.664 3.661C436.853 3.70215 437.029 3.7126 437.271 3.70143C437.709 3.67916 438.167 3.67374 438.598 3.64533C438.996 3.62006 439.246 3.67034 439.489 3.71755C439.685 3.75562 439.867 3.77373 440.102 3.74566C440.345 3.71912 440.52 3.73571 440.716 3.77685C440.993 3.83322 441.013 3.82705 441.93 3.84235C442.024 3.84373 442.139 3.86656 442.193 3.88644C442.22 3.89714 442.16 3.92799 442.113 3.94344C442.053 3.96198 441.959 3.98364 441.871 3.9884C440.874 4.03008 439.87 4.06715 438.874 4.10883C438.773 4.11362 438.665 4.12457 438.591 4.14006C438.51 4.1571 438.409 4.1803 438.41 4.20181C438.41 4.21718 438.545 4.23538 438.639 4.24597C438.936 4.28079 439.286 4.22642 439.576 4.26586C439.772 4.29163 439.934 4.32822 440.13 4.35246C440.211 4.36307 440.339 4.36132 440.44 4.35807C440.777 4.34673 441.107 4.3308 441.444 4.321C441.538 4.31929 441.646 4.33448 441.734 4.34662C442.382 4.43767 442.382 4.43767 442.941 4.41672C443.163 4.40865 443.399 4.3852 443.608 4.39405C443.81 4.40292 443.986 4.4441 444.168 4.4699C444.546 4.52455 444.904 4.5777 444.933 4.69748C444.947 4.74355 445.17 4.7831 445.392 4.78578C445.608 4.78848 445.837 4.7712 446.059 4.7616C446.584 4.74225 446.584 4.74225 447.266 4.83478C447.455 4.86057 447.657 4.86328 447.9 4.8475C447.994 4.84119 448.109 4.84714 448.21 4.85465C448.54 4.87712 448.541 4.9063 448.326 4.96198C448.024 5.04393 448.05 5.05157 448.9 5.11923C449.224 5.14479 449.474 5.19352 449.744 5.23607C450.183 5.30444 450.177 5.30444 449.888 5.39558C449.821 5.41567 449.76 5.43729 449.693 5.45892C449.498 5.51917 449.344 5.58396 448.94 5.59081C448.495 5.59773 448.051 5.62309 447.606 5.64076C447.175 5.65841 447.061 5.69547 447.103 5.79986C447.151 5.92576 447.239 5.93944 448.014 5.93655C448.237 5.93617 448.432 5.94811 448.601 5.9893C448.521 6.0386 448.373 6.07727 448.158 6.08686C447.605 6.11087 447.046 6.13182 446.494 6.15275C446.049 6.17042 445.605 6.18808 445.16 6.20575C444.884 6.21699 444.71 6.29719 444.785 6.38616C444.826 6.43679 444.86 6.48743 444.894 6.53807C444.97 6.63934 445.112 6.66521 445.563 6.65982C445.678 6.65809 445.785 6.6456 445.893 6.64848C446.331 6.65848 446.542 6.78562 447.067 6.75859C447.505 6.73633 447.963 6.73092 448.394 6.70252C448.792 6.67725 449.014 6.73219 449.291 6.77319C449.386 6.78685 449.487 6.81585 449.568 6.81417C450.127 6.7963 450.686 6.77844 451.232 6.7483C451.488 6.73557 451.643 6.74451 451.846 6.78103C452.332 6.8693 452.345 6.86466 453.066 6.83576C453.592 6.81334 453.598 6.8164 454.273 6.90894C454.462 6.93473 454.665 6.93437 454.907 6.92166C455.224 6.90575 455.554 6.8806 455.884 6.90307C455.985 6.90904 456.114 6.92725 456.147 6.94717C456.168 6.96096 456.074 6.99492 455.993 7.00582C455.401 7.08674 454.707 7.07412 454.06 7.1075C453.858 7.11707 453.655 7.08823 453.487 7.04704C453.311 7.00587 453.122 6.9893 452.893 6.99738C452.448 7.01505 451.997 7.02658 451.559 7.05193C451.182 7.07409 450.919 7.03921 450.655 6.99204C450.568 6.97683 450.466 6.94781 450.379 6.9495C449.382 6.98196 448.378 7.01443 447.388 7.05917C446.99 7.0783 446.76 7.02954 446.49 6.98853C446.396 6.97486 446.301 6.94583 446.214 6.94752C445.877 6.95425 445.547 6.97172 445.21 6.9846C443.984 7.03282 442.765 7.08103 441.539 7.12617C441.458 7.12939 441.356 7.09729 441.262 7.08363C441.079 7.05629 440.89 7.0305 440.701 7.00471C440.365 7.01759 440.035 7.03352 439.698 7.04333C439.455 7.04989 439.24 7.07178 439.207 7.13022C439.187 7.16866 439.41 7.20361 439.646 7.20013C439.875 7.19665 440.104 7.17782 440.293 7.19746C441.231 7.29416 441.231 7.2957 441.817 7.27471C442.329 7.25538 442.275 7.24011 442.727 7.32382C442.923 7.36035 443.099 7.38157 443.321 7.37196C443.873 7.34949 444.432 7.32701 444.991 7.3076C445.079 7.30438 445.194 7.31955 445.281 7.33169C445.943 7.42272 445.943 7.42579 446.489 7.40179C447.203 7.3729 447.23 7.36517 447.709 7.45806C448.04 7.52201 448.343 7.47692 448.66 7.4733C449.024 7.53259 449.423 7.58567 449.754 7.6527C450.146 7.73191 450.556 7.71735 451.001 7.69353C451.331 7.67606 451.654 7.66936 451.925 7.73188C452.181 7.78981 452.491 7.79543 452.842 7.77946C453.158 7.76508 453.482 7.73532 453.812 7.76854C453.9 7.77761 454.035 7.80043 454.028 7.81427C454.022 7.83579 453.935 7.86667 453.847 7.87604C453.228 7.9401 452.547 7.93974 451.894 7.97007C451.806 7.97483 451.692 7.95812 451.604 7.94599C451.415 7.91866 451.232 7.88672 451.05 7.85785C450.72 7.86764 450.383 7.87129 450.06 7.89029C449.811 7.90455 449.622 7.90335 449.439 7.8668C449.27 7.83329 449.088 7.79212 448.886 7.78171C448.684 7.77131 448.448 7.79477 448.226 7.80437C448.003 7.81397 447.747 7.8098 447.572 7.83469C447.397 7.85957 447.29 7.91354 447.176 7.95675C447.049 8.0046 446.874 8.02028 446.618 8.02533C446.382 8.03035 446.193 8.02452 446.017 7.98181C445.943 7.96351 445.842 7.94985 445.74 7.93773C445.646 7.92714 445.538 7.91043 445.45 7.91365C444.447 7.95073 443.45 7.99088 442.446 8.0295C441.947 8.0488 441.954 8.04877 440.915 7.95993C440.821 7.95242 440.706 7.94187 440.612 7.9451C440.053 7.96451 439.5 7.98698 438.941 8.00946C438.375 8.03195 438.382 8.02887 437.417 7.93375C437.242 7.91562 436.986 7.94065 436.777 7.93794C436.339 7.93102 436.122 7.80235 435.61 7.82782C435.172 7.85009 434.714 7.85549 434.276 7.8839C433.879 7.90917 433.649 7.85581 433.379 7.8148C433.284 7.80113 433.183 7.77058 433.102 7.77379C432.098 7.80933 431.101 7.84947 429.767 7.8564C429.437 7.85697 429.585 7.88898 429.801 7.89936C430.111 7.91572 430.212 7.88329 430.043 7.82213C429.921 7.77932 429.746 7.7581 429.604 7.7691C429.53 7.77538 429.436 7.80474 429.767 7.8564C430.118 7.91417 430.098 7.94646 430.159 7.96479C430.308 8.00909 430.517 8.02716 430.733 8.02064C431.07 8.0093 431.4 7.99337 431.737 7.98356C431.831 7.98033 431.946 7.99088 432.033 8.00302C432.776 8.09699 432.783 8.10313 433.571 8.06488C433.82 8.0537 434.002 8.05338 434.198 8.08223C434.468 8.12171 434.664 8.18896 435.075 8.16673C435.62 8.13659 436.179 8.11874 436.739 8.10087C436.826 8.09764 436.921 8.12513 437.022 8.13725C437.299 8.17364 437.502 8.24242 437.913 8.21252C438.229 8.18892 438.573 8.18216 438.91 8.17697C438.997 8.17528 439.132 8.19963 439.173 8.21953C439.254 8.25473 439.154 8.29639 438.925 8.32598C438.831 8.33844 438.703 8.33558 438.595 8.34038C438.15 8.35805 437.706 8.37725 437.261 8.39185C437.025 8.39994 436.803 8.42338 436.777 8.48027C436.757 8.51871 437 8.55208 437.229 8.54861C437.566 8.54342 437.903 8.53054 438.226 8.51001C438.799 8.47522 439.297 8.48356 439.764 8.57954C440.095 8.64657 440.074 8.62203 440.427 8.82114C440.515 8.87169 440.778 8.87584 441.007 8.87237C441.56 8.86372 441.816 8.88633 441.77 8.93404C441.71 8.99252 441.514 9.01129 441.265 9.0194C440.82 9.03246 440.376 9.05322 439.931 9.07089C439.824 9.07568 439.702 9.08511 439.601 9.08221C439.5 9.07931 439.406 9.06104 439.318 9.04737C439.129 9.01851 438.966 8.97423 438.764 8.96382C438.562 8.95342 438.326 8.97688 438.104 8.98648C437.882 8.99455 437.646 9.018 437.444 9.0076C437.241 8.9972 437.072 8.95141 436.89 8.92408C436.802 8.9104 436.694 8.88907 436.607 8.89075C436.162 8.90382 435.718 8.92457 435.273 8.94071C434.727 8.96163 434.727 8.96163 434.066 8.86752C433.877 8.8402 433.681 8.84208 433.432 8.8548C432.893 8.88032 432.886 8.87571 431.901 8.78831C431.807 8.77926 431.692 8.76871 431.598 8.77348C430.594 8.81056 429.597 8.8507 428.6 8.8893C427.745 8.92305 427.745 8.92306 427.275 9.07751C426.926 9.1918 426.919 9.19181 427.263 9.24345C427.54 9.28598 427.79 9.34853 428.094 9.37105C428.377 9.39207 428.727 9.32233 429.038 9.39246C429.193 9.42753 429.396 9.46559 429.591 9.47139C429.901 9.47853 430.231 9.4334 430.528 9.50048C430.677 9.53402 430.9 9.56898 431.089 9.57019C431.419 9.57269 431.756 9.54751 432.086 9.53619C432.187 9.53294 432.301 9.53274 432.396 9.54026C432.497 9.5493 432.585 9.56759 432.672 9.5828C432.943 9.63457 433.233 9.65864 433.583 9.63191C434.155 9.5879 434.668 9.60852 435.114 9.70607C435.175 9.71979 435.323 9.72108 435.417 9.71477C435.66 9.69899 435.868 9.69708 436.051 9.72596C436.125 9.73812 436.233 9.75943 436.22 9.77328C436.2 9.79636 436.119 9.82723 436.032 9.83506C435.399 9.8884 434.718 9.89573 434.065 9.92452C433.977 9.92775 433.869 9.90795 433.782 9.89427C433.593 9.86695 433.43 9.82115 433.228 9.81075C433.026 9.80035 432.79 9.82073 432.568 9.82879C432.345 9.83686 432.11 9.86032 431.908 9.85145C431.705 9.84105 431.516 9.80296 431.354 9.76945C431.165 9.73137 430.983 9.72708 430.734 9.74288C430.41 9.76341 430.073 9.76707 429.743 9.77839C429.561 9.74952 429.379 9.71756 429.19 9.69024C429.102 9.67656 428.994 9.65986 428.899 9.66156C428.455 9.67462 428.01 9.69382 427.566 9.71149C427.121 9.72916 427.121 9.72918 426.365 9.63524C426.277 9.62464 426.163 9.61255 426.068 9.61578C425.509 9.63519 424.957 9.65918 424.398 9.67858C424.182 9.68664 423.987 9.66547 423.811 9.6243C423.642 9.58311 423.439 9.56042 423.23 9.56846C422.341 9.60227 421.452 9.63455 420.563 9.6745C420.206 9.69048 419.902 9.67719 419.659 9.6223C419.375 9.5598 419.059 9.57572 418.729 9.58858C417.981 9.62061 417.974 9.61907 417.495 9.54155C417.4 9.52635 417.306 9.49732 417.218 9.49901C416.443 9.5234 415.662 9.54627 414.894 9.58448C414.49 9.60515 414.274 9.55176 414.004 9.51228C413.909 9.49862 413.808 9.46961 413.727 9.47282C413.168 9.49069 412.608 9.50703 412.063 9.5387C411.517 9.57038 411.307 9.42787 410.896 9.43012C410.336 9.43263 409.784 9.46892 409.232 9.49139C408.787 9.50906 408.343 9.52673 407.898 9.5444C407.453 9.56207 407.009 9.57666 406.564 9.59741C406.329 9.60857 406.153 9.59504 405.957 9.55698C405.707 9.50671 405.41 9.4673 405.14 9.42168C404.728 9.35633 404.728 9.35632 404.23 9.37563C404.122 9.38042 404.008 9.38369 403.9 9.38848C403.085 9.4237 403.085 9.42063 402.046 9.32565C401.998 9.32112 401.877 9.33824 401.83 9.35061C401.689 9.3908 401.562 9.43403 401.434 9.47573C401.252 9.45147 401.029 9.43803 400.908 9.4029C400.563 9.30364 400.025 9.44131 399.674 9.34359C399.545 9.30694 399.322 9.27507 399.12 9.2662C398.911 9.25734 398.675 9.27926 398.46 9.28886C397.901 9.31287 397.901 9.31134 397.424 9.4489C397.182 9.51692 396.832 9.50523 396.515 9.52114C396.185 9.53862 395.868 9.54839 395.591 9.48588C395.341 9.42947 395.038 9.41617 394.681 9.43523C394.243 9.45904 393.792 9.47364 393.347 9.48824C393.253 9.49147 393.138 9.484 393.044 9.47494C392.011 9.38609 392.011 9.38456 391.513 9.4054C391.291 9.415 391.062 9.41846 390.846 9.43266C390.482 9.45788 390.206 9.42609 389.942 9.37739C389.855 9.36218 389.753 9.33318 389.665 9.33487C389.221 9.34332 388.783 9.3579 388.345 9.37249C388.008 9.38383 387.671 9.39056 387.348 9.41263C386.809 9.4489 386.545 9.34949 386.174 9.30404C385.622 9.32497 385.063 9.33977 384.51 9.36839C384.254 9.38112 384.086 9.37682 383.89 9.34028C383.64 9.29463 383.41 9.24279 383.006 9.26654C382.467 9.2982 381.901 9.30994 381.349 9.32934C380.978 9.28236 380.707 9.18602 380.175 9.22228C379.852 9.24435 379.508 9.24956 379.178 9.26242C378.734 9.28009 378.289 9.29624 377.844 9.31545C377.366 9.33472 377.373 9.3301 376.637 9.24073C376.212 9.1877 375.775 9.24837 375.343 9.25834C375.006 9.2666 374.839 9.33756 374.921 9.42806C375.003 9.51856 374.822 9.58955 374.512 9.60238C373.737 9.63291 372.956 9.66499 372.181 9.69245C372.087 9.69569 371.972 9.68513 371.884 9.67453C371.054 9.57919 371.054 9.58074 370.684 9.59521C370.131 9.61921 369.566 9.63247 369.02 9.66261C368.643 9.68324 368.366 9.65147 368.123 9.59965C367.934 9.56004 367.758 9.55112 367.516 9.56076C364.848 9.66833 362.181 9.76821 359.52 9.87884C359.123 9.89489 358.893 9.85074 358.623 9.80973C358.528 9.79607 358.44 9.76703 358.346 9.76719C358.124 9.76758 357.901 9.78179 357.679 9.7914C356.682 9.83 355.685 9.87628 354.682 9.90568C354.257 9.9187 354.143 9.98958 353.962 10.0483C353.821 10.0931 353.66 10.1118 353.41 10.1184C353.168 10.1249 352.993 10.1175 352.803 10.0779C352.56 10.0261 352.284 9.99433 351.906 10.0165C351.469 10.0418 351.024 10.0534 350.572 10.0711C350.343 10.0791 350.169 10.1071 350.095 10.1625C350.082 10.1718 350.224 10.1946 350.305 10.2083C350.575 10.2539 350.832 10.3072 351.135 10.3389C351.446 10.3707 351.782 10.3332 352.105 10.3234C352.22 10.3201 352.328 10.3107 352.435 10.3121C352.537 10.3135 352.658 10.3209 352.732 10.3346C353.084 10.4032 353.455 10.4501 353.94 10.4078C354.358 10.4271 354.575 10.5542 355.107 10.5195C355.43 10.4989 355.767 10.4891 356.104 10.4809C356.191 10.4792 356.286 10.5067 356.381 10.5203C356.651 10.5583 356.867 10.6193 357.271 10.5925C357.702 10.5641 358.16 10.5587 358.598 10.5365C358.841 10.5237 359.016 10.5342 359.205 10.5738C359.448 10.6241 359.725 10.662 360.102 10.6368C360.425 10.6147 360.769 10.6095 361.099 10.5951C361.53 10.5774 361.53 10.579 362.3 10.6729C362.387 10.6835 362.502 10.6956 362.596 10.6924C363.156 10.6729 363.708 10.6489 364.267 10.6295C364.483 10.6215 364.692 10.6411 364.841 10.6854C364.901 10.7037 364.882 10.7345 364.902 10.7606C363.791 10.804 362.679 10.8412 361.574 10.8939C361.157 10.9146 360.967 10.8519 360.691 10.817C360.596 10.8049 360.495 10.779 360.407 10.7822C359.626 10.8097 358.851 10.8387 358.077 10.8738C357.834 10.885 357.652 10.8792 357.47 10.8349C357.003 10.7174 356.438 10.7829 355.912 10.8008C355.508 10.8137 355.381 10.8616 355.429 10.9629C355.491 11.0826 355.734 11.1191 356.354 11.0965C356.576 11.0884 356.798 11.0773 357.021 11.0708C357.236 11.0642 357.432 11.0839 357.608 11.125C357.777 11.1662 357.979 11.1874 358.188 11.1809C358.633 11.1663 359.084 11.1517 359.515 11.1279C359.872 11.1088 360.169 11.1237 360.419 11.1801C360.696 11.2426 361.019 11.2282 361.343 11.2138C362.097 11.1818 362.104 11.1833 362.576 11.2593C362.671 11.2745 362.766 11.3035 362.853 11.3018C363.628 11.2775 364.409 11.2561 365.171 11.2179C365.568 11.1988 365.798 11.2476 366.061 11.287C366.156 11.3007 366.25 11.3313 366.338 11.3281C366.897 11.3102 367.456 11.2923 368.002 11.2622C368.258 11.2479 368.413 11.2568 368.622 11.2933C369.122 11.3831 369.135 11.38 369.843 11.3496C370.058 11.34 370.294 11.3227 370.496 11.3346C370.698 11.3466 370.861 11.3909 371.05 11.4182C371.137 11.4303 371.245 11.447 371.34 11.4438C371.784 11.4307 372.229 11.4115 372.674 11.3939C373.091 11.3762 373.091 11.3778 373.874 11.4717C374.191 11.5111 374.521 11.4767 374.838 11.4638C375.181 11.4494 375.491 11.4489 375.755 11.5084C376.018 11.5678 376.335 11.5642 376.672 11.5513C376.989 11.5385 377.312 11.5041 377.636 11.545C378.378 11.639 378.378 11.6405 378.836 11.6213C379.503 11.594 380.163 11.5683 380.837 11.5441C380.924 11.5408 381.039 11.5591 381.127 11.5712C381.316 11.5985 381.478 11.6443 381.681 11.6547C381.883 11.6667 382.119 11.6478 382.334 11.6383C383.028 11.6079 383.075 11.597 383.541 11.6976C383.933 11.7799 384.417 11.6592 384.782 11.7538C384.992 11.8072 385.275 11.8498 385.666 11.823C385.989 11.8009 386.326 11.7942 386.663 11.7813C387.195 11.7604 387.195 11.762 387.87 11.853C387.958 11.8651 388.072 11.8802 388.16 11.877C388.604 11.864 389.056 11.8524 389.487 11.824C389.992 11.7909 390.316 11.8487 390.694 11.9049C390.991 11.9489 391.341 11.9114 391.658 11.8955C392.001 11.8796 392.311 11.8836 392.568 11.9431C392.838 12.0041 393.155 11.9959 393.492 11.983C393.809 11.9717 394.132 11.9358 394.456 11.9782C395.151 12.0723 395.151 12.0723 395.656 12.053C396.101 12.0353 396.545 12.0161 396.99 12.003C397.078 11.9998 397.186 12.0196 397.273 12.0333C397.462 12.0606 397.625 12.1064 397.827 12.1168C398.029 12.1272 398.265 12.1068 398.487 12.0988C398.71 12.0907 398.945 12.0672 399.147 12.0761C399.35 12.085 399.539 12.1231 399.701 12.1566C399.89 12.1962 400.066 12.2005 400.321 12.1847C400.645 12.1641 400.982 12.159 401.312 12.1476C401.494 12.1765 401.683 12.2054 401.859 12.2373C402.041 12.2708 402.236 12.2674 402.486 12.2562C403.314 12.2179 403.321 12.2225 404.016 12.3165C404.333 12.359 404.663 12.3231 404.98 12.3118C405.317 12.2989 405.633 12.2922 405.897 12.3532C406.154 12.4111 406.471 12.4183 406.807 12.3993C407.023 12.3866 407.252 12.3785 407.474 12.3735C407.575 12.3718 407.697 12.3777 407.771 12.3899C408.129 12.4538 408.48 12.5116 408.972 12.4693C409.403 12.4808 409.62 12.6064 410.139 12.5809C410.577 12.5586 411.035 12.5532 411.466 12.5248C411.863 12.4995 412.147 12.5421 412.35 12.5955C412.715 12.6901 413.225 12.5602 413.59 12.6533C413.8 12.7067 414.07 12.7492 414.474 12.7255C414.918 12.7001 415.06 12.7321 415.19 12.8287C415.264 12.8839 415.252 12.9285 415.117 12.9717C414.983 13.0165 414.835 13.0091 414.618 12.9588C414.368 12.9023 414.072 12.8921 413.715 12.905C413.364 12.9179 413.148 12.8384 412.858 12.8082C412.567 12.7764 412.224 12.8308 411.921 12.7898C411.205 12.6943 411.205 12.6943 410.72 12.7136C410.39 12.7264 410.046 12.7332 409.723 12.7552C409.339 12.782 409.089 12.7348 408.826 12.6923C408.732 12.6771 408.637 12.648 408.556 12.6497C407.781 12.6741 407 12.697 406.232 12.7367C405.828 12.7574 405.612 12.7025 405.341 12.6645C405.247 12.6509 405.145 12.6234 405.065 12.6266C404.398 12.6493 403.738 12.6781 403.071 12.7053C402.943 12.747 402.802 12.7872 402.681 12.832C402.554 12.8783 402.379 12.8986 402.123 12.8975C401.698 12.8982 401.281 12.9635 400.856 12.8828C400.417 12.8006 400.383 12.8053 399.959 12.826C399.42 12.853 398.847 12.8479 398.342 12.9087C398.255 12.9196 398.161 12.9489 398.161 12.9704C398.154 12.9843 398.296 13.004 398.384 13.0161C398.681 13.0525 399.024 12.9981 399.321 13.036C399.517 13.0603 399.679 13.0968 399.875 13.1226C399.956 13.1332 400.077 13.1315 400.185 13.1298C400.299 13.128 400.407 13.1171 400.515 13.1184C400.616 13.1198 400.724 13.1288 400.805 13.1425C401.176 13.2002 401.568 13.2533 401.899 13.3219C402.223 13.3889 402.526 13.3423 402.849 13.3387C404.144 13.444 404.145 13.4455 405.014 13.4102C405.229 13.4022 405.451 13.3926 405.674 13.3937C405.768 13.3935 405.856 13.421 405.951 13.4362C406.221 13.4818 406.477 13.5229 406.854 13.4976C407.178 13.4756 407.521 13.4704 407.851 13.456C408.296 13.4383 408.296 13.4383 409.052 13.5338C409.241 13.558 409.443 13.5546 409.686 13.5419C409.894 13.5308 410.11 13.5535 410.259 13.5978C410.32 13.6161 410.3 13.6468 410.321 13.6729C409.654 13.6987 408.98 13.7167 408.334 13.7547C407.916 13.7785 407.726 13.7128 407.45 13.6779C407.355 13.6658 407.254 13.6398 407.166 13.6431C406.506 13.6673 405.846 13.6945 405.186 13.7264C405.105 13.7296 405.004 13.7651 404.998 13.7866C404.985 13.8266 405.154 13.8647 405.396 13.8628C405.72 13.8607 406.036 13.834 406.327 13.8965C406.57 13.9514 406.874 13.9754 407.231 13.9502C407.446 13.936 407.675 13.9356 407.891 13.923C408.463 13.8851 408.982 13.8919 409.415 13.9956C409.745 14.0227 410.068 13.996 410.385 13.9816C410.621 13.9705 410.85 13.9593 411.019 13.9882C411.377 14.049 411.728 14.1099 412.219 14.0675C412.752 14.1096 413.158 14.1996 413.603 14.2725C413.813 14.3075 413.975 14.3272 414.217 14.3037C414.318 14.2943 414.439 14.2941 414.547 14.2893C414.769 14.2813 415.005 14.2578 415.207 14.2667C415.409 14.2771 415.578 14.3213 415.761 14.3487C415.849 14.3623 415.95 14.3852 416.037 14.3835C416.374 14.3753 416.704 14.3593 417.034 14.3465C417.365 14.3351 417.695 14.3238 418.025 14.3125C418.301 14.352 418.585 14.3914 418.862 14.4309C419.306 14.4132 419.751 14.3955 420.189 14.3794C420.681 14.3601 420.681 14.3616 421.389 14.4557C421.707 14.4981 422.043 14.4699 422.346 14.4494C422.851 14.4162 423.189 14.4741 423.547 14.5349C423.621 14.547 423.756 14.5545 423.844 14.5482C424.194 14.5261 424.497 14.5424 424.754 14.5988C424.937 14.6385 425.119 14.6566 425.341 14.6485C426.116 14.618 426.89 14.5859 427.665 14.5585C427.759 14.5552 427.867 14.5689 427.955 14.581C428.644 14.6735 428.65 14.6781 429.156 14.6527C429.607 14.6304 430.025 14.6204 430.383 14.7043C430.457 14.7226 430.572 14.7485 430.653 14.7468C431.205 14.7305 431.765 14.7126 432.31 14.6856C432.559 14.6729 432.735 14.6772 432.93 14.7122C433.18 14.7563 433.403 14.8097 433.814 14.789C434.952 14.7302 434.959 14.7394 436.308 14.843C436.403 14.8505 436.531 14.838 436.639 14.8317C436.867 14.8159 437.036 14.8372 437.239 14.8721C437.691 14.9512 437.705 14.9466 438.136 14.929C438.466 14.9146 438.81 14.9109 439.133 14.8873C439.631 14.8526 439.962 14.912 440.333 14.9682C440.63 15.0122 440.974 14.9747 441.29 14.9604C441.634 14.9444 441.944 14.9485 442.201 15.0064C442.376 15.046 442.565 15.0672 442.788 15.0592C443.562 15.0302 444.337 14.9981 445.112 14.9691C445.206 14.9658 445.321 14.9779 445.408 14.9885C446.178 15.0825 446.178 15.0871 446.939 15.0504C447.181 15.0392 447.384 15.0358 447.566 15.0678C447.742 15.0982 447.931 15.127 448.113 15.1559C448.443 15.1446 448.78 15.1409 449.103 15.1219C449.352 15.1077 449.528 15.1135 449.723 15.1454C449.98 15.1865 450.197 15.2583 450.601 15.2223C450.809 15.205 451.052 15.2092 451.261 15.1935C451.51 15.1731 451.678 15.185 451.874 15.2247C452.118 15.2719 452.367 15.3206 452.758 15.2953C453.189 15.2669 453.647 15.2615 454.085 15.2392C454.327 15.2265 454.496 15.2385 454.692 15.2781C454.935 15.3284 455.212 15.3602 455.589 15.3396C456.357 15.2998 456.364 15.3075 457.113 15.403C457.302 15.4272 457.504 15.4238 457.747 15.4111C457.955 15.4 458.171 15.4227 458.32 15.467C458.462 15.5159 458.449 15.5466 458.463 15.5727ZM398.241 1.82113C398.019 1.8292 397.796 1.8388 397.471 1.70571C397.451 1.6827 397.464 1.65503 397.416 1.63514C397.308 1.59384 397.139 1.56495 396.937 1.56069C396.573 1.55518 396.136 1.60816 396.143 1.64809C396.15 1.68188 396.265 1.71087 396.488 1.73813C396.582 1.74872 396.657 1.76703 396.744 1.77917C397.001 1.81406 397.204 1.88286 397.574 1.84688C397.505 1.75174 397.54 1.79931 397.574 1.84688C397.541 1.90532 397.643 1.94662 397.885 1.9631C397.953 1.96759 398.054 1.96434 398.108 1.95502C398.316 1.92086 398.349 1.87472 398.193 1.75363C398.166 1.77365 398.187 1.80893 398.248 1.81805C398.308 1.82716 398.457 1.81923 398.53 1.80835C398.719 1.77883 398.813 1.74025 398.765 1.70807C398.738 1.69122 398.61 1.66993 398.529 1.67007C398.387 1.67032 398.26 1.70434 398.241 1.82113ZM452.951 19.5429C452.46 19.573 451.893 19.5632 451.402 19.624C451.315 19.6349 451.228 19.6627 451.221 19.6842C451.214 19.6981 451.35 19.7178 451.431 19.7284C451.613 19.7527 451.815 19.7446 452.051 19.7366C452.408 19.7252 452.617 19.7955 452.894 19.8303C452.982 19.8409 453.097 19.8484 453.191 19.8452C453.736 19.8258 454.275 19.8049 454.821 19.7825C454.915 19.7777 455.016 19.7667 455.097 19.7528C455.366 19.7078 455.339 19.6786 455.075 19.6453C454.785 19.6089 454.555 19.5478 454.258 19.5192C453.833 19.4784 453.403 19.5345 452.951 19.5429ZM414.693 20.7309C414.363 20.7438 414.039 20.7566 413.709 20.7695C413.601 20.7743 413.487 20.776 413.386 20.7823C413.177 20.7935 413.023 20.826 412.922 20.8769C413.078 20.9165 413.267 20.9393 413.475 20.9343C413.806 20.9245 414.129 20.904 414.459 20.8988C414.816 20.892 415.026 20.9608 415.303 20.9956C415.39 21.0062 415.498 21.0076 415.599 21.0089C416.098 21.0142 416.4 20.9338 416.305 20.8218C416.236 20.7344 415.979 20.6826 415.67 20.6939C415.346 20.7052 415.016 20.7181 414.693 20.7309ZM455.228 17.2683C455.309 17.242 455.396 17.2235 455.437 17.2003C455.557 17.1218 455.509 17.0635 455.286 17.0024C455.015 16.9276 454.686 16.9789 454.383 16.9871C454.309 16.9887 454.228 17.0211 454.188 17.0412C454.161 17.0551 454.161 17.0843 454.202 17.0919C454.533 17.1527 454.884 17.209 455.228 17.2683ZM396.71 12.8316C396.387 12.8445 396.057 12.8543 395.734 12.8717C395.653 12.8765 395.579 12.9058 395.532 12.9258C395.445 12.9629 395.54 13.0134 395.816 13.0175C396.133 13.0231 396.463 12.9964 396.793 12.9836C397.211 12.9675 397.459 12.9102 397.304 12.8613C397.155 12.8139 396.953 12.8051 396.71 12.8316ZM41.9234 10.1646C42.1389 10.1566 42.3612 10.15 42.5767 10.1389C42.7788 10.1278 42.9335 10.0937 43.034 10.0429C42.865 10.0032 42.676 9.98202 42.4671 9.987C42.137 9.99679 41.8137 10.0096 41.4904 10.0256C41.2883 10.0351 41.0934 10.0693 41.0468 10.1216C41.0002 10.1616 41.4518 10.1839 41.9234 10.1646ZM368.167 9.36144C368.255 9.37511 368.343 9.40262 368.43 9.40246C368.646 9.40209 368.869 9.39248 369.071 9.37677C369.158 9.37047 369.225 9.3427 369.265 9.32112C369.292 9.30725 369.285 9.28269 369.244 9.27047C369.048 9.19706 368.267 9.22454 368.14 9.30926C368.126 9.32464 368.16 9.34455 368.167 9.36144ZM346.802 0.985591C346.823 1.01014 346.83 1.0347 346.857 1.05924C346.912 1.10523 347.06 1.13878 347.276 1.16145C347.444 1.12275 347.531 1.07959 347.524 1.03351C347.517 1.00894 347.497 0.98438 347.469 0.959846C347.415 0.913851 347.266 0.880321 347.05 0.857651C346.882 0.894815 346.802 0.937965 346.802 0.985591ZM470.847 20.9007C470.787 20.9208 470.726 20.9409 470.659 20.9594C470.842 21.0037 471.011 21.0172 471.138 20.9924C471.219 20.9769 471.266 20.9538 471.326 20.9337C471.144 20.8894 470.982 20.8774 470.847 20.9007ZM466.658 21.1169C466.746 21.1306 466.827 21.1489 466.922 21.158C467.077 21.173 467.218 21.1467 467.325 21.0912C467.237 21.0775 467.156 21.0592 467.062 21.0502C466.907 21.0351 466.765 21.0614 466.658 21.1169ZM469.31 20.8312C469.263 20.8681 469.358 20.8987 469.608 20.9244C469.668 20.9043 469.749 20.8857 469.789 20.8641C469.856 20.8287 469.741 20.7966 469.498 20.7725C469.431 20.791 469.37 20.8111 469.31 20.8312ZM455.063 19.1998C455.017 19.2367 455.111 19.2673 455.361 19.293C455.421 19.2729 455.502 19.2543 455.542 19.2327C455.609 19.1973 455.494 19.1652 455.251 19.141C455.184 19.1596 455.124 19.1797 455.063 19.1998ZM435.549 8.36256C435.488 8.38264 435.428 8.40272 435.361 8.42127C435.543 8.46551 435.712 8.47904 435.84 8.45423C435.92 8.43873 435.967 8.4156 436.028 8.39553C435.845 8.35129 435.683 8.33929 435.549 8.36256ZM416.912 2.62754C417.074 2.63801 417.209 2.61628 417.322 2.55924C417.235 2.54556 417.153 2.52726 417.059 2.51821C416.904 2.50312 416.763 2.52949 416.655 2.58498C416.743 2.60019 416.831 2.61385 416.912 2.62754ZM407.048 2.28363C406.988 2.30371 406.927 2.32379 406.86 2.34234C407.043 2.38658 407.211 2.40011 407.339 2.3753C407.42 2.3598 407.467 2.33667 407.527 2.3166C407.345 2.27236 407.183 2.26189 407.048 2.28363ZM340.171 0.995569C340.111 1.01565 340.05 1.03572 339.983 1.05428C340.166 1.09851 340.334 1.11204 340.462 1.08724C340.543 1.07174 340.59 1.04861 340.65 1.02853C340.467 0.984296 340.306 0.973827 340.171 0.995569ZM7.41135 14.0731C7.32358 14.0594 7.23588 14.0457 7.15482 14.0305C6.95988 14.0723 6.89972 14.1108 7.0079 14.1398C7.07552 14.1581 7.17666 14.1687 7.26444 14.1824C7.46611 14.1406 7.51282 14.1036 7.41135 14.0731Z" fill="#FFE492"/>
</svg>
