<svg width="30" height="30" viewBox="0 0 30 30" fill="none" xmlns="http://www.w3.org/2000/svg">
<path fill-rule="evenodd" clip-rule="evenodd" d="M19.0592 1.5625C19.577 1.5625 19.9967 1.98223 19.9967 2.5V3.84802H21.879V3.19556C21.879 2.6778 22.2988 2.25806 22.8165 2.25806C23.3343 2.25806 23.754 2.6778 23.754 3.19556V3.90167C24.6088 4.09146 25.2812 4.766 25.4678 5.62199H26.8757C27.3935 5.62199 27.8132 6.04172 27.8132 6.55949C27.8132 7.07725 27.3935 7.49699 26.8757 7.49699H25.5196V9.37801H26.1802C26.6979 9.37801 27.1177 9.79775 27.1177 10.3155C27.1177 10.8333 26.6979 11.253 26.1802 11.253H25.4678C25.2811 12.109 24.6088 12.7835 23.754 12.9733V14.375C23.754 14.8928 23.3343 15.3125 22.8165 15.3125C22.2988 15.3125 21.879 14.8928 21.879 14.375V13.0269H19.9967V13.6794C19.9967 14.1972 19.577 14.6169 19.0592 14.6169C18.5414 14.6169 18.1217 14.1972 18.1217 13.6794V12.9766C17.2596 12.7916 16.5803 12.1141 16.3925 11.253H15.0004C14.4826 11.253 14.0629 10.8333 14.0629 10.3155C14.0629 9.79775 14.4826 9.37801 15.0004 9.37801H16.3407V7.49699H15.6962C15.1784 7.49699 14.7587 7.07725 14.7587 6.55949C14.7587 6.04172 15.1784 5.62199 15.6962 5.62199H16.3925C16.5802 4.76084 17.2596 4.08335 18.1217 3.89829V2.5C18.1217 1.98223 18.5414 1.5625 19.0592 1.5625ZM18.2157 6.68197C18.2209 6.64188 18.2236 6.601 18.2236 6.55949C18.2236 6.51797 18.2209 6.47709 18.2157 6.43701V6.10496C18.2157 5.89402 18.3867 5.72302 18.5976 5.72302H22.8139L22.8165 5.72302L22.8192 5.72302H23.2626C23.4736 5.72302 23.6446 5.89402 23.6446 6.10496V10.77C23.6446 10.9809 23.4736 11.1519 23.2626 11.1519H18.5976C18.3867 11.1519 18.2157 10.9809 18.2157 10.77V10.4361C18.2208 10.3966 18.2234 10.3564 18.2234 10.3155C18.2234 10.2746 18.2208 10.2344 18.2157 10.1949V6.68197Z" fill="white"/>
<path fill-rule="evenodd" clip-rule="evenodd" d="M12.6268 15.111C11.3258 14.934 10.1589 15.4457 9.22479 15.9177C9.00104 16.0308 8.79091 16.1408 8.59098 16.2455C8.00707 16.5512 7.5101 16.8114 7.0148 16.969C6.40776 16.3133 5.42444 16.0623 4.53741 16.4467L3.10905 17.0656C2.12001 17.4942 1.59059 18.5794 1.86157 19.6227L3.72547 26.7987C4.06299 28.0982 5.4806 28.7898 6.71249 28.2559L8.14084 27.637C8.86362 27.3238 9.34094 26.6599 9.4398 25.918C10.6602 26.0955 11.7152 26.3632 12.718 26.6226L12.8594 26.6592C14.0934 26.9787 15.3161 27.2954 16.6085 27.3297C19.4032 27.4039 22.2898 26.1697 26.8784 22.0315C28.2882 20.7602 28.6979 19.199 27.9646 17.988C27.2678 16.8374 25.7599 16.4554 24.4603 17.1494C24.0107 17.3894 23.5132 17.6904 23.0093 17.9954C22.8279 18.1051 22.6454 18.2156 22.4642 18.3237C21.9524 18.6292 21.4274 18.9314 20.8899 19.2027C20.8989 18.9993 20.8866 18.7942 20.8519 18.5908C20.7185 17.8089 20.2612 17.0833 19.4863 16.5865C18.7229 16.0972 17.7038 15.8601 16.4594 15.9145C15.5234 15.9555 15.1438 15.8403 14.7733 15.7027C14.7079 15.6784 14.64 15.652 14.5685 15.6242C14.1407 15.458 13.5823 15.241 12.6268 15.111ZM9.10342 23.983L7.7322 18.7038C8.39016 18.4738 9.02561 18.1387 9.58185 17.8454C9.7524 17.7555 9.91642 17.669 10.0704 17.5912C10.9845 17.1293 11.6926 16.8762 12.374 16.9689C13.1024 17.068 13.4753 17.2121 13.8818 17.3693C13.9593 17.3993 14.0379 17.4297 14.1205 17.4604C14.7231 17.6842 15.3524 17.8398 16.5413 17.7877C17.5166 17.7451 18.123 17.9398 18.4744 18.165C18.8141 18.3828 18.9607 18.6544 19.0037 18.9062C19.0971 19.4539 18.7348 20.0514 18.076 20.1584C18.0369 20.1648 17.9988 20.1735 17.9617 20.1843C17.2465 20.2695 16.5419 20.2141 15.8509 19.9681C15.3631 19.7945 14.827 20.0492 14.6534 20.537C14.4797 21.0248 14.7344 21.561 15.2222 21.7346C17.3084 22.4771 19.3367 21.9682 21.0405 21.2074C21.8971 20.8249 22.7035 20.3645 23.4252 19.9337C23.6329 19.8097 23.8308 19.69 24.0204 19.5753L24.0216 19.5746L24.0231 19.5737C24.5097 19.2792 24.9416 19.0179 25.3435 18.8033C25.8456 18.5352 26.2264 18.7374 26.3608 18.9592C26.4586 19.1207 26.6418 19.7201 25.6227 20.6391C21.1489 24.6738 18.7229 25.5101 16.6583 25.4554C15.5827 25.4268 14.5444 25.1583 13.2328 24.819L13.1875 24.8073C12.0282 24.5075 10.7045 24.1703 9.10342 23.983ZM5.70964 18.3753C5.66142 18.1896 5.45891 18.0908 5.28292 18.1671L3.85457 18.786C3.71328 18.8473 3.63764 19.0023 3.67636 19.1513L5.54026 26.3274C5.58847 26.513 5.79099 26.6118 5.96697 26.5355L7.39533 25.9166C7.53662 25.8553 7.61225 25.7003 7.57354 25.5513L5.70964 18.3753Z" fill="white"/>
</svg>
