<svg width="270" height="30" viewBox="0 0 270 30" fill="none" xmlns="http://www.w3.org/2000/svg">
<path d="M253.552 15.6853C253.182 15.7106 252.81 15.7281 252.448 15.7656C252.213 15.7891 252.112 15.7217 251.955 15.6866C251.902 15.6744 251.846 15.6499 251.798 15.6531C251.432 15.6783 251.067 15.7066 250.702 15.7349C250.591 15.795 250.521 15.875 250.349 15.9045C250.182 15.9324 249.984 15.9328 249.798 15.9469C249.552 15.9642 249.306 15.9816 249.06 15.9974C248.937 16.0053 248.836 16.0346 248.796 16.09C248.789 16.0992 248.871 16.1221 248.916 16.1359C249.066 16.1817 249.212 16.2337 249.376 16.2687C249.533 16.3022 249.727 16.2466 249.895 16.2893C250.273 16.3855 250.277 16.3839 250.564 16.365C250.81 16.3477 251.056 16.3288 251.302 16.3161C251.351 16.3129 251.407 16.3359 251.459 16.3481C251.616 16.3816 251.718 16.4582 251.949 16.4287C252.124 16.4053 252.318 16.4004 252.501 16.3877C252.654 16.432 252.796 16.4825 252.961 16.5175C253.114 16.5511 253.16 16.5771 253.078 16.6218C253.004 16.6634 252.9 16.6805 252.762 16.6838C252.638 16.6856 252.516 16.6996 252.393 16.7075C252.329 16.7122 252.27 16.7154 252.21 16.7201C251.975 16.7374 251.975 16.7374 251.545 16.6398C251.376 16.6017 251.187 16.6558 251.026 16.6192C250.917 16.5948 250.824 16.5581 250.719 16.5322C250.674 16.5215 250.603 16.5201 250.547 16.5233C250.361 16.5343 250.174 16.5423 249.996 16.5626C249.869 16.5767 249.795 16.6198 249.81 16.6628C249.814 16.6797 249.904 16.7041 249.956 16.7056C250.076 16.7084 250.202 16.6867 250.318 16.6973C250.43 16.7078 250.546 16.7384 250.629 16.772C250.797 16.8424 250.987 16.7791 251.147 16.7972C251.316 16.8169 251.454 16.8781 251.615 16.9147C251.656 16.9239 251.735 16.9084 251.798 16.9036C251.981 16.8926 252.163 16.883 252.346 16.872C252.5 16.9163 252.664 16.9559 252.803 17.0064C253.054 17.0981 253.323 17.133 253.647 17.0879C253.83 17.063 254.009 17.0719 254.155 17.1315C254.305 17.1927 254.476 17.1863 254.667 17.1737C254.842 17.1611 255.02 17.127 255.2 17.1697C255.589 17.2642 255.593 17.2688 256.051 17.2312C256.189 17.2202 256.294 17.2169 256.399 17.2521C256.496 17.2842 256.601 17.3116 256.702 17.3422C256.885 17.3311 257.071 17.3201 257.254 17.3074C257.488 17.2901 257.619 17.3114 257.676 17.3973C257.71 17.4495 257.726 17.4971 257.809 17.5323C257.906 17.5752 258.01 17.5734 258.152 17.5609C258.286 17.5499 258.383 17.5329 258.438 17.4775C258.46 17.4544 258.505 17.4328 258.546 17.4143C258.579 17.4004 258.631 17.3788 258.661 17.3818C258.717 17.3879 258.792 17.4046 258.811 17.4246C258.996 17.6101 258.996 17.6117 259.183 17.6651C259.389 17.7247 259.602 17.7781 259.79 17.8453C259.958 17.905 260.126 17.8786 260.309 17.8783C260.447 17.878 260.537 17.9178 260.526 17.9578C260.519 17.9808 260.467 18.0147 260.422 18.0179C260.057 18.0492 259.688 18.076 259.319 18.0981C259.274 18.1013 259.218 18.0737 259.166 18.06C259.061 18.0325 258.967 17.9897 258.855 17.9806C258.743 17.9716 258.613 17.9949 258.49 18.0028C258.367 18.0107 258.236 18.0309 258.124 18.0188C258.012 18.0067 257.922 17.9623 257.817 17.9333C257.768 17.9195 257.701 17.8997 257.66 17.9044C257.388 17.9417 257.186 17.8914 256.991 17.8241C256.95 17.8103 256.879 17.8013 256.827 17.8044C256.395 17.8313 255.966 17.8627 255.533 17.8927C255.358 17.9053 255.216 17.8518 255.177 17.7612C255.158 17.7105 255.12 17.6599 255.12 17.6092C255.118 17.517 254.913 17.4667 254.764 17.4777C254.517 17.4935 254.268 17.5062 254.025 17.5297C253.828 17.5484 253.66 17.5303 253.525 17.4752C253.367 17.4125 253.189 17.4251 253.01 17.4423C252.875 17.4548 252.839 17.5056 252.848 17.6331C252.856 17.736 252.793 17.7684 252.551 17.7857C252.245 17.8078 251.936 17.8298 251.627 17.8472C251.578 17.8504 251.522 17.8244 251.473 17.8106C251.368 17.7832 251.275 17.7388 251.163 17.7297C251.051 17.7192 250.92 17.7425 250.797 17.7519C250.674 17.7598 250.544 17.7815 250.432 17.771C250.32 17.7604 250.226 17.7145 250.125 17.6855C250.076 17.6717 250.016 17.6518 249.968 17.655C249.722 17.6677 249.476 17.6866 249.23 17.7039C248.954 17.7228 248.954 17.7228 248.561 17.6283C248.381 17.5856 248.203 17.6197 248.028 17.6323C247.841 17.6449 247.666 17.6513 247.52 17.5901C247.422 17.5504 247.314 17.526 247.198 17.5338C246.889 17.5528 246.583 17.5764 246.274 17.5954C246.221 17.5985 246.15 17.591 246.109 17.5772C245.911 17.513 245.716 17.4627 245.44 17.4954C245.202 17.5235 244.945 17.5255 244.706 17.552C244.576 17.566 244.517 17.6153 244.543 17.6537C244.558 17.6736 244.637 17.6965 244.689 17.6964C244.809 17.6978 244.939 17.6745 245.051 17.6835C245.282 17.7016 245.4 17.8304 245.701 17.7945C245.88 17.7727 246.067 17.7647 246.253 17.7582C246.302 17.7566 246.354 17.7857 246.407 17.801C246.556 17.8422 246.688 17.8958 246.904 17.8677C247.082 17.8459 247.273 17.8395 247.455 17.8268C247.746 17.8064 247.746 17.8079 248.124 17.901C248.304 17.9452 248.482 17.9096 248.658 17.8985C248.788 17.8906 248.911 17.875 249.016 17.8963C249.176 17.9283 249.293 18.0018 249.491 17.9969C249.677 17.992 249.86 17.9701 250.046 17.9621C250.162 17.9573 250.27 17.9817 250.364 18.023C250.462 18.0644 250.566 18.0826 250.693 18.0732C250.876 18.0606 251.062 18.0449 251.248 18.0369C251.301 18.0352 251.361 18.049 251.409 18.0612C251.514 18.0886 251.615 18.1207 251.716 18.1497C251.899 18.1402 252.085 18.1368 252.264 18.1181C252.402 18.104 252.499 18.11 252.611 18.1405C252.754 18.1817 252.87 18.2553 253.101 18.2196C253.217 18.2025 253.351 18.2068 253.466 18.1913C253.608 18.171 253.705 18.1785 253.806 18.2245C253.998 18.3117 254.236 18.3128 254.482 18.2786C254.75 18.2413 254.952 18.2839 255.155 18.3512C255.368 18.4215 255.368 18.4199 255.534 18.5902C255.584 18.6393 255.722 18.6621 255.837 18.6527C256.031 18.637 256.199 18.6443 256.342 18.7025C256.492 18.7652 256.671 18.7572 256.853 18.74C257.095 18.7165 257.338 18.6961 257.536 18.7849C257.634 18.8277 257.739 18.8383 257.869 18.8273C258.238 18.799 258.611 18.7815 258.972 18.7471C259.192 18.7252 259.32 18.7741 259.469 18.8153C259.672 18.8718 259.892 18.9221 259.894 19.0435C259.894 19.0635 259.947 19.0864 259.992 19.1017C260.089 19.1338 260.194 19.1613 260.295 19.1918C260.445 19.2377 260.591 19.2758 260.795 19.2509C260.974 19.2306 261.164 19.2241 261.347 19.21C261.53 19.1958 261.698 19.1879 261.862 19.246C262.053 19.3117 262.256 19.3743 262.473 19.4231C262.626 19.4582 262.827 19.3979 262.992 19.4453C263.093 19.4743 263.19 19.5079 263.298 19.5323C263.343 19.543 263.414 19.5352 263.474 19.532C263.597 19.5256 263.724 19.5208 263.843 19.5052C263.981 19.4881 264.085 19.491 264.19 19.5262C264.288 19.5582 264.385 19.6026 264.497 19.6116C264.665 19.6252 264.851 19.5634 265.02 19.6338C265.106 19.669 265.215 19.7026 265.327 19.7131C265.439 19.7237 265.569 19.7004 265.688 19.7018C265.741 19.7017 265.804 19.7261 265.834 19.7461C265.853 19.7568 265.827 19.786 265.801 19.8014C265.768 19.8199 265.72 19.8446 265.671 19.8477C265.302 19.876 264.933 19.8997 264.564 19.9265C264.344 19.9422 264.344 19.9422 263.899 19.8462C263.795 19.8233 263.679 19.8281 263.549 19.8391C263.373 19.8533 263.195 19.8797 263.011 19.8524C262.771 19.7483 262.477 19.7396 262.164 19.7801C262.033 19.7972 261.914 19.7974 261.816 19.7684C261.611 19.7104 261.394 19.657 261.21 19.5882C261.068 19.5346 261 19.5302 260.942 19.604C260.923 19.6271 260.905 19.6517 260.909 19.6732C260.932 19.75 260.974 19.8252 260.997 19.9019C261.005 19.9234 260.976 19.9481 260.957 19.9712C260.898 20.0358 260.82 20.0313 260.689 19.9778C260.557 19.9242 260.4 19.8892 260.192 19.9141C260.013 19.9359 259.819 19.9332 259.64 19.9565C259.364 19.9908 259.17 19.942 258.971 19.8763C258.93 19.8625 258.859 19.855 258.807 19.8581C258.251 19.8944 257.7 19.9353 257.144 19.9716C257.025 19.9795 256.917 19.9567 256.823 19.9153C256.725 19.874 256.617 19.8527 256.497 19.8606C256.005 19.8937 255.513 19.9238 255.021 19.9646C254.82 19.9818 254.659 19.9621 254.521 19.9086C254.416 19.8688 254.319 19.8567 254.188 19.8615C254.046 19.8664 253.946 19.8819 253.876 19.9266C253.809 19.9697 253.858 19.9958 254.007 20.0293C254.168 20.0659 254.318 20.1133 254.472 20.156C254.595 20.1497 254.718 20.1371 254.837 20.1385C254.889 20.1384 254.938 20.166 254.99 20.1812C255.14 20.2255 255.279 20.2698 255.491 20.2449C255.67 20.2231 255.86 20.2181 256.043 20.204C256.296 20.1866 256.296 20.1867 256.708 20.2827C256.813 20.3071 256.924 20.3054 257.059 20.2913C257.174 20.2804 257.294 20.3017 257.376 20.3476C257.41 20.366 257.399 20.3968 257.33 20.4983C257.331 20.5736 257.409 20.5396 257.434 20.4904C257.474 20.4197 257.396 20.3968 257.247 20.4354C257.143 20.4633 257.091 20.5033 257.118 20.5355C257.133 20.5524 257.204 20.5738 257.33 20.4983C257.657 20.4055 257.907 20.3943 258.145 20.3693C258.287 20.3553 258.376 20.3612 258.489 20.401C258.624 20.4484 258.759 20.4989 258.979 20.4739C259.217 20.4458 259.471 20.4423 259.713 20.4188C259.936 20.3969 260.053 20.4643 260.195 20.504C260.367 20.5514 260.557 20.4973 260.714 20.5247C260.878 20.552 260.995 20.6194 261.185 20.6314C261.461 20.5894 261.637 20.6659 261.847 20.7163C262.011 20.7544 262.205 20.7202 262.38 20.703C262.578 20.6843 262.742 20.7009 262.881 20.756C263.038 20.8187 263.213 20.8045 263.392 20.7904C263.81 20.7589 263.824 20.7543 264.068 20.8384C264.244 20.8995 264.412 20.8716 264.587 20.8636C264.74 20.9048 264.89 20.9491 265.051 20.9857C265.092 20.9948 265.17 20.9793 265.234 20.9746C265.416 20.962 265.603 20.9494 265.785 20.9368C265.908 20.9289 266.039 20.9056 266.151 20.9147C266.263 20.9252 266.357 20.9696 266.458 20.9986C266.559 21.0276 266.664 21.0566 266.761 21.0872C266.911 21.133 267.053 21.1712 267.262 21.1478C267.441 21.1275 267.627 21.121 267.813 21.1069C268.048 21.0896 268.041 21.0942 268.478 21.1856C268.714 21.2359 268.956 21.174 269.194 21.1675C269.314 21.1642 269.43 21.1809 269.512 21.2253C269.546 21.2437 269.535 21.2744 269.547 21.3005C268.932 21.3431 268.313 21.3795 267.705 21.4312C267.471 21.4516 267.347 21.3965 267.219 21.3506C267.01 21.2773 266.735 21.3853 266.536 21.2904C266.416 21.2337 266.244 21.2018 266.039 21.2298C265.92 21.2454 265.793 21.244 265.67 21.2581C265.357 21.2924 265.07 21.2945 264.818 21.1889C264.732 21.1522 264.609 21.1324 264.519 21.0972C264.414 21.059 264.313 21.0377 264.19 21.0456C263.635 21.0834 263.083 21.1212 262.531 21.1621C262.483 21.1653 262.434 21.1884 262.394 21.2054C262.29 21.2486 262.324 21.2823 262.492 21.3097C262.548 21.3188 262.593 21.3387 262.645 21.354C262.747 21.383 262.84 21.4289 262.952 21.4395C263.064 21.45 263.195 21.4283 263.318 21.4204C263.441 21.4125 263.571 21.3893 263.683 21.3983C263.795 21.4088 263.889 21.4532 263.994 21.4807C264.042 21.4944 264.102 21.5174 264.151 21.5158C264.397 21.5061 264.639 21.4888 264.885 21.4745C265.039 21.5158 265.17 21.5754 265.353 21.589C265.469 21.598 265.592 21.5809 265.711 21.5837C265.764 21.5852 265.831 21.6081 265.857 21.628C265.872 21.6403 265.824 21.6711 265.787 21.6865C265.646 21.7452 265.452 21.7347 265.277 21.7535C265.087 21.7738 264.915 21.7679 264.769 21.7083C264.671 21.6685 264.563 21.6472 264.444 21.6551C264.134 21.6756 263.829 21.6992 263.519 21.7166C263.467 21.7198 263.403 21.706 263.355 21.6954C262.962 21.6023 262.962 21.5993 262.686 21.6197C262.28 21.6496 262.28 21.6496 262.006 21.5686C261.954 21.5534 261.898 21.5243 261.853 21.5259C261.42 21.5512 260.992 21.5766 260.563 21.6126C260.421 21.6236 260.324 21.6238 260.219 21.584C260.13 21.5504 260.025 21.5122 259.913 21.5031C259.797 21.4941 259.67 21.5174 259.547 21.5253C259.424 21.5332 259.294 21.5534 259.186 21.5413C259.073 21.5292 258.976 21.4863 258.879 21.4558C258.777 21.4237 258.669 21.4254 258.531 21.4379C258.106 21.474 258.103 21.4694 257.68 21.3749C257.631 21.3642 257.568 21.3521 257.516 21.3552C257.206 21.3742 256.901 21.3978 256.591 21.4167C256.472 21.4246 256.356 21.4049 256.273 21.3604C256.239 21.3421 256.25 21.3113 256.227 21.2514C256.201 21.2377 256.231 21.2622 256.239 21.2852C256.295 21.2821 256.362 21.285 256.403 21.2726C256.507 21.2433 256.559 21.2048 256.532 21.1726C256.517 21.1557 256.446 21.1343 256.401 21.1344C256.319 21.1345 256.249 21.1684 256.227 21.2514C255.993 21.3025 255.743 21.3137 255.501 21.3387C255.359 21.3544 255.269 21.3468 255.157 21.3071C255.022 21.2582 254.884 21.2108 254.664 21.2357C254.425 21.2638 254.172 21.2689 253.926 21.2908C253.642 21.3159 253.518 21.1778 253.279 21.1813C253.033 21.1848 252.787 21.2113 252.541 21.2302C252.325 21.2459 252.325 21.2459 251.876 21.1468C251.711 21.1103 251.518 21.1644 251.357 21.1262C251.248 21.1018 251.155 21.0651 251.05 21.0392C251.005 21.0285 250.934 21.0286 250.878 21.0318C250.569 21.0508 250.256 21.0636 249.958 21.0979C249.619 21.1385 249.361 21.0959 249.117 21.0057C248.811 21.0231 248.502 21.0329 248.2 21.0626C247.98 21.0845 247.853 21.034 247.703 20.9928C247.65 20.9791 247.605 20.9561 247.549 20.95C247.493 20.944 247.426 20.9564 247.367 20.9611C247.121 20.9784 246.867 20.9866 246.629 21.0146C246.334 21.0505 246.221 20.9247 245.993 20.9097C245.841 20.9853 245.76 21.0883 245.458 21.0965C245.212 21.1031 244.966 21.1281 244.72 21.1455C244.597 21.1533 244.474 21.1628 244.351 21.1707C244.153 21.1848 244.061 21.2449 244.103 21.337C244.126 21.3877 244.145 21.4383 244.165 21.489C244.203 21.5796 244.111 21.6566 243.954 21.6676C243.522 21.6975 243.093 21.729 242.661 21.7559C242.545 21.7638 242.433 21.7378 242.339 21.6965C242.241 21.6552 242.133 21.637 242.014 21.6448C241.581 21.6748 241.153 21.7063 240.72 21.7331C240.672 21.7363 240.608 21.721 240.56 21.7088C240.455 21.6814 240.354 21.6493 240.253 21.6203C240.006 21.6345 239.764 21.6441 239.522 21.663C239.13 21.6913 239.13 21.6929 238.842 21.6089C238.79 21.5936 238.737 21.5645 238.689 21.5661C238.502 21.5726 238.32 21.5883 238.133 21.6024C237.585 21.6433 237.585 21.6433 237.424 21.5975C237.278 21.5547 237.147 21.5027 236.927 21.5277C236.689 21.5558 236.435 21.5654 236.189 21.5812C236.006 21.5923 235.824 21.6049 235.641 21.6083C235.593 21.6099 235.54 21.5808 235.488 21.5655C235.338 21.5182 235.192 21.48 234.987 21.5065C234.868 21.5221 234.741 21.5254 234.618 21.5333C234.297 21.5553 234.297 21.5553 233.77 21.464C233.718 21.4549 233.654 21.4443 233.602 21.449C233.17 21.4774 232.741 21.5089 232.309 21.5357C232.256 21.5389 232.193 21.5298 232.141 21.5222C231.55 21.4341 231.55 21.4341 230.924 21.4782C230.685 21.494 230.678 21.5001 230.427 21.4192C230.314 21.384 230.221 21.3673 230.091 21.3783C229.599 21.416 229.103 21.4414 228.614 21.4853C228.395 21.5041 228.267 21.4582 228.117 21.417C228.065 21.4033 228.009 21.3727 227.964 21.3743C227.472 21.4043 226.98 21.4405 226.488 21.4706C226.443 21.4737 226.387 21.4431 226.334 21.4293C226.233 21.4019 226.136 21.3606 226.024 21.3515C225.908 21.3425 225.781 21.3658 225.654 21.3737C225.345 21.3942 225.345 21.3927 224.986 21.3026C224.937 21.2904 224.874 21.2736 224.825 21.2768C224.333 21.3084 223.837 21.3354 223.349 21.3808C223.069 21.4058 222.879 21.3616 222.68 21.2974C222.639 21.2837 222.568 21.2776 222.516 21.2808C221.96 21.3171 221.409 21.358 220.853 21.3943C220.738 21.4022 220.625 21.3763 220.532 21.3365C220.382 21.2738 220.206 21.2817 220.02 21.2959C219.591 21.3289 219.588 21.3274 219.333 21.2541C219.281 21.2388 219.236 21.2189 219.18 21.2113C219.127 21.2037 219.06 21.2085 219.004 21.2116C218.758 21.2274 218.512 21.2447 218.266 21.2621C218.02 21.2794 217.77 21.2891 217.528 21.3156C217.23 21.3484 217.087 21.2487 216.877 21.203C216.572 21.2235 216.259 21.2364 215.957 21.2691C215.726 21.2941 215.617 21.2267 215.463 21.1916C215.411 21.1794 215.355 21.1534 215.306 21.1566C214.751 21.1914 214.195 21.2292 213.644 21.2716C213.51 21.2811 213.42 21.2689 213.308 21.2323C213.057 21.1497 213.045 21.1528 212.628 21.1843C212.445 21.1984 212.27 21.211 212.113 21.1483C211.974 21.0917 211.806 21.0782 211.608 21.0969C211.366 21.1204 211.116 21.1331 210.87 21.1489C210.624 21.1663 210.378 21.1897 210.132 21.1978C209.935 21.2059 209.814 21.1339 209.657 21.0973C209.608 21.0866 209.541 21.0852 209.485 21.0883C209.239 21.1026 208.986 21.1138 208.747 21.1403C208.457 21.1731 208.295 21.0889 208.089 21.0401C208.045 21.0294 207.97 21.0357 207.914 21.0404C207.482 21.0688 207.053 21.1002 206.621 21.1302C206.467 21.089 206.31 21.0493 206.156 21.0081C205.91 21.0239 205.664 21.0412 205.418 21.057C205.232 21.0696 205.042 21.0746 204.867 21.0979C204.64 21.129 204.527 21.057 204.373 21.0219C204.321 21.0097 204.265 20.9837 204.216 20.9869C203.907 21.0043 203.597 21.0233 203.292 21.0499C203.001 21.0766 202.884 20.9385 202.645 20.9404C202.399 20.9424 202.145 20.9628 201.907 20.9909C201.631 21.0236 201.437 20.9748 201.238 20.9091C201.197 20.8953 201.126 20.8878 201.074 20.8909C200.764 20.9099 200.459 20.9335 200.149 20.9525C200.097 20.9556 200.034 20.9481 199.981 20.9389C199.391 20.8493 199.391 20.8478 199.133 20.8667C198.951 20.8793 198.764 20.895 198.578 20.903C198.526 20.9061 198.462 20.8924 198.413 20.8802C198.024 20.7872 198.024 20.7856 197.745 20.8045C197.499 20.8219 197.253 20.8392 197.007 20.8565C196.853 20.8153 196.696 20.7756 196.543 20.7344C196.237 20.7549 195.924 20.7708 195.622 20.799C195.48 20.8115 195.387 20.8071 195.278 20.7689C195.143 20.723 195.008 20.6695 194.785 20.696C194.546 20.7241 194.293 20.7276 194.051 20.751C193.76 20.7792 193.639 20.6396 193.404 20.6416C193.158 20.6435 192.904 20.6639 192.666 20.692C192.39 20.7247 192.195 20.6759 191.997 20.6102C191.956 20.5964 191.885 20.5889 191.833 20.5921C191.154 20.6378 190.479 20.6835 189.801 20.7323C189.383 20.7622 189.383 20.7638 188.588 20.6806C188.532 20.6746 188.472 20.6686 188.416 20.6717C188.17 20.686 187.916 20.6972 187.678 20.7237C187.387 20.7565 187.226 20.6738 187.02 20.6234C186.975 20.6128 186.904 20.619 186.845 20.6222C186.658 20.6333 186.476 20.6474 186.289 20.6601C186.043 20.6774 185.797 20.6947 185.551 20.712C185.398 20.6724 185.241 20.6311 185.087 20.5915C184.781 20.612 184.468 20.6233 184.166 20.6561C183.935 20.681 183.826 20.6167 183.673 20.5801C183.621 20.5679 183.564 20.5419 183.516 20.5435C182.96 20.5783 182.405 20.6146 181.853 20.6585C181.626 20.6774 181.521 20.6084 181.367 20.5733C181.315 20.5627 181.255 20.5428 181.207 20.546C180.838 20.5681 180.468 20.5949 180.099 20.6216C179.891 20.6374 179.891 20.6374 179.434 20.5429C179.382 20.5322 179.322 20.5216 179.27 20.5247C178.1 20.6036 176.933 20.6871 175.762 20.7659C175.643 20.7738 175.535 20.7509 175.441 20.7096C175.343 20.6683 175.235 20.647 175.115 20.6549C174.623 20.688 174.128 20.7181 173.639 20.7588C173.438 20.7761 173.277 20.7564 173.139 20.7028C173.034 20.6631 172.937 20.6479 172.806 20.6573C172.56 20.6762 172.314 20.692 172.068 20.7093C171.822 20.7267 171.576 20.744 171.33 20.7613C171.084 20.7786 170.834 20.7883 170.592 20.8148C170.294 20.8476 170.147 20.7526 169.941 20.7053C169.572 20.729 169.203 20.7527 168.838 20.7779C168.346 20.811 167.854 20.8472 167.362 20.8788C167.317 20.882 167.261 20.8544 167.208 20.8407C167.055 20.8025 166.942 20.749 166.715 20.7663C165.612 20.8496 164.501 20.9207 163.394 21.0025C163.163 21.0198 163.061 20.9539 162.904 20.9188C162.852 20.9082 162.792 20.8868 162.743 20.8899C162.128 20.9294 161.513 20.9735 160.898 21.016C160.648 21.0333 160.648 21.0333 160.229 20.9388C160.181 20.9282 160.117 20.9144 160.065 20.9176C159.263 20.9712 158.466 21.0279 157.664 21.0831C157.545 21.091 157.436 21.0697 157.339 21.0283C157.245 20.987 157.133 20.9642 157.017 20.9721C156.279 21.0225 155.537 21.0714 154.803 21.1265C154.606 21.1422 154.441 21.1286 154.299 21.0736C154.198 21.0338 154.097 21.0171 153.97 21.0265C152.863 21.1037 151.756 21.1779 150.649 21.2597C150.436 21.2754 150.287 21.2465 150.152 21.196C150.043 21.1562 149.95 21.1487 149.815 21.1551C149.674 21.163 149.588 21.1801 149.51 21.2263C149.41 21.2864 149.348 21.3618 149.109 21.3668C148.863 21.3718 148.613 21.3907 148.371 21.4173C148.14 21.4438 148.031 21.3748 147.885 21.3336C147.776 21.3046 147.676 21.3002 147.538 21.3142C147.411 21.3267 147.333 21.353 147.259 21.4023C147.096 21.507 147.081 21.5071 146.879 21.4413C146.77 21.4062 146.673 21.3787 146.554 21.3851C146.062 21.4166 145.569 21.4513 145.077 21.4875C144.794 21.508 144.791 21.511 144.577 21.4346C144.472 21.3964 144.371 21.3781 144.248 21.3875C142.895 21.4821 141.542 21.5735 140.189 21.6727C139.98 21.6884 139.838 21.6564 139.688 21.6105C139.639 21.5953 139.591 21.5738 139.534 21.5678C139.478 21.5617 139.415 21.568 139.355 21.5712C138.371 21.6389 137.383 21.7037 136.403 21.7791C136.179 21.7964 136.06 21.7474 135.906 21.7078C135.854 21.694 135.809 21.6726 135.753 21.6665C135.697 21.662 135.63 21.6729 135.57 21.6776C134.586 21.7454 133.598 21.8101 132.618 21.8855C132.383 21.9029 132.281 21.8385 132.128 21.805C132.076 21.7928 132.019 21.7698 131.971 21.773C131.661 21.7904 131.356 21.814 131.046 21.8345C130.308 21.8865 129.57 21.9354 128.832 21.9889C128.549 22.0094 128.424 21.8728 128.185 21.8794C127.876 21.8876 127.57 21.9189 127.261 21.9409C127.015 21.9583 126.769 21.9741 126.523 21.9929C126.28 22.0102 126.28 22.0102 125.675 21.9222C125.623 21.9146 125.559 21.9039 125.507 21.9071C124.646 21.9654 123.781 22.0238 122.924 22.0867C122.726 22.1009 122.562 22.0935 122.419 22.0369C122.318 21.9971 122.214 21.9773 122.091 21.9868C120.797 22.0766 119.507 22.1664 118.214 22.2547C118.165 22.2579 118.102 22.2426 118.053 22.2304C117.948 22.2029 117.847 22.1708 117.746 22.1418C117.672 22.1773 117.575 22.2097 117.527 22.2497C117.461 22.3036 117.371 22.3191 117.23 22.3286C117.088 22.3381 116.998 22.3352 116.886 22.2954C116.751 22.2465 116.613 22.2083 116.393 22.224C115.04 22.3232 113.686 22.4131 112.333 22.5107C112.11 22.5265 112.004 22.459 111.847 22.424C111.795 22.4133 111.735 22.3965 111.686 22.3997C111.131 22.436 110.579 22.4754 110.024 22.5132C108.484 22.6203 106.945 22.7229 105.409 22.8362C105.13 22.8566 104.939 22.8185 104.74 22.7528C104.699 22.7391 104.628 22.7315 104.576 22.7347C102.421 22.8828 100.267 23.0325 98.1158 23.1822C98.0003 23.1901 97.888 23.1657 97.7942 23.1259C97.6967 23.0846 97.5884 23.0648 97.4691 23.0727C96.4849 23.1405 95.5009 23.2083 94.5168 23.2776C94.2707 23.2949 94.267 23.2964 94.0124 23.2231C93.96 23.2078 93.9037 23.1788 93.8627 23.1819C93.777 23.1897 93.6953 23.2283 93.6363 23.2806C93.5773 23.336 93.4842 23.3516 93.3463 23.3625C93.2046 23.3736 93.1113 23.3691 93.0027 23.3324C92.8641 23.2866 92.7367 23.2422 92.513 23.258C89.6838 23.4596 86.8544 23.6534 84.0252 23.8535C83.7978 23.8692 83.6925 23.8049 83.5354 23.7698C83.483 23.7592 83.4306 23.7439 83.3746 23.7409C83.3149 23.7379 83.2516 23.7473 83.192 23.752C78.5771 24.0719 73.9623 24.3933 69.3474 24.7132C69.0716 24.7321 69.0753 24.7321 68.7748 24.874C68.7377 24.8909 68.6895 24.914 68.6373 24.9172C67.2245 25.018 65.808 25.1157 64.3915 25.2134C63.7764 25.256 63.1614 25.3001 62.5463 25.3411C62.3264 25.3553 62.3264 25.3553 61.8023 25.5221C61.7577 25.536 61.7057 25.5545 61.6535 25.5577C59.1932 25.7294 56.733 25.9012 54.2689 26.0698C54.0751 26.0825 53.9188 26.1104 53.8301 26.1843C53.7673 26.2366 53.6856 26.2675 53.5626 26.2769C51.8405 26.3967 50.1183 26.518 48.3924 26.6347C48.1874 26.6488 48.0647 26.6921 47.9648 26.7568C47.9315 26.7783 47.9019 26.803 47.8536 26.8184C47.809 26.8323 47.7419 26.837 47.686 26.8417C46.2098 26.9442 44.7337 27.0497 43.2538 27.1475C43.0339 27.1617 42.945 27.2187 42.8375 27.2788C42.8004 27.2988 42.7746 27.3266 42.7263 27.3405C42.678 27.3528 42.6071 27.353 42.5474 27.3561C41.3173 27.4412 40.0872 27.5279 38.8571 27.613C38.6182 27.6057 38.567 27.6949 38.452 27.7489C38.4112 27.7674 38.3817 27.792 38.3334 27.8044C38.2813 27.8168 38.214 27.8153 38.1507 27.8185C37.1665 27.8863 36.1825 27.9587 35.1946 28.0218C34.9672 28.0361 34.9234 28.1145 34.8009 28.1685C34.7601 28.1854 34.7194 28.2116 34.671 28.2163C34.0559 28.262 33.4409 28.3045 32.8258 28.3455C32.6208 28.3597 32.6208 28.3582 32.2607 28.5109C32.2199 28.5279 32.1716 28.5464 32.1194 28.5511C31.1987 28.6172 30.2742 28.6803 29.3498 28.7449C29.2305 28.7527 29.1489 28.7898 29.0898 28.8421C29.0308 28.8944 28.9454 28.9284 28.8261 28.9363C28.088 28.9882 27.3499 29.0418 26.6118 29.0891C26.4067 29.1018 26.2729 29.1404 26.1842 29.2097C26.1177 29.2621 26.036 29.2883 25.9055 29.2978C25.1674 29.3482 24.4294 29.4033 23.6875 29.4476C23.4713 29.4602 23.3599 29.5127 23.2712 29.5773C23.2009 29.6297 23.1191 29.6483 22.9811 29.6577C21.628 29.7492 20.2711 29.8406 18.9218 29.9413C18.6944 29.9586 18.5781 29.905 18.4284 29.8669C18.215 29.8135 18.0167 29.7555 18.0152 29.6356C18.015 29.6172 17.9513 29.5958 17.9063 29.5805C17.5729 29.4659 17.5729 29.4659 17.5191 29.3431C17.4884 29.2678 17.4539 29.1911 17.4268 29.1143C17.3768 28.9884 17.257 28.9564 16.914 28.98C16.791 28.9879 16.668 28.9989 16.545 29.0052C16.3623 29.0163 16.2237 28.9658 16.189 28.8737C16.1697 28.823 16.1467 28.7724 16.1275 28.7217C16.3138 28.7091 16.3101 28.7076 16.6361 28.5211C16.7732 28.4425 16.7732 28.4425 16.5074 28.3646C16.4063 28.3356 16.3089 28.3035 16.2004 28.2761C16.1517 28.2638 16.0882 28.2563 16.036 28.2594C15.7266 28.2784 15.421 28.3005 15.1153 28.3225C14.6232 28.3571 14.6232 28.3571 14.1214 28.2013C14.0802 28.1891 14.0165 28.1662 14.0238 28.1539C14.0641 28.0969 14.1645 28.0722 14.2913 28.0658C14.4777 28.0563 14.6604 28.0406 14.843 28.028C14.966 28.0201 15.089 28.0107 15.2121 28.0028C15.327 27.9442 15.4457 27.8871 15.5532 27.827C15.7237 27.7346 15.7236 27.7315 15.4878 27.6674C15.338 27.6246 15.1771 27.5865 15.0237 27.5468C14.841 27.5594 14.6547 27.5736 14.472 27.5846C14.2409 27.5989 14.1472 27.5698 14.0863 27.4701C14.033 27.3826 14.0955 27.3072 14.2744 27.2885C14.457 27.2697 14.6285 27.2571 14.7208 27.1786C14.8094 27.1032 14.9658 27.0737 15.1597 27.0672C15.2827 27.0624 15.4057 27.0515 15.5287 27.042C15.689 27.0295 15.7739 26.9509 15.7392 26.8634C15.7199 26.8066 15.682 26.7591 15.5363 26.747C14.8903 26.6944 14.8828 26.6959 14.5607 26.592C14.5307 26.5828 14.508 26.5552 14.5191 26.5414C14.5374 26.5183 14.5781 26.4844 14.6228 26.4798C15.0514 26.4452 15.48 26.4137 15.9088 26.39C16.0505 26.382 16.1548 26.3711 16.2026 26.3141C16.2688 26.2357 16.2381 26.1635 16.1069 26.11C16.0656 26.0932 15.9982 26.0718 15.9534 26.0734C15.4613 26.1019 14.973 26.1381 14.4809 26.1666C14.4361 26.1697 14.3538 26.1438 14.3349 26.1238C14.2971 26.087 14.3525 26.0378 14.4828 26.0206C14.6542 25.9973 14.8295 25.9954 14.9442 25.9184C15.1033 25.8091 15.2998 25.7089 15.4776 25.6041C15.5072 25.5856 15.5554 25.5502 15.5441 25.5471C15.4504 25.5135 15.3419 25.4876 15.2445 25.4555C15.0797 25.402 15.0788 25.3267 15.1152 25.2544C15.1443 25.196 15.256 25.1728 15.394 25.1725C15.4537 25.1724 15.5283 25.1723 15.5766 25.1584C15.7031 25.1244 15.7436 25.0813 15.6798 25.0491C15.6423 25.0308 15.5748 25.0048 15.5301 25.0079C14.7323 25.06 13.9308 25.1105 13.1369 25.1749C12.9021 25.1938 12.7932 25.1356 12.651 25.0943C12.5424 25.0623 12.4414 25.0501 12.3074 25.0734C12.1808 25.0951 12.0576 25.0831 11.9786 25.0325C11.9147 24.9912 12.0262 24.9556 12.3279 24.9152C12.3838 24.9074 12.4471 24.9026 12.4879 24.8872C12.9187 24.7205 12.9187 24.719 13.2169 24.697C13.5076 24.6765 13.5077 24.675 13.6595 24.5856C13.7299 24.544 13.8077 24.5024 13.8743 24.4592C13.9002 24.4423 13.9447 24.4115 13.9297 24.4023C13.847 24.3548 13.7349 24.3443 13.6045 24.3552C13.3138 24.3819 12.9703 24.361 12.8191 24.5072C12.7601 24.5626 12.667 24.5781 12.5328 24.5876C11.1834 24.679 9.83399 24.7766 8.48077 24.865C8.26083 24.8792 8.16085 24.9362 8.07581 24.9994C8.00183 25.0517 7.91992 25.0672 7.77826 25.0767C7.63661 25.0861 7.52468 25.091 7.44199 25.0404C7.39312 25.0098 7.43364 24.9667 7.54504 24.9235C7.70472 24.8617 7.67392 24.785 7.62081 24.7128C7.58292 24.6653 7.46686 24.6317 7.34379 24.635C7.16105 24.6414 6.98596 24.6586 6.83225 24.5975C6.74228 24.5623 6.63004 24.5379 6.52894 24.5073C6.33417 24.4447 6.13938 24.3805 5.86754 24.4225C5.68082 24.4074 5.54957 24.3523 5.39981 24.3096C5.14899 24.2393 5.12648 24.2286 5.30464 24.153C5.50507 24.0682 5.347 23.9578 5.45791 23.8747C5.57621 23.7854 5.73947 23.7067 5.88396 23.6235C5.921 23.602 5.95435 23.5819 5.99139 23.5604C5.90521 23.5298 5.82641 23.4915 5.72542 23.4702C5.59451 23.4428 5.52694 23.4091 5.53324 23.3138C5.50696 23.3 5.51851 23.3353 5.54846 23.3445C5.58215 23.3537 5.6642 23.3458 5.7051 23.335C5.80921 23.3056 5.86092 23.2671 5.83441 23.2349C5.81928 23.2181 5.74819 23.1967 5.70342 23.1967C5.62135 23.1969 5.55088 23.2308 5.52951 23.3138C5.11243 23.3775 4.67997 23.409 4.2475 23.4343C4.20277 23.4375 4.14647 23.4069 4.09405 23.3916C3.9218 23.3396 3.9218 23.3412 3.41796 23.3267C3.36571 23.3252 3.2946 23.3039 3.26822 23.2824C3.15889 23.1889 3.1614 23.0859 3.10795 22.9862C3.20417 22.9215 3.30032 22.8583 3.40028 22.7952C3.60019 22.6673 3.86004 22.5547 4.01503 22.4146C3.98053 22.3394 3.93484 22.2642 4.09825 22.2025C4.56366 22.1248 4.55995 22.1248 4.6859 22.0509C5.04524 21.8413 5.40081 21.6302 5.77511 21.4237C5.87518 21.3697 5.87484 21.3406 5.69549 21.3178C5.63945 21.3118 5.57966 21.3103 5.52001 21.3135C5.3336 21.3246 5.1474 21.3526 4.96452 21.3467C4.78166 21.3425 4.64653 21.2751 4.49679 21.2339C4.34331 21.1911 4.18981 21.1468 4.03631 21.1025C3.86102 21.1075 3.68623 21.1508 3.51004 21.0819C3.37508 21.0284 3.20674 20.9903 3.05324 20.946C3.16747 20.829 3.3828 20.7396 3.54943 20.6363C3.70125 20.5424 3.70492 20.5439 4.11442 20.471C4.30801 20.4368 4.37305 20.2631 4.20828 20.2127C4.00981 20.1516 3.80024 20.0951 3.59806 20.0371C3.42278 20.042 3.24424 20.0838 3.07552 20.015C2.9443 19.963 2.79461 19.9279 2.57847 19.9482C2.21327 19.9826 1.84041 20.0002 1.47141 20.0285C1.34467 20.0379 1.20652 20.032 1.14992 19.9799C1.11217 19.9431 1.21975 19.8922 1.34273 19.8812C1.52908 19.8655 1.69672 19.8468 1.78906 19.7698C1.87766 19.6929 2.04152 19.6695 2.23538 19.6584C2.28758 19.6553 2.34709 19.6367 2.37298 19.6183C2.5062 19.5289 2.65451 19.4519 2.94181 19.4544C3.06082 19.4235 3.12374 19.385 3.08598 19.3482C3.06335 19.3282 2.98473 19.3023 2.94 19.3054C2.63053 19.3213 2.32108 19.3372 2.01922 19.3654C1.87761 19.3779 1.76939 19.3812 1.67929 19.3352C1.6155 19.3046 1.64856 19.2631 1.76741 19.2183C1.8714 19.1797 1.90074 19.1351 1.89264 19.0829C1.87251 18.9616 1.76013 18.9264 1.40207 18.9347C1.14473 18.9413 1.08106 18.9215 1.02383 18.8171C1.0086 18.7925 0.97095 18.7588 0.996859 18.7419C1.15601 18.6371 1.25891 18.5079 1.5605 18.4582C1.67966 18.4396 1.80645 18.4393 1.88058 18.3993C1.95471 18.3592 2.02134 18.313 2.09921 18.2744C2.19565 18.2282 2.26222 18.1851 2.21709 18.156C2.14184 18.1039 2.02244 18.0994 1.88463 18.1181C1.76543 18.1337 1.63861 18.1354 1.51561 18.1449C1.2957 18.1622 1.11618 18.1225 1.08924 18.055C1.01618 17.8769 0.939396 17.7003 0.873804 17.5222C0.866081 17.5007 0.884347 17.4731 0.913968 17.4546C1.01764 17.3899 1.12886 17.3282 1.23629 17.265C1.36225 17.1926 1.56391 17.2061 1.73536 17.192C1.97762 17.1716 1.97755 17.1731 2.30033 17.0251C2.42647 16.9665 2.64687 16.9891 2.77681 16.9367C2.81764 16.9197 2.88073 16.8919 2.86935 16.8766C2.85418 16.8566 2.77942 16.8414 2.72335 16.8323C2.67101 16.8232 2.60754 16.8187 2.55164 16.8234C1.87318 16.8691 1.19852 16.9179 0.520043 16.9621C0.404484 16.97 0.277223 16.9364 0.235605 16.8888C0.194025 16.8444 0.204526 16.7906 0.196447 16.7399C0.303872 16.6767 0.426229 16.6181 0.518675 16.5504C0.588923 16.498 0.670733 16.4748 0.812464 16.4715C0.998946 16.4666 1.18155 16.4478 1.3903 16.4336C1.77557 16.2086 2.15322 15.9729 2.56833 15.7479C2.73511 15.657 2.69302 15.5649 2.72541 15.468C2.75791 15.3788 3.00802 15.3923 3.17559 15.3658C3.30963 15.3441 3.35374 15.2949 3.3011 15.2611C3.27101 15.2412 3.20361 15.2183 3.15138 15.2184C3.02827 15.2186 2.90533 15.2326 2.78231 15.2405C2.65928 15.2484 2.51747 15.2441 2.41705 15.2704C2.32035 15.2951 2.25753 15.3475 2.19465 15.3921C2.12436 15.4414 2.03137 15.4585 1.88964 15.4618C1.70687 15.4652 1.52424 15.4793 1.34156 15.4904C1.13937 15.4308 0.929698 15.3728 0.734932 15.3102C0.697475 15.2979 0.689543 15.2626 0.692994 15.2396C0.699726 15.1796 0.64333 15.1429 0.51986 15.1139C0.4151 15.0895 0.328855 15.0543 0.231482 15.0237C0.305592 14.9821 0.387211 14.942 0.446361 14.8974C0.575796 14.8034 0.739144 14.7356 1.02272 14.7382C1.13391 14.678 1.22253 14.6041 1.36752 14.5624C1.50507 14.5222 1.74061 14.5618 1.84396 14.4709C1.89565 14.4263 1.97342 14.3755 2.07393 14.3568C2.234 14.3274 2.4431 14.3424 2.53532 14.2562C2.59069 14.2069 2.67219 14.1622 2.78023 14.1498C2.90318 14.1357 3.02995 14.1324 3.11913 14.1031C3.16745 14.0876 3.21939 14.063 3.21912 14.0415C3.21896 14.0276 3.14414 14.0062 3.09179 13.9971C3.04316 13.9864 2.97957 13.9789 2.92365 13.982C2.73723 13.9916 2.55463 14.0088 2.3682 14.0183C2.31601 14.0215 2.25621 14.0109 2.20013 14.0017C2.03568 13.9774 2.04648 13.9467 2.17638 13.8912C2.3063 13.8372 2.39878 13.7679 2.5062 13.7047C2.62546 13.6937 2.77472 13.6981 2.85644 13.6687C2.9939 13.6209 3.09003 13.5516 3.20123 13.4915C3.32423 13.482 3.45103 13.4788 3.56648 13.4617C3.6149 13.4554 3.63689 13.4216 3.67769 13.4015C3.75183 13.363 3.81464 13.3076 3.91514 13.289C4.07896 13.261 4.28054 13.2714 4.37652 13.1868C4.43188 13.1375 4.51702 13.0851 4.62144 13.0819C4.91236 13.0752 5.03445 12.9905 5.18271 12.9104C5.2939 12.8503 5.53305 12.8806 5.65544 12.8204C5.73705 12.7819 5.7962 12.7342 5.87782 12.6971C5.91121 12.6817 5.98198 12.6739 6.03788 12.6692C6.34353 12.6456 6.65296 12.6282 6.95858 12.6031C7.00703 12.5984 7.05155 12.5753 7.08863 12.5568C7.16649 12.5167 7.21427 12.4613 7.31095 12.435C7.40763 12.4087 7.54565 12.4085 7.66494 12.4006C8.04893 12.3769 8.07888 12.383 8.25263 12.2521C8.39311 12.1458 8.74103 12.2205 8.85526 12.1036C8.92159 12.0358 9.04398 11.9803 9.264 11.9723C9.57352 11.961 9.87908 11.9313 10.1885 11.9107C10.4643 11.8918 10.4606 11.8918 10.7573 11.7484C10.8909 11.6837 11.0887 11.6926 11.2639 11.68C11.4503 11.6673 11.6217 11.6486 11.7103 11.5717C11.7989 11.4962 11.9628 11.4713 12.1529 11.4603C12.3281 11.4492 12.526 11.4565 12.6633 11.3949C12.9972 11.2468 12.9935 11.2452 13.2283 11.2295C13.5974 11.2043 13.9664 11.179 14.3354 11.1523C14.5815 11.1349 14.8388 11.1314 15.0697 11.0972C15.2373 11.0724 15.3109 10.9862 15.4183 10.9261C15.724 10.9025 16.0296 10.8789 16.3353 10.8569C16.7639 10.8254 17.1963 10.797 17.6288 10.7671C17.8146 10.7084 17.8392 10.5793 18.1525 10.5726C18.339 10.5692 18.5215 10.5489 18.7079 10.5363C19.0173 10.5143 19.3229 10.4861 19.6324 10.4748C19.8674 10.4667 19.9073 10.3836 20.0298 10.3312C20.0706 10.3127 20.1076 10.2865 20.1561 10.2818C20.6406 10.238 21.1403 10.2279 21.6134 10.1641C21.6618 10.1578 21.7062 10.1255 21.7171 10.1024C21.7244 10.0901 21.6607 10.0672 21.6195 10.0565C21.5709 10.0443 21.5073 10.0321 21.4551 10.0353C19.9156 10.1409 18.3761 10.2481 16.8366 10.3537C16.6204 10.3694 16.6204 10.3679 16.0964 10.5378C16.0518 10.5517 15.9997 10.5671 15.9438 10.5718C15.6978 10.5907 15.4479 10.6019 15.2057 10.6253C15.0082 10.6441 14.8439 10.626 14.7015 10.5709C14.6002 10.5311 14.4956 10.519 14.3688 10.5223C14.2271 10.5272 14.134 10.5442 14.0525 10.5859C13.945 10.6429 13.8899 10.7167 13.6625 10.7325C12.615 10.8004 11.5675 10.8759 10.5237 10.9484C10.378 10.9272 10.3067 10.895 10.3435 10.8566C10.3656 10.8335 10.41 10.8027 10.4548 10.7995C10.8834 10.7665 11.3158 10.7381 11.7445 10.7066C11.8041 10.7019 11.8862 10.7048 11.9196 10.6894C12.0829 10.62 12.1413 10.5077 12.4509 10.4995C12.6299 10.4946 12.8124 10.4713 12.9838 10.4495C13.0322 10.4432 13.0766 10.4109 13.0875 10.3878C13.0911 10.3755 13.0311 10.3526 12.9862 10.3419C12.8215 10.2976 12.6319 10.3517 12.4674 10.3213C12.4113 10.3106 12.3327 10.2954 12.3213 10.277C12.3136 10.2601 12.3767 10.2323 12.4213 10.2154C12.4621 10.1999 12.5179 10.186 12.5738 10.1813C13.0658 10.1451 13.5579 10.1074 14.05 10.0789C14.2514 10.0678 14.3926 10.0291 14.4813 9.95829C14.5478 9.90594 14.6296 9.87815 14.7563 9.87025C15.6174 9.81191 16.4784 9.74742 17.3433 9.69369C17.5596 9.68102 17.6709 9.63013 17.7597 9.56392C17.8299 9.51156 17.9118 9.49298 18.0497 9.48352C19.2836 9.40149 20.5099 9.31026 21.7438 9.2313C21.9712 9.21708 22.0376 9.1509 22.1526 9.09385C22.1934 9.07381 22.2191 9.04918 22.2712 9.0368C22.3233 9.02442 22.3905 9.02583 22.4539 9.02264C23.438 8.95487 24.4221 8.88251 25.41 8.81934C25.6411 8.80511 25.6849 8.72821 25.8036 8.67423C25.8445 8.65726 25.8815 8.62955 25.9299 8.62485C26.668 8.57134 27.406 8.52089 28.1441 8.46891C28.6361 8.43426 29.1282 8.3996 29.6202 8.36648C29.8626 8.3507 29.8625 8.34916 30.1891 8.20264C30.2262 8.18567 30.2782 8.16561 30.3267 8.16091C31.7431 8.06013 33.1559 7.96398 34.5724 7.86473C34.6917 7.85684 34.7771 7.82134 34.8361 7.769C34.8952 7.71666 34.9806 7.68118 35.0962 7.6733C36.2033 7.59456 37.3104 7.51736 38.4213 7.44322C38.6226 7.43058 38.7639 7.39346 38.8526 7.32417C38.9191 7.27182 39.0008 7.24404 39.1276 7.23613C40.2347 7.16047 41.3418 7.08018 42.4527 7.00758C42.6652 6.99338 42.769 6.94097 42.8727 6.87934C42.9098 6.85777 42.9392 6.82238 42.9839 6.81923C43.5356 6.77525 44.0834 6.72975 44.6389 6.69959C44.8701 6.6869 44.9477 6.62224 45.0402 6.56062C45.1142 6.51133 45.1998 6.49429 45.3415 6.4879C45.651 6.47353 45.9566 6.44689 46.2585 6.42025C46.3032 6.41556 46.3588 6.38167 46.3622 6.36015C46.3692 6.3202 46.283 6.29269 46.1411 6.27911C44.6649 6.38153 43.1851 6.48395 41.7089 6.58638C41.4666 6.6037 41.4666 6.60371 41.1401 6.75023C41.103 6.76719 41.0509 6.78726 40.9988 6.79196C39.5823 6.89121 38.1695 6.98891 36.753 7.08816C36.6337 7.09605 36.5484 7.13153 36.4893 7.18387C36.4302 7.23621 36.3448 7.27169 36.2292 7.27958C34.8761 7.37411 33.523 7.47018 32.1661 7.5601C31.9648 7.57274 31.8235 7.60831 31.7348 7.67913C31.6683 7.73148 31.5865 7.75929 31.4598 7.76719C30.1663 7.85547 28.8765 7.94835 27.5792 8.03356C27.4487 8.04147 27.3512 7.99709 27.3582 7.95559C27.3616 7.93408 27.4171 7.89866 27.4618 7.89551C28.1365 7.84364 28.8074 7.79023 29.486 7.75065C29.7134 7.73796 29.7797 7.67025 29.8946 7.6132C29.9317 7.59317 29.9612 7.567 30.0096 7.55616C30.0617 7.54378 30.1289 7.5452 30.1922 7.54202C31.7914 7.43016 33.3906 7.31677 34.9936 7.21106C35.2247 7.19529 35.2685 7.11993 35.3872 7.06595C35.428 7.04744 35.465 7.01973 35.5135 7.01657C36.0055 6.97885 36.4975 6.94572 36.9896 6.91261C37.8507 6.85273 38.7118 6.79285 39.5766 6.73297C39.8263 6.71564 39.8264 6.71563 40.1454 6.57066C40.1825 6.5537 40.2346 6.53211 40.283 6.52896C42.5606 6.36983 44.8382 6.2107 47.1159 6.05311C47.2351 6.04523 47.3205 6.00974 47.3796 5.9574C47.4386 5.9066 47.524 5.86958 47.6395 5.86016C50.7186 5.64588 53.7939 5.43158 56.873 5.22037C57.0743 5.20619 57.2156 5.17368 57.3043 5.10132C57.3671 5.04897 57.4525 5.02118 57.5793 5.01174C60.964 4.77695 64.3487 4.54216 67.7372 4.30583C70.0148 4.14824 72.2924 3.98758 74.5701 3.83306C74.7788 3.81887 74.8901 3.77104 74.9938 3.70787C75.0271 3.68631 75.0603 3.65091 75.105 3.64776C75.5933 3.6085 76.0816 3.57233 76.5699 3.53614C76.7233 3.57736 76.8768 3.61704 77.0302 3.65826C77.1452 3.59968 77.2564 3.53956 77.3714 3.48098C78.1095 3.43515 78.8362 3.36475 79.582 3.34195C79.6305 3.34033 79.6831 3.36943 79.7355 3.3847C80.0836 3.48089 80.2813 3.47286 80.4998 3.34343C80.5776 3.2972 80.6442 3.25561 80.7635 3.24772C81.1325 3.21942 81.5055 3.20034 81.8707 3.16744C82.0682 3.1502 82.2325 3.16527 82.3749 3.22033C82.4762 3.2601 82.5809 3.27683 82.7039 3.2674C83.3823 3.22013 84.057 3.1744 84.7354 3.12406C84.7839 3.1209 84.8283 3.0947 84.8654 3.0762C84.9432 3.03612 85.0099 2.99299 85.084 2.95138C85.185 2.97733 85.2972 2.99711 85.3797 3.03076C85.4847 3.07052 85.5816 3.07035 85.7233 3.05935C88.4295 2.86875 91.1396 2.68276 93.8458 2.49063C94.0769 2.47486 94.1785 2.53922 94.3356 2.57274C94.388 2.58494 94.4404 2.60021 94.4964 2.60318C94.5561 2.60615 94.6194 2.59683 94.679 2.59212C96.7106 2.45032 98.7422 2.31005 100.774 2.16825C101.042 2.14935 101.042 2.14935 101.443 2.24391C101.491 2.25612 101.555 2.26983 101.607 2.26513C102.531 2.20361 103.456 2.13749 104.377 2.07443C104.496 2.06655 104.597 2.09095 104.706 2.12609C104.919 2.19486 104.934 2.19484 105.089 2.09317C105.163 2.04541 105.241 2.01608 105.364 2.00203C105.498 1.98644 105.607 1.99088 105.712 2.01835C105.861 2.0565 105.97 2.12082 106.198 2.10353C107.182 2.02961 108.17 1.96798 109.15 1.89254C109.374 1.87525 109.494 1.92727 109.643 1.96542C109.696 1.97916 109.744 2.00058 109.8 2.0051C109.856 2.00961 109.923 1.99873 109.983 1.99401C111.213 1.90892 112.447 1.82536 113.673 1.73412C113.904 1.71682 114.006 1.7827 114.163 1.81622C114.216 1.82842 114.275 1.84984 114.324 1.84668C115.062 1.79777 115.804 1.74577 116.542 1.69379C116.807 1.6749 116.807 1.67643 117.211 1.76945C117.259 1.78165 117.323 1.79384 117.375 1.79067C118.236 1.73233 119.101 1.67245 119.962 1.61257C120.227 1.59368 120.227 1.59368 120.993 1.67224C121.049 1.67829 121.108 1.68741 121.164 1.68425C122.148 1.61647 123.136 1.55022 124.12 1.47784C124.318 1.46367 124.482 1.47567 124.625 1.53073C124.726 1.5705 124.831 1.58723 124.954 1.5778C126.061 1.5006 127.172 1.42646 128.275 1.34466C128.487 1.32892 128.626 1.36247 128.776 1.40676C128.824 1.42204 128.873 1.44347 128.929 1.44952C128.985 1.45557 129.048 1.44931 129.108 1.44459C130.215 1.36739 131.326 1.29479 132.429 1.21145C132.653 1.19416 132.773 1.24619 132.923 1.28434C132.975 1.29807 133.031 1.32563 133.076 1.32402C133.509 1.29715 133.941 1.27336 134.37 1.23421C134.601 1.2123 134.702 1.28278 134.859 1.31631C134.912 1.32697 134.972 1.34992 135.02 1.34676C135.945 1.28524 136.869 1.22065 137.79 1.15453C137.92 1.14508 138.018 1.15873 138.122 1.19849C138.261 1.25202 138.422 1.27325 138.623 1.256C139.052 1.21992 139.484 1.1946 139.917 1.16465C140.17 1.14731 140.17 1.14732 140.947 1.22586C141.003 1.23191 141.063 1.24102 141.119 1.23785C141.857 1.1874 142.599 1.13849 143.333 1.08344C143.531 1.06774 143.695 1.08127 143.837 1.13633C143.939 1.1761 144.039 1.19284 144.166 1.1834C144.845 1.13613 145.519 1.08886 146.198 1.0416C146.444 1.02427 146.69 0.994645 146.936 0.994217C147.115 0.995443 147.247 1.06896 147.407 1.10555C147.452 1.11622 147.527 1.10382 147.586 1.10064C148.448 1.04077 149.312 0.985487 150.17 0.917936C150.393 0.900648 150.513 0.952672 150.663 0.99082C150.715 1.00456 150.772 1.03211 150.816 1.0305C151.126 1.01306 151.432 0.989485 151.741 0.968975C152.11 0.943753 152.483 0.92467 152.848 0.890236C153.146 0.862064 153.26 0.995524 153.499 0.999718C153.681 1.00401 153.868 0.977573 154.05 0.964965C154.419 0.939743 154.788 0.911451 155.157 0.889301C155.288 0.881393 155.388 0.856627 155.429 0.801248C155.436 0.790481 155.372 0.767557 155.331 0.753801C154.833 0.597961 154.833 0.597953 154.333 0.63262C154.024 0.654666 153.718 0.676709 153.409 0.695683C153.357 0.698846 153.297 0.68666 153.245 0.677533C153.095 0.651675 153.11 0.620926 153.236 0.565399C153.362 0.509872 153.458 0.442112 153.566 0.378936C153.719 0.418614 153.869 0.458285 154.022 0.497963C154.145 0.490067 154.268 0.480649 154.391 0.472754C155.006 0.431741 155.621 0.389189 156.237 0.351249C156.281 0.348099 156.338 0.378732 156.39 0.394004C156.54 0.438298 156.675 0.476461 156.891 0.459186C157.442 0.413675 157.998 0.380447 158.55 0.341081C158.792 0.32376 158.792 0.323762 159.218 0.418274C159.267 0.428943 159.33 0.441124 159.383 0.437961C159.938 0.401661 160.49 0.362299 161.045 0.324462C161.164 0.316574 161.28 0.336344 161.367 0.380748C161.401 0.399125 161.393 0.429858 161.538 0.681565C161.981 0.885128 162.283 0.863105 162.589 0.844138C162.719 0.83623 162.835 0.82834 162.92 0.797465C162.965 0.780488 163.02 0.755806 163.02 0.735835C163.02 0.720472 162.938 0.696029 162.885 0.693047C162.516 0.662962 162.166 0.728105 161.804 0.74256C161.636 0.748997 161.49 0.695478 161.459 0.607961C161.451 0.583393 161.44 0.557297 161.428 0.532736C161.417 0.508175 161.409 0.482072 161.398 0.457511C161.252 0.450082 161.167 0.47788 161.104 0.530224C161.052 0.573331 160.978 0.622622 160.878 0.645842C160.777 0.670597 160.639 0.666236 160.516 0.674132C160.397 0.682021 160.266 0.702217 160.154 0.691657C160.042 0.679561 159.952 0.635157 159.847 0.607685C159.799 0.593942 159.739 0.574081 159.69 0.577238C159.262 0.6041 158.837 0.630946 158.412 0.665484C158.188 0.684308 158.075 0.619987 157.933 0.58029C157.821 0.549758 157.709 0.557625 157.691 0.628327C157.645 0.797404 157.817 0.867772 158.197 0.834848C158.51 0.806651 158.794 0.801564 159.041 0.905605C159.075 0.919373 159.154 0.92538 159.202 0.922223C159.508 0.903256 159.81 0.879685 160.115 0.860718C160.171 0.857548 160.231 0.86358 160.283 0.869634C161.045 0.951272 161.045 0.952817 161.303 0.933934C161.426 0.924503 161.545 0.916613 161.531 0.683115C161.763 0.43229 162.136 0.414746 162.497 0.377247C162.732 0.353794 162.833 0.421219 162.987 0.456288C163.039 0.468488 163.096 0.492967 163.144 0.48981C163.945 0.437719 164.743 0.382555 165.541 0.324325C165.675 0.314874 165.772 0.323925 165.877 0.363688C166.012 0.414152 166.162 0.446162 166.374 0.427357C166.799 0.389747 167.231 0.365956 167.664 0.334479C167.884 0.318734 167.884 0.318718 168.329 0.413197C168.378 0.423867 168.441 0.436048 168.493 0.432885C168.926 0.406016 169.354 0.373019 169.783 0.34462C169.902 0.336731 170.011 0.358049 170.105 0.399367C170.198 0.440686 170.311 0.461997 170.426 0.454115C170.859 0.42571 171.287 0.394248 171.716 0.36585C171.768 0.362687 171.832 0.37333 171.88 0.384C172.337 0.47846 172.337 0.478444 172.545 0.462718C172.851 0.439142 173.164 0.427856 173.466 0.396605C173.76 0.365368 173.914 0.4542 174.116 0.503011C174.668 0.466718 175.224 0.43657 175.772 0.392601C175.995 0.373777 176.115 0.424263 176.265 0.463948C176.317 0.477684 176.37 0.506786 176.418 0.505165C176.605 0.498696 176.788 0.481482 176.97 0.468874C177.153 0.456266 177.339 0.443653 177.522 0.431046C177.731 0.475235 177.871 0.579462 178.169 0.543609C178.348 0.52179 178.538 0.516851 178.72 0.504243C178.903 0.491635 179.089 0.479022 179.272 0.466414C179.395 0.458519 179.522 0.453683 179.641 0.439649C179.861 0.416222 179.97 0.491322 180.127 0.524848C180.18 0.535512 180.239 0.553832 180.288 0.550675C180.657 0.528525 181.03 0.509443 181.391 0.47348C181.671 0.445341 181.862 0.491105 182.06 0.555286C182.101 0.569042 182.172 0.576599 182.224 0.573436C182.657 0.546567 183.085 0.513551 183.514 0.485153C183.63 0.47727 183.742 0.501656 183.836 0.541438C183.933 0.582749 184.042 0.602548 184.161 0.59466C184.59 0.566261 185.022 0.534774 185.451 0.506376C185.503 0.503213 185.567 0.515395 185.615 0.527601C186.034 0.622126 186.034 0.623664 186.28 0.604801C186.34 0.600088 186.403 0.596893 186.463 0.592181C186.769 0.570141 187.086 0.56192 187.384 0.52453C187.726 0.482454 187.977 0.534256 188.22 0.621404C188.526 0.602437 188.839 0.591137 189.137 0.559892C189.361 0.536459 189.481 0.594628 189.631 0.632777C189.683 0.646512 189.74 0.674069 189.784 0.670918C190.217 0.64405 190.649 0.620262 191.074 0.581116C191.305 0.559206 191.407 0.628152 191.564 0.663214C191.616 0.675414 191.672 0.696836 191.721 0.69368C191.967 0.680962 192.213 0.662089 192.459 0.644762C192.746 0.624292 192.746 0.625826 193.128 0.71888C193.307 0.763121 193.486 0.727474 193.661 0.716415C193.848 0.703801 194.023 0.694282 194.173 0.757011C194.267 0.796793 194.379 0.82118 194.494 0.814834C194.74 0.800579 194.99 0.786325 195.232 0.76286C195.426 0.744087 195.594 0.756079 195.737 0.812676C195.838 0.852445 195.943 0.872247 196.066 0.862816C196.617 0.824986 197.173 0.785599 197.724 0.749305C197.773 0.746148 197.84 0.759863 197.885 0.773612C197.99 0.801084 198.091 0.831629 198.192 0.86218C198.434 0.847932 198.684 0.841368 198.923 0.819445C199.176 0.797497 199.408 0.789411 199.606 0.873564C199.648 0.891929 199.708 0.917928 199.756 0.916307C199.942 0.909838 200.125 0.894162 200.308 0.881554C200.49 0.868946 200.677 0.856334 200.859 0.843726C201.073 0.881764 201.208 0.992142 201.506 0.956289C201.685 0.93447 201.875 0.929531 202.058 0.916923C202.241 0.904315 202.427 0.890166 202.61 0.879094C202.669 0.875918 202.736 0.868115 202.789 0.87417C202.845 0.880218 202.893 0.901646 202.942 0.916925C203.092 0.961219 203.231 1.00554 203.443 0.97905C203.622 0.957231 203.812 0.95229 203.995 0.938146C204.244 0.920813 204.244 0.920816 204.66 1.01688C204.828 1.05654 205.018 1.00397 205.178 1.03749C205.287 1.06035 205.381 1.09859 205.485 1.12452C205.53 1.1352 205.601 1.13968 205.653 1.13652C205.899 1.12226 206.149 1.10801 206.391 1.08454C206.589 1.06576 206.753 1.08391 206.892 1.13898C206.993 1.17875 207.094 1.19548 207.221 1.18604C207.836 1.14196 208.451 1.104 209.062 1.05532C209.271 1.03805 209.439 1.06389 209.556 1.11899C209.755 1.2139 210.033 1.10127 210.239 1.17772C210.367 1.22513 210.494 1.28022 210.725 1.25677C211.15 1.21609 211.582 1.19382 212.011 1.16542C212.165 1.20663 212.318 1.24786 212.475 1.28907C212.721 1.27174 212.967 1.2544 213.213 1.23861C213.396 1.226 213.582 1.21185 213.765 1.20078C213.825 1.19761 213.888 1.19135 213.944 1.19893C214 1.20652 214.045 1.22642 214.098 1.24169C214.356 1.31652 214.356 1.31806 214.781 1.2866C214.963 1.27246 215.139 1.26293 215.292 1.32412C215.435 1.38072 215.603 1.39117 215.797 1.37394C216.162 1.34257 216.531 1.31889 216.904 1.29673C217.019 1.28885 217.128 1.31478 217.225 1.35456C217.372 1.41729 217.551 1.41084 217.733 1.39362C217.976 1.37169 218.214 1.34977 218.42 1.43545C218.461 1.45381 218.525 1.47981 218.57 1.47819C218.876 1.46537 219.185 1.45562 219.483 1.42591C219.782 1.39621 219.928 1.4912 220.134 1.53693C220.44 1.51643 220.749 1.49592 221.055 1.47542C221.114 1.4707 221.185 1.45676 221.237 1.46435C221.458 1.49623 221.586 1.61123 221.888 1.57537C222.063 1.5551 222.253 1.54863 222.436 1.5437C222.484 1.54208 222.548 1.56807 222.582 1.58799C222.601 1.59871 222.582 1.62793 222.56 1.64333C222.494 1.68646 222.412 1.72656 222.353 1.77122C222.345 1.77738 222.417 1.8049 222.458 1.81712C222.559 1.84459 222.675 1.83979 222.809 1.82727C222.924 1.81632 223.044 1.83762 223.127 1.88356C223.16 1.90194 223.149 1.93268 223.08 2.0342C223.081 2.10948 223.159 2.07554 223.184 2.02633C223.224 1.95559 223.146 1.93268 222.997 1.97135C222.893 1.99918 222.841 2.03922 222.868 2.07144C222.883 2.08831 222.954 2.1097 223.08 2.0342C223.407 1.94145 223.653 1.92413 223.899 1.90681C223.962 1.90209 224.037 1.88658 224.082 1.89572C224.243 1.93232 224.392 1.97662 224.55 2.01783C224.729 2.0083 224.896 1.98495 225.072 2.04456C225.32 2.12863 225.331 2.12093 225.569 2.10362C225.692 2.09419 225.815 2.08631 225.938 2.07841C226.061 2.07051 226.158 2.09338 226.267 2.12853C226.488 2.20035 226.507 2.20032 226.651 2.10174C226.736 2.04167 226.796 2.0216 226.904 2.04907C227.263 2.14216 227.267 2.1483 227.573 2.12011C227.826 2.09663 228.065 2.09007 228.253 2.17731C228.38 2.23854 228.421 2.22465 228.521 2.15995C228.787 1.98895 228.911 1.99181 229.416 2.11384C229.651 2.17181 229.893 2.1084 230.132 2.10031C230.333 2.09381 230.476 2.13043 230.492 2.22719C230.504 2.28709 230.538 2.33005 230.672 2.34979C230.725 2.35738 230.788 2.36802 230.84 2.36486C231.15 2.34589 231.455 2.32384 231.765 2.3018C231.921 2.29077 232.006 2.21843 231.975 2.12323C231.94 2.02189 232 1.98491 232.223 1.95533C232.357 1.93819 232.466 1.94109 232.574 1.96856C232.694 1.99908 232.661 2.02679 232.557 2.08227C232.308 2.2179 232.339 2.3008 232.661 2.39395C232.774 2.42602 232.863 2.45507 232.89 2.50265C232.905 2.5272 232.891 2.55949 232.925 2.57787C233.109 2.68048 233.363 2.74611 233.647 2.79478C233.919 2.75283 234.107 2.82162 234.316 2.87657C234.481 2.9193 234.674 2.8821 234.85 2.86643C235.047 2.84919 235.211 2.86119 235.354 2.91779C235.455 2.95755 235.56 2.9758 235.683 2.96791C235.929 2.95058 236.179 2.9394 236.421 2.9144C236.629 2.89252 236.787 2.92298 236.918 2.97499C237.083 3.04076 237.265 2.99589 237.437 3.00481C237.668 3.01516 237.786 3.15168 238.087 3.11429C238.266 3.09247 238.452 3.08447 238.639 3.078C238.687 3.07638 238.747 3.1024 238.789 3.12076C238.987 3.20491 239.219 3.1999 239.472 3.17488C239.647 3.15767 239.819 3.14202 239.991 3.2001C240.276 3.29793 240.59 3.38343 240.89 3.47355C240.932 3.54415 240.903 3.62714 241.116 3.66826C241.228 3.68957 241.333 3.72166 241.419 3.75685C241.524 3.79815 241.621 3.80874 241.755 3.79775C241.998 3.77582 242.251 3.77075 242.49 3.74269C242.71 3.71772 242.848 3.7682 242.983 3.81559C243.092 3.85381 243.193 3.87206 243.323 3.84418C243.457 3.81783 243.554 3.83455 243.663 3.87585C243.817 3.93242 243.828 3.92627 244.335 3.94229C244.387 3.94373 244.451 3.96665 244.481 3.98657C244.496 3.9973 244.463 4.0281 244.437 4.04351C244.404 4.06201 244.352 4.08359 244.303 4.08829C243.752 4.12919 243.196 4.16549 242.645 4.20639C242.589 4.2111 242.529 4.22197 242.488 4.2374C242.444 4.25438 242.388 4.27751 242.388 4.29901C242.389 4.31438 242.463 4.33269 242.516 4.34335C242.68 4.3784 242.874 4.3243 243.035 4.36396C243.143 4.38989 243.233 4.4266 243.342 4.45099C243.386 4.46167 243.457 4.46001 243.513 4.45684C243.7 4.44577 243.882 4.43009 244.069 4.42055C244.121 4.41892 244.181 4.43419 244.229 4.44639C244.589 4.53795 244.589 4.53794 244.898 4.51743C245.021 4.50954 245.151 4.48627 245.267 4.49528C245.379 4.50431 245.477 4.54562 245.578 4.57156C245.787 4.6265 245.986 4.67993 246.002 4.79973C246.01 4.84581 246.134 4.88553 246.257 4.88839C246.376 4.89126 246.503 4.87415 246.626 4.86472C246.917 4.84578 246.917 4.84578 247.295 4.93884C247.399 4.96477 247.511 4.96765 247.646 4.95205C247.698 4.94582 247.761 4.95186 247.817 4.95944C248 4.98217 248.001 5.01135 247.882 5.06687C247.715 5.14858 247.73 5.15624 248.201 5.22456C248.38 5.25036 248.519 5.29929 248.669 5.34205C248.912 5.41076 248.908 5.41075 248.749 5.50167C248.712 5.52171 248.679 5.54328 248.642 5.56485C248.534 5.62496 248.449 5.68963 248.225 5.69616C247.979 5.70273 247.733 5.72775 247.487 5.74508C247.249 5.76239 247.186 5.79936 247.209 5.90379C247.237 6.02972 247.286 6.04347 247.715 6.04118C247.838 6.04097 247.946 6.05307 248.04 6.09439C247.996 6.14363 247.914 6.18218 247.795 6.1916C247.489 6.21518 247.18 6.23569 246.874 6.2562C246.628 6.27352 246.382 6.29084 246.136 6.30817C245.983 6.31919 245.887 6.39925 245.929 6.48829C245.952 6.53895 245.972 6.58961 245.991 6.64028C246.033 6.7416 246.112 6.76759 246.362 6.76255C246.425 6.7609 246.485 6.74849 246.544 6.75146C246.787 6.7618 246.904 6.88911 247.195 6.86248C247.437 6.84055 247.691 6.83551 247.929 6.80744C248.149 6.78248 248.273 6.83758 248.426 6.8788C248.479 6.89253 248.535 6.92161 248.58 6.92C248.889 6.90256 249.199 6.88514 249.501 6.85542C249.642 6.84288 249.728 6.85195 249.84 6.88863C250.11 6.97726 250.118 6.97264 250.516 6.9443C250.807 6.92228 250.811 6.92535 251.185 7.01841C251.29 7.04435 251.402 7.04415 251.536 7.03163C251.711 7.01596 251.894 6.99106 252.077 7.01379C252.133 7.01984 252.204 7.03816 252.223 7.05809C252.234 7.0719 252.182 7.10579 252.138 7.11662C251.81 7.19708 251.426 7.18392 251.068 7.21681C250.956 7.22622 250.844 7.19722 250.75 7.1559C250.653 7.11459 250.548 7.09788 250.421 7.10578C250.175 7.12311 249.926 7.13429 249.683 7.15929C249.475 7.18117 249.329 7.14608 249.183 7.09871C249.134 7.08343 249.078 7.05433 249.029 7.05595C248.477 7.08764 247.922 7.11934 247.374 7.16331C247.154 7.18212 247.027 7.13319 246.877 7.09197C246.825 7.07823 246.772 7.04913 246.724 7.05075C246.537 7.05722 246.354 7.07443 246.168 7.08705C245.49 7.13431 244.815 7.18158 244.136 7.22577C244.092 7.22892 244.035 7.19675 243.983 7.18302C243.882 7.15554 243.777 7.1296 243.672 7.10366C243.486 7.11628 243.303 7.13196 243.117 7.1415C242.983 7.14788 242.864 7.1696 242.846 7.22801C242.835 7.26644 242.958 7.30156 243.089 7.29826C243.216 7.29496 243.342 7.27631 243.447 7.2961C243.967 7.39352 243.967 7.39506 244.291 7.37452C244.575 7.35559 244.544 7.34028 244.795 7.42434C244.904 7.46102 245.001 7.48237 245.124 7.47294C245.43 7.4509 245.739 7.42885 246.049 7.40988C246.097 7.40672 246.161 7.42198 246.21 7.43419C246.576 7.52573 246.576 7.5288 246.878 7.50523C247.273 7.47689 247.288 7.46918 247.554 7.56243C247.738 7.62664 247.905 7.5818 248.08 7.57842C248.283 7.63798 248.503 7.69138 248.687 7.75866C248.904 7.83817 249.132 7.82394 249.378 7.80046C249.56 7.78325 249.739 7.77679 249.889 7.83952C250.032 7.89765 250.204 7.90351 250.397 7.88781C250.573 7.87368 250.751 7.84417 250.935 7.87765C250.983 7.88679 251.058 7.90971 251.054 7.92354C251.051 7.94506 251.003 7.97587 250.954 7.98517C250.612 8.04876 250.235 8.04787 249.874 8.07769C249.825 8.08238 249.762 8.06559 249.713 8.05338C249.608 8.02591 249.507 7.99383 249.406 7.96481C249.223 7.97435 249.037 7.97774 248.858 7.99648C248.72 8.01055 248.615 8.00921 248.514 7.97251C248.421 7.93888 248.319 7.89756 248.207 7.887C248.095 7.87644 247.965 7.89972 247.842 7.90915C247.719 7.91858 247.577 7.91421 247.481 7.93896C247.384 7.96371 247.325 8.01759 247.262 8.06071C247.192 8.10846 247.095 8.124 246.953 8.12886C246.822 8.13369 246.718 8.12772 246.62 8.08487C246.579 8.06651 246.523 8.05278 246.467 8.04058C246.415 8.02992 246.355 8.01312 246.306 8.01627C245.751 8.05257 245.199 8.09196 244.644 8.12979C244.368 8.14871 244.372 8.14869 243.796 8.05904C243.744 8.05145 243.68 8.04081 243.628 8.04397C243.318 8.06295 243.013 8.08499 242.703 8.10704C242.39 8.12909 242.394 8.12601 241.859 8.03015C241.762 8.01188 241.621 8.03671 241.505 8.03384C241.262 8.02658 241.141 7.89774 240.858 7.92281C240.616 7.94474 240.362 7.94979 240.12 7.97786C239.9 8.00283 239.773 7.94928 239.623 7.90806C239.571 7.89433 239.514 7.86369 239.469 7.86684C238.914 7.90161 238.362 7.94097 237.624 7.94687C237.441 7.94718 237.523 7.97931 237.643 7.98985C237.815 8.00646 237.87 7.9741 237.776 7.91281C237.709 7.86991 237.611 7.84855 237.533 7.85944C237.492 7.86566 237.44 7.89495 237.624 7.94687C237.818 8.00491 237.808 8.03718 237.841 8.05556C237.924 8.09997 238.04 8.11821 238.159 8.11185C238.346 8.10078 238.528 8.0851 238.715 8.07556C238.767 8.07239 238.83 8.08304 238.879 8.09524C239.291 8.18978 239.294 8.19593 239.731 8.1583C239.868 8.1473 239.969 8.14713 240.078 8.17613C240.227 8.21581 240.336 8.28321 240.564 8.26131C240.866 8.2316 241.175 8.21417 241.484 8.19674C241.533 8.19358 241.585 8.22114 241.642 8.23333C241.795 8.26994 241.908 8.33888 242.135 8.30929C242.31 8.28594 242.5 8.27945 242.687 8.27452C242.735 8.2729 242.81 8.29736 242.833 8.31729C242.878 8.35255 242.822 8.39413 242.696 8.42354C242.644 8.43592 242.573 8.43297 242.513 8.43768C242.267 8.45501 242.021 8.47386 241.775 8.48812C241.645 8.49603 241.522 8.5193 241.508 8.57616C241.497 8.61459 241.632 8.64815 241.759 8.64486C241.945 8.63992 242.131 8.62731 242.31 8.60703C242.627 8.57268 242.903 8.58141 243.162 8.67775C243.345 8.74503 243.334 8.72048 243.53 8.91986C243.579 8.97048 243.725 8.97483 243.852 8.97154C244.158 8.96332 244.3 8.98613 244.274 9.0338C244.241 9.09223 244.133 9.11085 243.995 9.11877C243.749 9.13149 243.503 9.1519 243.257 9.16922C243.198 9.17394 243.131 9.18326 243.075 9.18029C243.019 9.17731 242.966 9.15897 242.917 9.14523C242.813 9.11622 242.723 9.07181 242.61 9.06125C242.498 9.05069 242.368 9.07397 242.245 9.0834C242.122 9.0913 241.992 9.11457 241.88 9.10401C241.768 9.09345 241.674 9.04753 241.573 9.02005C241.524 9.00631 241.464 8.98489 241.416 8.98651C241.17 8.99923 240.924 9.01964 240.678 9.03543C240.376 9.05593 240.376 9.05593 240.009 8.96131C239.904 8.93384 239.796 8.93557 239.658 8.9481C239.36 8.9732 239.356 8.96859 238.81 8.88043C238.758 8.8713 238.694 8.86066 238.642 8.86536C238.087 8.90166 237.535 8.94102 236.983 8.97885C236.51 9.01194 236.51 9.01195 236.251 9.16603C236.058 9.28006 236.054 9.28005 236.245 9.33196C236.399 9.37471 236.538 9.43745 236.706 9.4602C236.863 9.48144 237.056 9.41197 237.228 9.48235C237.315 9.51753 237.427 9.55575 237.535 9.56171C237.707 9.56909 237.889 9.52421 238.054 9.59152C238.137 9.62518 238.26 9.66031 238.365 9.66167C238.548 9.66442 238.734 9.63951 238.916 9.62843C238.972 9.62526 239.036 9.62516 239.088 9.63275C239.144 9.64187 239.193 9.66023 239.242 9.67551C239.391 9.72748 239.552 9.75178 239.746 9.72532C240.062 9.68175 240.346 9.70277 240.594 9.80066C240.627 9.81443 240.71 9.81584 240.762 9.8096C240.896 9.794 241.011 9.79226 241.112 9.82128C241.154 9.83349 241.214 9.85489 241.206 9.86873C241.195 9.89179 241.151 9.9226 241.103 9.93037C240.753 9.98321 240.376 9.99002 240.014 10.0183C239.966 10.0215 239.906 10.0016 239.857 9.98783C239.752 9.96036 239.662 9.91444 239.55 9.90388C239.438 9.89332 239.308 9.91352 239.185 9.92141C239.062 9.92931 238.932 9.95258 238.82 9.94356C238.707 9.933 238.603 9.89477 238.513 9.86112C238.408 9.8229 238.307 9.81847 238.169 9.83408C237.99 9.85436 237.804 9.85775 237.621 9.86882C237.52 9.83981 237.419 9.80771 237.314 9.78024C237.265 9.76649 237.205 9.74971 237.153 9.75133C236.907 9.76405 236.661 9.78291 236.415 9.80023C236.169 9.81756 236.169 9.81758 235.75 9.72305C235.701 9.71238 235.638 9.7002 235.586 9.70336C235.276 9.72234 234.971 9.7459 234.661 9.76487C234.542 9.77276 234.433 9.75144 234.336 9.71013C234.242 9.66881 234.13 9.64596 234.014 9.65385C233.522 9.68696 233.03 9.71855 232.538 9.75781C232.341 9.77352 232.173 9.75999 232.038 9.70491C231.88 9.6422 231.705 9.65787 231.522 9.67048C231.109 9.70192 231.105 9.70038 230.839 9.62249C230.787 9.60722 230.734 9.57811 230.686 9.57973C230.257 9.60352 229.824 9.62579 229.4 9.6634C229.176 9.68376 229.056 9.6302 228.906 9.59051C228.854 9.57678 228.797 9.54768 228.753 9.55083C228.443 9.56827 228.134 9.58418 227.832 9.61543C227.53 9.64668 227.413 9.50401 227.185 9.50594C226.876 9.50801 226.57 9.54388 226.264 9.56592C226.018 9.58325 225.772 9.60057 225.526 9.61789C225.28 9.63522 225.034 9.64947 224.788 9.66987C224.658 9.68085 224.561 9.66719 224.452 9.62897C224.313 9.57851 224.149 9.53887 223.999 9.49304C223.771 9.42737 223.771 9.42736 223.495 9.44628C223.435 9.45099 223.372 9.45417 223.312 9.45888C222.861 9.49346 222.861 9.4904 222.285 9.39461C222.259 9.39005 222.192 9.40707 222.166 9.4194C222.088 9.45948 222.018 9.50261 221.948 9.54422C221.847 9.51981 221.723 9.5062 221.656 9.47098C221.464 9.37145 221.167 9.5087 220.972 9.41071C220.901 9.37397 220.777 9.34192 220.665 9.33289C220.55 9.32387 220.419 9.34561 220.3 9.35504C219.991 9.37862 219.991 9.37709 219.727 9.51428C219.594 9.58211 219.4 9.57015 219.225 9.58582C219.042 9.60303 218.867 9.61256 218.713 9.54983C218.574 9.49323 218.406 9.4797 218.209 9.49848C217.967 9.52195 217.717 9.5362 217.471 9.55045C217.419 9.55362 217.355 9.54605 217.303 9.53692C216.731 9.44727 216.731 9.44574 216.455 9.46619C216.332 9.47563 216.205 9.47891 216.086 9.49294C215.885 9.51787 215.731 9.48587 215.585 9.43697C215.537 9.42169 215.48 9.39261 215.432 9.39423C215.186 9.40234 214.943 9.41658 214.701 9.43083C214.515 9.44191 214.328 9.44838 214.149 9.4702C213.851 9.50605 213.704 9.40643 213.499 9.3607C213.193 9.3812 212.884 9.39557 212.578 9.42375C212.436 9.43629 212.343 9.43185 212.234 9.39517C212.096 9.34932 211.968 9.29731 211.745 9.32074C211.447 9.35198 211.133 9.36328 210.828 9.38225C210.622 9.33498 210.472 9.23844 210.177 9.27429C209.998 9.29611 209.808 9.30105 209.626 9.31366C209.38 9.33098 209.134 9.34678 208.888 9.36565C208.623 9.38454 208.627 9.37993 208.219 9.28999C207.983 9.23663 207.741 9.29696 207.503 9.3066C207.316 9.3146 207.224 9.38543 207.27 9.47599C207.316 9.56656 207.216 9.6374 207.044 9.64999C206.616 9.67993 206.183 9.71139 205.754 9.73826C205.702 9.74142 205.639 9.73078 205.59 9.72011C205.13 9.62412 205.13 9.62567 204.925 9.63985C204.619 9.66343 204.306 9.67625 204.004 9.70596C203.796 9.7263 203.642 9.69431 203.507 9.64231C203.402 9.60255 203.305 9.5935 203.171 9.60295C201.695 9.70845 200.219 9.80626 198.746 9.91483C198.526 9.93057 198.399 9.88624 198.249 9.84502C198.197 9.83129 198.148 9.80218 198.096 9.80227C197.973 9.80248 197.85 9.81653 197.727 9.82596C197.175 9.86379 196.623 9.90929 196.068 9.93791C195.833 9.95061 195.77 10.0214 195.67 10.08C195.593 10.1246 195.503 10.1432 195.365 10.1496C195.231 10.156 195.134 10.1485 195.029 10.1087C194.894 10.0567 194.741 10.0247 194.532 10.0466C194.29 10.0716 194.044 10.0828 193.794 10.1001C193.667 10.108 193.571 10.1358 193.53 10.1912C193.523 10.2004 193.602 10.2234 193.646 10.2371C193.796 10.2829 193.939 10.3365 194.107 10.3684C194.279 10.4004 194.465 10.3632 194.644 10.3536C194.707 10.3505 194.767 10.3412 194.827 10.3426C194.883 10.344 194.95 10.3516 194.991 10.3653C195.186 10.4341 195.392 10.4814 195.66 10.4395C195.891 10.459 196.012 10.5863 196.307 10.552C196.486 10.5317 196.672 10.5222 196.858 10.5142C196.907 10.5126 196.959 10.5401 197.012 10.5539C197.162 10.592 197.282 10.6533 197.505 10.6268C197.744 10.5987 197.997 10.5937 198.24 10.5717C198.374 10.5592 198.471 10.5698 198.576 10.6095C198.711 10.66 198.864 10.6981 199.073 10.6732C199.252 10.6514 199.442 10.6464 199.624 10.6323C199.863 10.615 199.863 10.6165 200.289 10.711C200.338 10.7217 200.402 10.7339 200.454 10.7307C200.763 10.7117 201.069 10.6882 201.378 10.6692C201.498 10.6613 201.614 10.6811 201.696 10.7255C201.73 10.7439 201.719 10.7746 201.731 10.8007C201.115 10.8433 200.5 10.8797 199.889 10.9314C199.658 10.9518 199.553 10.889 199.399 10.8539C199.347 10.8417 199.291 10.8157 199.242 10.8189C198.81 10.8457 198.381 10.8741 197.953 10.9087C197.818 10.9197 197.718 10.9137 197.616 10.8693C197.357 10.7515 197.045 10.8165 196.754 10.8339C196.53 10.8466 196.46 10.8944 196.487 10.9957C196.522 11.1155 196.657 11.1521 197 11.13C197.123 11.1221 197.246 11.1112 197.369 11.1048C197.489 11.0984 197.597 11.1182 197.695 11.1595C197.788 11.2009 197.9 11.2222 198.016 11.2158C198.262 11.2016 198.512 11.1873 198.75 11.1639C198.948 11.1451 199.112 11.1602 199.251 11.2168C199.405 11.2795 199.584 11.2653 199.763 11.2512C200.18 11.2197 200.184 11.2213 200.446 11.2976C200.498 11.3129 200.551 11.342 200.599 11.3404C201.028 11.3166 201.461 11.2959 201.882 11.2583C202.102 11.2395 202.229 11.2884 202.375 11.3281C202.427 11.3418 202.48 11.3725 202.528 11.3693C202.838 11.3519 203.147 11.3344 203.449 11.3047C203.591 11.2906 203.677 11.2997 203.793 11.3364C204.07 11.4265 204.077 11.4235 204.469 11.3936C204.588 11.3842 204.718 11.367 204.83 11.3791C204.943 11.3912 205.033 11.4356 205.137 11.4631C205.186 11.4753 205.246 11.4921 205.298 11.4889C205.544 11.4762 205.79 11.4574 206.036 11.44C206.267 11.4227 206.267 11.4243 206.701 11.5188C206.877 11.5584 207.06 11.5243 207.235 11.5117C207.425 11.4975 207.596 11.4972 207.743 11.5569C207.889 11.6166 208.064 11.6132 208.251 11.6006C208.426 11.588 208.604 11.5539 208.784 11.595C209.196 11.6896 209.196 11.6911 209.449 11.6722C209.818 11.6455 210.183 11.6203 210.556 11.5966C210.605 11.5934 210.668 11.6117 210.717 11.6239C210.822 11.6514 210.912 11.6973 211.024 11.7079C211.136 11.72 211.266 11.7013 211.386 11.6919C211.77 11.6621 211.796 11.6513 212.054 11.7522C212.272 11.8348 212.539 11.7145 212.741 11.8094C212.858 11.863 213.015 11.9057 213.231 11.8792C213.41 11.8574 213.596 11.8509 213.783 11.8383C214.077 11.8178 214.077 11.8194 214.451 11.9109C214.5 11.9231 214.564 11.9384 214.612 11.9352C214.858 11.9225 215.108 11.9113 215.346 11.8832C215.626 11.8505 215.806 11.9086 216.015 11.965C216.18 12.0093 216.373 11.9721 216.549 11.9564C216.739 11.9407 216.91 11.945 217.053 12.0047C217.203 12.0659 217.378 12.0579 217.564 12.0453C217.74 12.0342 217.918 11.9986 218.098 12.0413C218.483 12.1359 218.483 12.1359 218.763 12.1169C219.009 12.0996 219.255 12.0808 219.501 12.0681C219.549 12.0649 219.609 12.0848 219.658 12.0985C219.763 12.126 219.853 12.1719 219.965 12.1825C220.077 12.193 220.207 12.1728 220.33 12.1649C220.453 12.157 220.584 12.1338 220.696 12.1428C220.808 12.1518 220.913 12.19 221.003 12.2237C221.108 12.2635 221.205 12.2679 221.346 12.2523C221.525 12.232 221.712 12.2271 221.894 12.216C221.995 12.245 222.1 12.274 222.198 12.3061C222.299 12.3397 222.407 12.3365 222.545 12.3255C223.003 12.2878 223.007 12.2924 223.392 12.387C223.568 12.4297 223.751 12.3941 223.926 12.383C224.112 12.3704 224.288 12.3639 224.434 12.4251C224.576 12.4833 224.752 12.4906 224.938 12.4719C225.057 12.4594 225.184 12.4515 225.307 12.4467C225.363 12.445 225.43 12.4511 225.471 12.4633C225.67 12.5275 225.865 12.5855 226.137 12.5436C226.375 12.5554 226.496 12.6812 226.783 12.6561C227.026 12.6342 227.279 12.6291 227.518 12.6011C227.737 12.5761 227.895 12.6188 228.007 12.6724C228.21 12.7673 228.492 12.6378 228.694 12.7312C228.811 12.7847 228.96 12.8275 229.184 12.804C229.43 12.779 229.509 12.8111 229.581 12.9078C229.622 12.963 229.616 13.0076 229.542 13.0508C229.467 13.0955 229.385 13.0879 229.265 13.0374C229.127 12.9808 228.962 12.9703 228.765 12.983C228.571 12.9956 228.45 12.9159 228.29 12.8855C228.129 12.8535 227.939 12.9076 227.771 12.8664C227.374 12.7703 227.374 12.7703 227.106 12.7892C226.923 12.8018 226.733 12.8083 226.554 12.8301C226.342 12.8566 226.203 12.8092 226.057 12.7664C226.005 12.7512 225.952 12.7221 225.907 12.7237C225.479 12.7475 225.046 12.7697 224.621 12.8089C224.398 12.8293 224.278 12.7742 224.128 12.736C224.076 12.7223 224.019 12.6947 223.974 12.6979C223.605 12.72 223.24 12.7483 222.871 12.7751C222.801 12.8167 222.723 12.8567 222.656 12.9014C222.586 12.9476 222.489 12.9678 222.347 12.9665C222.112 12.9669 221.882 13.0318 221.646 12.9508C221.402 12.8683 221.384 12.8729 221.149 12.8933C220.851 12.9199 220.534 12.9143 220.254 12.9747C220.206 12.9856 220.154 13.0148 220.155 13.0363C220.151 13.0502 220.23 13.07 220.278 13.0822C220.443 13.1188 220.632 13.0647 220.797 13.1028C220.905 13.1272 220.996 13.1639 221.104 13.1899C221.149 13.2005 221.216 13.1989 221.276 13.1972C221.339 13.1956 221.399 13.1847 221.458 13.1862C221.514 13.1876 221.574 13.1967 221.619 13.2105C221.825 13.2685 222.042 13.3219 222.226 13.3907C222.406 13.458 222.573 13.4116 222.752 13.4082C223.47 13.5145 223.47 13.5161 223.95 13.4814C224.07 13.4735 224.193 13.4641 224.316 13.4654C224.368 13.4653 224.417 13.4929 224.469 13.5082C224.619 13.554 224.761 13.5952 224.97 13.5703C225.149 13.5485 225.339 13.5435 225.522 13.5294C225.768 13.5121 225.768 13.5121 226.187 13.6081C226.292 13.6325 226.403 13.6293 226.538 13.6167C226.653 13.6058 226.773 13.6286 226.855 13.673C226.889 13.6914 226.878 13.7222 226.89 13.7483C226.521 13.7735 226.148 13.791 225.79 13.8285C225.559 13.852 225.454 13.7861 225.301 13.751C225.248 13.7388 225.192 13.7128 225.143 13.716C224.778 13.7396 224.413 13.7664 224.048 13.7977C224.003 13.8009 223.947 13.8363 223.944 13.8578C223.937 13.8978 224.031 13.936 224.165 13.9343C224.344 13.9324 224.519 13.906 224.68 13.9687C224.815 14.0238 224.983 14.0481 225.181 14.0232C225.3 14.0091 225.427 14.0089 225.546 13.9964C225.863 13.959 226.15 13.9662 226.39 14.0702C226.573 14.0976 226.752 14.0711 226.927 14.057C227.058 14.046 227.184 14.035 227.278 14.0641C227.476 14.1252 227.671 14.1863 227.943 14.1443C228.238 14.1868 228.463 14.2771 228.71 14.3504C228.827 14.3855 228.916 14.4054 229.05 14.3821C229.106 14.3728 229.173 14.3726 229.233 14.3679C229.356 14.36 229.486 14.3368 229.598 14.3458C229.71 14.3563 229.804 14.4007 229.905 14.4282C229.954 14.442 230.01 14.4649 230.059 14.4633C230.245 14.4553 230.428 14.4396 230.61 14.427C230.793 14.4159 230.976 14.4049 231.158 14.3938C231.312 14.4335 231.469 14.4731 231.622 14.5128C231.868 14.4955 232.114 14.4782 232.357 14.4624C232.629 14.4435 232.629 14.445 233.022 14.5396C233.198 14.5823 233.384 14.5543 233.552 14.534C233.831 14.5013 234.018 14.5594 234.217 14.6205C234.258 14.6327 234.333 14.6402 234.381 14.634C234.575 14.6122 234.743 14.6288 234.885 14.6854C234.986 14.7251 235.087 14.7434 235.21 14.7355C235.639 14.7056 236.068 14.6741 236.496 14.6472C236.549 14.6441 236.609 14.6578 236.657 14.67C237.039 14.763 237.043 14.7676 237.322 14.7426C237.572 14.7206 237.803 14.711 238.002 14.7952C238.043 14.8135 238.107 14.8395 238.152 14.8379C238.457 14.822 238.767 14.8046 239.069 14.778C239.207 14.7654 239.304 14.7699 239.412 14.805C239.551 14.8493 239.675 14.9029 239.902 14.8825C240.532 14.8246 240.536 14.8338 241.283 14.9385C241.335 14.9461 241.406 14.9337 241.466 14.9274C241.592 14.9118 241.686 14.9332 241.798 14.9683C242.049 15.0478 242.057 15.0432 242.295 15.0258C242.478 15.0117 242.668 15.0083 242.847 14.9849C243.122 14.9507 243.306 15.0103 243.512 15.0668C243.677 15.111 243.866 15.0738 244.041 15.0597C244.232 15.044 244.403 15.0483 244.546 15.1064C244.643 15.1462 244.748 15.1675 244.871 15.1596C245.3 15.1313 245.728 15.0998 246.157 15.0714C246.209 15.0682 246.273 15.0804 246.321 15.0911C246.748 15.1856 246.748 15.1902 247.169 15.1541C247.303 15.1431 247.415 15.1399 247.516 15.172C247.614 15.2025 247.718 15.2315 247.82 15.2605C248.002 15.2495 248.189 15.2461 248.368 15.2273C248.505 15.2133 248.603 15.2192 248.711 15.2513C248.853 15.2925 248.974 15.3645 249.197 15.3288C249.313 15.3117 249.447 15.3161 249.562 15.3005C249.7 15.2803 249.794 15.2924 249.902 15.3322C250.037 15.3796 250.176 15.4285 250.392 15.4035C250.63 15.3755 250.884 15.3704 251.126 15.3485C251.26 15.336 251.354 15.3481 251.462 15.3879C251.597 15.4383 251.751 15.4703 251.959 15.45C252.384 15.4108 252.388 15.4185 252.803 15.5146C252.908 15.539 253.02 15.5357 253.154 15.5232C253.27 15.5122 253.389 15.5351 253.472 15.5795C253.551 15.6285 253.544 15.6592 253.552 15.6853ZM220.138 1.88721C220.015 1.89511 219.892 1.90454 219.711 1.77119C219.7 1.74817 219.707 1.72051 219.681 1.70058C219.621 1.6592 219.527 1.63018 219.415 1.62576C219.213 1.61997 218.972 1.67261 218.976 1.71255C218.98 1.74634 219.044 1.77542 219.167 1.80286C219.219 1.81352 219.261 1.83189 219.309 1.84409C219.452 1.87918 219.564 1.94813 219.769 1.91244C219.731 1.81726 219.75 1.86485 219.769 1.91244C219.751 1.97085 219.808 2.01224 219.942 2.0289C219.98 2.03345 220.035 2.03027 220.065 2.021C220.18 1.987 220.199 1.94089 220.111 1.81967C220.097 1.83967 220.108 1.87497 220.142 1.88413C220.176 1.89329 220.258 1.88548 220.298 1.87465C220.403 1.84528 220.454 1.80678 220.428 1.77456C220.413 1.75769 220.342 1.7363 220.297 1.73638C220.218 1.73652 220.148 1.77044 220.138 1.88721ZM250.522 19.6513C250.25 19.6809 249.936 19.6707 249.665 19.7311C249.616 19.742 249.568 19.7697 249.565 19.7912C249.561 19.805 249.636 19.8249 249.681 19.8356C249.782 19.86 249.894 19.8521 250.024 19.8442C250.222 19.8331 250.338 19.9036 250.492 19.9386C250.54 19.9493 250.604 19.9569 250.656 19.9537C250.958 19.9347 251.256 19.9143 251.558 19.8922C251.61 19.8875 251.666 19.8767 251.711 19.8628C251.86 19.818 251.844 19.7888 251.698 19.7552C251.538 19.7187 251.41 19.6574 251.245 19.6285C251.01 19.5874 250.772 19.6432 250.522 19.6513ZM229.349 20.8096C229.166 20.8222 228.987 20.8348 228.804 20.8474C228.745 20.8521 228.681 20.8537 228.625 20.86C228.51 20.8709 228.425 20.9034 228.369 20.9541C228.455 20.9939 228.56 21.0168 228.676 21.012C228.859 21.0025 229.037 20.9822 229.22 20.9773C229.418 20.9708 229.534 21.0397 229.688 21.0748C229.736 21.0854 229.796 21.0869 229.852 21.0883C230.128 21.094 230.295 21.0138 230.241 20.9017C230.203 20.8142 230.061 20.7623 229.889 20.7733C229.71 20.7844 229.528 20.797 229.349 20.8096ZM251.77 17.3784C251.815 17.3522 251.863 17.3337 251.885 17.3106C251.951 17.2321 251.924 17.1738 251.8 17.1126C251.65 17.0376 251.468 17.0886 251.3 17.0965C251.259 17.0981 251.215 17.1305 251.193 17.1505C251.178 17.1643 251.178 17.1936 251.201 17.2012C251.384 17.2623 251.579 17.3188 251.77 17.3784ZM219.351 12.8964C219.172 12.909 218.989 12.9185 218.81 12.9357C218.766 12.9404 218.725 12.9697 218.699 12.9897C218.651 13.0267 218.704 13.0773 218.857 13.0816C219.032 13.0874 219.215 13.061 219.397 13.0484C219.628 13.0326 219.766 12.9756 219.679 12.9265C219.597 12.8791 219.485 12.87 219.351 12.8964ZM22.9278 9.95438C23.0471 9.9465 23.1701 9.94013 23.2894 9.92917C23.4012 9.91822 23.4866 9.88427 23.542 9.83348C23.4482 9.7937 23.3435 9.77237 23.2279 9.77718C23.0452 9.78672 22.8663 9.79932 22.6874 9.81499C22.5756 9.8244 22.4678 9.85839 22.4424 9.91067C22.4167 9.95066 22.6669 9.97327 22.9278 9.95438ZM203.531 9.40413C203.579 9.41788 203.628 9.44545 203.676 9.44536C203.796 9.44516 203.919 9.43572 204.031 9.42016C204.079 9.41393 204.116 9.38622 204.138 9.36467C204.153 9.35082 204.149 9.32625 204.126 9.314C204.017 9.24044 203.585 9.26731 203.515 9.35193C203.508 9.36731 203.527 9.38724 203.531 9.40413ZM191.658 1.0118C191.669 1.03636 191.673 1.06093 191.688 1.08549C191.719 1.13153 191.801 1.16519 191.921 1.18803C192.014 1.14946 192.062 1.10636 192.057 1.06028C192.053 1.03571 192.042 1.01113 192.027 0.986574C191.996 0.940537 191.914 0.906893 191.794 0.884056C191.701 0.921089 191.657 0.964177 191.658 1.0118ZM260.436 21.0229C260.403 21.0429 260.37 21.063 260.333 21.0815C260.434 21.1258 260.527 21.1395 260.598 21.1148C260.643 21.0994 260.668 21.0763 260.702 21.0562C260.601 21.0119 260.511 20.9997 260.436 21.0229ZM258.118 21.2359C258.167 21.2496 258.212 21.268 258.265 21.2771C258.351 21.2923 258.429 21.2661 258.488 21.2106C258.439 21.1969 258.394 21.1785 258.342 21.1694C258.256 21.1542 258.178 21.1805 258.118 21.2359ZM259.585 20.9522C259.559 20.9891 259.612 21.0197 259.75 21.0456C259.784 21.0256 259.828 21.0071 259.85 20.9855C259.887 20.9501 259.823 20.918 259.689 20.8936C259.652 20.9121 259.618 20.9322 259.585 20.9522ZM251.689 19.3097C251.664 19.3466 251.716 19.3773 251.855 19.4032C251.888 19.3831 251.932 19.3646 251.955 19.3431C251.991 19.3077 251.928 19.2755 251.793 19.2512C251.756 19.2697 251.723 19.2897 251.689 19.3097ZM240.827 8.45751C240.794 8.47754 240.761 8.49757 240.723 8.51607C240.825 8.56045 240.918 8.57411 240.989 8.5494C241.033 8.53396 241.059 8.51087 241.093 8.49084C240.991 8.44646 240.902 8.43433 240.827 8.45751ZM230.479 2.70809C230.568 2.71869 230.643 2.69706 230.706 2.6401C230.657 2.62636 230.612 2.608 230.56 2.59887C230.474 2.58366 230.396 2.60992 230.337 2.66533C230.385 2.68061 230.434 2.69434 230.479 2.70809ZM225.016 2.35654C224.983 2.37657 224.95 2.3966 224.913 2.4151C225.014 2.45948 225.107 2.47314 225.178 2.44843C225.222 2.43299 225.248 2.4099 225.282 2.38987C225.18 2.3455 225.091 2.3349 225.016 2.35654ZM187.987 1.01664C187.953 1.03667 187.92 1.0567 187.883 1.0752C187.984 1.11958 188.077 1.13324 188.148 1.10854C188.193 1.09309 188.218 1.07 188.252 1.04997C188.151 1.0056 188.061 0.995002 187.987 1.01664ZM3.84338 13.836C3.79471 13.8223 3.74608 13.8086 3.70113 13.7933C3.59344 13.8349 3.56034 13.8734 3.62039 13.9025C3.65792 13.9209 3.71397 13.9315 3.76264 13.9453C3.87406 13.9036 3.89971 13.8667 3.84338 13.836Z" fill="#544A07"/>
</svg>
