<svg width="30" height="30" viewBox="0 0 30 30" fill="none" xmlns="http://www.w3.org/2000/svg">
<path fill-rule="evenodd" clip-rule="evenodd" d="M5.3976 3.73991C7.09187 2.36383 9.37143 1.5625 12.2663 1.5625C15.5746 1.5625 18.7374 3.1601 20.2773 5.81288L23.1301 4.94137C25.2625 4.28993 27.4618 5.73798 27.7061 7.95429L28.1983 12.421C28.4349 14.5672 26.7206 16.4277 24.5622 16.3672L22.1279 16.299C22.2465 17.9654 22.3259 20.1797 22.2353 21.4507C22.1469 22.6911 21.209 23.5833 20.1332 23.8603L16.4374 24.8116C15.8532 24.962 15.5152 25.5325 15.6427 26.0853L15.9203 27.2894C16.0366 27.7939 15.7219 28.2972 15.2174 28.4135C14.7128 28.5299 14.2095 28.2151 14.0932 27.7106L13.8156 26.5065C13.4548 24.9414 14.4221 23.3943 15.97 22.9958L19.6658 22.0445C20.104 21.9316 20.3438 21.6155 20.3651 21.3174C20.4497 20.1295 20.3674 17.8911 20.2441 16.2463L15.8936 16.1244C14.2594 16.0787 12.8705 14.926 12.5193 13.3363L3.79506 14.6743C4.10139 16.6766 4.80627 18.6138 5.80262 20.1578C6.86201 21.7995 7.54451 24.0732 6.61088 26.123L5.80667 27.8886C5.59205 28.3598 5.0361 28.5678 4.5649 28.3532C4.09371 28.1385 3.88572 27.5826 4.10034 27.1114L4.90455 25.3458C5.46159 24.1228 5.1177 22.5545 4.22717 21.1745C2.09875 17.8762 1.13659 13.069 2.15978 9.0306C2.67607 6.99287 3.70929 5.11116 5.3976 3.73991ZM12.1567 11.495C11.8805 9.75103 12.9296 8.05751 14.6316 7.53755L18.417 6.38117C17.1847 4.61037 14.8576 3.4375 12.2663 3.4375C9.72991 3.4375 7.88785 4.13286 6.5797 5.19534C5.2656 6.26265 4.4156 7.76138 3.97735 9.49111C3.71058 10.544 3.60063 11.6677 3.62825 12.8029L12.1567 11.495ZM23.6779 6.73456C24.6866 6.42643 25.7268 7.11136 25.8424 8.15969L26.3346 12.6264C26.4465 13.6415 25.6357 14.5215 24.6147 14.493L15.9461 14.2502C15.1606 14.2282 14.4949 13.6655 14.3423 12.8946L14.0202 11.2669C13.8526 10.4197 14.3535 9.58307 15.1794 9.33074L23.6779 6.73456Z" fill="white"/>
</svg>
