<svg width="270" height="30" viewBox="0 0 270 30" fill="none" xmlns="http://www.w3.org/2000/svg">
<path d="M253.552 15.6297C253.182 15.6549 252.81 15.6725 252.448 15.71C252.213 15.7334 252.112 15.666 251.955 15.6309C251.902 15.6187 251.846 15.5942 251.798 15.5974C251.432 15.6226 251.067 15.6509 250.702 15.6792C250.591 15.7393 250.521 15.8193 250.349 15.8488C250.182 15.8767 249.984 15.8771 249.798 15.8912C249.552 15.9086 249.306 15.9259 249.06 15.9417C248.937 15.9496 248.836 15.9789 248.796 16.0343C248.789 16.0436 248.871 16.0664 248.916 16.0802C249.066 16.126 249.212 16.178 249.376 16.2131C249.533 16.2466 249.727 16.1909 249.895 16.2337C250.273 16.3298 250.277 16.3283 250.564 16.3093C250.81 16.292 251.056 16.2731 251.302 16.2604C251.351 16.2573 251.407 16.2802 251.459 16.2924C251.616 16.3259 251.718 16.4026 251.949 16.373C252.124 16.3496 252.318 16.3447 252.501 16.3321C252.654 16.3764 252.796 16.4268 252.961 16.4619C253.114 16.4954 253.16 16.5214 253.078 16.5661C253.004 16.6078 252.9 16.6248 252.762 16.6282C252.638 16.6299 252.516 16.6439 252.393 16.6518C252.329 16.6565 252.27 16.6597 252.21 16.6644C251.975 16.6817 251.975 16.6817 251.545 16.5842C251.376 16.5461 251.187 16.6001 251.026 16.5636C250.917 16.5392 250.824 16.5025 250.719 16.4765C250.674 16.4658 250.603 16.4644 250.547 16.4676C250.361 16.4787 250.174 16.4867 249.996 16.507C249.869 16.521 249.795 16.5642 249.81 16.6072C249.814 16.624 249.904 16.6485 249.956 16.6499C250.076 16.6528 250.202 16.631 250.318 16.6416C250.43 16.6522 250.546 16.6827 250.629 16.7163C250.797 16.7867 250.987 16.7234 251.147 16.7416C251.316 16.7612 251.454 16.8225 251.615 16.8591C251.656 16.8682 251.735 16.8527 251.798 16.848C251.981 16.8369 252.163 16.8274 252.346 16.8163C252.5 16.8606 252.664 16.9002 252.803 16.9507C253.054 17.0424 253.323 17.0773 253.647 17.0322C253.83 17.0073 254.009 17.0162 254.155 17.0759C254.305 17.1371 254.476 17.1306 254.667 17.118C254.842 17.1054 255.02 17.0713 255.2 17.114C255.589 17.2086 255.593 17.2132 256.051 17.1755C256.189 17.1645 256.294 17.1613 256.399 17.1964C256.496 17.2285 256.601 17.256 256.702 17.2865C256.885 17.2755 257.071 17.2644 257.254 17.2518C257.488 17.2345 257.619 17.2557 257.676 17.3417C257.71 17.3939 257.726 17.4415 257.809 17.4767C257.906 17.5195 258.01 17.5178 258.152 17.5052C258.286 17.4942 258.383 17.4772 258.438 17.4218C258.46 17.3987 258.505 17.3771 258.546 17.3586C258.579 17.3447 258.631 17.3231 258.661 17.3262C258.717 17.3322 258.792 17.349 258.811 17.3689C258.996 17.5545 258.996 17.556 259.183 17.6095C259.389 17.669 259.602 17.7224 259.79 17.7897C259.958 17.8493 260.126 17.8229 260.309 17.8226C260.447 17.8224 260.537 17.8622 260.526 17.9021C260.519 17.9252 260.467 17.959 260.422 17.9622C260.057 17.9936 259.688 18.0203 259.319 18.0425C259.274 18.0456 259.218 18.0181 259.166 18.0043C259.061 17.9769 258.967 17.934 258.855 17.925C258.743 17.9159 258.613 17.9392 258.49 17.9471C258.367 17.955 258.236 17.9752 258.124 17.9631C258.012 17.951 257.922 17.9066 257.817 17.8776C257.768 17.8639 257.701 17.844 257.66 17.8487C257.388 17.8861 257.186 17.8357 256.991 17.7684C256.95 17.7547 256.879 17.7456 256.827 17.7488C256.395 17.7756 255.966 17.8071 255.533 17.837C255.358 17.8496 255.216 17.7961 255.177 17.7055C255.158 17.6549 255.12 17.6042 255.12 17.5535C255.118 17.4613 254.913 17.411 254.764 17.422C254.517 17.4378 254.268 17.4505 254.025 17.474C253.828 17.4928 253.66 17.4746 253.525 17.4196C253.367 17.3568 253.189 17.3694 253.01 17.3867C252.875 17.3992 252.839 17.4499 252.848 17.5774C252.856 17.6804 252.793 17.7127 252.551 17.7301C252.245 17.7521 251.936 17.7741 251.627 17.7916C251.578 17.7947 251.522 17.7687 251.473 17.755C251.368 17.7275 251.275 17.6831 251.163 17.6741C251.051 17.6635 250.92 17.6868 250.797 17.6962C250.674 17.7041 250.544 17.7259 250.432 17.7153C250.32 17.7047 250.226 17.6588 250.125 17.6298C250.076 17.6161 250.016 17.5962 249.968 17.5993C249.722 17.6121 249.476 17.6309 249.23 17.6483C248.954 17.6672 248.954 17.6672 248.561 17.5726C248.381 17.5299 248.203 17.564 248.028 17.5766C247.841 17.5892 247.666 17.5957 247.52 17.5345C247.422 17.4947 247.314 17.4703 247.198 17.4782C246.889 17.4972 246.583 17.5207 246.274 17.5397C246.221 17.5429 246.15 17.5353 246.109 17.5216C245.911 17.4574 245.716 17.407 245.44 17.4398C245.202 17.4678 244.945 17.4698 244.706 17.4963C244.576 17.5104 244.517 17.5597 244.543 17.598C244.558 17.618 244.637 17.6409 244.689 17.6408C244.809 17.6421 244.939 17.6188 245.051 17.6279C245.282 17.6459 245.4 17.7747 245.701 17.7389C245.88 17.7171 246.067 17.7091 246.253 17.7026C246.302 17.701 246.354 17.7301 246.407 17.7453C246.556 17.7866 246.688 17.8401 246.904 17.8121C247.082 17.7902 247.273 17.7838 247.455 17.7712C247.746 17.7507 247.746 17.7522 248.124 17.8453C248.304 17.8895 248.482 17.8539 248.658 17.8428C248.788 17.8349 248.911 17.8193 249.016 17.8407C249.176 17.8727 249.293 17.9462 249.491 17.9412C249.677 17.9363 249.86 17.9145 250.046 17.9065C250.162 17.9017 250.27 17.9261 250.364 17.9674C250.462 18.0087 250.566 18.0269 250.693 18.0175C250.876 18.0049 251.062 17.9892 251.248 17.9812C251.301 17.9796 251.361 17.9933 251.409 18.0055C251.514 18.033 251.615 18.0651 251.716 18.0941C251.899 18.0845 252.085 18.0812 252.264 18.0624C252.402 18.0483 252.499 18.0543 252.611 18.0848C252.754 18.1261 252.87 18.1996 253.101 18.1639C253.217 18.1468 253.351 18.1512 253.466 18.1356C253.608 18.1154 253.705 18.1229 253.806 18.1688C253.998 18.256 254.236 18.2572 254.482 18.2229C254.75 18.1856 254.952 18.2283 255.155 18.2955C255.368 18.3658 255.368 18.3643 255.534 18.5345C255.584 18.5836 255.722 18.6064 255.837 18.597C256.031 18.5813 256.199 18.5887 256.342 18.6468C256.492 18.7095 256.671 18.7015 256.853 18.6843C257.095 18.6609 257.338 18.6405 257.536 18.7292C257.634 18.7721 257.739 18.7826 257.869 18.7717C258.238 18.7434 258.611 18.7258 258.972 18.6914C259.192 18.6695 259.32 18.7185 259.469 18.7597C259.672 18.8162 259.892 18.8665 259.894 18.9879C259.894 19.0078 259.947 19.0308 259.992 19.0461C260.089 19.0782 260.194 19.1056 260.295 19.1362C260.445 19.182 260.591 19.2202 260.795 19.1952C260.974 19.1749 261.164 19.1685 261.347 19.1543C261.53 19.1402 261.698 19.1322 261.862 19.1903C262.053 19.256 262.256 19.3187 262.473 19.3675C262.626 19.4025 262.827 19.3423 262.992 19.3896C263.093 19.4186 263.19 19.4522 263.298 19.4766C263.343 19.4873 263.414 19.4795 263.474 19.4763C263.597 19.47 263.724 19.4652 263.843 19.4496C263.981 19.4324 264.085 19.4353 264.19 19.4705C264.288 19.5026 264.385 19.547 264.497 19.556C264.665 19.5695 264.851 19.5077 265.02 19.5781C265.106 19.6133 265.215 19.6469 265.327 19.6575C265.439 19.668 265.569 19.6448 265.688 19.6461C265.741 19.646 265.804 19.6705 265.834 19.6904C265.853 19.7011 265.827 19.7303 265.801 19.7458C265.768 19.7643 265.72 19.7889 265.671 19.7921C265.302 19.8204 264.933 19.8441 264.564 19.8708C264.344 19.8866 264.344 19.8866 263.899 19.7905C263.795 19.7677 263.679 19.7725 263.549 19.7835C263.373 19.7976 263.195 19.824 263.011 19.7967C262.771 19.6926 262.477 19.6839 262.164 19.7244C262.033 19.7415 261.914 19.7418 261.816 19.7127C261.611 19.6547 261.394 19.6013 261.21 19.5325C261.068 19.479 261 19.4745 260.942 19.5483C260.923 19.5714 260.905 19.596 260.909 19.6175C260.932 19.6943 260.974 19.7695 260.997 19.8463C261.005 19.8678 260.976 19.8924 260.957 19.9155C260.898 19.9801 260.82 19.9756 260.689 19.9221C260.557 19.8685 260.4 19.8335 260.192 19.8584C260.013 19.8803 259.819 19.8775 259.64 19.9009C259.364 19.9352 259.17 19.8863 258.971 19.8206C258.93 19.8069 258.859 19.7993 258.807 19.8025C258.251 19.8388 257.7 19.8797 257.144 19.916C257.025 19.9239 256.917 19.901 256.823 19.8597C256.725 19.8184 256.617 19.797 256.497 19.8049C256.005 19.8381 255.513 19.8681 255.021 19.9089C254.82 19.9262 254.659 19.9064 254.521 19.8529C254.416 19.8131 254.319 19.801 254.188 19.8059C254.046 19.8107 253.946 19.8263 253.876 19.8709C253.809 19.9141 253.858 19.9401 254.007 19.9736C254.168 20.0102 254.318 20.0576 254.472 20.1004C254.595 20.094 254.718 20.0815 254.837 20.0828C254.889 20.0827 254.938 20.1103 254.99 20.1256C255.14 20.1699 255.279 20.2142 255.491 20.1892C255.67 20.1674 255.86 20.1625 256.043 20.1483C256.296 20.131 256.296 20.131 256.708 20.2271C256.813 20.2515 256.924 20.2497 257.059 20.2357C257.174 20.2247 257.294 20.246 257.376 20.292C257.41 20.3103 257.399 20.3411 257.33 20.4426C257.331 20.5179 257.409 20.4839 257.434 20.4347C257.474 20.364 257.396 20.3411 257.247 20.3798C257.143 20.4076 257.091 20.4476 257.118 20.4798C257.133 20.4967 257.204 20.5181 257.33 20.4426C257.657 20.3499 257.907 20.3387 258.145 20.3137C258.287 20.2996 258.376 20.3056 258.489 20.3453C258.624 20.3927 258.759 20.4432 258.979 20.4182C259.217 20.3902 259.471 20.3866 259.713 20.3632C259.936 20.3413 260.053 20.4087 260.195 20.4484C260.367 20.4957 260.557 20.4416 260.714 20.469C260.878 20.4964 260.995 20.5637 261.185 20.5757C261.461 20.5337 261.637 20.6103 261.847 20.6606C262.011 20.6987 262.205 20.6646 262.38 20.6474C262.578 20.6286 262.742 20.6452 262.881 20.7003C263.038 20.763 263.213 20.7489 263.392 20.7347C263.81 20.7033 263.824 20.6986 264.068 20.7827C264.244 20.8439 264.412 20.8159 264.587 20.8079C264.74 20.8492 264.89 20.8934 265.051 20.93C265.092 20.9392 265.17 20.9237 265.234 20.919C265.416 20.9064 265.603 20.8937 265.785 20.8811C265.908 20.8732 266.039 20.85 266.151 20.859C266.263 20.8695 266.357 20.9139 266.458 20.943C266.559 20.972 266.664 21.001 266.761 21.0315C266.911 21.0774 267.053 21.1155 267.262 21.0921C267.441 21.0718 267.627 21.0654 267.813 21.0512C268.048 21.0339 268.041 21.0385 268.478 21.13C268.714 21.1802 268.956 21.1184 269.194 21.1118C269.314 21.1085 269.43 21.1252 269.512 21.1696C269.546 21.188 269.535 21.2188 269.547 21.2449C268.932 21.2874 268.313 21.3238 267.705 21.3756C267.471 21.396 267.347 21.3409 267.219 21.295C267.01 21.2216 266.735 21.3296 266.536 21.2347C266.416 21.1781 266.244 21.1461 266.039 21.1741C265.92 21.1897 265.793 21.1884 265.67 21.2024C265.357 21.2368 265.07 21.2388 264.818 21.1332C264.732 21.0965 264.609 21.0768 264.519 21.0416C264.414 21.0034 264.313 20.982 264.19 20.9899C263.635 21.0277 263.083 21.0656 262.531 21.1065C262.483 21.1096 262.434 21.1328 262.394 21.1497C262.29 21.1929 262.324 21.2267 262.492 21.254C262.548 21.2632 262.593 21.283 262.645 21.2983C262.747 21.3273 262.84 21.3733 262.952 21.3838C263.064 21.3944 263.195 21.3726 263.318 21.3648C263.441 21.3569 263.571 21.3336 263.683 21.3426C263.795 21.3532 263.889 21.3976 263.994 21.425C264.042 21.4388 264.102 21.4617 264.151 21.4601C264.397 21.4505 264.639 21.4331 264.885 21.4189C265.039 21.4601 265.17 21.5198 265.353 21.5333C265.469 21.5423 265.592 21.5252 265.711 21.5281C265.764 21.5295 265.831 21.5524 265.857 21.5724C265.872 21.5846 265.824 21.6154 265.787 21.6309C265.646 21.6895 265.452 21.6791 265.277 21.6978C265.087 21.7181 264.915 21.7123 264.769 21.6526C264.671 21.6128 264.563 21.5915 264.444 21.5994C264.134 21.6199 263.829 21.6435 263.519 21.6609C263.467 21.6641 263.403 21.6504 263.355 21.6397C262.962 21.5467 262.962 21.5436 262.686 21.564C262.28 21.5939 262.28 21.5939 262.006 21.513C261.954 21.4977 261.898 21.4686 261.853 21.4702C261.42 21.4956 260.992 21.5209 260.563 21.557C260.421 21.568 260.324 21.5681 260.219 21.5284C260.13 21.4947 260.025 21.4565 259.913 21.4475C259.797 21.4385 259.67 21.4617 259.547 21.4696C259.424 21.4775 259.294 21.4977 259.186 21.4856C259.073 21.4735 258.976 21.4307 258.879 21.4001C258.777 21.368 258.669 21.3697 258.531 21.3823C258.106 21.4183 258.103 21.4138 257.68 21.3192C257.631 21.3086 257.568 21.2964 257.516 21.2996C257.206 21.3185 256.901 21.3421 256.591 21.3611C256.472 21.369 256.356 21.3492 256.273 21.3048C256.239 21.2864 256.25 21.2557 256.227 21.1958C256.201 21.182 256.231 21.2065 256.239 21.2296C256.295 21.2264 256.362 21.2293 256.403 21.217C256.507 21.1876 256.559 21.1491 256.532 21.1169C256.517 21.1 256.446 21.0786 256.401 21.0787C256.319 21.0789 256.249 21.1128 256.227 21.1958C255.993 21.2469 255.743 21.2581 255.501 21.2831C255.359 21.2987 255.269 21.2912 255.157 21.2514C255.022 21.2025 254.884 21.1551 254.664 21.1801C254.425 21.2081 254.172 21.2132 253.926 21.2351C253.642 21.2602 253.518 21.1221 253.279 21.1256C253.033 21.1291 252.787 21.1557 252.541 21.1745C252.325 21.1903 252.325 21.1903 251.876 21.0912C251.711 21.0546 251.518 21.1087 251.357 21.0706C251.248 21.0462 251.155 21.0095 251.05 20.9835C251.005 20.9729 250.934 20.973 250.878 20.9762C250.569 20.9951 250.256 21.008 249.958 21.0423C249.619 21.0828 249.361 21.0402 249.117 20.95C248.811 20.9675 248.502 20.9772 248.2 21.0069C247.98 21.0288 247.853 20.9783 247.703 20.9371C247.65 20.9234 247.605 20.9004 247.549 20.8944C247.493 20.8883 247.426 20.9007 247.367 20.9054C247.121 20.9228 246.867 20.9309 246.629 20.959C246.334 20.9948 246.221 20.869 245.993 20.8541C245.841 20.9296 245.76 21.0327 245.458 21.0409C245.212 21.0474 244.966 21.0725 244.72 21.0898C244.597 21.0977 244.474 21.1071 244.351 21.115C244.153 21.1292 244.061 21.1893 244.103 21.2814C244.126 21.332 244.145 21.3827 244.165 21.4334C244.203 21.5239 244.111 21.6009 243.954 21.6119C243.522 21.6419 243.093 21.6733 242.661 21.7002C242.545 21.7081 242.433 21.6822 242.339 21.6408C242.241 21.5995 242.133 21.5813 242.014 21.5892C241.581 21.6191 241.153 21.6506 240.72 21.6775C240.672 21.6806 240.608 21.6654 240.56 21.6532C240.455 21.6257 240.354 21.5936 240.253 21.5646C240.006 21.5789 239.764 21.5885 239.522 21.6073C239.13 21.6357 239.13 21.6372 238.842 21.5532C238.79 21.5379 238.737 21.5088 238.689 21.5105C238.502 21.5169 238.32 21.5326 238.133 21.5468C237.585 21.5877 237.585 21.5877 237.424 21.5418C237.278 21.4991 237.147 21.4471 236.927 21.472C236.689 21.5001 236.435 21.5098 236.189 21.5256C236.006 21.5366 235.824 21.5492 235.641 21.5526C235.593 21.5543 235.54 21.5251 235.488 21.5099C235.338 21.4625 235.192 21.4244 234.987 21.4508C234.868 21.4664 234.741 21.4697 234.618 21.4776C234.297 21.4997 234.297 21.4996 233.77 21.4084C233.718 21.3993 233.654 21.3886 233.602 21.3933C233.17 21.4217 232.741 21.4532 232.309 21.4801C232.256 21.4832 232.193 21.4741 232.141 21.4665C231.55 21.3784 231.55 21.3784 230.924 21.4226C230.685 21.4383 230.678 21.4445 230.427 21.3635C230.314 21.3284 230.221 21.3116 230.091 21.3226C229.599 21.3603 229.103 21.3858 228.614 21.4296C228.395 21.4485 228.267 21.4026 228.117 21.3614C228.065 21.3476 228.009 21.317 227.964 21.3186C227.472 21.3487 226.98 21.3849 226.488 21.4149C226.443 21.418 226.387 21.3874 226.334 21.3737C226.233 21.3462 226.136 21.3049 226.024 21.2959C225.908 21.2868 225.781 21.3101 225.654 21.318C225.345 21.3385 225.345 21.337 224.986 21.247C224.937 21.2348 224.874 21.218 224.825 21.2211C224.333 21.2527 223.837 21.2797 223.349 21.3251C223.069 21.3502 222.879 21.3059 222.68 21.2418C222.639 21.228 222.568 21.222 222.516 21.2251C221.96 21.2614 221.409 21.3023 220.853 21.3386C220.738 21.3465 220.625 21.3206 220.532 21.2808C220.382 21.2181 220.206 21.2261 220.02 21.2402C219.591 21.2732 219.588 21.2717 219.333 21.1984C219.281 21.1831 219.236 21.1632 219.18 21.1557C219.127 21.1481 219.06 21.1528 219.004 21.156C218.758 21.1717 218.512 21.1891 218.266 21.2064C218.02 21.2237 217.77 21.2334 217.528 21.2599C217.23 21.2927 217.087 21.1931 216.877 21.1474C216.572 21.1679 216.259 21.1807 215.957 21.2135C215.726 21.2385 215.617 21.1711 215.463 21.136C215.411 21.1238 215.355 21.0978 215.306 21.1009C214.751 21.1357 214.195 21.1735 213.644 21.216C213.51 21.2254 213.42 21.2133 213.308 21.1766C213.057 21.0941 213.045 21.0972 212.628 21.1286C212.445 21.1428 212.27 21.1554 212.113 21.0926C211.974 21.036 211.806 21.0225 211.608 21.0413C211.366 21.0647 211.116 21.0775 210.87 21.0933C210.624 21.1106 210.378 21.1341 210.132 21.1422C209.935 21.1502 209.814 21.0782 209.657 21.0416C209.608 21.0309 209.541 21.0295 209.485 21.0327C209.239 21.0469 208.986 21.0581 208.747 21.0847C208.457 21.1174 208.295 21.0332 208.089 20.9844C208.045 20.9737 207.97 20.98 207.914 20.9847C207.482 21.0131 207.053 21.0446 206.621 21.0745C206.467 21.0333 206.31 20.9937 206.156 20.9524C205.91 20.9682 205.664 20.9855 205.418 21.0013C205.232 21.0139 205.042 21.0189 204.867 21.0422C204.64 21.0734 204.527 21.0013 204.373 20.9663C204.321 20.9541 204.265 20.9281 204.216 20.9312C203.907 20.9487 203.597 20.9676 203.292 20.9943C203.001 21.0209 202.884 20.8828 202.645 20.8848C202.399 20.8867 202.145 20.9072 201.907 20.9352C201.631 20.968 201.437 20.9191 201.238 20.8534C201.197 20.8397 201.126 20.8321 201.074 20.8353C200.764 20.8542 200.459 20.8778 200.149 20.8968C200.097 20.9 200.034 20.8924 199.981 20.8833C199.391 20.7936 199.391 20.7921 199.133 20.811C198.951 20.8236 198.764 20.8393 198.578 20.8473C198.526 20.8505 198.462 20.8367 198.413 20.8245C198.024 20.7315 198.024 20.73 197.745 20.7489C197.499 20.7662 197.253 20.7835 197.007 20.8009C196.853 20.7596 196.696 20.72 196.543 20.6788C196.237 20.6993 195.924 20.7152 195.622 20.7433C195.48 20.7559 195.387 20.7514 195.278 20.7132C195.143 20.6674 195.008 20.6138 194.785 20.6403C194.546 20.6684 194.293 20.6719 194.051 20.6954C193.76 20.7235 193.639 20.5839 193.404 20.5859C193.158 20.5878 192.904 20.6083 192.666 20.6363C192.39 20.6691 192.195 20.6203 191.997 20.5545C191.956 20.5408 191.885 20.5332 191.833 20.5364C191.154 20.5821 190.479 20.6278 189.801 20.6766C189.383 20.7065 189.383 20.7081 188.588 20.625C188.532 20.6189 188.472 20.6129 188.416 20.6161C188.17 20.6303 187.916 20.6415 187.678 20.668C187.387 20.7008 187.226 20.6181 187.02 20.5678C186.975 20.5571 186.904 20.5634 186.845 20.5665C186.658 20.5776 186.476 20.5918 186.289 20.6044C186.043 20.6217 185.797 20.639 185.551 20.6564C185.398 20.6167 185.241 20.5755 185.087 20.5358C184.781 20.5563 184.468 20.5676 184.166 20.6004C183.935 20.6254 183.826 20.561 183.673 20.5244C183.621 20.5122 183.564 20.4862 183.516 20.4878C182.96 20.5226 182.405 20.5589 181.853 20.6029C181.626 20.6217 181.521 20.5527 181.367 20.5177C181.315 20.507 181.255 20.4872 181.207 20.4903C180.838 20.5125 180.468 20.5392 180.099 20.566C179.891 20.5817 179.891 20.5817 179.434 20.4872C179.382 20.4766 179.322 20.4659 179.27 20.4691C178.1 20.5479 176.933 20.6314 175.762 20.7102C175.643 20.7181 175.535 20.6953 175.441 20.654C175.343 20.6126 175.235 20.5913 175.115 20.5992C174.623 20.6323 174.128 20.6624 173.639 20.7032C173.438 20.7204 173.277 20.7007 173.139 20.6472C173.034 20.6074 172.937 20.5922 172.806 20.6017C172.56 20.6205 172.314 20.6363 172.068 20.6537C171.822 20.671 171.576 20.6883 171.33 20.7057C171.084 20.723 170.834 20.7326 170.592 20.7592C170.294 20.7919 170.147 20.697 169.941 20.6497C169.572 20.6734 169.203 20.697 168.838 20.7223C168.346 20.7554 167.854 20.7916 167.362 20.8232C167.317 20.8263 167.261 20.7987 167.208 20.785C167.055 20.7469 166.942 20.6933 166.715 20.7106C165.612 20.7939 164.501 20.865 163.394 20.9468C163.163 20.9641 163.061 20.8982 162.904 20.8632C162.852 20.8525 162.792 20.8311 162.743 20.8343C162.128 20.8737 161.513 20.9178 160.898 20.9604C160.648 20.9777 160.648 20.9777 160.229 20.8832C160.181 20.8725 160.117 20.8588 160.065 20.8619C159.263 20.9156 158.466 20.9723 157.664 21.0274C157.545 21.0353 157.436 21.014 157.339 20.9727C157.245 20.9314 157.133 20.9085 157.017 20.9164C156.279 20.9668 155.537 21.0158 154.803 21.0708C154.606 21.0865 154.441 21.073 154.299 21.0179C154.198 20.9781 154.097 20.9614 153.97 20.9708C152.863 21.048 151.756 21.1222 150.649 21.204C150.436 21.2197 150.287 21.1908 150.152 21.1403C150.043 21.1006 149.95 21.0931 149.815 21.0994C149.674 21.1074 149.588 21.1244 149.51 21.1706C149.41 21.2307 149.348 21.3061 149.109 21.3111C148.863 21.3162 148.613 21.3351 148.371 21.3616C148.14 21.3881 148.031 21.3192 147.885 21.2779C147.776 21.2489 147.676 21.2445 147.538 21.2586C147.411 21.2711 147.333 21.2973 147.259 21.3466C147.096 21.4514 147.081 21.4514 146.879 21.3857C146.77 21.3505 146.673 21.323 146.554 21.3294C146.062 21.361 145.569 21.3956 145.077 21.4318C144.794 21.4523 144.791 21.4554 144.577 21.3789C144.472 21.3407 144.371 21.3224 144.248 21.3319C142.895 21.4264 141.542 21.5179 140.189 21.617C139.98 21.6327 139.838 21.6007 139.688 21.5549C139.639 21.5396 139.591 21.5182 139.534 21.5121C139.478 21.5061 139.415 21.5123 139.355 21.5155C138.371 21.5833 137.383 21.648 136.403 21.7234C136.179 21.7407 136.06 21.6918 135.906 21.6521C135.854 21.6384 135.809 21.6169 135.753 21.6109C135.697 21.6064 135.63 21.6172 135.57 21.6219C134.586 21.6897 133.598 21.7544 132.618 21.8299C132.383 21.8472 132.281 21.7828 132.128 21.7493C132.076 21.7371 132.019 21.7141 131.971 21.7173C131.661 21.7347 131.356 21.7583 131.046 21.7788C130.308 21.8308 129.57 21.8797 128.832 21.9332C128.549 21.9537 128.424 21.8172 128.185 21.8237C127.876 21.832 127.57 21.8632 127.261 21.8853C127.015 21.9026 126.769 21.9184 126.523 21.9373C126.28 21.9546 126.28 21.9546 125.675 21.8665C125.623 21.8589 125.559 21.8483 125.507 21.8514C124.646 21.9098 123.781 21.9681 122.924 22.0311C122.726 22.0452 122.562 22.0378 122.419 21.9813C122.318 21.9415 122.214 21.9217 122.091 21.9311C120.797 22.0209 119.507 22.1108 118.214 22.199C118.165 22.2022 118.102 22.1869 118.053 22.1747C117.948 22.1473 117.847 22.1152 117.746 22.0862C117.672 22.1216 117.575 22.154 117.527 22.1941C117.461 22.248 117.371 22.2635 117.23 22.2729C117.088 22.2824 116.998 22.2795 116.886 22.2397C116.751 22.1908 116.613 22.1526 116.393 22.1684C115.04 22.2675 113.686 22.3575 112.333 22.4551C112.11 22.4708 112.004 22.4034 111.847 22.3683C111.795 22.3577 111.735 22.3409 111.686 22.344C111.131 22.3803 110.579 22.4197 110.024 22.4575C108.484 22.5647 106.945 22.6672 105.409 22.7805C105.13 22.801 104.939 22.7629 104.74 22.6972C104.699 22.6834 104.628 22.6758 104.576 22.679C102.421 22.8272 100.267 22.9768 98.1158 23.1265C98.0003 23.1344 97.888 23.11 97.7942 23.0702C97.6967 23.0289 97.5884 23.0092 97.4691 23.017C96.4849 23.0848 95.5009 23.1526 94.5168 23.2219C94.2707 23.2392 94.267 23.2408 94.0124 23.1675C93.96 23.1522 93.9037 23.1231 93.8627 23.1262C93.777 23.1341 93.6953 23.1726 93.6363 23.225C93.5773 23.2804 93.4842 23.2959 93.3463 23.3069C93.2046 23.3179 93.1113 23.3134 93.0027 23.2768C92.8641 23.2309 92.7367 23.1866 92.513 23.2023C89.6838 23.4039 86.8544 23.5978 84.0252 23.7978C83.7978 23.8136 83.6925 23.7492 83.5354 23.7142C83.483 23.7035 83.4306 23.6882 83.3746 23.6852C83.3149 23.6823 83.2516 23.6916 83.192 23.6963C78.5771 24.0162 73.9623 24.3376 69.3474 24.6575C69.0716 24.6764 69.0753 24.6764 68.7748 24.8183C68.7377 24.8353 68.6895 24.8584 68.6373 24.8615C67.2245 24.9623 65.808 25.06 64.3915 25.1577C63.7764 25.2003 63.1614 25.2444 62.5463 25.2854C62.3264 25.2996 62.3264 25.2996 61.8023 25.4665C61.7577 25.4804 61.7057 25.4989 61.6535 25.502C59.1932 25.6738 56.733 25.8455 54.2689 26.0142C54.0751 26.0268 53.9188 26.0547 53.8301 26.1286C53.7673 26.181 53.6856 26.2118 53.5626 26.2213C51.8405 26.341 50.1183 26.4623 48.3924 26.579C48.1874 26.5932 48.0647 26.6364 47.9648 26.7011C47.9315 26.7227 47.9019 26.7473 47.8536 26.7627C47.809 26.7766 47.7419 26.7814 47.686 26.7861C46.2098 26.8885 44.7337 26.994 43.2538 27.0918C43.0339 27.106 42.945 27.163 42.8375 27.2231C42.8004 27.2432 42.7746 27.2709 42.7263 27.2848C42.678 27.2972 42.6071 27.2973 42.5474 27.3005C41.3173 27.3856 40.0872 27.4722 38.8571 27.5573C38.6182 27.55 38.567 27.6392 38.452 27.6932C38.4112 27.7117 38.3817 27.7363 38.3334 27.7487C38.2813 27.7611 38.214 27.7597 38.1507 27.7629C37.1665 27.8306 36.1825 27.903 35.1946 27.9662C34.9672 27.9804 34.9234 28.0588 34.8009 28.1128C34.7601 28.1298 34.7194 28.156 34.671 28.1607C34.0559 28.2063 33.4409 28.2488 32.8258 28.2898C32.6208 28.304 32.6208 28.3025 32.2607 28.4552C32.2199 28.4722 32.1716 28.4907 32.1194 28.4954C31.1987 28.5615 30.2742 28.6246 29.3498 28.6892C29.2305 28.6971 29.1489 28.7341 29.0898 28.7864C29.0308 28.8388 28.9454 28.8727 28.8261 28.8806C28.088 28.9326 27.3499 28.9861 26.6118 29.0335C26.4067 29.0461 26.2729 29.0848 26.1842 29.154C26.1177 29.2064 26.036 29.2326 25.9055 29.2421C25.1674 29.2925 24.4294 29.3476 23.6875 29.3919C23.4713 29.4046 23.3599 29.457 23.2712 29.5217C23.2009 29.574 23.1191 29.5926 22.9811 29.6021C21.628 29.6935 20.2711 29.785 18.9218 29.8857C18.6944 29.9029 18.5781 29.8494 18.4284 29.8112C18.215 29.7578 18.0167 29.6998 18.0152 29.58C18.015 29.5615 17.9513 29.5401 17.9063 29.5248C17.5729 29.4102 17.5729 29.4102 17.5191 29.2874C17.4884 29.2122 17.4539 29.1354 17.4268 29.0586C17.3768 28.9328 17.257 28.9007 16.914 28.9243C16.791 28.9322 16.668 28.9432 16.545 28.9495C16.3623 28.9606 16.2237 28.9102 16.189 28.818C16.1697 28.7674 16.1467 28.7167 16.1275 28.6661C16.3138 28.6534 16.3101 28.6519 16.6361 28.4655C16.7732 28.3869 16.7732 28.3869 16.5074 28.309C16.4063 28.28 16.3089 28.2479 16.2004 28.2204C16.1517 28.2082 16.0882 28.2006 16.036 28.2038C15.7266 28.2227 15.421 28.2448 15.1153 28.2668C14.6232 28.3015 14.6232 28.3015 14.1214 28.1456C14.0802 28.1334 14.0165 28.1105 14.0238 28.0982C14.0641 28.0413 14.1645 28.0165 14.2913 28.0102C14.4777 28.0006 14.6604 27.9849 14.843 27.9723C14.966 27.9644 15.089 27.955 15.2121 27.9471C15.327 27.8885 15.4457 27.8315 15.5532 27.7714C15.7237 27.6789 15.7236 27.6758 15.4878 27.6117C15.338 27.5689 15.1771 27.5308 15.0237 27.4911C14.841 27.5037 14.6547 27.5179 14.472 27.529C14.2409 27.5432 14.1472 27.5142 14.0863 27.4144C14.033 27.3269 14.0955 27.2516 14.2744 27.2328C14.457 27.2141 14.6285 27.2015 14.7208 27.123C14.8094 27.0475 14.9658 27.018 15.1597 27.0116C15.2827 27.0067 15.4057 26.9958 15.5287 26.9864C15.689 26.9738 15.7739 26.8953 15.7392 26.8078C15.7199 26.751 15.682 26.7034 15.5363 26.6914C14.8903 26.6387 14.8828 26.6403 14.5607 26.5363C14.5307 26.5272 14.508 26.4996 14.5191 26.4857C14.5374 26.4626 14.5781 26.4288 14.6228 26.4241C15.0514 26.3895 15.48 26.3581 15.9088 26.3343C16.0505 26.3264 16.1548 26.3154 16.2026 26.2585C16.2688 26.18 16.2381 26.1079 16.1069 26.0543C16.0656 26.0375 15.9982 26.0161 15.9534 26.0177C15.4613 26.0462 14.973 26.0824 14.4809 26.1109C14.4361 26.1141 14.3538 26.0881 14.3349 26.0682C14.2971 26.0314 14.3525 25.9821 14.4828 25.965C14.6542 25.9416 14.8295 25.9398 14.9442 25.8628C15.1033 25.7534 15.2998 25.6532 15.4776 25.5484C15.5072 25.53 15.5554 25.4945 15.5441 25.4915C15.4504 25.4578 15.3419 25.4319 15.2445 25.3998C15.0797 25.3463 15.0788 25.2711 15.1152 25.1988C15.1443 25.1404 15.256 25.1171 15.394 25.1169C15.4537 25.1168 15.5283 25.1166 15.5766 25.1027C15.7031 25.0687 15.7436 25.0256 15.6798 24.9935C15.6423 24.9751 15.5748 24.9491 15.5301 24.9523C14.7323 25.0043 13.9308 25.0549 13.1369 25.1193C12.9021 25.1381 12.7932 25.0799 12.651 25.0387C12.5424 25.0066 12.4414 24.9945 12.3074 25.0178C12.1808 25.0395 12.0576 25.0274 11.9786 24.9769C11.9147 24.9355 12.0262 24.9 12.3279 24.8595C12.3838 24.8517 12.4471 24.847 12.4879 24.8315C12.9187 24.6649 12.9187 24.6633 13.2169 24.6413C13.5076 24.6208 13.5077 24.6193 13.6595 24.5299C13.7299 24.4883 13.8077 24.4467 13.8743 24.4036C13.9002 24.3866 13.9447 24.3558 13.9297 24.3466C13.847 24.2992 13.7349 24.2886 13.6045 24.2996C13.3138 24.3262 12.9703 24.3053 12.8191 24.4515C12.7601 24.5069 12.667 24.5224 12.5328 24.5319C11.1834 24.6233 9.83399 24.7209 8.48077 24.8093C8.26083 24.8235 8.16085 24.8806 8.07581 24.9437C8.00183 24.9961 7.91992 25.0116 7.77826 25.021C7.63661 25.0305 7.52468 25.0353 7.44199 24.9847C7.39312 24.9541 7.43364 24.911 7.54504 24.8678C7.70472 24.8061 7.67392 24.7293 7.62081 24.6572C7.58292 24.6096 7.46686 24.576 7.34379 24.5793C7.16105 24.5858 6.98596 24.603 6.83225 24.5418C6.74228 24.5066 6.63004 24.4822 6.52894 24.4517C6.33417 24.389 6.13938 24.3248 5.86754 24.3668C5.68082 24.3517 5.54957 24.2967 5.39981 24.2539C5.14899 24.1837 5.12648 24.173 5.30464 24.0974C5.50507 24.0125 5.347 23.9022 5.45791 23.819C5.57621 23.7297 5.73947 23.6511 5.88396 23.5679C5.921 23.5463 5.95435 23.5263 5.99139 23.5047C5.90521 23.4741 5.82641 23.4358 5.72542 23.4145C5.59451 23.3871 5.52694 23.3534 5.53324 23.2581C5.50696 23.2444 5.51851 23.2797 5.54846 23.2888C5.58215 23.298 5.6642 23.2902 5.7051 23.2794C5.80921 23.25 5.86092 23.2115 5.83441 23.1793C5.81928 23.1624 5.74819 23.141 5.70342 23.1411C5.62135 23.1412 5.55088 23.1751 5.52951 23.2581C5.11243 23.3219 4.67997 23.3533 4.2475 23.3787C4.20277 23.3818 4.14647 23.3512 4.09405 23.3359C3.9218 23.284 3.9218 23.2855 3.41796 23.271C3.36571 23.2696 3.2946 23.2482 3.26822 23.2267C3.15889 23.1332 3.1614 23.0303 3.10795 22.9305C3.20417 22.8658 3.30032 22.8027 3.40028 22.7395C3.60019 22.6116 3.86004 22.499 4.01503 22.359C3.98053 22.2837 3.93484 22.2085 4.09825 22.1468C4.56366 22.0692 4.55995 22.0692 4.6859 21.9952C5.04524 21.7856 5.40081 21.5745 5.77511 21.368C5.87518 21.3141 5.87484 21.2849 5.69549 21.2622C5.63945 21.2561 5.57966 21.2547 5.52001 21.2579C5.3336 21.2689 5.1474 21.2969 4.96452 21.2911C4.78166 21.2868 4.64653 21.2194 4.49679 21.1782C4.34331 21.1355 4.18981 21.0912 4.03631 21.0469C3.86102 21.0518 3.68623 21.0951 3.51004 21.0263C3.37508 20.9727 3.20674 20.9346 3.05324 20.8903C3.16747 20.7734 3.3828 20.6839 3.54943 20.5807C3.70125 20.4867 3.70492 20.4882 4.11442 20.4153C4.30801 20.3812 4.37305 20.2075 4.20828 20.157C4.00981 20.0959 3.80024 20.0394 3.59806 19.9814C3.42278 19.9863 3.24424 20.0281 3.07552 19.9593C2.9443 19.9073 2.79461 19.8722 2.57847 19.8926C2.21327 19.927 1.84041 19.9445 1.47141 19.9728C1.34467 19.9823 1.20652 19.9764 1.14992 19.9242C1.11217 19.8874 1.21975 19.8365 1.34273 19.8256C1.52908 19.8099 1.69672 19.7912 1.78906 19.7142C1.87766 19.6372 2.04152 19.6139 2.23538 19.6028C2.28758 19.5996 2.34709 19.5811 2.37298 19.5626C2.5062 19.4733 2.65451 19.3962 2.94181 19.3988C3.06082 19.3678 3.12374 19.3293 3.08598 19.2925C3.06335 19.2726 2.98473 19.2466 2.94 19.2497C2.63053 19.2656 2.32108 19.2815 2.01922 19.3097C1.87761 19.3223 1.76939 19.3255 1.67929 19.2796C1.6155 19.249 1.64856 19.2074 1.76741 19.1627C1.8714 19.1241 1.90074 19.0795 1.89264 19.0272C1.87251 18.9059 1.76013 18.8708 1.40207 18.8791C1.14473 18.8857 1.08106 18.8658 1.02383 18.7614C1.0086 18.7369 0.97095 18.7032 0.996859 18.6862C1.15601 18.5815 1.25891 18.4522 1.5605 18.4025C1.67966 18.3839 1.80645 18.3837 1.88058 18.3436C1.95471 18.3035 2.02134 18.2573 2.09921 18.2188C2.19565 18.1725 2.26222 18.1294 2.21709 18.1003C2.14184 18.0482 2.02244 18.0438 1.88463 18.0625C1.76543 18.078 1.63861 18.0798 1.51561 18.0892C1.2957 18.1065 1.11618 18.0669 1.08924 17.9993C1.01618 17.8212 0.939396 17.6447 0.873804 17.4666C0.866081 17.4451 0.884347 17.4174 0.913968 17.3989C1.01764 17.3342 1.12886 17.2726 1.23629 17.2094C1.36225 17.137 1.56391 17.1504 1.73536 17.1363C1.97762 17.1159 1.97755 17.1174 2.30033 16.9694C2.42647 16.9108 2.64687 16.9335 2.77681 16.881C2.81764 16.864 2.88073 16.8363 2.86935 16.8209C2.85418 16.801 2.77942 16.7857 2.72335 16.7766C2.67101 16.7675 2.60754 16.763 2.55164 16.7677C1.87318 16.8134 1.19852 16.8622 0.520043 16.9064C0.404484 16.9143 0.277223 16.8807 0.235605 16.8332C0.194025 16.7887 0.204526 16.7349 0.196447 16.6842C0.303872 16.621 0.426229 16.5624 0.518675 16.4947C0.588923 16.4423 0.670733 16.4191 0.812464 16.4158C0.998946 16.4109 1.18155 16.3921 1.3903 16.378C1.77557 16.153 2.15322 15.9173 2.56833 15.6922C2.73511 15.6013 2.69302 15.5092 2.72541 15.4123C2.75791 15.3232 3.00802 15.3366 3.17559 15.3102C3.30963 15.2884 3.35374 15.2392 3.3011 15.2055C3.27101 15.1856 3.20361 15.1626 3.15138 15.1627C3.02827 15.1629 2.90533 15.177 2.78231 15.1849C2.65928 15.1928 2.51747 15.1884 2.41705 15.2147C2.32035 15.2395 2.25753 15.2918 2.19465 15.3365C2.12436 15.3857 2.03137 15.4028 1.88964 15.4061C1.70687 15.4095 1.52424 15.4237 1.34156 15.4347C1.13937 15.3752 0.929698 15.3172 0.734932 15.2545C0.697475 15.2423 0.689543 15.207 0.692994 15.1839C0.699726 15.124 0.64333 15.0872 0.51986 15.0582C0.4151 15.0338 0.328855 14.9986 0.231482 14.9681C0.305592 14.9265 0.387211 14.8864 0.446361 14.8417C0.575796 14.7478 0.739144 14.6799 1.02272 14.6825C1.13391 14.6224 1.22253 14.5485 1.36752 14.5067C1.50507 14.4666 1.74061 14.5061 1.84396 14.4153C1.89565 14.3706 1.97342 14.3198 2.07393 14.3012C2.234 14.2717 2.4431 14.2867 2.53532 14.2005C2.59069 14.1513 2.67219 14.1066 2.78023 14.0941C2.90318 14.08 3.02995 14.0768 3.11913 14.0474C3.16745 14.032 3.21939 14.0073 3.21912 13.9858C3.21896 13.972 3.14414 13.9506 3.09179 13.9415C3.04316 13.9308 2.97957 13.9232 2.92365 13.9264C2.73723 13.9359 2.55463 13.9531 2.3682 13.9627C2.31601 13.9658 2.25621 13.9552 2.20013 13.9461C2.03568 13.9218 2.04648 13.891 2.17638 13.8355C2.3063 13.7815 2.39878 13.7122 2.5062 13.649C2.62546 13.6381 2.77472 13.6424 2.85644 13.6131C2.9939 13.5652 3.09003 13.4959 3.20123 13.4358C3.32423 13.4264 3.45103 13.4231 3.56648 13.406C3.6149 13.3998 3.63689 13.3659 3.67769 13.3459C3.75183 13.3073 3.81464 13.2519 3.91514 13.2333C4.07896 13.2054 4.28054 13.2158 4.37652 13.1311C4.43188 13.0818 4.51702 13.0295 4.62144 13.0262C4.91236 13.0196 5.03445 12.9348 5.18271 12.8547C5.2939 12.7946 5.53305 12.8249 5.65544 12.7648C5.73705 12.7262 5.7962 12.6785 5.87782 12.6415C5.91121 12.6261 5.98198 12.6183 6.03788 12.6136C6.34353 12.59 6.65296 12.5725 6.95858 12.5474C7.00703 12.5427 7.05155 12.5196 7.08863 12.5011C7.16649 12.461 7.21427 12.4056 7.31095 12.3794C7.40763 12.3531 7.54565 12.3528 7.66494 12.3449C8.04893 12.3212 8.07888 12.3273 8.25263 12.1964C8.39311 12.0902 8.74103 12.1649 8.85526 12.0479C8.92159 11.9802 9.04398 11.9247 9.264 11.9166C9.57352 11.9053 9.87908 11.8756 10.1885 11.8551C10.4643 11.8362 10.4606 11.8362 10.7573 11.6928C10.8909 11.628 11.0887 11.6369 11.2639 11.6243C11.4503 11.6117 11.6217 11.593 11.7103 11.516C11.7989 11.4406 11.9628 11.4157 12.1529 11.4046C12.3281 11.3935 12.526 11.4009 12.6633 11.3392C12.9972 11.1911 12.9935 11.1896 13.2283 11.1738C13.5974 11.1486 13.9664 11.1234 14.3354 11.0966C14.5815 11.0793 14.8388 11.0758 15.0697 11.0416C15.2373 11.0167 15.3109 10.9305 15.4183 10.8704C15.724 10.8469 16.0296 10.8233 16.3353 10.8012C16.7639 10.7698 17.1963 10.7414 17.6288 10.7114C17.8146 10.6527 17.8392 10.5236 18.1525 10.5169C18.339 10.5135 18.5215 10.4932 18.7079 10.4806C19.0173 10.4586 19.3229 10.4304 19.6324 10.4191C19.8674 10.411 19.9073 10.328 20.0298 10.2755C20.0706 10.257 20.1076 10.2309 20.1561 10.2262C20.6406 10.1823 21.1403 10.1722 21.6134 10.1084C21.6618 10.1022 21.7062 10.0698 21.7171 10.0468C21.7244 10.0345 21.6607 10.0115 21.6195 10.0009C21.5709 9.98865 21.5073 9.97647 21.4551 9.97963C19.9156 10.0852 18.3761 10.1924 16.8366 10.298C16.6204 10.3137 16.6204 10.3122 16.0964 10.4821C16.0518 10.496 15.9997 10.5114 15.9438 10.5162C15.6978 10.535 15.4479 10.5462 15.2057 10.5697C15.0082 10.5885 14.8439 10.5703 14.7015 10.5152C14.6002 10.4755 14.4956 10.4634 14.3688 10.4667C14.2271 10.4715 14.134 10.4886 14.0525 10.5302C13.945 10.5872 13.8899 10.6611 13.6625 10.6768C12.615 10.7447 11.5675 10.8203 10.5237 10.8928C10.378 10.8715 10.3067 10.8394 10.3435 10.8009C10.3656 10.7778 10.41 10.747 10.4548 10.7439C10.8834 10.7108 11.3158 10.6824 11.7445 10.651C11.8041 10.6463 11.8862 10.6492 11.9196 10.6338C12.0829 10.5643 12.1413 10.4521 12.4509 10.4439C12.6299 10.4389 12.8124 10.4156 12.9838 10.3938C13.0322 10.3876 13.0766 10.3552 13.0875 10.3322C13.0911 10.3199 13.0311 10.2969 12.9862 10.2862C12.8215 10.242 12.6319 10.2961 12.4674 10.2656C12.4113 10.255 12.3327 10.2397 12.3213 10.2213C12.3136 10.2044 12.3767 10.1767 12.4213 10.1597C12.4621 10.1443 12.5179 10.1303 12.5738 10.1256C13.0658 10.0895 13.5579 10.0517 14.05 10.0232C14.2514 10.0121 14.3926 9.97345 14.4813 9.90262C14.5478 9.85027 14.6296 9.82249 14.7563 9.81458C15.6174 9.75625 16.4784 9.69176 17.3433 9.63802C17.5596 9.62536 17.6709 9.57447 17.7597 9.50825C17.8299 9.4559 17.9118 9.43732 18.0497 9.42786C19.2836 9.34583 20.5099 9.25459 21.7438 9.17563C21.9712 9.16141 22.0376 9.09523 22.1526 9.03819C22.1934 9.01814 22.2191 8.99352 22.2712 8.98114C22.3233 8.96876 22.3905 8.97016 22.4539 8.96698C23.438 8.89921 24.4221 8.82684 25.41 8.76367C25.6411 8.74944 25.6849 8.67254 25.8036 8.61856C25.8445 8.60159 25.8815 8.57388 25.9299 8.56919C26.668 8.51567 27.406 8.46523 28.1441 8.41325C28.6361 8.3786 29.1282 8.34394 29.6202 8.31082C29.8626 8.29504 29.8625 8.29349 30.1891 8.14697C30.2262 8.13001 30.2782 8.10994 30.3267 8.10525C31.7431 8.00446 33.1559 7.90831 34.5724 7.80906C34.6917 7.80118 34.7771 7.76567 34.8361 7.71334C34.8952 7.661 34.9806 7.62551 35.0962 7.61763C36.2033 7.53889 37.3104 7.4617 38.4213 7.38756C38.6226 7.37492 38.7639 7.3378 38.8526 7.26851C38.9191 7.21616 39.0008 7.18837 39.1276 7.18047C40.2347 7.1048 41.3418 7.02452 42.4527 6.95192C42.6652 6.93772 42.769 6.88531 42.8727 6.82368C42.9098 6.8021 42.9392 6.76672 42.9839 6.76356C43.5356 6.71959 44.0834 6.67408 44.6389 6.64393C44.8701 6.63124 44.9477 6.56657 45.0402 6.50496C45.1142 6.45567 45.1998 6.43862 45.3415 6.43223C45.651 6.41787 45.9566 6.39123 46.2585 6.36459C46.3032 6.3599 46.3588 6.326 46.3622 6.30449C46.3692 6.26453 46.283 6.23702 46.1411 6.22344C44.6649 6.32587 43.1851 6.42829 41.7089 6.53072C41.4666 6.54804 41.4666 6.54805 41.1401 6.69456C41.103 6.71153 41.0509 6.73159 40.9988 6.73629C39.5823 6.83554 38.1695 6.93325 36.753 7.0325C36.6337 7.04039 36.5484 7.07587 36.4893 7.12821C36.4302 7.18055 36.3448 7.21603 36.2292 7.22391C34.8761 7.31844 33.523 7.41451 32.1661 7.50444C31.9648 7.51708 31.8235 7.55264 31.7348 7.62347C31.6683 7.67582 31.5865 7.70363 31.4598 7.71153C30.1663 7.79981 28.8765 7.89268 27.5792 7.9779C27.4487 7.98581 27.3512 7.94142 27.3582 7.89993C27.3616 7.87841 27.4171 7.843 27.4618 7.83985C28.1365 7.78798 28.8074 7.73457 29.486 7.69498C29.7134 7.6823 29.7797 7.61458 29.8946 7.55754C29.9317 7.5375 29.9612 7.51133 30.0096 7.5005C30.0617 7.48811 30.1289 7.48954 30.1922 7.48636C31.7914 7.3745 33.3906 7.26111 34.9936 7.15539C35.2247 7.13963 35.2685 7.06426 35.3872 7.01028C35.428 6.99178 35.465 6.96407 35.5135 6.96091C36.0055 6.92318 36.4975 6.89006 36.9896 6.85694C37.8507 6.79707 38.7118 6.73719 39.5766 6.67731C39.8263 6.65997 39.8264 6.65997 40.1454 6.515C40.1825 6.49803 40.2346 6.47645 40.283 6.47329C42.5606 6.31417 44.8382 6.15504 47.1159 5.99745C47.2351 5.98956 47.3205 5.95408 47.3796 5.90174C47.4386 5.85094 47.524 5.81392 47.6395 5.8045C50.7186 5.59021 53.7939 5.37592 56.873 5.1647C57.0743 5.15053 57.2156 5.11802 57.3043 5.04565C57.3671 4.99331 57.4525 4.96551 57.5793 4.95608C60.964 4.72129 64.3487 4.4865 67.7372 4.25016C70.0148 4.09257 72.2924 3.93191 74.5701 3.7774C74.7788 3.76321 74.8901 3.71538 74.9938 3.65221C75.0271 3.63064 75.0603 3.59525 75.105 3.5921C75.5933 3.55284 76.0816 3.51666 76.5699 3.48048C76.7233 3.52169 76.8768 3.56138 77.0302 3.60259C77.1452 3.54401 77.2564 3.4839 77.3714 3.42532C78.1095 3.37948 78.8362 3.30909 79.582 3.28628C79.6305 3.28466 79.6831 3.31376 79.7355 3.32904C80.0836 3.42522 80.2813 3.4172 80.4998 3.28776C80.5776 3.24154 80.6442 3.19994 80.7635 3.19205C81.1325 3.16376 81.5055 3.14467 81.8707 3.11178C82.0682 3.09453 82.2325 3.10961 82.3749 3.16467C82.4762 3.20444 82.5809 3.22116 82.7039 3.21173C83.3823 3.16446 84.057 3.11873 84.7354 3.06839C84.7839 3.06524 84.8283 3.03903 84.8654 3.02053C84.9432 2.98045 85.0099 2.93733 85.084 2.89572C85.185 2.92166 85.2972 2.94144 85.3797 2.9751C85.4847 3.01486 85.5816 3.01468 85.7233 3.00368C88.4295 2.81309 91.1396 2.6271 93.8458 2.43496C94.0769 2.4192 94.1785 2.48355 94.3356 2.51708C94.388 2.52928 94.4404 2.54455 94.4964 2.54752C94.5561 2.55049 94.6194 2.54117 94.679 2.53646C96.7106 2.39466 98.7422 2.25439 100.774 2.11259C101.042 2.09369 101.042 2.09369 101.443 2.18824C101.491 2.20045 101.555 2.21417 101.607 2.20947C102.531 2.14795 103.456 2.08182 104.377 2.01877C104.496 2.01088 104.597 2.03528 104.706 2.07043C104.919 2.13919 104.934 2.13917 105.089 2.03751C105.163 1.98975 105.241 1.96041 105.364 1.94637C105.498 1.93077 105.607 1.93521 105.712 1.96268C105.861 2.00083 105.97 2.06516 106.198 2.04786C107.182 1.97395 108.17 1.91232 109.15 1.83687C109.374 1.81959 109.494 1.87161 109.643 1.90976C109.696 1.92349 109.744 1.94492 109.8 1.94943C109.856 1.95394 109.923 1.94306 109.983 1.93835C111.213 1.85325 112.447 1.7697 113.673 1.67846C113.904 1.66116 114.006 1.72703 114.163 1.76056C114.216 1.77276 114.275 1.79417 114.324 1.79102C115.062 1.74211 115.804 1.69011 116.542 1.63813C116.807 1.61923 116.807 1.62077 117.211 1.71378C117.259 1.72599 117.323 1.73817 117.375 1.73501C118.236 1.67667 119.101 1.61679 119.962 1.55691C120.227 1.53801 120.227 1.53802 120.993 1.61658C121.049 1.62262 121.108 1.63175 121.164 1.62858C122.148 1.56081 123.136 1.49456 124.12 1.42218C124.318 1.40801 124.482 1.42001 124.625 1.47507C124.726 1.51484 124.831 1.53157 124.954 1.52214C126.061 1.44493 127.172 1.3708 128.275 1.28899C128.487 1.27326 128.626 1.30681 128.776 1.3511C128.824 1.36638 128.873 1.38781 128.929 1.39385C128.985 1.3999 129.048 1.39364 129.108 1.38893C130.215 1.31173 131.326 1.23913 132.429 1.15579C132.653 1.1385 132.773 1.19052 132.923 1.22867C132.975 1.24241 133.031 1.26997 133.076 1.26835C133.509 1.24148 133.941 1.2177 134.37 1.17854C134.601 1.15663 134.702 1.22712 134.859 1.26064C134.912 1.2713 134.972 1.29426 135.02 1.2911C135.945 1.22958 136.869 1.16499 137.79 1.09886C137.92 1.08942 138.018 1.10306 138.122 1.14283C138.261 1.19636 138.422 1.21759 138.623 1.20034C139.052 1.16426 139.484 1.13893 139.917 1.10899C140.17 1.09165 140.17 1.09166 140.947 1.1702C141.003 1.17624 141.063 1.18535 141.119 1.18218C141.857 1.13174 142.599 1.08283 143.333 1.02778C143.531 1.01207 143.695 1.02561 143.837 1.08067C143.939 1.12044 144.039 1.13717 144.166 1.12773C144.845 1.08047 145.519 1.0332 146.198 0.985933C146.444 0.968606 146.69 0.938981 146.936 0.938553C147.115 0.939779 147.247 1.01329 147.407 1.04988C147.452 1.06056 147.527 1.04815 147.586 1.04498C148.448 0.985102 149.312 0.929823 150.17 0.862272C150.393 0.844984 150.513 0.897008 150.663 0.935156C150.715 0.948892 150.772 0.97645 150.816 0.974836C151.126 0.957399 151.432 0.933821 151.741 0.913311C152.11 0.888089 152.483 0.869006 152.848 0.834572C153.146 0.8064 153.26 0.939859 153.499 0.944054C153.681 0.948345 153.868 0.921909 154.05 0.909301C154.419 0.884079 154.788 0.855787 155.157 0.833637C155.288 0.825729 155.388 0.800962 155.429 0.745584C155.436 0.734817 155.372 0.711893 155.331 0.698137C154.833 0.542297 154.833 0.542289 154.333 0.576956C154.024 0.599002 153.718 0.621045 153.409 0.640019C153.357 0.643182 153.297 0.630996 153.245 0.621869C153.095 0.596011 153.11 0.565262 153.236 0.509735C153.362 0.454208 153.458 0.386448 153.566 0.323272C153.719 0.36295 153.869 0.402621 154.022 0.442299C154.145 0.434403 154.268 0.424985 154.391 0.41709C155.006 0.376077 155.621 0.333525 156.237 0.295585C156.281 0.292434 156.338 0.323068 156.39 0.33834C156.54 0.382634 156.675 0.420797 156.891 0.403522C157.442 0.358011 157.998 0.324783 158.55 0.285417C158.792 0.268096 158.792 0.268098 159.218 0.36261C159.267 0.373279 159.33 0.38546 159.383 0.382297C159.938 0.345997 160.49 0.306635 161.045 0.268798C161.164 0.26091 161.28 0.28068 161.367 0.325083C161.401 0.343461 161.393 0.374194 161.538 0.6259C161.981 0.829464 162.283 0.807441 162.589 0.788474C162.719 0.780566 162.835 0.772676 162.92 0.741801C162.965 0.724824 163.02 0.700142 163.02 0.680171C163.02 0.664808 162.938 0.640365 162.885 0.637383C162.516 0.607298 162.166 0.672441 161.804 0.686896C161.636 0.693333 161.49 0.639814 161.459 0.552297C161.451 0.527729 161.44 0.501633 161.428 0.477072C161.417 0.452511 161.409 0.426408 161.398 0.401846C161.252 0.394418 161.167 0.422216 161.104 0.47456C161.052 0.517667 160.978 0.566958 160.878 0.590178C160.777 0.614933 160.639 0.610572 160.516 0.618468C160.397 0.626357 160.266 0.646553 160.154 0.635993C160.042 0.623897 159.952 0.579493 159.847 0.552021C159.799 0.538278 159.739 0.518417 159.69 0.521574C159.262 0.548436 158.837 0.575282 158.412 0.609819C158.188 0.628644 158.075 0.564323 157.933 0.524626C157.821 0.494094 157.709 0.50196 157.691 0.572663C157.645 0.74174 157.817 0.812108 158.197 0.779184C158.51 0.750987 158.794 0.7459 159.041 0.84994C159.075 0.863709 159.154 0.869716 159.202 0.866559C159.508 0.847592 159.81 0.82402 160.115 0.805054C160.171 0.801884 160.231 0.807915 160.283 0.81397C161.045 0.895608 161.045 0.897153 161.303 0.87827C161.426 0.868839 161.545 0.860949 161.531 0.627451C161.763 0.376626 162.136 0.359082 162.497 0.321582C162.732 0.29813 162.833 0.365555 162.987 0.400624C163.039 0.412824 163.096 0.437303 163.144 0.434146C163.945 0.382055 164.743 0.326891 165.541 0.268661C165.675 0.25921 165.772 0.268261 165.877 0.308023C166.012 0.358488 166.162 0.390498 166.374 0.371693C166.799 0.334083 167.231 0.310292 167.664 0.278815C167.884 0.26307 167.884 0.263054 168.329 0.357533C168.378 0.368203 168.441 0.380384 168.493 0.377221C168.926 0.350352 169.354 0.317355 169.783 0.288956C169.902 0.281067 170.011 0.302385 170.105 0.343703C170.198 0.385022 170.311 0.406333 170.426 0.398451C170.859 0.370046 171.287 0.338584 171.716 0.310186C171.768 0.307023 171.832 0.317666 171.88 0.328336C172.337 0.422796 172.337 0.42278 172.545 0.407054C172.851 0.383478 173.164 0.372192 173.466 0.340941C173.76 0.309703 173.914 0.398536 174.116 0.447347C174.668 0.411054 175.224 0.380906 175.772 0.336937C175.995 0.318113 176.115 0.368599 176.265 0.408283C176.317 0.422019 176.37 0.451121 176.418 0.449501C176.605 0.443032 176.788 0.425818 176.97 0.41321C177.153 0.400602 177.339 0.387989 177.522 0.375381C177.731 0.419571 177.871 0.523798 178.169 0.487945C178.348 0.466126 178.538 0.461187 178.72 0.448579C178.903 0.435971 179.089 0.423358 179.272 0.41075C179.395 0.402855 179.522 0.398019 179.641 0.383985C179.861 0.360558 179.97 0.435658 180.127 0.469184C180.18 0.479848 180.239 0.498168 180.288 0.495011C180.657 0.472861 181.03 0.453779 181.391 0.417816C181.671 0.389677 181.862 0.435441 182.06 0.499622C182.101 0.513378 182.172 0.520935 182.224 0.517772C182.657 0.490903 183.085 0.457887 183.514 0.429489C183.63 0.421606 183.742 0.445992 183.836 0.485774C183.933 0.527085 184.042 0.546884 184.161 0.538995C184.59 0.510597 185.022 0.47911 185.451 0.450712C185.503 0.447549 185.567 0.459731 185.615 0.471937C186.034 0.566462 186.034 0.568 186.28 0.549137C186.34 0.544424 186.403 0.541229 186.463 0.536517C186.769 0.514477 187.086 0.506256 187.384 0.468866C187.726 0.42679 187.977 0.478592 188.22 0.56574C188.526 0.546773 188.839 0.535473 189.137 0.504228C189.361 0.480795 189.481 0.538964 189.631 0.577112C189.683 0.590848 189.74 0.618405 189.784 0.615254C190.217 0.588386 190.649 0.564598 191.074 0.525452C191.305 0.503542 191.407 0.572488 191.564 0.60755C191.616 0.61975 191.672 0.641172 191.721 0.638016C191.967 0.625298 192.213 0.606425 192.459 0.589098C192.746 0.568627 192.746 0.570162 193.128 0.663216C193.307 0.707457 193.486 0.67181 193.661 0.660751C193.848 0.648137 194.023 0.638618 194.173 0.701347C194.267 0.741129 194.379 0.765516 194.494 0.75917C194.74 0.744915 194.99 0.730661 195.232 0.707196C195.426 0.688423 195.594 0.700415 195.737 0.757012C195.838 0.796781 195.943 0.816583 196.066 0.807152C196.617 0.769322 197.173 0.729935 197.724 0.693641C197.773 0.690484 197.84 0.704199 197.885 0.717948C197.99 0.74542 198.091 0.775965 198.192 0.806516C198.434 0.792268 198.684 0.785704 198.923 0.763781C199.176 0.741833 199.408 0.733747 199.606 0.8179C199.648 0.836264 199.708 0.862264 199.756 0.860643C199.942 0.854174 200.125 0.838498 200.308 0.82589C200.49 0.813282 200.677 0.800669 200.859 0.788062C201.073 0.8261 201.208 0.936478 201.506 0.900625C201.685 0.878806 201.875 0.873867 202.058 0.861259C202.241 0.848651 202.427 0.834502 202.61 0.82343C202.669 0.820254 202.736 0.812451 202.789 0.818506C202.845 0.824554 202.893 0.845982 202.942 0.861261C203.092 0.905555 203.231 0.949873 203.443 0.923386C203.622 0.901567 203.812 0.896626 203.995 0.882482C204.244 0.865149 204.244 0.865152 204.66 0.961219C204.828 1.00087 205.018 0.948309 205.178 0.981829C205.287 1.00469 205.381 1.04292 205.485 1.06886C205.53 1.07954 205.601 1.08401 205.653 1.08085C205.899 1.0666 206.149 1.05234 206.391 1.02888C206.589 1.0101 206.753 1.02825 206.892 1.08331C206.993 1.12308 207.094 1.13982 207.221 1.13038C207.836 1.08629 208.451 1.04834 209.062 0.999652C209.271 0.98239 209.439 1.00822 209.556 1.06333C209.755 1.15824 210.033 1.0456 210.239 1.12206C210.367 1.16947 210.494 1.22455 210.725 1.20111C211.15 1.16043 211.582 1.13815 212.011 1.10976C212.165 1.15097 212.318 1.19219 212.475 1.2334C212.721 1.21607 212.967 1.19874 213.213 1.18295C213.396 1.17034 213.582 1.15619 213.765 1.14512C213.825 1.14194 213.888 1.13568 213.944 1.14327C214 1.15085 214.045 1.17075 214.098 1.18602C214.356 1.26086 214.356 1.2624 214.781 1.23094C214.963 1.21679 215.139 1.20727 215.292 1.26845C215.435 1.32505 215.603 1.33551 215.797 1.31827C216.162 1.28691 216.531 1.26323 216.904 1.24107C217.019 1.23319 217.128 1.25912 217.225 1.29889C217.372 1.36163 217.551 1.35517 217.733 1.33796C217.976 1.31603 218.214 1.29411 218.42 1.37979C218.461 1.39815 218.525 1.42414 218.57 1.42253C218.876 1.40971 219.185 1.39996 219.483 1.37025C219.782 1.34054 219.928 1.43554 220.134 1.48127C220.44 1.46077 220.749 1.44025 221.055 1.41975C221.114 1.41504 221.185 1.4011 221.237 1.40869C221.458 1.44057 221.586 1.55557 221.888 1.51971C222.063 1.49943 222.253 1.49296 222.436 1.48804C222.484 1.48642 222.548 1.51241 222.582 1.53232C222.601 1.54305 222.582 1.57227 222.56 1.58767C222.494 1.6308 222.412 1.6709 222.353 1.71555C222.345 1.72171 222.417 1.74923 222.458 1.76145C222.559 1.78893 222.675 1.78413 222.809 1.77161C222.924 1.76065 223.044 1.78195 223.127 1.8279C223.16 1.84628 223.149 1.87702 223.08 1.97854C223.081 2.05382 223.159 2.01987 223.184 1.97067C223.224 1.89993 223.146 1.87702 222.997 1.91569C222.893 1.94352 222.841 1.98356 222.868 2.01578C222.883 2.03265 222.954 2.05404 223.08 1.97854C223.407 1.88579 223.653 1.86847 223.899 1.85114C223.962 1.84642 224.037 1.83092 224.082 1.84006C224.243 1.87665 224.392 1.92095 224.55 1.96216C224.729 1.95263 224.896 1.92929 225.072 1.9889C225.32 2.07297 225.331 2.06527 225.569 2.04795C225.692 2.03852 225.815 2.03064 225.938 2.02275C226.061 2.01485 226.158 2.03772 226.267 2.07287C226.488 2.14469 226.507 2.14465 226.651 2.04608C226.736 1.98601 226.796 1.96594 226.904 1.99341C227.263 2.0865 227.267 2.09263 227.573 2.06445C227.826 2.04096 228.065 2.0344 228.253 2.12165C228.38 2.18288 228.421 2.16898 228.521 2.10429C228.787 1.93329 228.911 1.93614 229.416 2.05817C229.651 2.11614 229.893 2.05274 230.132 2.04464C230.333 2.03815 230.476 2.07477 230.492 2.17153C230.504 2.23142 230.538 2.27439 230.672 2.29413C230.725 2.30172 230.788 2.31236 230.84 2.3092C231.15 2.29022 231.455 2.26818 231.765 2.24613C231.921 2.23511 232.006 2.16277 231.975 2.06757C231.94 1.96623 232 1.92924 232.223 1.89966C232.357 1.88253 232.466 1.88543 232.574 1.91289C232.694 1.94341 232.661 1.97112 232.557 2.02661C232.308 2.16224 232.339 2.24513 232.661 2.33829C232.774 2.37036 232.863 2.39941 232.89 2.44699C232.905 2.47154 232.891 2.50383 232.925 2.5222C233.109 2.62482 233.363 2.69045 233.647 2.73911C233.919 2.69716 234.107 2.76596 234.316 2.8209C234.481 2.86363 234.674 2.82644 234.85 2.81077C235.047 2.79352 235.211 2.80553 235.354 2.86212C235.455 2.90189 235.56 2.92014 235.683 2.91224C235.929 2.89492 236.179 2.88373 236.421 2.85873C236.629 2.83686 236.787 2.86732 236.918 2.91932C237.083 2.9851 237.265 2.94022 237.437 2.94914C237.668 2.9595 237.786 3.09602 238.087 3.05862C238.266 3.03681 238.452 3.0288 238.639 3.02233C238.687 3.02071 238.747 3.04673 238.789 3.0651C238.987 3.14925 239.219 3.14424 239.472 3.11921C239.647 3.10201 239.819 3.08636 239.991 3.14444C240.276 3.24227 240.59 3.32776 240.89 3.41789C240.932 3.48848 240.903 3.57148 241.116 3.61259C241.228 3.63391 241.333 3.666 241.419 3.70118C241.524 3.74248 241.621 3.75307 241.755 3.74208C241.998 3.72015 242.251 3.71509 242.49 3.68702C242.71 3.66206 242.848 3.71253 242.983 3.75992C243.092 3.79814 243.193 3.8164 243.323 3.78852C243.457 3.76217 243.554 3.77889 243.663 3.82018C243.817 3.87676 243.828 3.87061 244.335 3.88662C244.387 3.88807 244.451 3.91099 244.481 3.93091C244.496 3.94164 244.463 3.97244 244.437 3.98785C244.404 4.00634 244.352 4.02793 244.303 4.03262C243.752 4.07353 243.196 4.10983 242.645 4.15073C242.589 4.15543 242.529 4.1663 242.488 4.18174C242.444 4.19871 242.388 4.22184 242.388 4.24335C242.389 4.25871 242.463 4.27702 242.516 4.28769C242.68 4.32274 242.874 4.26863 243.035 4.3083C243.143 4.33423 243.233 4.37093 243.342 4.39533C243.386 4.406 243.457 4.40435 243.513 4.40118C243.7 4.3901 243.882 4.37442 244.069 4.36488C244.121 4.36326 244.181 4.37852 244.229 4.39073C244.589 4.48228 244.589 4.48228 244.898 4.46177C245.021 4.45387 245.151 4.4306 245.267 4.43962C245.379 4.44864 245.477 4.48995 245.578 4.5159C245.787 4.57084 245.986 4.62426 246.002 4.74407C246.01 4.79015 246.134 4.82987 246.257 4.83273C246.376 4.83559 246.503 4.81849 246.626 4.80906C246.917 4.79012 246.917 4.79011 247.295 4.88317C247.399 4.90911 247.511 4.91198 247.646 4.89639C247.698 4.89015 247.761 4.89619 247.817 4.90378C248 4.9265 248.001 4.95569 247.882 5.0112C247.715 5.09292 247.73 5.10058 248.201 5.16889C248.38 5.1947 248.519 5.24362 248.669 5.28638C248.912 5.35509 248.908 5.35509 248.749 5.44601C248.712 5.46604 248.679 5.48762 248.642 5.50919C248.534 5.56929 248.449 5.63396 248.225 5.6405C247.979 5.64707 247.733 5.67209 247.487 5.68941C247.249 5.70673 247.186 5.74369 247.209 5.84812C247.237 5.97406 247.286 5.9878 247.715 5.98552C247.838 5.98531 247.946 5.9974 248.04 6.03872C247.996 6.08796 247.914 6.12651 247.795 6.13594C247.489 6.15951 247.18 6.18003 246.874 6.20053C246.628 6.21786 246.382 6.23518 246.136 6.25251C245.983 6.26353 245.887 6.34359 245.929 6.43262C245.952 6.48328 245.972 6.53395 245.991 6.58461C246.033 6.68594 246.112 6.71192 246.362 6.70688C246.425 6.70523 246.485 6.69283 246.544 6.6958C246.787 6.70613 246.904 6.83344 247.195 6.80682C247.437 6.78489 247.691 6.77984 247.929 6.75178C248.149 6.72681 248.273 6.78192 248.426 6.82313C248.479 6.83687 248.535 6.86595 248.58 6.86433C248.889 6.8469 249.199 6.82947 249.501 6.79976C249.642 6.78722 249.728 6.79629 249.84 6.83296C250.11 6.9216 250.118 6.91698 250.516 6.88863C250.807 6.86662 250.811 6.86968 251.185 6.96275C251.29 6.98868 251.402 6.98848 251.536 6.97596C251.711 6.96029 251.894 6.9354 252.077 6.95812C252.133 6.96417 252.204 6.98249 252.223 7.00243C252.234 7.01624 252.182 7.05013 252.138 7.06096C251.81 7.14142 251.426 7.12826 251.068 7.16114C250.956 7.17056 250.844 7.14156 250.75 7.10024C250.653 7.05893 250.548 7.04222 250.421 7.05012C250.175 7.06745 249.926 7.07863 249.683 7.10363C249.475 7.1255 249.329 7.09042 249.183 7.04304C249.134 7.02776 249.078 6.99867 249.029 7.00029C248.477 7.03197 247.922 7.06367 247.374 7.10764C247.154 7.12646 247.027 7.07752 246.877 7.0363C246.825 7.02257 246.772 6.99346 246.724 6.99508C246.537 7.00155 246.354 7.01877 246.168 7.03138C245.49 7.07865 244.815 7.12591 244.136 7.17011C244.092 7.17326 244.035 7.14109 243.983 7.12735C243.882 7.09987 243.777 7.07394 243.672 7.048C243.486 7.06061 243.303 7.07629 243.117 7.08583C242.983 7.09221 242.864 7.11394 242.846 7.17235C242.835 7.21078 242.958 7.24589 243.089 7.24259C243.216 7.2393 243.342 7.22064 243.447 7.24043C243.967 7.33785 243.967 7.33939 244.291 7.31886C244.575 7.29993 244.544 7.28461 244.795 7.36867C244.904 7.40536 245.001 7.42671 245.124 7.41728C245.43 7.39524 245.739 7.37319 246.049 7.35421C246.097 7.35106 246.161 7.36632 246.21 7.37852C246.576 7.47006 246.576 7.47313 246.878 7.44956C247.273 7.42122 247.288 7.41352 247.554 7.50677C247.738 7.57098 247.905 7.52613 248.08 7.52275C248.283 7.58232 248.503 7.63572 248.687 7.703C248.904 7.78251 249.132 7.76827 249.378 7.7448C249.56 7.72758 249.739 7.72113 249.889 7.78386C250.032 7.84199 250.204 7.84785 250.397 7.83215C250.573 7.81802 250.751 7.78851 250.935 7.82199C250.983 7.83112 251.058 7.85404 251.054 7.86788C251.051 7.88939 251.003 7.92021 250.954 7.92951C250.612 7.99309 250.235 7.9922 249.874 8.02202C249.825 8.02672 249.762 8.00992 249.713 7.99772C249.608 7.97024 249.507 7.93816 249.406 7.90915C249.223 7.91868 249.037 7.92207 248.858 7.94082C248.72 7.95489 248.615 7.95354 248.514 7.91685C248.421 7.88321 248.319 7.8419 248.207 7.83134C248.095 7.82078 247.965 7.84405 247.842 7.85348C247.719 7.86291 247.577 7.85854 247.481 7.88329C247.384 7.90804 247.325 7.96192 247.262 8.00505C247.192 8.0528 247.095 8.06834 246.953 8.07319C246.822 8.07803 246.718 8.07206 246.62 8.02921C246.579 8.01085 246.523 7.99711 246.467 7.98492C246.415 7.97425 246.355 7.95745 246.306 7.96061C245.751 7.99691 245.199 8.03629 244.644 8.07413C244.368 8.09304 244.372 8.09302 243.796 8.00338C243.744 7.99579 243.68 7.98515 243.628 7.98831C243.318 8.00728 243.013 8.02933 242.703 8.05137C242.39 8.07343 242.394 8.07034 241.859 7.97448C241.762 7.95622 241.621 7.98105 241.505 7.97818C241.262 7.97092 241.141 7.84208 240.858 7.86715C240.616 7.88908 240.362 7.89413 240.12 7.9222C239.9 7.94716 239.773 7.89362 239.623 7.8524C239.571 7.83866 239.514 7.80803 239.469 7.81118C238.914 7.84594 238.362 7.88531 237.624 7.8912C237.441 7.89152 237.523 7.92364 237.643 7.93419C237.815 7.95079 237.87 7.91843 237.776 7.85714C237.709 7.81424 237.611 7.79289 237.533 7.80378C237.492 7.80999 237.44 7.83929 237.624 7.8912C237.818 7.94924 237.808 7.98152 237.841 7.9999C237.924 8.04431 238.04 8.06254 238.159 8.05619C238.346 8.04511 238.528 8.02943 238.715 8.01989C238.767 8.01673 238.83 8.02737 238.879 8.03958C239.291 8.13412 239.294 8.14026 239.731 8.10263C239.868 8.09164 239.969 8.09146 240.078 8.12047C240.227 8.16015 240.336 8.22755 240.564 8.20565C240.866 8.17593 241.175 8.15851 241.484 8.14107C241.533 8.13791 241.585 8.16548 241.642 8.17767C241.795 8.21427 241.908 8.28321 242.135 8.25363C242.31 8.23028 242.5 8.22379 242.687 8.21886C242.735 8.21724 242.81 8.24169 242.833 8.26162C242.878 8.29688 242.822 8.33847 242.696 8.36788C242.644 8.38026 242.573 8.37731 242.513 8.38202C242.267 8.39934 242.021 8.4182 241.775 8.43245C241.645 8.44036 241.522 8.46363 241.508 8.5205C241.497 8.55893 241.632 8.59249 241.759 8.58919C241.945 8.58426 242.131 8.57165 242.31 8.55136C242.627 8.51701 242.903 8.52575 243.162 8.62209C243.345 8.68937 243.334 8.66482 243.53 8.8642C243.579 8.91481 243.725 8.91916 243.852 8.91587C244.158 8.90766 244.3 8.93046 244.274 8.97813C244.241 9.03657 244.133 9.05518 243.995 9.0631C243.749 9.07582 243.503 9.09623 243.257 9.11356C243.198 9.11827 243.131 9.1276 243.075 9.12462C243.019 9.12165 242.966 9.10331 242.917 9.08956C242.813 9.06055 242.723 9.01615 242.61 9.00559C242.498 8.99503 242.368 9.0183 242.245 9.02773C242.122 9.03563 241.992 9.0589 241.88 9.04834C241.768 9.03778 241.674 8.99187 241.573 8.96439C241.524 8.95065 241.464 8.92923 241.416 8.93085C241.17 8.94357 240.924 8.96397 240.678 8.97977C240.376 9.00026 240.376 9.00026 240.009 8.90565C239.904 8.87818 239.796 8.87991 239.658 8.89244C239.36 8.91754 239.356 8.91292 238.81 8.82476C238.758 8.81563 238.694 8.80499 238.642 8.80969C238.087 8.84599 237.535 8.88536 236.983 8.92319C236.51 8.95627 236.51 8.95628 236.251 9.11037C236.058 9.22439 236.054 9.22439 236.245 9.27629C236.399 9.31904 236.538 9.38179 236.706 9.40454C236.863 9.42578 237.056 9.35631 237.228 9.42668C237.315 9.46187 237.427 9.50008 237.535 9.50604C237.707 9.51342 237.889 9.46855 238.054 9.53586C238.137 9.56952 238.26 9.60465 238.365 9.606C238.548 9.60876 238.734 9.58384 238.916 9.57277C238.972 9.5696 239.036 9.56949 239.088 9.57709C239.144 9.58621 239.193 9.60456 239.242 9.61984C239.391 9.67182 239.552 9.69611 239.746 9.66966C240.062 9.62609 240.346 9.64711 240.594 9.745C240.627 9.75877 240.71 9.76017 240.762 9.75394C240.896 9.73834 241.011 9.7366 241.112 9.76561C241.154 9.77783 241.214 9.79923 241.206 9.81306C241.195 9.83613 241.151 9.86694 241.103 9.8747C240.753 9.92755 240.376 9.93435 240.014 9.96264C239.966 9.96579 239.906 9.94591 239.857 9.93217C239.752 9.9047 239.662 9.85878 239.55 9.84822C239.438 9.83766 239.308 9.85785 239.185 9.86575C239.062 9.87364 238.932 9.89692 238.82 9.88789C238.707 9.87733 238.603 9.8391 238.513 9.80546C238.408 9.76723 238.307 9.76281 238.169 9.77841C237.99 9.7987 237.804 9.80209 237.621 9.81316C237.52 9.78414 237.419 9.75204 237.314 9.72457C237.265 9.71083 237.205 9.69404 237.153 9.69567C236.907 9.70839 236.661 9.72724 236.415 9.74457C236.169 9.7619 236.169 9.76191 235.75 9.66739C235.701 9.65672 235.638 9.64454 235.586 9.6477C235.276 9.66667 234.971 9.69023 234.661 9.70921C234.542 9.7171 234.433 9.69578 234.336 9.65447C234.242 9.61315 234.13 9.5903 234.014 9.59818C233.522 9.6313 233.03 9.66288 232.538 9.70215C232.341 9.71785 232.173 9.70432 232.038 9.64925C231.88 9.58653 231.705 9.6022 231.522 9.61481C231.109 9.64626 231.105 9.64472 230.839 9.56683C230.787 9.55155 230.734 9.52245 230.686 9.52407C230.257 9.54786 229.824 9.57012 229.4 9.60773C229.176 9.62809 229.056 9.57453 228.906 9.53485C228.854 9.52111 228.797 9.49202 228.753 9.49517C228.443 9.51261 228.134 9.52851 227.832 9.55976C227.53 9.59101 227.413 9.44834 227.185 9.45028C226.876 9.45235 226.57 9.48822 226.264 9.51026C226.018 9.52758 225.772 9.5449 225.526 9.56223C225.28 9.57956 225.034 9.5938 224.788 9.6142C224.658 9.62518 224.561 9.61152 224.452 9.5733C224.313 9.52285 224.149 9.4832 223.999 9.43737C223.771 9.37171 223.771 9.3717 223.495 9.39061C223.435 9.39533 223.372 9.3985 223.312 9.40322C222.861 9.4378 222.861 9.43474 222.285 9.33895C222.259 9.33438 222.192 9.3514 222.166 9.36374C222.088 9.40382 222.018 9.44695 221.948 9.48855C221.847 9.46415 221.723 9.45054 221.656 9.41532C221.464 9.31579 221.167 9.45304 220.972 9.35505C220.901 9.3183 220.777 9.28625 220.665 9.27723C220.55 9.26821 220.419 9.28995 220.3 9.29937C219.991 9.32295 219.991 9.32142 219.727 9.45861C219.594 9.52644 219.4 9.51448 219.225 9.53015C219.042 9.54737 218.867 9.55689 218.713 9.49417C218.574 9.43757 218.406 9.42404 218.209 9.44282C217.967 9.46628 217.717 9.48054 217.471 9.49479C217.419 9.49795 217.355 9.49039 217.303 9.48126C216.731 9.39161 216.731 9.39008 216.455 9.41053C216.332 9.41996 216.205 9.42324 216.086 9.43728C215.885 9.46221 215.731 9.43021 215.585 9.3813C215.537 9.36602 215.48 9.33694 215.432 9.33857C215.186 9.34667 214.943 9.36092 214.701 9.37517C214.515 9.38624 214.328 9.39271 214.149 9.41453C213.851 9.45039 213.704 9.35077 213.499 9.30503C213.193 9.32554 212.884 9.3399 212.578 9.36809C212.436 9.38063 212.343 9.37619 212.234 9.3395C212.096 9.29365 211.968 9.24164 211.745 9.26508C211.447 9.29632 211.133 9.30762 210.828 9.32659C210.622 9.27932 210.472 9.18278 210.177 9.21863C209.998 9.24044 209.808 9.24538 209.626 9.25799C209.38 9.27532 209.134 9.29112 208.888 9.30998C208.623 9.32888 208.627 9.32426 208.219 9.23433C207.983 9.18097 207.741 9.2413 207.503 9.25093C207.316 9.25894 207.224 9.32977 207.27 9.42033C207.316 9.51089 207.216 9.58174 207.044 9.59433C206.616 9.62426 206.183 9.65573 205.754 9.68259C205.702 9.68576 205.639 9.67511 205.59 9.66444C205.13 9.56845 205.13 9.57 204.925 9.58419C204.619 9.60776 204.306 9.62058 204.004 9.6503C203.796 9.67063 203.642 9.63865 203.507 9.58665C203.402 9.54689 203.305 9.53784 203.171 9.54729C201.695 9.65278 200.219 9.7506 198.746 9.85916C198.526 9.87491 198.399 9.83058 198.249 9.78936C198.197 9.77562 198.148 9.74651 198.096 9.7466C197.973 9.74682 197.85 9.76086 197.727 9.77029C197.175 9.80812 196.623 9.85363 196.068 9.88225C195.833 9.89495 195.77 9.96573 195.67 10.0243C195.593 10.069 195.503 10.0876 195.365 10.0939C195.231 10.1003 195.134 10.0928 195.029 10.053C194.894 10.001 194.741 9.96904 194.532 9.99091C194.29 10.0159 194.044 10.0271 193.794 10.0444C193.667 10.0523 193.571 10.0802 193.53 10.1355C193.523 10.1448 193.602 10.1677 193.646 10.1814C193.796 10.2273 193.939 10.2808 194.107 10.3128C194.279 10.3447 194.465 10.3075 194.644 10.298C194.707 10.2948 194.767 10.2855 194.827 10.2869C194.883 10.2884 194.95 10.2959 194.991 10.3097C195.186 10.3785 195.392 10.4257 195.66 10.3838C195.891 10.4034 196.012 10.5307 196.307 10.4964C196.486 10.4761 196.672 10.4665 196.858 10.4585C196.907 10.4569 196.959 10.4845 197.012 10.4982C197.162 10.5364 197.282 10.5976 197.505 10.5711C197.744 10.543 197.997 10.538 198.24 10.5161C198.374 10.5035 198.471 10.5141 198.576 10.5539C198.711 10.6043 198.864 10.6425 199.073 10.6175C199.252 10.5957 199.442 10.5908 199.624 10.5766C199.863 10.5593 199.863 10.5609 200.289 10.6554C200.338 10.666 200.402 10.6782 200.454 10.6751C200.763 10.6561 201.069 10.6325 201.378 10.6135C201.498 10.6056 201.614 10.6254 201.696 10.6698C201.73 10.6882 201.719 10.719 201.731 10.7451C201.115 10.7876 200.5 10.824 199.889 10.8758C199.658 10.8961 199.553 10.8333 199.399 10.7983C199.347 10.7861 199.291 10.76 199.242 10.7632C198.81 10.7901 198.381 10.8185 197.953 10.853C197.818 10.864 197.718 10.858 197.616 10.8136C197.357 10.6958 197.045 10.7609 196.754 10.7783C196.53 10.7909 196.46 10.8387 196.487 10.9401C196.522 11.0598 196.657 11.0965 197 11.0744C197.123 11.0665 197.246 11.0555 197.369 11.0491C197.489 11.0428 197.597 11.0626 197.695 11.1039C197.788 11.1452 197.9 11.1665 198.016 11.1602C198.262 11.1459 198.512 11.1317 198.75 11.1082C198.948 11.0894 199.112 11.1045 199.251 11.1611C199.405 11.2238 199.584 11.2097 199.763 11.1955C200.18 11.1641 200.184 11.1656 200.446 11.242C200.498 11.2573 200.551 11.2864 200.599 11.2847C201.028 11.2609 201.461 11.2402 201.882 11.2026C202.102 11.1838 202.229 11.2327 202.375 11.2724C202.427 11.2862 202.48 11.3168 202.528 11.3136C202.838 11.2962 203.147 11.2788 203.449 11.2491C203.591 11.235 203.677 11.244 203.793 11.2807C204.07 11.3709 204.077 11.3678 204.469 11.3379C204.588 11.3285 204.718 11.3114 204.83 11.3235C204.943 11.3356 205.033 11.38 205.137 11.4074C205.186 11.4196 205.246 11.4364 205.298 11.4333C205.544 11.4205 205.79 11.4017 206.036 11.3844C206.267 11.3671 206.267 11.3686 206.701 11.4631C206.877 11.5027 207.06 11.4686 207.235 11.456C207.425 11.4419 207.596 11.4416 207.743 11.5012C207.889 11.5609 208.064 11.5575 208.251 11.5449C208.426 11.5323 208.604 11.4982 208.784 11.5394C209.196 11.6339 209.196 11.6354 209.449 11.6166C209.818 11.5898 210.183 11.5646 210.556 11.5409C210.605 11.5377 210.668 11.5561 210.717 11.5683C210.822 11.5958 210.912 11.6417 211.024 11.6522C211.136 11.6643 211.266 11.6457 211.386 11.6362C211.77 11.6064 211.796 11.5956 212.054 11.6965C212.272 11.7791 212.539 11.6588 212.741 11.7537C212.858 11.8073 213.015 11.85 213.231 11.8235C213.41 11.8017 213.596 11.7953 213.783 11.7826C214.077 11.7622 214.077 11.7637 214.451 11.8552C214.5 11.8674 214.564 11.8827 214.612 11.8795C214.858 11.8668 215.108 11.8556 215.346 11.8276C215.626 11.7948 215.806 11.8529 216.015 11.9094C216.18 11.9536 216.373 11.9164 216.549 11.9008C216.739 11.8851 216.91 11.8894 217.053 11.949C217.203 12.0102 217.378 12.0022 217.564 11.9896C217.74 11.9786 217.918 11.9429 218.098 11.9856C218.483 12.0802 218.483 12.0802 218.763 12.0613C219.009 12.044 219.255 12.0251 219.501 12.0124C219.549 12.0092 219.609 12.0291 219.658 12.0428C219.763 12.0703 219.853 12.1162 219.965 12.1268C220.077 12.1374 220.207 12.1172 220.33 12.1093C220.453 12.1014 220.584 12.0781 220.696 12.0871C220.808 12.0962 220.913 12.1344 221.003 12.168C221.108 12.2078 221.205 12.2122 221.346 12.1966C221.525 12.1763 221.712 12.1714 221.894 12.1603C221.995 12.1893 222.1 12.2183 222.198 12.2504C222.299 12.2841 222.407 12.2808 222.545 12.2698C223.003 12.2321 223.007 12.2367 223.392 12.3313C223.568 12.374 223.751 12.3384 223.926 12.3273C224.112 12.3147 224.288 12.3083 224.434 12.3695C224.576 12.4276 224.752 12.435 224.938 12.4162C225.057 12.4037 225.184 12.3958 225.307 12.391C225.363 12.3894 225.43 12.3954 225.471 12.4076C225.67 12.4718 225.865 12.5298 226.137 12.4879C226.375 12.4998 226.496 12.6255 226.783 12.6005C227.026 12.5785 227.279 12.5735 227.518 12.5454C227.737 12.5204 227.895 12.5632 228.007 12.6168C228.21 12.7117 228.492 12.5821 228.694 12.6755C228.811 12.7291 228.96 12.7718 229.184 12.7484C229.43 12.7234 229.509 12.7555 229.581 12.8521C229.622 12.9074 229.616 12.952 229.542 12.9951C229.467 13.0398 229.385 13.0323 229.265 12.9818C229.127 12.9252 228.962 12.9147 228.765 12.9273C228.571 12.9399 228.45 12.8603 228.29 12.8298C228.129 12.7978 227.939 12.8519 227.771 12.8108C227.374 12.7147 227.374 12.7146 227.106 12.7336C226.923 12.7462 226.733 12.7526 226.554 12.7745C226.342 12.8009 226.203 12.7536 226.057 12.7108C226.005 12.6955 225.952 12.6664 225.907 12.668C225.479 12.6918 225.046 12.7141 224.621 12.7532C224.398 12.7736 224.278 12.7185 224.128 12.6803C224.076 12.6666 224.019 12.6391 223.974 12.6422C223.605 12.6643 223.24 12.6926 222.871 12.7194C222.801 12.761 222.723 12.8011 222.656 12.8457C222.586 12.892 222.489 12.9121 222.347 12.9108C222.112 12.9112 221.882 12.9761 221.646 12.8951C221.402 12.8126 221.384 12.8172 221.149 12.8376C220.851 12.8642 220.534 12.8587 220.254 12.9191C220.206 12.9299 220.154 12.9592 220.155 12.9807C220.151 12.9945 220.23 13.0143 220.278 13.0266C220.443 13.0631 220.632 13.009 220.797 13.0472C220.905 13.0716 220.996 13.1083 221.104 13.1342C221.149 13.1449 221.216 13.1432 221.276 13.1416C221.339 13.1399 221.399 13.1291 221.458 13.1305C221.514 13.132 221.574 13.1411 221.619 13.1548C221.825 13.2128 222.042 13.2662 222.226 13.335C222.406 13.4023 222.573 13.356 222.752 13.3526C223.47 13.4589 223.47 13.4604 223.95 13.4258C224.07 13.4179 224.193 13.4085 224.316 13.4098C224.368 13.4097 224.417 13.4372 224.469 13.4525C224.619 13.4983 224.761 13.5396 224.97 13.5146C225.149 13.4928 225.339 13.4879 225.522 13.4737C225.768 13.4564 225.768 13.4564 226.187 13.5525C226.292 13.5769 226.403 13.5736 226.538 13.5611C226.653 13.5501 226.773 13.573 226.855 13.6174C226.889 13.6358 226.878 13.6665 226.89 13.6926C226.521 13.7178 226.148 13.7354 225.79 13.7729C225.559 13.7963 225.454 13.7304 225.301 13.6954C225.248 13.6832 225.192 13.6571 225.143 13.6603C224.778 13.684 224.413 13.7107 224.048 13.7421C224.003 13.7452 223.947 13.7807 223.944 13.8022C223.937 13.8421 224.031 13.8804 224.165 13.8786C224.344 13.8768 224.519 13.8503 224.68 13.913C224.815 13.9681 224.983 13.9924 225.181 13.9675C225.3 13.9535 225.427 13.9532 225.546 13.9407C225.863 13.9033 226.15 13.9105 226.39 14.0146C226.573 14.0419 226.752 14.0155 226.927 14.0013C227.058 13.9904 227.184 13.9794 227.278 14.0084C227.476 14.0695 227.671 14.1306 227.943 14.0887C228.238 14.1312 228.463 14.2214 228.71 14.2947C228.827 14.3299 228.916 14.3497 229.05 14.3264C229.106 14.3171 229.173 14.317 229.233 14.3123C229.356 14.3044 229.486 14.2811 229.598 14.2901C229.71 14.3007 229.804 14.3451 229.905 14.3726C229.954 14.3863 230.01 14.4092 230.059 14.4076C230.245 14.3996 230.428 14.3839 230.61 14.3713C230.793 14.3603 230.976 14.3492 231.158 14.3381C231.312 14.3778 231.469 14.4175 231.622 14.4572C231.868 14.4398 232.114 14.4225 232.357 14.4067C232.629 14.3878 232.629 14.3893 233.022 14.4839C233.198 14.5266 233.384 14.4986 233.552 14.4784C233.831 14.4456 234.018 14.5037 234.217 14.5648C234.258 14.577 234.333 14.5846 234.381 14.5783C234.575 14.5565 234.743 14.5731 234.885 14.6297C234.986 14.6695 235.087 14.6877 235.21 14.6798C235.639 14.6499 236.068 14.6184 236.496 14.5916C236.549 14.5884 236.609 14.6021 236.657 14.6143C237.039 14.7074 237.043 14.712 237.322 14.6869C237.572 14.665 237.803 14.6553 238.002 14.7395C238.043 14.7579 238.107 14.7839 238.152 14.7823C238.457 14.7664 238.767 14.7489 239.069 14.7223C239.207 14.7098 239.304 14.7142 239.412 14.7494C239.551 14.7937 239.675 14.8472 239.902 14.8269C240.532 14.7689 240.536 14.7781 241.283 14.8828C241.335 14.8904 241.406 14.878 241.466 14.8718C241.592 14.8562 241.686 14.8775 241.798 14.9127C242.049 14.9921 242.057 14.9875 242.295 14.9702C242.478 14.956 242.668 14.9526 242.847 14.9293C243.122 14.895 243.306 14.9546 243.512 15.0111C243.677 15.0554 243.866 15.0182 244.041 15.004C244.232 14.9883 244.403 14.9926 244.546 15.0508C244.643 15.0905 244.748 15.1119 244.871 15.104C245.3 15.0756 245.728 15.0441 246.157 15.0157C246.209 15.0125 246.273 15.0247 246.321 15.0354C246.748 15.1299 246.748 15.1345 247.169 15.0985C247.303 15.0875 247.415 15.0842 247.516 15.1163C247.614 15.1468 247.718 15.1758 247.82 15.2049C248.002 15.1938 248.189 15.1904 248.368 15.1717C248.505 15.1576 248.603 15.1636 248.711 15.1956C248.853 15.2369 248.974 15.3089 249.197 15.2731C249.313 15.256 249.447 15.2604 249.562 15.2449C249.7 15.2246 249.794 15.2368 249.902 15.2765C250.037 15.3239 250.176 15.3728 250.392 15.3479C250.63 15.3198 250.884 15.3148 251.126 15.2928C251.26 15.2803 251.354 15.2924 251.462 15.3322C251.597 15.3827 251.751 15.4147 251.959 15.3943C252.384 15.3552 252.388 15.3628 252.803 15.4589C252.908 15.4833 253.02 15.4801 253.154 15.4675C253.27 15.4566 253.389 15.4794 253.472 15.5238C253.551 15.5728 253.544 15.6036 253.552 15.6297ZM220.138 1.83155C220.015 1.83945 219.892 1.84888 219.711 1.71553C219.7 1.6925 219.707 1.66484 219.681 1.64492C219.621 1.60354 219.527 1.57451 219.415 1.5701C219.213 1.5643 218.972 1.61695 218.976 1.65689C218.98 1.69068 219.044 1.71975 219.167 1.74719C219.219 1.75786 219.261 1.77622 219.309 1.78843C219.452 1.82352 219.564 1.89247 219.769 1.85678C219.731 1.76159 219.75 1.80918 219.769 1.85678C219.751 1.91519 219.808 1.95657 219.942 1.97324C219.98 1.97778 220.035 1.97461 220.065 1.96534C220.18 1.93134 220.199 1.88523 220.111 1.76401C220.097 1.78401 220.108 1.81931 220.142 1.82847C220.176 1.83763 220.258 1.82981 220.298 1.81899C220.403 1.78962 220.454 1.75111 220.428 1.7189C220.413 1.70202 220.342 1.68064 220.297 1.68072C220.218 1.68085 220.148 1.71477 220.138 1.83155ZM250.522 19.5956C250.25 19.6253 249.936 19.6151 249.665 19.6755C249.616 19.6863 249.568 19.714 249.565 19.7355C249.561 19.7494 249.636 19.7692 249.681 19.7799C249.782 19.8043 249.894 19.7964 250.024 19.7885C250.222 19.7774 250.338 19.8479 250.492 19.883C250.54 19.8936 250.604 19.9012 250.656 19.898C250.958 19.8791 251.256 19.8586 251.558 19.8366C251.61 19.8319 251.666 19.821 251.711 19.8071C251.86 19.7623 251.844 19.7331 251.698 19.6996C251.538 19.663 251.41 19.6017 251.245 19.5728C251.01 19.5318 250.772 19.5875 250.522 19.5956ZM229.349 20.7539C229.166 20.7665 228.987 20.7791 228.804 20.7917C228.745 20.7964 228.681 20.7981 228.625 20.8043C228.51 20.8153 228.425 20.8477 228.369 20.8985C228.455 20.9383 228.56 20.9611 228.676 20.9563C228.859 20.9468 229.037 20.9265 229.22 20.9216C229.418 20.9151 229.534 20.984 229.688 21.0191C229.736 21.0298 229.796 21.0312 229.852 21.0326C230.128 21.0383 230.295 20.9581 230.241 20.8461C230.203 20.7586 230.061 20.7066 229.889 20.7176C229.71 20.7287 229.528 20.7413 229.349 20.7539ZM251.77 17.3227C251.815 17.2965 251.863 17.278 251.885 17.255C251.951 17.1765 251.924 17.1181 251.8 17.0569C251.65 16.9819 251.468 17.0329 251.3 17.0409C251.259 17.0425 251.215 17.0748 251.193 17.0948C251.178 17.1087 251.178 17.1379 251.201 17.1455C251.384 17.2067 251.579 17.2632 251.77 17.3227ZM219.351 12.8407C219.172 12.8533 218.989 12.8629 218.81 12.8801C218.766 12.8848 218.725 12.914 218.699 12.934C218.651 12.971 218.704 13.0216 218.857 13.0259C219.032 13.0318 219.215 13.0054 219.397 12.9927C219.628 12.977 219.766 12.9199 219.679 12.8709C219.597 12.8234 219.485 12.8144 219.351 12.8407ZM22.9278 9.89872C23.0471 9.89083 23.1701 9.88447 23.2894 9.87351C23.4012 9.86256 23.4866 9.82861 23.542 9.77782C23.4482 9.73803 23.3435 9.71671 23.2279 9.72152C23.0452 9.73105 22.8663 9.74365 22.6874 9.75933C22.5756 9.76874 22.4678 9.80272 22.4424 9.855C22.4167 9.89499 22.6669 9.91761 22.9278 9.89872ZM203.531 9.34847C203.579 9.36221 203.628 9.38978 203.676 9.3897C203.796 9.38949 203.919 9.38006 204.031 9.3645C204.079 9.35827 204.116 9.33055 204.138 9.30901C204.153 9.29515 204.149 9.27059 204.126 9.25833C204.017 9.18478 203.585 9.21165 203.515 9.29627C203.508 9.31164 203.527 9.33158 203.531 9.34847ZM191.658 0.956138C191.669 0.980699 191.673 1.00527 191.688 1.02983C191.719 1.07586 191.801 1.10953 191.921 1.13236C192.014 1.09379 192.062 1.0507 192.057 1.00462C192.053 0.980042 192.042 0.955465 192.027 0.93091C191.996 0.884873 191.914 0.851229 191.794 0.828392C191.701 0.865425 191.657 0.908512 191.658 0.956138ZM260.436 20.9672C260.403 20.9873 260.37 21.0073 260.333 21.0258C260.434 21.0702 260.527 21.0838 260.598 21.0591C260.643 21.0437 260.668 21.0206 260.702 21.0006C260.601 20.9562 260.511 20.9441 260.436 20.9672ZM258.118 21.1802C258.167 21.1939 258.212 21.2123 258.265 21.2214C258.351 21.2367 258.429 21.2104 258.488 21.155C258.439 21.1412 258.394 21.1229 258.342 21.1137C258.256 21.0985 258.178 21.1248 258.118 21.1802ZM259.585 20.8965C259.559 20.9334 259.612 20.9641 259.75 20.9899C259.784 20.9699 259.828 20.9514 259.85 20.9299C259.887 20.8945 259.823 20.8623 259.689 20.838C259.652 20.8565 259.618 20.8765 259.585 20.8965ZM251.689 19.2541C251.664 19.291 251.716 19.3216 251.855 19.3475C251.888 19.3275 251.932 19.3089 251.955 19.2874C251.991 19.252 251.928 19.2198 251.793 19.1955C251.756 19.214 251.723 19.234 251.689 19.2541ZM240.827 8.40184C240.794 8.42187 240.761 8.44191 240.723 8.46041C240.825 8.50478 240.918 8.51844 240.989 8.49374C241.033 8.4783 241.059 8.45521 241.093 8.43518C240.991 8.3908 240.902 8.37867 240.827 8.40184ZM230.479 2.65242C230.568 2.66302 230.643 2.64139 230.706 2.58444C230.657 2.5707 230.612 2.55234 230.56 2.54321C230.474 2.52799 230.396 2.55426 230.337 2.60967C230.385 2.62495 230.434 2.63867 230.479 2.65242ZM225.016 2.30088C224.983 2.32091 224.95 2.34094 224.913 2.35944C225.014 2.40381 225.107 2.41747 225.178 2.39277C225.222 2.37733 225.248 2.35424 225.282 2.33421C225.18 2.28983 225.091 2.27924 225.016 2.30088ZM187.987 0.960975C187.953 0.981005 187.92 1.00104 187.883 1.01954C187.984 1.06391 188.077 1.07757 188.148 1.05287C188.193 1.03743 188.218 1.01434 188.252 0.994309C188.151 0.949932 188.061 0.939338 187.987 0.960975ZM3.84338 13.7804C3.79471 13.7666 3.74608 13.7529 3.70113 13.7376C3.59344 13.7793 3.56034 13.8177 3.62039 13.8468C3.65792 13.8652 3.71397 13.8759 3.76264 13.8896C3.87406 13.8479 3.89971 13.811 3.84338 13.7804Z" fill="#B59F0E"/>
</svg>
